<?xml version="1.0" encoding="UTF-8" standalone="no"?>
<svg
   version="1.1"
   width="194.37077mm"
   height="161.61165mm"
   id="svg36"
   sodipodi:docname="ridge.svg"
   inkscape:version="1.4.2 (f4327f4, 2025-05-13)"
   xmlns:inkscape="http://www.inkscape.org/namespaces/inkscape"
   xmlns:sodipodi="http://sodipodi.sourceforge.net/DTD/sodipodi-0.dtd"
   xmlns="http://www.w3.org/2000/svg"
   xmlns:svg="http://www.w3.org/2000/svg">
  <sodipodi:namedview
     id="namedview36"
     pagecolor="#ffffff"
     bordercolor="#666666"
     borderopacity="1.0"
     inkscape:showpageshadow="2"
     inkscape:pageopacity="0.0"
     inkscape:pagecheckerboard="0"
     inkscape:deskcolor="#d1d1d1"
     inkscape:zoom="0.84804631"
     inkscape:cx="320.14761"
     inkscape:cy="303.04949"
     inkscape:window-width="1440"
     inkscape:window-height="830"
     inkscape:window-x="-6"
     inkscape:window-y="-6"
     inkscape:window-maximized="1"
     inkscape:current-layer="svg36"
     inkscape:document-units="mm" />
  <defs
     id="defs1">
    <clipPath
       id="zTcszurEEaar">
      <path
         fill="none"
         stroke="none"
         d="M 0,0 H 1289 V 691 H 0 Z"
         id="path1" />
    </clipPath>
    <clipPath
       clipPathUnits="userSpaceOnUse"
       id="clipPath36">
      <rect
         id="rect37"
         width="734.6297"
         height="610.81567"
         x="324.27475"
         y="42.450512" />
    </clipPath>
  </defs>
  <g
     clip-path="url(#zTcszurEEaar)"
     id="g36"
     transform="translate(-324.27475,-42.450512)">
    <g
       id="g35">
      <rect
         fill="#ffffff"
         stroke="none"
         x="0"
         y="0"
         width="1289"
         height="691"
         fill-opacity="1"
         id="rect1"
         clip-path="url(#clipPath36)" />
      <path
         fill="none"
         stroke="#252525"
         paint-order="fill stroke markers"
         d="m 547.5,2.5 v 689"
         stroke-opacity="1"
         stroke-miterlimit="10"
         id="path2" />
      <path
         fill="none"
         stroke="#252525"
         paint-order="fill stroke markers"
         d="m 547.5,1.5 -4,4"
         stroke-opacity="1"
         stroke-miterlimit="10"
         id="path3" />
      <path
         fill="none"
         stroke="#252525"
         paint-order="fill stroke markers"
         d="m 547.5,1.5 4,4"
         stroke-opacity="1"
         stroke-miterlimit="10"
         id="path4" />
      <path
         fill="none"
         stroke="#252525"
         paint-order="fill stroke markers"
         d="m 0.5,453.5 h 1287"
         stroke-opacity="1"
         stroke-miterlimit="10"
         id="path5" />
      <path
         fill="none"
         stroke="#252525"
         paint-order="fill stroke markers"
         d="m 1288.5,453.5 -4,-4"
         stroke-opacity="1"
         stroke-miterlimit="10"
         id="path6" />
      <path
         fill="none"
         stroke="#252525"
         paint-order="fill stroke markers"
         d="m 1288.5,453.5 -4,4"
         stroke-opacity="1"
         stroke-miterlimit="10"
         id="path7" />
      <path
         fill="none"
         stroke="#000000"
         paint-order="fill stroke markers"
         d="m 875.16874,198.1732 c -9.4784,-18.58872 -51.52762,-16.13489 -93.91954,5.4808 -42.39192,21.61568 -69.0736,54.20779 -59.59519,72.79652 9.47841,18.58872 51.52762,16.13488 93.91954,-5.4808 42.39193,-21.61568 69.0736,-54.2078 59.59519,-72.79652 z"
         stroke-opacity="0.698039"
         stroke-linejoin="round"
         stroke-miterlimit="10"
         stroke-width="2.5"
         stroke-dasharray="2.5, 3"
         id="path8" />
      <path
         fill="none"
         stroke="#000000"
         paint-order="fill stroke markers"
         d="M 960.52571,146.48907 C 937.49817,106.8779 847.30597,116.34683 759.07582,167.63853 670.84566,218.93022 617.9885,292.62156 641.01604,332.23273 c 23.02755,39.61117 113.21974,30.14223 201.4499,-21.14946 88.23016,-51.2917 141.08732,-124.98303 118.05977,-164.5942 z"
         stroke-opacity="0.698039"
         stroke-linejoin="round"
         stroke-miterlimit="10"
         stroke-width="2.5"
         stroke-dasharray="2.5, 3"
         id="path9" />
      <path
         fill="none"
         stroke="#000000"
         paint-order="fill stroke markers"
         d="M 1007.3712,101.26989 C 968.24535,44.044316 843.41791,61.314046 728.56129,139.84291 613.70467,218.37178 552.31272,328.4225 591.43854,385.64807 630.56435,442.87364 755.39179,425.60391 870.24841,347.07505 985.10503,268.54618 1046.497,158.49546 1007.3712,101.26989 Z"
         stroke-opacity="0.698039"
         stroke-linejoin="round"
         stroke-miterlimit="10"
         stroke-width="2.5"
         stroke-dasharray="2.5, 3"
         id="path10" />
      <path
         fill="#000000"
         stroke="none"
         paint-order="stroke fill markers"
         d="m 718.4988,453.14411 c 0,94.30448 -76.44888,170.75336 -170.75336,170.75336 -94.30448,0 -170.75337,-76.44888 -170.75337,-170.75336 0,-94.30448 76.44889,-170.75336 170.75337,-170.75336 94.30448,0 170.75336,76.44888 170.75336,170.75336 z"
         fill-opacity="0.0666667"
         id="path11" />
      <path
         fill="none"
         stroke="#000000"
         paint-order="fill stroke markers"
         d="m 718.4988,453.14411 c 0,94.30448 -76.44888,170.75336 -170.75336,170.75336 -94.30448,0 -170.75337,-76.44888 -170.75337,-170.75336 0,-94.30448 76.44889,-170.75336 170.75337,-170.75336 94.30448,0 170.75336,76.44888 170.75336,170.75336 z"
         stroke-opacity="0.698039"
         stroke-linecap="round"
         stroke-linejoin="round"
         stroke-miterlimit="10"
         stroke-width="2.5"
         id="path12" />
      <path
         fill="#993300"
         stroke="none"
         paint-order="stroke fill markers"
         d="m 785.65303,234.92131 c 0,2.76142 -2.23858,5 -5,5 -2.76143,0 -5,-2.23858 -5,-5 0,-2.76142 2.23857,-5 5,-5 2.76142,0 5,2.23858 5,5 z"
         fill-opacity="1"
         id="path13" />
      <path
         fill="none"
         stroke="#000000"
         paint-order="fill stroke markers"
         d="m 785.65303,234.92131 c 0,2.76142 -2.23858,5 -5,5 -2.76143,0 -5,-2.23858 -5,-5 0,-2.76142 2.23857,-5 5,-5 2.76142,0 5,2.23858 5,5 z"
         stroke-opacity="1"
         stroke-linecap="round"
         stroke-linejoin="round"
         stroke-miterlimit="10"
         id="path14" />
      <path
         fill="#006400"
         stroke="none"
         paint-order="stroke fill markers"
         d="m 678.83288,336.91225 c 0,3.31371 -2.6863,6 -6,6 -3.31371,0 -6,-2.68629 -6,-6 0,-3.3137 2.68629,-6 6,-6 3.3137,0 6,2.6863 6,6 z"
         fill-opacity="1"
         id="path15" />
      <path
         fill="none"
         stroke="#000000"
         paint-order="fill stroke markers"
         d="m 678.83288,336.91225 c 0,3.31371 -2.6863,6 -6,6 -3.31371,0 -6,-2.68629 -6,-6 0,-3.3137 2.68629,-6 6,-6 3.3137,0 6,2.6863 6,6 z"
         stroke-opacity="1"
         stroke-linecap="round"
         stroke-linejoin="round"
         stroke-miterlimit="10"
         id="path16" />
      <g
         transform="scale(35)"
         id="g23">
        <g
           transform="translate(22.647,6.7869658)"
           id="g17">
          <path
             fill="#993300"
             stroke="none"
             paint-order="stroke fill markers"
             d="M 0.25,-0.694 0.383,-0.558 0.365,-0.54 0.25,-0.642 0.134,-0.54 0.116,-0.558 Z"
             id="path17" />
        </g>
        <g
           transform="translate(22.6,7.0499658)"
           id="g18">
          <path
             fill="#993300"
             stroke="none"
             paint-order="stroke fill markers"
             d="m 0.547,-0.49 q 0,0.071 -0.027,0.1725 Q 0.493,-0.216 0.436,-0.133 0.388,-0.061 0.3275,-0.0265 0.267,0.008 0.212,0.008 0.14,0.008 0.093,-0.0455 0.046,-0.099 0.046,-0.203 0.046,-0.267 0.0685,-0.3565 0.091,-0.446 0.128,-0.514 0.181,-0.61 0.249,-0.656 q 0.068,-0.046 0.133,-0.046 0.026,0 0.052,0.009 0.026,0.009 0.053,0.0305 0.027,0.0215 0.0435,0.066 Q 0.547,-0.552 0.547,-0.49 m -0.349,0.119 h 0.209 q 0.033,-0.126 0.033,-0.192 0,-0.103 -0.06,-0.103 -0.059,0 -0.112,0.094 -0.037,0.064 -0.07,0.201 m 0.197,0.048 H 0.186 q -0.033,0.129 -0.033,0.193 0,0.04 0.012,0.067 0.016,0.035 0.049,0.035 0.013,0 0.0265,-0.0045 Q 0.254,-0.037 0.275,-0.055 0.296,-0.073 0.315,-0.103 0.334,-0.133 0.3555,-0.19 0.377,-0.247 0.395,-0.323 Z"
             id="path18" />
        </g>
        <g
           transform="matrix(0.7,0,0,0.7,23.194,6.3632414)"
           id="g22">
          <g
             transform="scale(0.7)"
             id="g19">
            <path
               fill="#993300"
               stroke="none"
               paint-order="stroke fill markers"
               d="m 0.721,-0.339 q 0,0.149 -0.097,0.255 -0.092,0.1 -0.223,0.106 H 0.388 q -0.129,0 -0.225,-0.096 -0.101,-0.1 -0.107,-0.249 v -0.016 q 0,-0.152 0.098,-0.259 0.092,-0.101 0.22,-0.107 h 0.014 q 0.131,0 0.228,0.099 0.099,0.102 0.105,0.25 v 0.017 m -0.332,0.335 v 0 q 0.083,0 0.145,-0.071 0.084,-0.095 0.084,-0.278 0,-0.21 -0.12,-0.291 -0.052,-0.036 -0.11,-0.036 -0.08,0 -0.143,0.063 v 0.001 q -0.086,0.088 -0.086,0.263 0,0.216 0.113,0.306 0.054,0.043 0.117,0.043 z"
               id="path19" />
          </g>
          <g
             transform="matrix(0.7,0,0,0.7,0.5446,0)"
             id="g20">
            <path
               fill="#993300"
               stroke="none"
               paint-order="stroke fill markers"
               d="M 0.582,-0.258 0.554,0 H 0.033 v -0.031 h 0.024 q 0.065,0 0.075,-0.017 0.004,-0.007 0.004,-0.03 v -0.527 q 0,-0.03 -0.012,-0.038 Q 0.11,-0.652 0.057,-0.652 H 0.033 v -0.031 q 0.035,0.003 0.152,0.003 0.132,0 0.168,-0.003 v 0.031 H 0.32 q -0.08,0 -0.091,0.02 -0.004,0.007 -0.004,0.028 v 0.533 q 0,0.03 0.011,0.035 h 0.001 q 0.009,0.005 0.037,0.005 h 0.082 q 0.141,0 0.18,-0.113 0.013,-0.037 0.021,-0.114 z"
               id="path20" />
          </g>
          <g
             transform="matrix(0.7,0,0,0.7,0.9821,0)"
             id="g21">
            <path
               fill="#993300"
               stroke="none"
               paint-order="stroke fill markers"
               d="m 0.349,-0.388 v 0 q 0.079,0.019 0.122,0.094 0.028,0.05 0.028,0.108 0,0.095 -0.066,0.157 -0.055,0.051 -0.131,0.051 -0.108,0 -0.174,-0.06 v 0 l -0.01,-0.01 Q 0.082,0.01 0.082,0.009 0.074,0.022 0.067,0.022 0.057,0.013 0.056,-0.002 v -0.2 q 0,-0.022 0.007,-0.024 v 0 l 0.001,-0.001 h 0.005 q 0.011,0 0.012,0.01 0.003,0.096 0.058,0.15 l 0.004,0.004 q 0.058,0.054 0.158,0.054 0.075,0 0.113,-0.066 0.021,-0.036 0.021,-0.077 0,-0.054 -0.031,-0.092 Q 0.377,-0.28 0.326,-0.293 L 0.325,-0.294 q 0,0.001 -0.006,-0.001 -0.124,-0.03 -0.132,-0.033 -0.079,-0.027 -0.114,-0.103 -0.017,-0.038 -0.017,-0.08 0,-0.091 0.069,-0.149 0.054,-0.045 0.126,-0.045 0.085,0 0.147,0.057 l 0.013,0.013 0.035,-0.057 q 0.007,-0.013 0.015,-0.013 0.01,0.009 0.011,0.024 v 0.201 q 0,0.021 -0.006,0.023 H 0.465 L 0.464,-0.456 H 0.459 q -0.01,0 -0.012,-0.012 -0.028,-0.207 -0.195,-0.209 -0.072,0 -0.11,0.058 l -0.001,0.001 q -0.021,0.033 -0.021,0.072 0,0.066 0.053,0.105 0.021,0.016 0.048,0.022 z"
               id="path21" />
          </g>
        </g>
      </g>
      <g
         transform="scale(35)"
         id="g25">
        <g
           transform="translate(11.771429,10.797286)"
           id="g24">
          <path
             fill="#000000"
             stroke="none"
             paint-order="stroke fill markers"
             d="m 0.677,-0.162 v 0 L 0.644,0 H 0.485 Q 0.463,0 0.46,-0.007 0.459,-0.011 0.459,-0.021 q 0,-0.069 0.047,-0.201 0.049,-0.138 0.055,-0.203 0.001,-0.015 0.001,-0.03 0,-0.132 -0.092,-0.194 -0.05,-0.034 -0.11,-0.034 -0.085,0 -0.144,0.063 v 0.001 q -0.057,0.062 -0.057,0.164 0,0.077 0.049,0.212 0.054,0.15 0.054,0.222 0,0.017 -0.007,0.02 v 0 H 0.254 Q 0.25,0 0.237,0 H 0.077 L 0.044,-0.162 h 0.025 q 0.01,0.052 0.018,0.074 0.005,0.015 0.018,0.019 0.013,0.004 0.048,0.004 h 0.08 Q 0.22,-0.12 0.159,-0.212 L 0.153,-0.222 Q 0.15,-0.226 0.144,-0.235 0.072,-0.343 0.06,-0.412 0.056,-0.433 0.056,-0.454 q 0,-0.104 0.089,-0.177 0.088,-0.074 0.216,-0.074 0.135,0 0.225,0.082 0.079,0.071 0.079,0.169 0,0.081 -0.07,0.192 v 0 L 0.594,-0.261 0.593,-0.26 0.577,-0.235 q -0.068,0.1 -0.084,0.152 -0.003,0.009 -0.005,0.018 h 0.08 q 0.055,0 0.063,-0.015 l 0.003,-0.009 q 0.008,-0.022 0.018,-0.073 z"
             id="path23" />
        </g>
      </g>
      <g
         transform="scale(35)"
         id="g34">
        <g
           transform="translate(19.275571,9.1466587)"
           id="g26">
          <path
             fill="#006400"
             stroke="none"
             paint-order="stroke fill markers"
             d="M 0.25,-0.694 0.383,-0.558 0.365,-0.54 0.25,-0.642 0.134,-0.54 0.116,-0.558 Z"
             id="path25" />
        </g>
        <g
           transform="translate(19.228571,9.4096587)"
           id="g27">
          <path
             fill="#006400"
             stroke="none"
             paint-order="stroke fill markers"
             d="m 0.547,-0.49 q 0,0.071 -0.027,0.1725 Q 0.493,-0.216 0.436,-0.133 0.388,-0.061 0.3275,-0.0265 0.267,0.008 0.212,0.008 0.14,0.008 0.093,-0.0455 0.046,-0.099 0.046,-0.203 0.046,-0.267 0.0685,-0.3565 0.091,-0.446 0.128,-0.514 0.181,-0.61 0.249,-0.656 q 0.068,-0.046 0.133,-0.046 0.026,0 0.052,0.009 0.026,0.009 0.053,0.0305 0.027,0.0215 0.0435,0.066 Q 0.547,-0.552 0.547,-0.49 m -0.349,0.119 h 0.209 q 0.033,-0.126 0.033,-0.192 0,-0.103 -0.06,-0.103 -0.059,0 -0.112,0.094 -0.037,0.064 -0.07,0.201 m 0.197,0.048 H 0.186 q -0.033,0.129 -0.033,0.193 0,0.04 0.012,0.067 0.016,0.035 0.049,0.035 0.013,0 0.0265,-0.0045 Q 0.254,-0.037 0.275,-0.055 0.296,-0.073 0.315,-0.103 0.334,-0.133 0.3555,-0.19 0.377,-0.247 0.395,-0.323 Z"
             id="path26" />
        </g>
        <g
           transform="matrix(0.9,0,0,0.9,19.822571,8.7229343)"
           id="g33">
          <g
             transform="scale(0.7)"
             id="g28">
            <path
               fill="#006400"
               stroke="none"
               paint-order="stroke fill markers"
               d="m 0.172,-0.078 q 0,0.031 0.012,0.038 v 0 l 0.001,0.001 q 0.014,0.008 0.063,0.008 H 0.269 V 0 Q 0.229,-0.003 0.142,-0.003 0.145,-0.003 0.028,0 v -0.031 q 0.059,0 0.069,-0.009 L 0.099,-0.042 Q 0.106,-0.05 0.106,-0.076 v -0.268 q 0,-0.039 -0.015,-0.048 Q 0.079,-0.399 0.048,-0.4 h -0.02 v -0.031 l 0.139,-0.011 v 0.11 q 0.027,-0.084 0.089,-0.105 0.016,-0.005 0.034,-0.005 0.047,0 0.067,0.035 0.007,0.012 0.007,0.026 0,0.035 -0.033,0.043 -0.005,0.001 -0.01,0.001 -0.031,0 -0.04,-0.027 -0.003,-0.007 -0.003,-0.016 0,-0.027 0.023,-0.039 Q 0.299,-0.42 0.29,-0.42 q -0.067,0 -0.099,0.082 -0.019,0.047 -0.019,0.106 z"
               id="path27" />
          </g>
          <g
             transform="matrix(0.7,0,0,0.7,0.2744,0)"
             id="g29">
            <path
               fill="#006400"
               stroke="none"
               paint-order="stroke fill markers"
               d="m 0.177,-0.442 v 0 0.367 q 0,0.031 0.012,0.038 v 0 q 0.012,0.006 0.058,0.006 V 0 Q 0.145,-0.003 0.143,-0.003 0.129,-0.003 0.033,0 v -0.031 q 0.059,0 0.069,-0.009 L 0.104,-0.042 Q 0.111,-0.05 0.111,-0.076 v -0.269 q 0,-0.04 -0.016,-0.048 H 0.094 v 0 L 0.093,-0.394 v 0 Q 0.08,-0.4 0.037,-0.4 v -0.031 l 0.14,-0.011 m 0.004,-0.174 q 0,0.037 -0.033,0.049 -0.01,0.004 -0.02,0.004 -0.035,0 -0.049,-0.032 v -0.001 q -0.004,-0.01 -0.004,-0.02 0,-0.031 0.028,-0.046 0.011,-0.007 0.025,-0.007 0.034,0 0.048,0.03 0.005,0.011 0.005,0.023 z"
               id="path28" />
          </g>
          <g
             transform="matrix(0.7,0,0,0.7,0.469,0)"
             id="g30">
            <path
               fill="#006400"
               stroke="none"
               paint-order="stroke fill markers"
               d="M 0.38,-0.055 Q 0.328,0.011 0.246,0.011 0.154,0.011 0.09,-0.062 0.034,-0.127 0.034,-0.215 q 0,-0.104 0.078,-0.172 0.063,-0.055 0.145,-0.055 0.076,0 0.126,0.062 v -0.216 q 0,-0.039 -0.014,-0.048 H 0.368 Q 0.355,-0.652 0.305,-0.652 v -0.031 l 0.144,-0.011 v 0.607 q 0,0.039 0.015,0.048 h 0.001 q 0.014,0.008 0.062,0.008 V 0 L 0.38,0.011 v -0.066 m 0,-0.268 q 0,-0.02 -0.009,-0.033 L 0.369,-0.36 q -0.041,-0.06 -0.108,-0.06 -0.07,0 -0.113,0.064 -0.031,0.048 -0.031,0.142 0,0.093 0.029,0.139 0.04,0.064 0.105,0.064 0.072,0 0.116,-0.066 L 0.369,-0.081 Q 0.38,-0.102 0.38,-0.118 Z"
               id="path29" />
          </g>
          <g
             transform="matrix(0.7,0,0,0.7,0.8582,0)"
             id="g31">
            <path
               fill="#006400"
               stroke="none"
               paint-order="stroke fill markers"
               d="m 0.222,-0.172 q 0.044,0 0.071,-0.04 0.016,-0.027 0.016,-0.084 -0.004,-0.12 -0.087,-0.123 -0.044,0 -0.071,0.04 -0.016,0.027 -0.016,0.084 0.004,0.12 0.087,0.123 M 0.123,-0.18 q -0.017,0.02 -0.017,0.047 0,0.041 0.032,0.06 0.01,0.006 0.021,0.007 0.007,0.001 0.075,0.001 0.103,0 0.15,0.018 0.011,0.004 0.022,0.01 0.061,0.04 0.065,0.114 0,0.065 -0.084,0.102 -0.06,0.027 -0.138,0.027 -0.116,0 -0.181,-0.054 -0.04,-0.032 -0.04,-0.073 0,-0.05 0.051,-0.082 0.018,-0.012 0.041,-0.018 -0.041,-0.032 -0.044,-0.089 0,-0.047 0.031,-0.083 -0.045,-0.043 -0.047,-0.103 0,-0.069 0.06,-0.113 0.044,-0.033 0.102,-0.033 0.06,0 0.106,0.036 0.048,-0.047 0.106,-0.047 0.039,0 0.049,0.036 0.002,0.006 0.002,0.013 -0.004,0.026 -0.029,0.03 -0.022,0 -0.028,-0.021 -0.001,-0.004 -0.001,-0.008 0,-0.021 0.016,-0.027 -0.003,-0.001 -0.01,-0.001 -0.049,0 -0.09,0.039 0.041,0.038 0.041,0.097 0,0.069 -0.06,0.113 -0.044,0.033 -0.102,0.033 -0.056,0 -0.099,-0.031 M 0.25,0.183 v 0 q 0.095,0 0.144,-0.05 0.025,-0.025 0.025,-0.054 0,-0.074 -0.118,-0.084 v 0 H 0.3 Q 0.274,-0.007 0.221,-0.007 H 0.162 Q 0.115,-0.004 0.091,0.038 0.08,0.057 0.08,0.079 q 0,0.047 0.058,0.078 0.047,0.026 0.112,0.026 z"
               id="path30" />
          </g>
          <g
             transform="matrix(0.7,0,0,0.7,1.2082,0)"
             id="g32">
            <path
               fill="#006400"
               stroke="none"
               paint-order="stroke fill markers"
               d="m 0.39,-0.231 v 0 H 0.111 q 0,0.102 0.03,0.15 0.048,0.062 0.113,0.067 0.069,0 0.111,-0.056 0.015,-0.02 0.024,-0.047 0.003,-0.014 0.013,-0.014 0.013,0 0.013,0.012 0,0.022 -0.028,0.06 -0.041,0.056 -0.108,0.067 -0.015,0.003 -0.031,0.003 -0.094,0 -0.16,-0.072 -0.06,-0.066 -0.06,-0.159 0,-0.104 0.072,-0.172 0.058,-0.056 0.136,-0.056 0.113,0 0.158,0.096 0.021,0.045 0.021,0.1 0,0.017 -0.007,0.02 -0.003,0.001 -0.018,0.001 M 0.112,-0.252 v 0 h 0.237 q 0,-0.095 -0.042,-0.143 -0.028,-0.031 -0.071,-0.031 -0.051,0 -0.086,0.047 -0.035,0.045 -0.038,0.127 z"
               id="path31" />
          </g>
        </g>
      </g>
    </g>
  </g>
</svg>
