<?xml version="1.0" encoding="UTF-8" standalone="no"?>
<svg
   version="1.1"
   width="153.25107mm"
   height="119.43177mm"
   id="svg47"
   sodipodi:docname="gradiente_descendente_proy.svg"
   inkscape:version="1.4.2 (f4327f4, 2025-05-13)"
   xmlns:inkscape="http://www.inkscape.org/namespaces/inkscape"
   xmlns:sodipodi="http://sodipodi.sourceforge.net/DTD/sodipodi-0.dtd"
   xmlns="http://www.w3.org/2000/svg"
   xmlns:svg="http://www.w3.org/2000/svg">
  <sodipodi:namedview
     id="namedview47"
     pagecolor="#ffffff"
     bordercolor="#000000"
     borderopacity="0.25"
     inkscape:showpageshadow="2"
     inkscape:pageopacity="0.0"
     inkscape:pagecheckerboard="0"
     inkscape:deskcolor="#d1d1d1"
     inkscape:zoom="1.1187524"
     inkscape:cx="195.30684"
     inkscape:cy="313.2954"
     inkscape:window-width="1920"
     inkscape:window-height="1009"
     inkscape:window-x="-8"
     inkscape:window-y="-8"
     inkscape:window-maximized="1"
     inkscape:current-layer="svg47"
     inkscape:document-units="mm" />
  <defs
     id="defs1">
    <clipPath
       id="yiNHuJfVlWTU">
      <path
         fill="none"
         stroke="none"
         d="M 0,0 H 1397 V 871 H 0 Z"
         id="path1" />
    </clipPath>
    <clipPath
       clipPathUnits="userSpaceOnUse"
       id="clipPath47">
      <rect
         style="fill:#000000"
         id="rect48"
         width="793.74127"
         height="586.36743"
         x="200.22302"
         y="238.2567" />
    </clipPath>
    <clipPath
       clipPathUnits="userSpaceOnUse"
       id="clipPath49">
      <rect
         style="fill:#000000"
         id="rect50"
         width="595.30597"
         height="468.37888"
         x="287.82059"
         y="254.34605" />
    </clipPath>
    <clipPath
       clipPathUnits="userSpaceOnUse"
       id="clipPath51">
      <rect
         style="fill:#000000"
         id="rect52"
         width="579.21661"
         height="451.39566"
         x="300.33453"
         y="262.39072" />
    </clipPath>
  </defs>
  <g
     clip-path="url(#clipPath51)"
     id="g47"
     transform="translate(-300.33453,-262.39072)">
    <g
       id="g46">
      <rect
         fill="#ffffff"
         stroke="none"
         x="123.63591"
         y="143.47871"
         width="1273.3641"
         height="727.5213"
         fill-opacity="1"
         id="rect1" />
      <path
         fill="#a0a0a0"
         stroke="none"
         paint-order="stroke fill markers"
         fill-rule="evenodd"
         d="M 205,525 660,418 905,477 880,766 234,790 Z"
         fill-opacity="0.0980392"
         id="path2" />
      <path
         fill="none"
         stroke="#0000ff"
         paint-order="fill stroke markers"
         d="M 856.4683,354.18681 C 840.79839,319.45892 735.56688,301.74407 621.42713,314.61959 507.28738,327.49511 427.4618,366.0853 443.1317,400.81319 c 15.66991,34.72789 120.90142,52.44274 235.04117,39.56722 114.13975,-12.87552 193.96533,-51.46571 178.29543,-86.1936 z"
         stroke-opacity="0.25098"
         stroke-linejoin="round"
         stroke-miterlimit="10"
         stroke-width="2"
         stroke-dasharray="2, 3"
         id="path3" />
      <path
         fill="none"
         stroke="#0000ff"
         paint-order="fill stroke markers"
         d="M 1126.7457,354.57638 C 1113.4338,288.52895 898.95625,245.25017 647.6967,257.91054 396.43715,270.5709 203.54245,334.37618 216.85434,400.42362 c 13.31188,66.04743 227.78941,109.32621 479.04896,96.66584 251.25955,-12.66036 444.1543,-76.46564 430.8424,-142.51308 z"
         stroke-opacity="0.25098"
         stroke-linejoin="round"
         stroke-miterlimit="10"
         stroke-width="2"
         stroke-dasharray="2, 3"
         id="path4" />
      <path
         fill="none"
         stroke="#0000ff"
         paint-order="fill stroke markers"
         d="M 1301.8558,335.80495 C 1271.1668,242.13211 966.44143,189.11608 621.23264,217.39032 276.02385,245.66457 21.055181,344.52221 51.744187,438.19505 82.433193,531.86789 387.15857,584.88392 732.36736,556.60968 1077.5762,528.33543 1332.5448,429.47779 1301.8558,335.80495 Z"
         stroke-opacity="0.25098"
         stroke-linejoin="round"
         stroke-miterlimit="10"
         stroke-width="2"
         stroke-dasharray="2, 3"
         id="path5" />
      <path
         fill="none"
         stroke="#0000ff"
         paint-order="fill stroke markers"
         d="M 1355.8332,327.88721 C 1306.954,194.284 958.39114,114.23377 577.29634,149.09 196.20154,183.94623 -73.112403,320.50959 -24.233182,454.11279 24.646039,587.716 373.20886,667.76623 754.30366,632.91 1135.3985,598.05377 1404.7124,461.49041 1355.8332,327.88721 Z"
         stroke-opacity="0.25098"
         stroke-linejoin="round"
         stroke-miterlimit="10"
         stroke-width="2"
         stroke-dasharray="2, 3"
         id="path6" />
      <path
         fill="none"
         stroke="#000000"
         paint-order="fill stroke markers"
         d="M 205,525 660,418"
         stroke-opacity="0.698039"
         stroke-linecap="round"
         stroke-linejoin="round"
         stroke-miterlimit="10"
         stroke-width="2.5"
         id="path7" />
      <path
         fill="none"
         stroke="#000000"
         paint-order="fill stroke markers"
         d="m 660,418 245,59"
         stroke-opacity="0.698039"
         stroke-linecap="round"
         stroke-linejoin="round"
         stroke-miterlimit="10"
         stroke-width="2.5"
         id="path8" />
      <path
         fill="none"
         stroke="#000000"
         paint-order="fill stroke markers"
         d="M 905,477 880,766"
         stroke-opacity="0.698039"
         stroke-linecap="round"
         stroke-linejoin="round"
         stroke-miterlimit="10"
         stroke-width="2.5"
         id="path9" />
      <path
         fill="#ff9933"
         stroke="none"
         paint-order="stroke fill markers"
         d="m 508.0013,386.74975 c -0.0829,0 -0.16699,0.008 -0.25135,0.0255 -0.67641,0.1381 -1.11278,0.79838 -0.97468,1.47478 l 9.40746,46.07664 c 0,0 0,0 0,0 v 0 l -2.93936,0.60013 7.56483,15.8062 0.76336,-17.50657 v 0 l -2.93936,0.60013 v 0 l -9.40747,-46.07663 c -0.12087,-0.59204 -0.6418,-1.0002 -1.22343,-1.0002 z"
         fill-opacity="0.698039"
         id="path10" />
      <path
         fill="#cc0000"
         stroke="none"
         paint-order="stroke fill markers"
         d="m 531,332 -14.33663,20.16088 3.72472,1.45826 -74.25045,189.65173 c -0.40268,1.02855 0.10468,2.1888 1.13323,2.59149 0.23947,0.0937 0.48609,0.13818 0.72861,0.13818 0.79915,0 1.55394,-0.48233 1.86288,-1.27141 L 524.1128,355.0774 v 0 l 3.72471,1.45826 z"
         fill-opacity="1"
         id="path11" />
      <path
         fill="#6600cc"
         stroke="none"
         paint-order="stroke fill markers"
         d="m 648,436 c 0,3.31371 -2.68629,6 -6,6 -3.31371,0 -6,-2.68629 -6,-6 0,-3.31371 2.68629,-6 6,-6 3.31371,0 6,2.68629 6,6 z"
         fill-opacity="1"
         id="path12" />
      <path
         fill="none"
         stroke="#000000"
         paint-order="fill stroke markers"
         d="m 648,436 c 0,3.31371 -2.68629,6 -6,6 -3.31371,0 -6,-2.68629 -6,-6 0,-3.31371 2.68629,-6 6,-6 3.31371,0 6,2.68629 6,6 z"
         stroke-opacity="1"
         stroke-linecap="round"
         stroke-linejoin="round"
         stroke-miterlimit="10"
         id="path13" />
      <path
         fill="#000000"
         stroke="none"
         paint-order="stroke fill markers"
         d="m 454,544 c 0,3.31371 -2.68629,6 -6,6 -3.31371,0 -6,-2.68629 -6,-6 0,-3.31371 2.68629,-6 6,-6 3.31371,0 6,2.68629 6,6 z"
         fill-opacity="1"
         id="path14" />
      <path
         fill="none"
         stroke="#000000"
         paint-order="fill stroke markers"
         d="m 454,544 c 0,3.31371 -2.68629,6 -6,6 -3.31371,0 -6,-2.68629 -6,-6 0,-3.31371 2.68629,-6 6,-6 3.31371,0 6,2.68629 6,6 z"
         stroke-opacity="1"
         stroke-linecap="round"
         stroke-linejoin="round"
         stroke-miterlimit="10"
         id="path15" />
      <path
         fill="#ff7f00"
         stroke="none"
         paint-order="stroke fill markers"
         d="m 514,388 c 0,3.31371 -2.68629,6 -6,6 -3.31371,0 -6,-2.68629 -6,-6 0,-3.31371 2.68629,-6 6,-6 3.31371,0 6,2.68629 6,6 z"
         fill-opacity="1"
         id="path16" />
      <path
         fill="none"
         stroke="#000000"
         paint-order="fill stroke markers"
         d="m 514,388 c 0,3.31371 -2.68629,6 -6,6 -3.31371,0 -6,-2.68629 -6,-6 0,-3.31371 2.68629,-6 6,-6 3.31371,0 6,2.68629 6,6 z"
         stroke-opacity="1"
         stroke-linecap="round"
         stroke-linejoin="round"
         stroke-miterlimit="10"
         id="path17" />
      <path
         fill="#006400"
         stroke="none"
         paint-order="stroke fill markers"
         d="m 526.8082,450.73302 c 0,3.31371 -2.68629,6 -6,6 -3.31371,0 -6,-2.68629 -6,-6 0,-3.31371 2.68629,-6 6,-6 3.31371,0 6,2.68629 6,6 z"
         fill-opacity="1"
         id="path18" />
      <path
         fill="none"
         stroke="#000000"
         paint-order="fill stroke markers"
         d="m 526.8082,450.73302 c 0,3.31371 -2.68629,6 -6,6 -3.31371,0 -6,-2.68629 -6,-6 0,-3.31371 2.68629,-6 6,-6 3.31371,0 6,2.68629 6,6 z"
         stroke-opacity="1"
         stroke-linecap="round"
         stroke-linejoin="round"
         stroke-miterlimit="10"
         id="path19" />
      <g
         transform="scale(25)"
         id="g22">
        <g
           transform="translate(25.28,18.503292)"
           id="g20">
          <path
             fill="#6600cc"
             stroke="none"
             paint-order="stroke fill markers"
             d="m 0.346,-0.246 0.168,0.199 H 0.585 V 0 Q 0.486,-0.003 0.475,-0.003 0.433,-0.003 0.355,0 v -0.047 h 0.039 l -0.11,-0.13 -0.097,0.109 q -0.007,0.008 -0.007,0.01 0,0.011 0.037,0.011 V 0 Q 0.157,-0.003 0.114,-0.003 0.074,-0.003 0.022,0 v -0.047 q 0.031,0 0.0455,-5e-4 0.0145,-5e-4 0.031,-0.005 Q 0.115,-0.057 0.123,-0.066 L 0.254,-0.213 0.098,-0.397 H 0.027 v -0.047 q 0.099,0.003 0.11,0.003 0.043,0 0.121,-0.003 v 0.047 H 0.218 L 0.316,-0.282 0.4,-0.376 0.408,-0.388 Q 0.393,-0.397 0.37,-0.397 v -0.047 q 0.084,0.003 0.103,0.003 0.039,0 0.092,-0.003 v 0.047 q -0.04,0 -0.061,0.0025 -0.021,0.0025 -0.027,0.006 -0.006,0.0035 -0.014,0.0125 z"
             id="path20" />
        </g>
        <g
           transform="matrix(0.7,0,0,0.7,25.887,18.0904)"
           id="g21">
          <path
             fill="#6600cc"
             stroke="none"
             paint-order="stroke fill markers"
             d="M 0.531,-0.286 0.369,-0.2 0.437,-0.062 q 0.014,0.027 0.02,0.045 Q 0.454,-0.003 0.44,0 0.426,-0.005 0.417,-0.014 L 0.354,-0.075 Q 0.298,-0.131 0.287,-0.14 0.286,-0.139 0.2825,-0.136 0.279,-0.133 0.2685,-0.123 0.258,-0.113 0.24,-0.096 L 0.187,-0.043 Q 0.15,-0.006 0.144,-0.003 0.143,-0.002 0.139,-0.001 0.135,0 0.134,0 0.12,-0.003 0.117,-0.017 0.125,-0.037 0.136,-0.059 L 0.205,-0.2 Q 0.165,-0.222 0.049,-0.282 0.032,-0.292 0.028,-0.2955 0.024,-0.299 0.024,-0.307 q 0,-0.008 0.0055,-0.013 0.0055,-0.005 0.0125,-0.005 0.005,0 0.015,0.002 l 0.179,0.026 0.031,-0.178 q 0.004,-0.028 0.02,-0.028 0.007,0 0.011,0.004 0.004,0.004 0.0055,0.009 0.0015,0.005 0.0035,0.016 l 0.031,0.177 q 0.003,0 0.033,-0.005 l 0.161,-0.023 q 0.007,0 0.0125,0.005 0.0055,0.005 0.0055,0.013 0,0.011 -0.019,0.021 z"
             id="path21" />
        </g>
      </g>
      <g
         transform="scale(25)"
         id="g27">
        <g
           transform="translate(18.48,14.924)"
           id="g23">
          <path
             fill="#ff6600"
             stroke="none"
             paint-order="stroke fill markers"
             d="M 0.506,-0.376 0.291,0.081 Q 0.268,0.13 0.225,0.165 0.182,0.2 0.129,0.2 0.084,0.2 0.053,0.173 0.022,0.146 0.022,0.108 0.022,0.08 0.039,0.065 0.056,0.05 0.079,0.05 q 0.025,0 0.0415,0.016 0.0165,0.016 0.0165,0.041 0,0.039 -0.032,0.053 0.011,0.004 0.024,0.004 0.025,0 0.0455,-0.0105 Q 0.195,0.143 0.2105,0.1225 0.226,0.102 0.2345,0.0875 0.243,0.073 0.254,0.048 L 0.277,0 0.09,-0.397 H 0.026 v -0.047 q 0.01,0 0.054,0.0015 0.044,0.0015 0.06,0.0015 0.074,0 0.124,-0.003 v 0.047 H 0.21 l 0.127,0.27 0.115,-0.246 q 0.005,-0.005 0.005,-0.012 0,-0.012 -0.047,-0.012 v -0.047 q 0.063,0.003 0.091,0.003 0.043,0 0.079,-0.003 v 0.047 q -0.031,0 -0.0465,0.0025 Q 0.518,-0.392 0.514,-0.3885 0.51,-0.385 0.506,-0.376 Z"
             id="path22" />
        </g>
        <g
           transform="matrix(0.7,0,0,0.7,19.087,15.074)"
           id="g24">
          <path
             fill="#ff6600"
             stroke="none"
             paint-order="stroke fill markers"
             d="m 0.217,-0.397 v 0.276 q 0,0.087 0.058,0.087 0.024,0 0.042,-0.0225 0.018,-0.0225 0.018,-0.0695 v -0.051 h 0.047 v 0.053 q 0,0.056 -0.0325,0.093 Q 0.317,0.006 0.261,0.006 0.103,0.006 0.103,-0.123 V -0.397 H 0.021 V -0.433 Q 0.091,-0.435 0.13,-0.4945 0.169,-0.554 0.17,-0.635 h 0.047 v 0.191 h 0.146 v 0.047 z"
             id="path23" />
        </g>
        <g
           transform="matrix(0.7,0,0,0.7,19.3999,15.074)"
           id="g25">
          <path
             fill="#ff6600"
             stroke="none"
             paint-order="stroke fill markers"
             d="m 0.477,-0.22 v 0.31 q 0,0.042 -0.031,0.042 -0.03,0 -0.03,-0.042 V -0.22 H 0.107 q -0.043,0 -0.043,-0.03 0,-0.031 0.043,-0.031 h 0.309 v -0.31 q 0,-0.042 0.031,-0.042 0.03,0 0.03,0.042 v 0.31 h 0.309 q 0.043,0 0.043,0.031 0,0.03 -0.043,0.03 z"
             id="path24" />
        </g>
        <g
           transform="matrix(0.7,0,0,0.7,20.0257,15.074)"
           id="g26">
          <path
             fill="#ff6600"
             stroke="none"
             paint-order="stroke fill markers"
             d="m 0.354,-0.623 v 0.576 h 0.14 V 0 Q 0.45,-0.003 0.295,-0.003 0.14,-0.003 0.096,0 v -0.047 h 0.139 v -0.517 q -0.062,0.02 -0.13,0.02 h -0.02 v -0.047 h 0.02 q 0.124,0 0.201,-0.057 0.009,-0.007 0.022,-0.007 0.018,0 0.022,0.0065 0.004,0.0065 0.004,0.0255 z"
             id="path25" />
        </g>
      </g>
      <g
         transform="scale(25)"
         id="g30">
        <g
           transform="translate(16.76,23.244)"
           id="g28">
          <path
             fill="#000000"
             stroke="none"
             paint-order="stroke fill markers"
             d="m 0.346,-0.246 0.168,0.199 H 0.585 V 0 Q 0.486,-0.003 0.475,-0.003 0.433,-0.003 0.355,0 v -0.047 h 0.039 l -0.11,-0.13 -0.097,0.109 q -0.007,0.008 -0.007,0.01 0,0.011 0.037,0.011 V 0 Q 0.157,-0.003 0.114,-0.003 0.074,-0.003 0.022,0 v -0.047 q 0.031,0 0.0455,-5e-4 0.0145,-5e-4 0.031,-0.005 Q 0.115,-0.057 0.123,-0.066 L 0.254,-0.213 0.098,-0.397 H 0.027 v -0.047 q 0.099,0.003 0.11,0.003 0.043,0 0.121,-0.003 v 0.047 H 0.218 L 0.316,-0.282 0.4,-0.376 0.408,-0.388 Q 0.393,-0.397 0.37,-0.397 v -0.047 q 0.084,0.003 0.103,0.003 0.039,0 0.092,-0.003 v 0.047 q -0.04,0 -0.061,0.0025 -0.021,0.0025 -0.027,0.006 -0.006,0.0035 -0.014,0.0125 z"
             id="path27" />
        </g>
        <g
           transform="matrix(0.7,0,0,0.7,17.367,23.394)"
           id="g29">
          <path
             fill="#000000"
             stroke="none"
             paint-order="stroke fill markers"
             d="m 0.217,-0.397 v 0.276 q 0,0.087 0.058,0.087 0.024,0 0.042,-0.0225 0.018,-0.0225 0.018,-0.0695 v -0.051 h 0.047 v 0.053 q 0,0.056 -0.0325,0.093 Q 0.317,0.006 0.261,0.006 0.103,0.006 0.103,-0.123 V -0.397 H 0.021 V -0.433 Q 0.091,-0.435 0.13,-0.4945 0.169,-0.554 0.17,-0.635 h 0.047 v 0.191 h 0.146 v 0.047 z"
             id="path28" />
        </g>
      </g>
      <g
         transform="scale(19)"
         id="g38">
        <g
           transform="translate(28.052632,18.697368)"
           id="g31">
          <path
             fill="#cc0000"
             stroke="none"
             paint-order="stroke fill markers"
             d="M 0.661,-0.23 H 0.116 q -0.032,0 -0.033,-0.02 0,-0.02 0.033,-0.02 h 0.545 q 0.032,0 0.033,0.02 0,0.02 -0.033,0.02 z"
             id="path30" />
        </g>
        <g
           transform="translate(28.830632,18.697368)"
           id="g32">
          <path
             fill="#cc0000"
             stroke="none"
             paint-order="stroke fill markers"
             d="M 0.78,-0.663 0.442,0.015 Q 0.434,0.03 0.426,0.032 0.422,0.033 0.416,0.033 0.4,0.033 0.394,0.022 0.393,0.02 0.39,0.015 L 0.052,-0.663 Q 0.047,-0.672 0.047,-0.675 0.053,-0.683 0.069,-0.683 h 0.694 q 0.021,0 0.022,0.008 0,0.003 -0.005,0.012 m -0.61,0.051 0.275,0.551 H 0.446 L 0.72,-0.612 Z"
             id="path31" />
        </g>
        <g
           transform="translate(29.663632,18.697368)"
           id="g33">
          <path
             fill="#cc0000"
             stroke="none"
             paint-order="stroke fill markers"
             d="m 0.367,-0.4 v 0 l -0.06,0.317 Q 0.298,-0.021 0.271,0.059 0.261,0.088 0.251,0.108 0.216,0.182 0.164,0.2 0.151,0.205 0.138,0.205 0.088,0.205 0.064,0.171 0.053,0.156 0.053,0.136 q 0,-0.04 0.034,-0.055 0.01,-0.005 0.021,-0.005 0.029,0 0.036,0.025 0.001,0.005 0.001,0.01 0,0.034 -0.03,0.048 -0.011,0.005 -0.025,0.006 0.019,0.018 0.048,0.018 0.044,0 0.069,-0.098 0.005,-0.023 0.012,-0.06 L 0.225,-0.005 0.3,-0.4 H 0.234 q -0.025,0 -0.027,-0.008 H 0.206 v -0.004 q 0,-0.017 0.017,-0.019 v 0 h 0.013 0.069 q 0.024,-0.125 0.033,-0.157 0.03,-0.1 0.106,-0.115 0.011,-0.002 0.021,-0.002 0.052,0 0.076,0.034 v 0 q 0.011,0.015 0.011,0.035 0,0.04 -0.034,0.055 -0.01,0.005 -0.021,0.005 -0.029,0 -0.036,-0.025 -0.001,-0.005 -0.001,-0.01 0,-0.031 0.028,-0.046 0.011,-0.007 0.026,-0.008 -0.019,-0.018 -0.049,-0.018 -0.031,0 -0.047,0.034 -0.007,0.014 -0.024,0.104 l -0.021,0.114 h 0.083 q 0.025,0 0.027,0.011 0,0.018 -0.016,0.02 H 0.466 0.453 Z"
             id="path32" />
        </g>
        <g
           transform="translate(30.261632,18.697368)"
           id="g34">
          <path
             fill="#cc0000"
             stroke="none"
             paint-order="stroke fill markers"
             d="m 0.331,0.24 v 0 q 0,0.01 -0.01,0.01 Q 0.309,0.25 0.268,0.209 0.206,0.147 0.165,0.062 0.099,-0.074 0.099,-0.25 q 0,-0.169 0.063,-0.305 0.052,-0.111 0.132,-0.178 0.021,-0.017 0.027,-0.017 0.01,0 0.01,0.01 0,0.005 -0.013,0.017 -0.161,0.164 -0.161,0.473 0,0.308 0.157,0.468 0.017,0.017 0.017,0.022 z"
             id="path33" />
        </g>
        <g
           transform="translate(30.650632,18.697368)"
           id="g35">
          <path
             fill="#cc0000"
             stroke="none"
             paint-order="stroke fill markers"
             d="m 0.346,-0.246 0.168,0.199 H 0.585 V 0 Q 0.486,-0.003 0.475,-0.003 0.433,-0.003 0.355,0 v -0.047 h 0.039 l -0.11,-0.13 -0.097,0.109 q -0.007,0.008 -0.007,0.01 0,0.011 0.037,0.011 V 0 Q 0.157,-0.003 0.114,-0.003 0.074,-0.003 0.022,0 v -0.047 q 0.031,0 0.0455,-5e-4 0.0145,-5e-4 0.031,-0.005 Q 0.115,-0.057 0.123,-0.066 L 0.254,-0.213 0.098,-0.397 H 0.027 v -0.047 q 0.099,0.003 0.11,0.003 0.043,0 0.121,-0.003 v 0.047 H 0.218 L 0.316,-0.282 0.4,-0.376 0.408,-0.388 Q 0.393,-0.397 0.37,-0.397 v -0.047 q 0.084,0.003 0.103,0.003 0.039,0 0.092,-0.003 v 0.047 q -0.04,0 -0.061,0.0025 -0.021,0.0025 -0.027,0.006 -0.006,0.0035 -0.014,0.0125 z"
             id="path34" />
        </g>
        <g
           transform="matrix(0.7,0,0,0.7,31.257632,18.847368)"
           id="g36">
          <path
             fill="#cc0000"
             stroke="none"
             paint-order="stroke fill markers"
             d="m 0.217,-0.397 v 0.276 q 0,0.087 0.058,0.087 0.024,0 0.042,-0.0225 0.018,-0.0225 0.018,-0.0695 v -0.051 h 0.047 v 0.053 q 0,0.056 -0.0325,0.093 Q 0.317,0.006 0.261,0.006 0.103,0.006 0.103,-0.123 V -0.397 H 0.021 V -0.433 Q 0.091,-0.435 0.13,-0.4945 0.169,-0.554 0.17,-0.635 h 0.047 v 0.191 h 0.146 v 0.047 z"
             id="path35" />
        </g>
        <g
           transform="translate(31.570532,18.697368)"
           id="g37">
          <path
             fill="#cc0000"
             stroke="none"
             paint-order="stroke fill markers"
             d="m 0.289,-0.25 v 0 q 0,0.169 -0.063,0.305 Q 0.174,0.166 0.094,0.233 0.073,0.25 0.067,0.25 q -0.01,0 -0.01,-0.01 0,-0.005 0.013,-0.017 0.161,-0.164 0.161,-0.473 0,-0.305 -0.15,-0.462 L 0.076,-0.717 Q 0.057,-0.735 0.057,-0.74 q 0,-0.01 0.01,-0.01 0.012,0 0.053,0.041 0.062,0.062 0.103,0.147 0.066,0.136 0.066,0.312 z"
             id="path36" />
        </g>
      </g>
      <g
         transform="scale(35)"
         id="g40">
        <g
           transform="translate(23.8,19.197286)"
           id="g39">
          <path
             fill="#000000"
             stroke="none"
             paint-order="stroke fill markers"
             d="m 0.677,-0.162 v 0 L 0.644,0 H 0.485 Q 0.463,0 0.46,-0.007 0.459,-0.011 0.459,-0.021 q 0,-0.069 0.047,-0.201 0.049,-0.138 0.055,-0.203 0.001,-0.015 0.001,-0.03 0,-0.132 -0.092,-0.194 -0.05,-0.034 -0.11,-0.034 -0.085,0 -0.144,0.063 v 0.001 q -0.057,0.062 -0.057,0.164 0,0.077 0.049,0.212 0.054,0.15 0.054,0.222 0,0.017 -0.007,0.02 v 0 H 0.254 Q 0.25,0 0.237,0 H 0.077 L 0.044,-0.162 h 0.025 q 0.01,0.052 0.018,0.074 0.005,0.015 0.018,0.019 0.013,0.004 0.048,0.004 h 0.08 Q 0.22,-0.12 0.159,-0.212 L 0.153,-0.222 Q 0.15,-0.226 0.144,-0.235 0.072,-0.343 0.06,-0.412 0.056,-0.433 0.056,-0.454 q 0,-0.104 0.089,-0.177 0.088,-0.074 0.216,-0.074 0.135,0 0.225,0.082 0.079,0.071 0.079,0.169 0,0.081 -0.07,0.192 v 0 L 0.594,-0.261 0.593,-0.26 0.577,-0.235 q -0.068,0.1 -0.084,0.152 -0.003,0.009 -0.005,0.018 h 0.08 q 0.055,0 0.063,-0.015 l 0.003,-0.009 q 0.008,-0.022 0.018,-0.073 z"
             id="path38" />
        </g>
      </g>
      <g
         transform="scale(25)"
         id="g45">
        <g
           transform="translate(20.12,18.844)"
           id="g41">
          <path
             fill="#006400"
             stroke="none"
             paint-order="stroke fill markers"
             d="m 0.346,-0.246 0.168,0.199 H 0.585 V 0 Q 0.486,-0.003 0.475,-0.003 0.433,-0.003 0.355,0 v -0.047 h 0.039 l -0.11,-0.13 -0.097,0.109 q -0.007,0.008 -0.007,0.01 0,0.011 0.037,0.011 V 0 Q 0.157,-0.003 0.114,-0.003 0.074,-0.003 0.022,0 v -0.047 q 0.031,0 0.0455,-5e-4 0.0145,-5e-4 0.031,-0.005 Q 0.115,-0.057 0.123,-0.066 L 0.254,-0.213 0.098,-0.397 H 0.027 v -0.047 q 0.099,0.003 0.11,0.003 0.043,0 0.121,-0.003 v 0.047 H 0.218 L 0.316,-0.282 0.4,-0.376 0.408,-0.388 Q 0.393,-0.397 0.37,-0.397 v -0.047 q 0.084,0.003 0.103,0.003 0.039,0 0.092,-0.003 v 0.047 q -0.04,0 -0.061,0.0025 -0.021,0.0025 -0.027,0.006 -0.006,0.0035 -0.014,0.0125 z"
             id="path40" />
        </g>
        <g
           transform="matrix(0.7,0,0,0.7,20.727,18.994)"
           id="g42">
          <path
             fill="#006400"
             stroke="none"
             paint-order="stroke fill markers"
             d="m 0.217,-0.397 v 0.276 q 0,0.087 0.058,0.087 0.024,0 0.042,-0.0225 0.018,-0.0225 0.018,-0.0695 v -0.051 h 0.047 v 0.053 q 0,0.056 -0.0325,0.093 Q 0.317,0.006 0.261,0.006 0.103,0.006 0.103,-0.123 V -0.397 H 0.021 V -0.433 Q 0.091,-0.435 0.13,-0.4945 0.169,-0.554 0.17,-0.635 h 0.047 v 0.191 h 0.146 v 0.047 z"
             id="path41" />
        </g>
        <g
           transform="matrix(0.7,0,0,0.7,21.0399,18.994)"
           id="g43">
          <path
             fill="#006400"
             stroke="none"
             paint-order="stroke fill markers"
             d="m 0.477,-0.22 v 0.31 q 0,0.042 -0.031,0.042 -0.03,0 -0.03,-0.042 V -0.22 H 0.107 q -0.043,0 -0.043,-0.03 0,-0.031 0.043,-0.031 h 0.309 v -0.31 q 0,-0.042 0.031,-0.042 0.03,0 0.03,0.042 v 0.31 h 0.309 q 0.043,0 0.043,0.031 0,0.03 -0.043,0.03 z"
             id="path42" />
        </g>
        <g
           transform="matrix(0.7,0,0,0.7,21.6657,18.994)"
           id="g44">
          <path
             fill="#006400"
             stroke="none"
             paint-order="stroke fill markers"
             d="m 0.354,-0.623 v 0.576 h 0.14 V 0 Q 0.45,-0.003 0.295,-0.003 0.14,-0.003 0.096,0 v -0.047 h 0.139 v -0.517 q -0.062,0.02 -0.13,0.02 h -0.02 v -0.047 h 0.02 q 0.124,0 0.201,-0.057 0.009,-0.007 0.022,-0.007 0.018,0 0.022,0.0065 0.004,0.0065 0.004,0.0255 z"
             id="path43" />
        </g>
      </g>
    </g>
  </g>
</svg>
