<?xml version="1.0" encoding="UTF-8" standalone="no"?>
<svg
   version="1.1"
   width="164.73157mm"
   height="107.63711mm"
   id="svg114"
   sodipodi:docname="dbscan_1.svg"
   inkscape:version="1.4.2 (f4327f4, 2025-05-13)"
   xmlns:inkscape="http://www.inkscape.org/namespaces/inkscape"
   xmlns:sodipodi="http://sodipodi.sourceforge.net/DTD/sodipodi-0.dtd"
   xmlns="http://www.w3.org/2000/svg"
   xmlns:svg="http://www.w3.org/2000/svg">
  <sodipodi:namedview
     id="namedview114"
     pagecolor="#ffffff"
     bordercolor="#666666"
     borderopacity="1.0"
     inkscape:showpageshadow="2"
     inkscape:pageopacity="0.0"
     inkscape:pagecheckerboard="0"
     inkscape:deskcolor="#d1d1d1"
     showgrid="false"
     inkscape:zoom="0.84804631"
     inkscape:cx="407.407"
     inkscape:cy="231.11945"
     inkscape:window-width="1440"
     inkscape:window-height="830"
     inkscape:window-x="-6"
     inkscape:window-y="-6"
     inkscape:window-maximized="1"
     inkscape:current-layer="svg114"
     inkscape:document-units="mm" />
  <defs
     id="defs1">
    <clipPath
       id="zhKODRTUuAgp">
      <path
         fill="none"
         stroke="none"
         d="M 0,0 H 1044 V 691 H 0 Z"
         id="path1" />
    </clipPath>
    <clipPath
       clipPathUnits="userSpaceOnUse"
       id="clipPath114">
      <rect
         id="rect115"
         width="622.60748"
         height="406.81741"
         x="114.38055"
         y="114.38055" />
    </clipPath>
  </defs>
  <g
     clip-path="url(#zhKODRTUuAgp)"
     id="g114"
     transform="translate(-114.38055,-114.38055)">
    <g
       id="g113">
      <rect
         fill="#ffffff"
         stroke="none"
         x="0"
         y="0"
         width="1044"
         height="691"
         fill-opacity="1"
         id="rect1"
         clip-path="url(#clipPath114)" />
      <path
         fill="none"
         stroke="#1c1c1f"
         paint-order="fill stroke markers"
         d="m 0.5,706.5 h 1042"
         stroke-opacity="1"
         stroke-miterlimit="10"
         id="path2" />
      <path
         fill="none"
         stroke="#1c1c1f"
         paint-order="fill stroke markers"
         d="m 1043.5,706.5 -4,-4"
         stroke-opacity="1"
         stroke-miterlimit="10"
         id="path3" />
      <path
         fill="none"
         stroke="#1c1c1f"
         paint-order="fill stroke markers"
         d="m 1043.5,706.5 -4,4"
         stroke-opacity="1"
         stroke-miterlimit="10"
         id="path4" />
      <path
         fill="none"
         stroke="#1c1c1f"
         paint-order="fill stroke markers"
         d="m -29.5,706.5 v 3"
         stroke-opacity="1"
         stroke-miterlimit="10"
         id="path5" />
      <text
         fill="#1c1c1f"
         stroke="none"
         font-family="geogebra-sans-serif, sans-serif"
         font-size="12px"
         font-style="normal"
         font-weight="normal"
         text-decoration="normal"
         x="37"
         y="685"
         text-anchor="start"
         dominant-baseline="alphabetic"
         fill-opacity="1"
         id="text5">2</text>
      <path
         fill="none"
         stroke="#1c1c1f"
         paint-order="fill stroke markers"
         d="m 39.5,706.5 v 3"
         stroke-opacity="1"
         stroke-miterlimit="10"
         id="path6" />
      <text
         fill="#1c1c1f"
         stroke="none"
         font-family="geogebra-sans-serif, sans-serif"
         font-size="12px"
         font-style="normal"
         font-weight="normal"
         text-decoration="normal"
         x="105"
         y="685"
         text-anchor="start"
         dominant-baseline="alphabetic"
         fill-opacity="1"
         id="text6">3</text>
      <path
         fill="none"
         stroke="#1c1c1f"
         paint-order="fill stroke markers"
         d="m 107.5,706.5 v 3"
         stroke-opacity="1"
         stroke-miterlimit="10"
         id="path7" />
      <text
         fill="#1c1c1f"
         stroke="none"
         font-family="geogebra-sans-serif, sans-serif"
         font-size="12px"
         font-style="normal"
         font-weight="normal"
         text-decoration="normal"
         x="174"
         y="685"
         text-anchor="start"
         dominant-baseline="alphabetic"
         fill-opacity="1"
         id="text7">4</text>
      <path
         fill="none"
         stroke="#1c1c1f"
         paint-order="fill stroke markers"
         d="m 176.5,706.5 v 3"
         stroke-opacity="1"
         stroke-miterlimit="10"
         id="path8" />
      <text
         fill="#1c1c1f"
         stroke="none"
         font-family="geogebra-sans-serif, sans-serif"
         font-size="12px"
         font-style="normal"
         font-weight="normal"
         text-decoration="normal"
         x="242"
         y="685"
         text-anchor="start"
         dominant-baseline="alphabetic"
         fill-opacity="1"
         id="text8">5</text>
      <path
         fill="none"
         stroke="#1c1c1f"
         paint-order="fill stroke markers"
         d="m 244.5,706.5 v 3"
         stroke-opacity="1"
         stroke-miterlimit="10"
         id="path9" />
      <text
         fill="#1c1c1f"
         stroke="none"
         font-family="geogebra-sans-serif, sans-serif"
         font-size="12px"
         font-style="normal"
         font-weight="normal"
         text-decoration="normal"
         x="311"
         y="685"
         text-anchor="start"
         dominant-baseline="alphabetic"
         fill-opacity="1"
         id="text9">6</text>
      <path
         fill="none"
         stroke="#1c1c1f"
         paint-order="fill stroke markers"
         d="m 313.5,706.5 v 3"
         stroke-opacity="1"
         stroke-miterlimit="10"
         id="path10" />
      <text
         fill="#1c1c1f"
         stroke="none"
         font-family="geogebra-sans-serif, sans-serif"
         font-size="12px"
         font-style="normal"
         font-weight="normal"
         text-decoration="normal"
         x="380"
         y="685"
         text-anchor="start"
         dominant-baseline="alphabetic"
         fill-opacity="1"
         id="text10">7</text>
      <path
         fill="none"
         stroke="#1c1c1f"
         paint-order="fill stroke markers"
         d="m 382.5,706.5 v 3"
         stroke-opacity="1"
         stroke-miterlimit="10"
         id="path11" />
      <text
         fill="#1c1c1f"
         stroke="none"
         font-family="geogebra-sans-serif, sans-serif"
         font-size="12px"
         font-style="normal"
         font-weight="normal"
         text-decoration="normal"
         x="448"
         y="685"
         text-anchor="start"
         dominant-baseline="alphabetic"
         fill-opacity="1"
         id="text11">8</text>
      <path
         fill="none"
         stroke="#1c1c1f"
         paint-order="fill stroke markers"
         d="m 450.5,706.5 v 3"
         stroke-opacity="1"
         stroke-miterlimit="10"
         id="path12" />
      <text
         fill="#1c1c1f"
         stroke="none"
         font-family="geogebra-sans-serif, sans-serif"
         font-size="12px"
         font-style="normal"
         font-weight="normal"
         text-decoration="normal"
         x="517"
         y="685"
         text-anchor="start"
         dominant-baseline="alphabetic"
         fill-opacity="1"
         id="text12">9</text>
      <path
         fill="none"
         stroke="#1c1c1f"
         paint-order="fill stroke markers"
         d="m 519.5,706.5 v 3"
         stroke-opacity="1"
         stroke-miterlimit="10"
         id="path13" />
      <text
         fill="#1c1c1f"
         stroke="none"
         font-family="geogebra-sans-serif, sans-serif"
         font-size="12px"
         font-style="normal"
         font-weight="normal"
         text-decoration="normal"
         x="582"
         y="685"
         text-anchor="start"
         dominant-baseline="alphabetic"
         fill-opacity="1"
         id="text13">10</text>
      <path
         fill="none"
         stroke="#1c1c1f"
         paint-order="fill stroke markers"
         d="m 587.5,706.5 v 3"
         stroke-opacity="1"
         stroke-miterlimit="10"
         id="path14" />
      <text
         fill="#1c1c1f"
         stroke="none"
         font-family="geogebra-sans-serif, sans-serif"
         font-size="12px"
         font-style="normal"
         font-weight="normal"
         text-decoration="normal"
         x="651"
         y="685"
         text-anchor="start"
         dominant-baseline="alphabetic"
         fill-opacity="1"
         id="text14">11</text>
      <path
         fill="none"
         stroke="#1c1c1f"
         paint-order="fill stroke markers"
         d="m 656.5,706.5 v 3"
         stroke-opacity="1"
         stroke-miterlimit="10"
         id="path15" />
      <text
         fill="#1c1c1f"
         stroke="none"
         font-family="geogebra-sans-serif, sans-serif"
         font-size="12px"
         font-style="normal"
         font-weight="normal"
         text-decoration="normal"
         x="720"
         y="685"
         text-anchor="start"
         dominant-baseline="alphabetic"
         fill-opacity="1"
         id="text15">12</text>
      <path
         fill="none"
         stroke="#1c1c1f"
         paint-order="fill stroke markers"
         d="m 725.5,706.5 v 3"
         stroke-opacity="1"
         stroke-miterlimit="10"
         id="path16" />
      <text
         fill="#1c1c1f"
         stroke="none"
         font-family="geogebra-sans-serif, sans-serif"
         font-size="12px"
         font-style="normal"
         font-weight="normal"
         text-decoration="normal"
         x="788"
         y="685"
         text-anchor="start"
         dominant-baseline="alphabetic"
         fill-opacity="1"
         id="text16">13</text>
      <path
         fill="none"
         stroke="#1c1c1f"
         paint-order="fill stroke markers"
         d="m 793.5,706.5 v 3"
         stroke-opacity="1"
         stroke-miterlimit="10"
         id="path17" />
      <text
         fill="#1c1c1f"
         stroke="none"
         font-family="geogebra-sans-serif, sans-serif"
         font-size="12px"
         font-style="normal"
         font-weight="normal"
         text-decoration="normal"
         x="857"
         y="685"
         text-anchor="start"
         dominant-baseline="alphabetic"
         fill-opacity="1"
         id="text17">14</text>
      <path
         fill="none"
         stroke="#1c1c1f"
         paint-order="fill stroke markers"
         d="m 862.5,706.5 v 3"
         stroke-opacity="1"
         stroke-miterlimit="10"
         id="path18" />
      <text
         fill="#1c1c1f"
         stroke="none"
         font-family="geogebra-sans-serif, sans-serif"
         font-size="12px"
         font-style="normal"
         font-weight="normal"
         text-decoration="normal"
         x="925"
         y="685"
         text-anchor="start"
         dominant-baseline="alphabetic"
         fill-opacity="1"
         id="text18">15</text>
      <path
         fill="none"
         stroke="#1c1c1f"
         paint-order="fill stroke markers"
         d="m 930.5,706.5 v 3"
         stroke-opacity="1"
         stroke-miterlimit="10"
         id="path19" />
      <text
         fill="#1c1c1f"
         stroke="none"
         font-family="geogebra-sans-serif, sans-serif"
         font-size="12px"
         font-style="normal"
         font-weight="normal"
         text-decoration="normal"
         x="994"
         y="685"
         text-anchor="start"
         dominant-baseline="alphabetic"
         fill-opacity="1"
         id="text19">16</text>
      <path
         fill="none"
         stroke="#1c1c1f"
         paint-order="fill stroke markers"
         d="m 999.5,706.5 v 3"
         stroke-opacity="1"
         stroke-miterlimit="10"
         id="path20" />
      <path
         fill="none"
         stroke="#1c1c1f"
         paint-order="fill stroke markers"
         d="m -101.5,706.5 h 3"
         stroke-opacity="1"
         stroke-miterlimit="10"
         id="path21" />
      <path
         fill="none"
         stroke="#1c1c1f"
         paint-order="fill stroke markers"
         d="m -101.5,638.5 h 3"
         stroke-opacity="1"
         stroke-miterlimit="10"
         id="path22" />
      <path
         fill="none"
         stroke="#1c1c1f"
         paint-order="fill stroke markers"
         d="m -101.5,569.5 h 3"
         stroke-opacity="1"
         stroke-miterlimit="10"
         id="path23" />
      <path
         fill="none"
         stroke="#1c1c1f"
         paint-order="fill stroke markers"
         d="m -101.5,501.5 h 3"
         stroke-opacity="1"
         stroke-miterlimit="10"
         id="path24" />
      <path
         fill="none"
         stroke="#1c1c1f"
         paint-order="fill stroke markers"
         d="m -101.5,432.5 h 3"
         stroke-opacity="1"
         stroke-miterlimit="10"
         id="path25" />
      <path
         fill="none"
         stroke="#1c1c1f"
         paint-order="fill stroke markers"
         d="m -101.5,363.5 h 3"
         stroke-opacity="1"
         stroke-miterlimit="10"
         id="path26" />
      <path
         fill="none"
         stroke="#1c1c1f"
         paint-order="fill stroke markers"
         d="m -101.5,295.5 h 3"
         stroke-opacity="1"
         stroke-miterlimit="10"
         id="path27" />
      <path
         fill="none"
         stroke="#1c1c1f"
         paint-order="fill stroke markers"
         d="m -101.5,226.5 h 3"
         stroke-opacity="1"
         stroke-miterlimit="10"
         id="path28" />
      <path
         fill="none"
         stroke="#1c1c1f"
         paint-order="fill stroke markers"
         d="m -101.5,158.5 h 3"
         stroke-opacity="1"
         stroke-miterlimit="10"
         id="path29" />
      <path
         fill="none"
         stroke="#1c1c1f"
         paint-order="fill stroke markers"
         d="m -101.5,89.5 h 3"
         stroke-opacity="1"
         stroke-miterlimit="10"
         id="path30" />
      <path
         fill="none"
         stroke="#1c1c1f"
         paint-order="fill stroke markers"
         d="m -101.5,20.5 h 3"
         stroke-opacity="1"
         stroke-miterlimit="10"
         id="path31" />
      <text
         fill="#1c1c1f"
         stroke="none"
         font-family="geogebra-sans-serif, sans-serif"
         font-size="12px"
         font-style="normal"
         font-weight="normal"
         text-decoration="normal"
         x="9"
         y="643"
         text-anchor="start"
         dominant-baseline="alphabetic"
         fill-opacity="1"
         id="text31">1</text>
      <text
         fill="#1c1c1f"
         stroke="none"
         font-family="geogebra-sans-serif, sans-serif"
         font-size="12px"
         font-style="normal"
         font-weight="normal"
         text-decoration="normal"
         x="9"
         y="574"
         text-anchor="start"
         dominant-baseline="alphabetic"
         fill-opacity="1"
         id="text32">2</text>
      <text
         fill="#1c1c1f"
         stroke="none"
         font-family="geogebra-sans-serif, sans-serif"
         font-size="12px"
         font-style="normal"
         font-weight="normal"
         text-decoration="normal"
         x="9"
         y="506"
         text-anchor="start"
         dominant-baseline="alphabetic"
         fill-opacity="1"
         id="text33">3</text>
      <text
         fill="#1c1c1f"
         stroke="none"
         font-family="geogebra-sans-serif, sans-serif"
         font-size="12px"
         font-style="normal"
         font-weight="normal"
         text-decoration="normal"
         x="9"
         y="437"
         text-anchor="start"
         dominant-baseline="alphabetic"
         fill-opacity="1"
         id="text34">4</text>
      <text
         fill="#1c1c1f"
         stroke="none"
         font-family="geogebra-sans-serif, sans-serif"
         font-size="12px"
         font-style="normal"
         font-weight="normal"
         text-decoration="normal"
         x="9"
         y="368"
         text-anchor="start"
         dominant-baseline="alphabetic"
         fill-opacity="1"
         id="text35">5</text>
      <text
         fill="#1c1c1f"
         stroke="none"
         font-family="geogebra-sans-serif, sans-serif"
         font-size="12px"
         font-style="normal"
         font-weight="normal"
         text-decoration="normal"
         x="9"
         y="300"
         text-anchor="start"
         dominant-baseline="alphabetic"
         fill-opacity="1"
         id="text36">6</text>
      <text
         fill="#1c1c1f"
         stroke="none"
         font-family="geogebra-sans-serif, sans-serif"
         font-size="12px"
         font-style="normal"
         font-weight="normal"
         text-decoration="normal"
         x="9"
         y="231"
         text-anchor="start"
         dominant-baseline="alphabetic"
         fill-opacity="1"
         id="text37">7</text>
      <text
         fill="#1c1c1f"
         stroke="none"
         font-family="geogebra-sans-serif, sans-serif"
         font-size="12px"
         font-style="normal"
         font-weight="normal"
         text-decoration="normal"
         x="9"
         y="163"
         text-anchor="start"
         dominant-baseline="alphabetic"
         fill-opacity="1"
         id="text38">8</text>
      <text
         fill="#1c1c1f"
         stroke="none"
         font-family="geogebra-sans-serif, sans-serif"
         font-size="12px"
         font-style="normal"
         font-weight="normal"
         text-decoration="normal"
         x="9"
         y="94"
         text-anchor="start"
         dominant-baseline="alphabetic"
         fill-opacity="1"
         id="text39">9</text>
      <text
         fill="#1c1c1f"
         stroke="none"
         font-family="geogebra-sans-serif, sans-serif"
         font-size="12px"
         font-style="normal"
         font-weight="normal"
         text-decoration="normal"
         x="3"
         y="25"
         text-anchor="start"
         dominant-baseline="alphabetic"
         fill-opacity="1"
         id="text40">10</text>
      <path
         fill="#ff6600"
         stroke="none"
         paint-order="stroke fill markers"
         d="m 318.52207,406.14884 c 0,30.31194 -24.57268,54.88462 -54.88461,54.88462 -30.31194,0 -54.88461,-24.57268 -54.88461,-54.88462 0,-30.31193 24.57267,-54.88461 54.88461,-54.88461 30.31193,0 54.88461,24.57268 54.88461,54.88461 z"
         fill-opacity="0.117647"
         id="path40" />
      <path
         fill="none"
         stroke="#ff6600"
         paint-order="fill stroke markers"
         d="m 318.52207,406.14884 c 0,30.31194 -24.57268,54.88462 -54.88461,54.88462 -30.31194,0 -54.88461,-24.57268 -54.88461,-54.88462 0,-30.31193 24.57267,-54.88461 54.88461,-54.88461 30.31193,0 54.88461,24.57268 54.88461,54.88461 z"
         stroke-opacity="0.698039"
         stroke-linejoin="round"
         stroke-miterlimit="10"
         stroke-width="2.5"
         stroke-dasharray="2.5, 3"
         id="path41" />
      <path
         fill="#ff6600"
         stroke="none"
         paint-order="stroke fill markers"
         d="m 640.82207,384.14884 c 0,30.31194 -24.57268,54.88462 -54.88461,54.88462 -30.31194,0 -54.88461,-24.57268 -54.88461,-54.88462 0,-30.31193 24.57267,-54.88461 54.88461,-54.88461 30.31193,0 54.88461,24.57268 54.88461,54.88461 z"
         fill-opacity="0.117647"
         id="path42" />
      <path
         fill="none"
         stroke="#ff6600"
         paint-order="fill stroke markers"
         d="m 640.82207,384.14884 c 0,30.31194 -24.57268,54.88462 -54.88461,54.88462 -30.31194,0 -54.88461,-24.57268 -54.88461,-54.88462 0,-30.31193 24.57267,-54.88461 54.88461,-54.88461 30.31193,0 54.88461,24.57268 54.88461,54.88461 z"
         stroke-opacity="0.698039"
         stroke-linejoin="round"
         stroke-miterlimit="10"
         stroke-width="2.5"
         stroke-dasharray="2.5, 3"
         id="path43" />
      <path
         fill="#ff6600"
         stroke="none"
         paint-order="stroke fill markers"
         d="m 500.02207,191.64884 c 0,30.31194 -24.57268,54.88462 -54.88461,54.88462 -30.31194,0 -54.88461,-24.57268 -54.88461,-54.88462 0,-30.31193 24.57267,-54.88461 54.88461,-54.88461 30.31193,0 54.88461,24.57268 54.88461,54.88461 z"
         fill-opacity="0.117647"
         id="path44" />
      <path
         fill="none"
         stroke="#ff6600"
         paint-order="fill stroke markers"
         d="m 500.02207,191.64884 c 0,30.31194 -24.57268,54.88462 -54.88461,54.88462 -30.31194,0 -54.88461,-24.57268 -54.88461,-54.88462 0,-30.31193 24.57267,-54.88461 54.88461,-54.88461 30.31193,0 54.88461,24.57268 54.88461,54.88461 z"
         stroke-opacity="0.698039"
         stroke-linejoin="round"
         stroke-miterlimit="10"
         stroke-width="2.5"
         stroke-dasharray="2.5, 3"
         id="path45" />
      <path
         fill="#404040"
         stroke="none"
         paint-order="stroke fill markers"
         d="m 325.89425,378.70659 c 0,3.31371 -2.68629,6 -6,6 -3.3137,0 -6,-2.68629 -6,-6 0,-3.31371 2.6863,-6 6,-6 3.31371,0 6,2.68629 6,6 z"
         fill-opacity="1"
         id="path46" />
      <path
         fill="none"
         stroke="#000000"
         paint-order="fill stroke markers"
         d="m 325.89425,378.70659 c 0,3.31371 -2.68629,6 -6,6 -3.3137,0 -6,-2.68629 -6,-6 0,-3.31371 2.6863,-6 6,-6 3.31371,0 6,2.68629 6,6 z"
         stroke-opacity="1"
         stroke-linecap="round"
         stroke-linejoin="round"
         stroke-miterlimit="10"
         id="path47" />
      <path
         fill="#404040"
         stroke="none"
         paint-order="stroke fill markers"
         d="m 413.70957,369.10173 c 0,3.31371 -2.6863,6 -6,6 -3.31371,0 -6,-2.68629 -6,-6 0,-3.31371 2.68629,-6 6,-6 3.3137,0 6,2.68629 6,6 z"
         fill-opacity="1"
         id="path48" />
      <path
         fill="none"
         stroke="#000000"
         paint-order="fill stroke markers"
         d="m 413.70957,369.10173 c 0,3.31371 -2.6863,6 -6,6 -3.31371,0 -6,-2.68629 -6,-6 0,-3.31371 2.68629,-6 6,-6 3.3137,0 6,2.68629 6,6 z"
         stroke-opacity="1"
         stroke-linecap="round"
         stroke-linejoin="round"
         stroke-miterlimit="10"
         id="path49" />
      <path
         fill="#404040"
         stroke="none"
         paint-order="stroke fill markers"
         d="m 379.40668,307.35654 c 0,3.31371 -2.68629,6 -6,6 -3.31371,0 -6,-2.68629 -6,-6 0,-3.31371 2.68629,-6 6,-6 3.31371,0 6,2.68629 6,6 z"
         fill-opacity="1"
         id="path50" />
      <path
         fill="none"
         stroke="#000000"
         paint-order="fill stroke markers"
         d="m 379.40668,307.35654 c 0,3.31371 -2.68629,6 -6,6 -3.31371,0 -6,-2.68629 -6,-6 0,-3.31371 2.68629,-6 6,-6 3.31371,0 6,2.68629 6,6 z"
         stroke-opacity="1"
         stroke-linecap="round"
         stroke-linejoin="round"
         stroke-miterlimit="10"
         id="path51" />
      <path
         fill="#404040"
         stroke="none"
         paint-order="stroke fill markers"
         d="m 284.73073,300.49596 c 0,3.31371 -2.68629,6 -6,6 -3.31371,0 -6,-2.68629 -6,-6 0,-3.3137 2.68629,-6 6,-6 3.31371,0 6,2.6863 6,6 z"
         fill-opacity="1"
         id="path52" />
      <path
         fill="none"
         stroke="#000000"
         paint-order="fill stroke markers"
         d="m 284.73073,300.49596 c 0,3.31371 -2.68629,6 -6,6 -3.31371,0 -6,-2.68629 -6,-6 0,-3.3137 2.68629,-6 6,-6 3.31371,0 6,2.6863 6,6 z"
         stroke-opacity="1"
         stroke-linecap="round"
         stroke-linejoin="round"
         stroke-miterlimit="10"
         id="path53" />
      <path
         fill="#404040"
         stroke="none"
         paint-order="stroke fill markers"
         d="m 301.19611,352.63635 c 0,3.3137 -2.68629,6 -6,6 -3.31371,0 -6,-2.6863 -6,-6 0,-3.31371 2.68629,-6 6,-6 3.31371,0 6,2.68629 6,6 z"
         fill-opacity="1"
         id="path54" />
      <path
         fill="none"
         stroke="#000000"
         paint-order="fill stroke markers"
         d="m 301.19611,352.63635 c 0,3.3137 -2.68629,6 -6,6 -3.31371,0 -6,-2.6863 -6,-6 0,-3.31371 2.68629,-6 6,-6 3.31371,0 6,2.68629 6,6 z"
         stroke-opacity="1"
         stroke-linecap="round"
         stroke-linejoin="round"
         stroke-miterlimit="10"
         id="path55" />
      <path
         fill="#404040"
         stroke="none"
         paint-order="stroke fill markers"
         d="m 317.66149,411.6373 c 0,3.31371 -2.68629,6 -6,6 -3.3137,0 -6,-2.68629 -6,-6 0,-3.3137 2.6863,-6 6,-6 3.31371,0 6,2.6863 6,6 z"
         fill-opacity="1"
         id="path56" />
      <path
         fill="none"
         stroke="#000000"
         paint-order="fill stroke markers"
         d="m 317.66149,411.6373 c 0,3.31371 -2.68629,6 -6,6 -3.3137,0 -6,-2.68629 -6,-6 0,-3.3137 2.6863,-6 6,-6 3.31371,0 6,2.6863 6,6 z"
         stroke-opacity="1"
         stroke-linecap="round"
         stroke-linejoin="round"
         stroke-miterlimit="10"
         id="path57" />
      <path
         fill="#404040"
         stroke="none"
         paint-order="stroke fill markers"
         d="m 605.80571,314.21712 c 0,3.31371 -2.68629,6 -6,6 -3.31371,0 -6,-2.68629 -6,-6 0,-3.31371 2.68629,-6 6,-6 3.31371,0 6,2.68629 6,6 z"
         fill-opacity="1"
         id="path58" />
      <path
         fill="none"
         stroke="#000000"
         paint-order="fill stroke markers"
         d="m 605.80571,314.21712 c 0,3.31371 -2.68629,6 -6,6 -3.31371,0 -6,-2.68629 -6,-6 0,-3.31371 2.68629,-6 6,-6 3.31371,0 6,2.68629 6,6 z"
         stroke-opacity="1"
         stroke-linecap="round"
         stroke-linejoin="round"
         stroke-miterlimit="10"
         id="path59" />
      <path
         fill="#404040"
         stroke="none"
         paint-order="stroke fill markers"
         d="m 539.94417,459.66134 c 0,3.31371 -2.68629,6 -6,6 -3.3137,0 -6,-2.68629 -6,-6 0,-3.31371 2.6863,-6 6,-6 3.31371,0 6,2.68629 6,6 z"
         fill-opacity="1"
         id="path60" />
      <path
         fill="none"
         stroke="#000000"
         paint-order="fill stroke markers"
         d="m 539.94417,459.66134 c 0,3.31371 -2.68629,6 -6,6 -3.3137,0 -6,-2.68629 -6,-6 0,-3.31371 2.6863,-6 6,-6 3.31371,0 6,2.68629 6,6 z"
         stroke-opacity="1"
         stroke-linecap="round"
         stroke-linejoin="round"
         stroke-miterlimit="10"
         id="path61" />
      <path
         fill="#404040"
         stroke="none"
         paint-order="stroke fill markers"
         d="m 637.36436,371.84596 c 0,3.31371 -2.68629,6 -6,6 -3.31371,0 -6,-2.68629 -6,-6 0,-3.31371 2.68629,-6 6,-6 3.31371,0 6,2.68629 6,6 z"
         fill-opacity="1"
         id="path62" />
      <path
         fill="none"
         stroke="#000000"
         paint-order="fill stroke markers"
         d="m 637.36436,371.84596 c 0,3.31371 -2.68629,6 -6,6 -3.31371,0 -6,-2.68629 -6,-6 0,-3.31371 2.68629,-6 6,-6 3.31371,0 6,2.68629 6,6 z"
         stroke-opacity="1"
         stroke-linecap="round"
         stroke-linejoin="round"
         stroke-miterlimit="10"
         id="path63" />
      <path
         fill="#404040"
         stroke="none"
         paint-order="stroke fill markers"
         d="m 679.89994,275.79789 c 0,3.31371 -2.6863,6 -6,6 -3.31371,0 -6,-2.68629 -6,-6 0,-3.31371 2.68629,-6 6,-6 3.3137,0 6,2.68629 6,6 z"
         fill-opacity="1"
         id="path64" />
      <path
         fill="none"
         stroke="#000000"
         paint-order="fill stroke markers"
         d="m 679.89994,275.79789 c 0,3.31371 -2.6863,6 -6,6 -3.31371,0 -6,-2.68629 -6,-6 0,-3.31371 2.68629,-6 6,-6 3.3137,0 6,2.68629 6,6 z"
         stroke-opacity="1"
         stroke-linecap="round"
         stroke-linejoin="round"
         stroke-miterlimit="10"
         id="path65" />
      <path
         fill="#404040"
         stroke="none"
         paint-order="stroke fill markers"
         d="m 615.41052,161.91232 c 0,3.31371 -2.6863,6 -6,6 -3.31371,0 -6,-2.68629 -6,-6 0,-3.31371 2.68629,-6 6,-6 3.3137,0 6,2.68629 6,6 z"
         fill-opacity="1"
         id="path66" />
      <path
         fill="none"
         stroke="#000000"
         paint-order="fill stroke markers"
         d="m 615.41052,161.91232 c 0,3.31371 -2.6863,6 -6,6 -3.31371,0 -6,-2.68629 -6,-6 0,-3.31371 2.68629,-6 6,-6 3.3137,0 6,2.68629 6,6 z"
         stroke-opacity="1"
         stroke-linecap="round"
         stroke-linejoin="round"
         stroke-miterlimit="10"
         id="path67" />
      <path
         fill="#404040"
         stroke="none"
         paint-order="stroke fill markers"
         d="m 603.06148,242.86712 c 0,3.31371 -2.68629,6 -6,6 -3.31371,0 -6,-2.68629 -6,-6 0,-3.31371 2.68629,-6 6,-6 3.31371,0 6,2.68629 6,6 z"
         fill-opacity="1"
         id="path68" />
      <path
         fill="none"
         stroke="#000000"
         paint-order="fill stroke markers"
         d="m 603.06148,242.86712 c 0,3.31371 -2.68629,6 -6,6 -3.31371,0 -6,-2.68629 -6,-6 0,-3.31371 2.68629,-6 6,-6 3.31371,0 6,2.68629 6,6 z"
         stroke-opacity="1"
         stroke-linecap="round"
         stroke-linejoin="round"
         stroke-miterlimit="10"
         id="path69" />
      <path
         fill="#404040"
         stroke="none"
         paint-order="stroke fill markers"
         d="m 533.0836,216.79693 c 0,3.31371 -2.68629,6 -6,6 -3.31371,0 -6,-2.68629 -6,-6 0,-3.31371 2.68629,-6 6,-6 3.31371,0 6,2.68629 6,6 z"
         fill-opacity="1"
         id="path70" />
      <path
         fill="none"
         stroke="#000000"
         paint-order="fill stroke markers"
         d="m 533.0836,216.79693 c 0,3.31371 -2.68629,6 -6,6 -3.31371,0 -6,-2.68629 -6,-6 0,-3.31371 2.68629,-6 6,-6 3.31371,0 6,2.68629 6,6 z"
         stroke-opacity="1"
         stroke-linecap="round"
         stroke-linejoin="round"
         stroke-miterlimit="10"
         id="path71" />
      <path
         fill="#404040"
         stroke="none"
         paint-order="stroke fill markers"
         d="m 533.0836,285.4027 c 0,3.3137 -2.68629,6 -6,6 -3.31371,0 -6,-2.6863 -6,-6 0,-3.31371 2.68629,-6 6,-6 3.31371,0 6,2.68629 6,6 z"
         fill-opacity="1"
         id="path72" />
      <path
         fill="none"
         stroke="#000000"
         paint-order="fill stroke markers"
         d="m 533.0836,285.4027 c 0,3.3137 -2.68629,6 -6,6 -3.31371,0 -6,-2.6863 -6,-6 0,-3.31371 2.68629,-6 6,-6 3.31371,0 6,2.68629 6,6 z"
         stroke-opacity="1"
         stroke-linecap="round"
         stroke-linejoin="round"
         stroke-miterlimit="10"
         id="path73" />
      <path
         fill="#404040"
         stroke="none"
         paint-order="stroke fill markers"
         d="m 660.69032,330.6825 c 0,3.31371 -2.68629,6 -6,6 -3.31371,0 -6,-2.68629 -6,-6 0,-3.31371 2.68629,-6 6,-6 3.31371,0 6,2.68629 6,6 z"
         fill-opacity="1"
         id="path74" />
      <path
         fill="none"
         stroke="#000000"
         paint-order="fill stroke markers"
         d="m 660.69032,330.6825 c 0,3.31371 -2.68629,6 -6,6 -3.31371,0 -6,-2.68629 -6,-6 0,-3.31371 2.68629,-6 6,-6 3.31371,0 6,2.68629 6,6 z"
         stroke-opacity="1"
         stroke-linecap="round"
         stroke-linejoin="round"
         stroke-miterlimit="10"
         id="path75" />
      <path
         fill="#404040"
         stroke="none"
         paint-order="stroke fill markers"
         d="m 280.61438,458.28922 c 0,3.31371 -2.68629,6 -6,6 -3.31371,0 -6,-2.68629 -6,-6 0,-3.3137 2.68629,-6 6,-6 3.31371,0 6,2.6863 6,6 z"
         fill-opacity="1"
         id="path76" />
      <path
         fill="none"
         stroke="#000000"
         paint-order="fill stroke markers"
         d="m 280.61438,458.28922 c 0,3.31371 -2.68629,6 -6,6 -3.31371,0 -6,-2.68629 -6,-6 0,-3.3137 2.68629,-6 6,-6 3.31371,0 6,2.6863 6,6 z"
         stroke-opacity="1"
         stroke-linecap="round"
         stroke-linejoin="round"
         stroke-miterlimit="10"
         id="path77" />
      <path
         fill="#009900"
         stroke="none"
         paint-order="stroke fill markers"
         d="m 269.63746,406.14884 c 0,3.31371 -2.68629,6 -6,6 -3.31371,0 -6,-2.68629 -6,-6 0,-3.31371 2.68629,-6 6,-6 3.31371,0 6,2.68629 6,6 z"
         fill-opacity="1"
         id="path78" />
      <path
         fill="none"
         stroke="#000000"
         paint-order="fill stroke markers"
         d="m 269.63746,406.14884 c 0,3.31371 -2.68629,6 -6,6 -3.31371,0 -6,-2.68629 -6,-6 0,-3.31371 2.68629,-6 6,-6 3.31371,0 6,2.68629 6,6 z"
         stroke-opacity="1"
         stroke-linecap="round"
         stroke-linejoin="round"
         stroke-miterlimit="10"
         id="path79" />
      <path
         fill="#404040"
         stroke="none"
         paint-order="stroke fill markers"
         d="m 251.79996,374.59019 c 0,3.31371 -2.68629,6 -6,6 -3.31371,0 -6,-2.68629 -6,-6 0,-3.31371 2.68629,-6 6,-6 3.31371,0 6,2.68629 6,6 z"
         fill-opacity="1"
         id="path80" />
      <path
         fill="none"
         stroke="#000000"
         paint-order="fill stroke markers"
         d="m 251.79996,374.59019 c 0,3.31371 -2.68629,6 -6,6 -3.31371,0 -6,-2.68629 -6,-6 0,-3.31371 2.68629,-6 6,-6 3.31371,0 6,2.68629 6,6 z"
         stroke-opacity="1"
         stroke-linecap="round"
         stroke-linejoin="round"
         stroke-miterlimit="10"
         id="path81" />
      <path
         fill="#404040"
         stroke="none"
         paint-order="stroke fill markers"
         d="m 232.59034,443.19596 c 0,3.3137 -2.68629,6 -6,6 -3.3137,0 -6,-2.6863 -6,-6 0,-3.31371 2.6863,-6 6,-6 3.31371,0 6,2.68629 6,6 z"
         fill-opacity="1"
         id="path82" />
      <path
         fill="none"
         stroke="#000000"
         paint-order="fill stroke markers"
         d="m 232.59034,443.19596 c 0,3.3137 -2.68629,6 -6,6 -3.3137,0 -6,-2.6863 -6,-6 0,-3.31371 2.6863,-6 6,-6 3.31371,0 6,2.68629 6,6 z"
         stroke-opacity="1"
         stroke-linecap="round"
         stroke-linejoin="round"
         stroke-miterlimit="10"
         id="path83" />
      <path
         fill="#404040"
         stroke="none"
         paint-order="stroke fill markers"
         d="m 238.07881,410.26519 c 0,3.31371 -2.6863,6 -6,6 -3.31371,0 -6,-2.68629 -6,-6 0,-3.31371 2.68629,-6 6,-6 3.3137,0 6,2.68629 6,6 z"
         fill-opacity="1"
         id="path84" />
      <path
         fill="none"
         stroke="#000000"
         paint-order="fill stroke markers"
         d="m 238.07881,410.26519 c 0,3.31371 -2.6863,6 -6,6 -3.31371,0 -6,-2.68629 -6,-6 0,-3.31371 2.68629,-6 6,-6 3.3137,0 6,2.68629 6,6 z"
         stroke-opacity="1"
         stroke-linecap="round"
         stroke-linejoin="round"
         stroke-miterlimit="10"
         id="path85" />
      <path
         fill="#404040"
         stroke="none"
         paint-order="stroke fill markers"
         d="m 286.10284,380.07865 c 0,3.31371 -2.68629,6 -6,6 -3.31371,0 -6,-2.68629 -6,-6 0,-3.31371 2.68629,-6 6,-6 3.31371,0 6,2.68629 6,6 z"
         fill-opacity="1"
         id="path86" />
      <path
         fill="none"
         stroke="#000000"
         paint-order="fill stroke markers"
         d="m 286.10284,380.07865 c 0,3.31371 -2.68629,6 -6,6 -3.31371,0 -6,-2.68629 -6,-6 0,-3.31371 2.68629,-6 6,-6 3.31371,0 6,2.68629 6,6 z"
         stroke-opacity="1"
         stroke-linecap="round"
         stroke-linejoin="round"
         stroke-miterlimit="10"
         id="path87" />
      <path
         fill="#404040"
         stroke="none"
         paint-order="stroke fill markers"
         d="m 331.38265,445.94019 c 0,3.31371 -2.68629,6 -6,6 -3.31371,0 -6,-2.68629 -6,-6 0,-3.31371 2.68629,-6 6,-6 3.31371,0 6,2.68629 6,6 z"
         fill-opacity="1"
         id="path88" />
      <path
         fill="none"
         stroke="#000000"
         paint-order="fill stroke markers"
         d="m 331.38265,445.94019 c 0,3.31371 -2.68629,6 -6,6 -3.31371,0 -6,-2.68629 -6,-6 0,-3.31371 2.68629,-6 6,-6 3.31371,0 6,2.68629 6,6 z"
         stroke-opacity="1"
         stroke-linecap="round"
         stroke-linejoin="round"
         stroke-miterlimit="10"
         id="path89" />
      <path
         fill="#404040"
         stroke="none"
         paint-order="stroke fill markers"
         d="m 161.24035,348.52 c 0,3.31371 -2.68629,6 -6,6 -3.31371,0 -6,-2.68629 -6,-6 0,-3.31371 2.68629,-6 6,-6 3.31371,0 6,2.68629 6,6 z"
         fill-opacity="1"
         id="path90" />
      <path
         fill="none"
         stroke="#000000"
         paint-order="fill stroke markers"
         d="m 161.24035,348.52 c 0,3.31371 -2.68629,6 -6,6 -3.31371,0 -6,-2.68629 -6,-6 0,-3.31371 2.68629,-6 6,-6 3.31371,0 6,2.68629 6,6 z"
         stroke-opacity="1"
         stroke-linecap="round"
         stroke-linejoin="round"
         stroke-miterlimit="10"
         id="path91" />
      <path
         fill="#404040"
         stroke="none"
         paint-order="stroke fill markers"
         d="m 564.64225,352.63635 c 0,3.3137 -2.68629,6 -6,6 -3.31371,0 -6,-2.6863 -6,-6 0,-3.31371 2.68629,-6 6,-6 3.31371,0 6,2.68629 6,6 z"
         fill-opacity="1"
         id="path92" />
      <path
         fill="none"
         stroke="#000000"
         paint-order="fill stroke markers"
         d="m 564.64225,352.63635 c 0,3.3137 -2.68629,6 -6,6 -3.31371,0 -6,-2.6863 -6,-6 0,-3.31371 2.68629,-6 6,-6 3.31371,0 6,2.68629 6,6 z"
         stroke-opacity="1"
         stroke-linecap="round"
         stroke-linejoin="round"
         stroke-miterlimit="10"
         id="path93" />
      <path
         fill="#404040"
         stroke="none"
         paint-order="stroke fill markers"
         d="m 662.49335,226.72492 c 0,3.31371 -2.68629,6 -6,6 -3.31371,0 -6,-2.68629 -6,-6 0,-3.31371 2.68629,-6 6,-6 3.31371,0 6,2.68629 6,6 z"
         fill-opacity="1"
         id="path94" />
      <path
         fill="none"
         stroke="#000000"
         paint-order="fill stroke markers"
         d="m 662.49335,226.72492 c 0,3.31371 -2.68629,6 -6,6 -3.31371,0 -6,-2.68629 -6,-6 0,-3.31371 2.68629,-6 6,-6 3.31371,0 6,2.68629 6,6 z"
         stroke-opacity="1"
         stroke-linecap="round"
         stroke-linejoin="round"
         stroke-miterlimit="10"
         id="path95" />
      <path
         fill="#404040"
         stroke="none"
         paint-order="stroke fill markers"
         d="m 533.0836,285.4027 c 0,3.3137 -2.68629,6 -6,6 -3.31371,0 -6,-2.6863 -6,-6 0,-3.31371 2.68629,-6 6,-6 3.31371,0 6,2.68629 6,6 z"
         fill-opacity="1"
         id="path96" />
      <path
         fill="none"
         stroke="#000000"
         paint-order="fill stroke markers"
         d="m 533.0836,285.4027 c 0,3.3137 -2.68629,6 -6,6 -3.31371,0 -6,-2.6863 -6,-6 0,-3.31371 2.68629,-6 6,-6 3.31371,0 6,2.68629 6,6 z"
         stroke-opacity="1"
         stroke-linecap="round"
         stroke-linejoin="round"
         stroke-miterlimit="10"
         id="path97" />
      <path
         fill="#404040"
         stroke="none"
         paint-order="stroke fill markers"
         d="m 533.0836,285.4027 c 0,3.3137 -2.68629,6 -6,6 -3.31371,0 -6,-2.6863 -6,-6 0,-3.31371 2.68629,-6 6,-6 3.31371,0 6,2.68629 6,6 z"
         fill-opacity="1"
         id="path98" />
      <path
         fill="none"
         stroke="#000000"
         paint-order="fill stroke markers"
         d="m 533.0836,285.4027 c 0,3.3137 -2.68629,6 -6,6 -3.31371,0 -6,-2.6863 -6,-6 0,-3.31371 2.68629,-6 6,-6 3.31371,0 6,2.68629 6,6 z"
         stroke-opacity="1"
         stroke-linecap="round"
         stroke-linejoin="round"
         stroke-miterlimit="10"
         id="path99" />
      <path
         fill="#404040"
         stroke="none"
         paint-order="stroke fill markers"
         d="m 468.59418,263.44885 c 0,3.31371 -2.68629,6 -6,6 -3.31371,0 -6,-2.68629 -6,-6 0,-3.31371 2.68629,-6 6,-6 3.31371,0 6,2.68629 6,6 z"
         fill-opacity="1"
         id="path100" />
      <path
         fill="none"
         stroke="#000000"
         paint-order="fill stroke markers"
         d="m 468.59418,263.44885 c 0,3.31371 -2.68629,6 -6,6 -3.31371,0 -6,-2.68629 -6,-6 0,-3.31371 2.68629,-6 6,-6 3.31371,0 6,2.68629 6,6 z"
         stroke-opacity="1"
         stroke-linecap="round"
         stroke-linejoin="round"
         stroke-miterlimit="10"
         id="path101" />
      <path
         fill="#a0a0a0"
         stroke="none"
         paint-order="stroke fill markers"
         d="m 591.93746,384.14884 c 0,3.31371 -2.68629,6 -6,6 -3.31371,0 -6,-2.68629 -6,-6 0,-3.31371 2.68629,-6 6,-6 3.31371,0 6,2.68629 6,6 z"
         fill-opacity="1"
         id="path102" />
      <path
         fill="none"
         stroke="#000000"
         paint-order="fill stroke markers"
         d="m 591.93746,384.14884 c 0,3.31371 -2.68629,6 -6,6 -3.31371,0 -6,-2.68629 -6,-6 0,-3.31371 2.68629,-6 6,-6 3.31371,0 6,2.68629 6,6 z"
         stroke-opacity="1"
         stroke-linecap="round"
         stroke-linejoin="round"
         stroke-miterlimit="10"
         id="path103" />
      <path
         fill="#a0a0a0"
         stroke="none"
         paint-order="stroke fill markers"
         d="m 451.13746,191.64884 c 0,3.31371 -2.68629,6 -6,6 -3.31371,0 -6,-2.68629 -6,-6 0,-3.31371 2.68629,-6 6,-6 3.31371,0 6,2.68629 6,6 z"
         fill-opacity="1"
         id="path104" />
      <path
         fill="none"
         stroke="#000000"
         paint-order="fill stroke markers"
         d="m 451.13746,191.64884 c 0,3.31371 -2.68629,6 -6,6 -3.31371,0 -6,-2.68629 -6,-6 0,-3.31371 2.68629,-6 6,-6 3.31371,0 6,2.68629 6,6 z"
         stroke-opacity="1"
         stroke-linecap="round"
         stroke-linejoin="round"
         stroke-miterlimit="10"
         id="path105" />
      <path
         fill="#404040"
         stroke="none"
         paint-order="stroke fill markers"
         d="m 626,273 c 0,3.31371 -2.68629,6 -6,6 -3.31371,0 -6,-2.68629 -6,-6 0,-3.31371 2.68629,-6 6,-6 3.31371,0 6,2.68629 6,6 z"
         fill-opacity="1"
         id="path106" />
      <path
         fill="none"
         stroke="#000000"
         paint-order="fill stroke markers"
         d="m 626,273 c 0,3.31371 -2.68629,6 -6,6 -3.31371,0 -6,-2.68629 -6,-6 0,-3.31371 2.68629,-6 6,-6 3.31371,0 6,2.68629 6,6 z"
         stroke-opacity="1"
         stroke-linecap="round"
         stroke-linejoin="round"
         stroke-miterlimit="10"
         id="path107" />
      <path
         fill="#404040"
         stroke="none"
         paint-order="stroke fill markers"
         d="m 578,259 c 0,3.31371 -2.68629,6 -6,6 -3.31371,0 -6,-2.68629 -6,-6 0,-3.31371 2.68629,-6 6,-6 3.31371,0 6,2.68629 6,6 z"
         fill-opacity="1"
         id="path108" />
      <path
         fill="none"
         stroke="#000000"
         paint-order="fill stroke markers"
         d="m 578,259 c 0,3.31371 -2.68629,6 -6,6 -3.31371,0 -6,-2.68629 -6,-6 0,-3.31371 2.68629,-6 6,-6 3.31371,0 6,2.68629 6,6 z"
         stroke-opacity="1"
         stroke-linecap="round"
         stroke-linejoin="round"
         stroke-miterlimit="10"
         id="path109" />
      <path
         fill="#404040"
         stroke="none"
         paint-order="stroke fill markers"
         d="m 608,214 c 0,3.31371 -2.68629,6 -6,6 -3.31371,0 -6,-2.68629 -6,-6 0,-3.31371 2.68629,-6 6,-6 3.31371,0 6,2.68629 6,6 z"
         fill-opacity="1"
         id="path110" />
      <path
         fill="none"
         stroke="#000000"
         paint-order="fill stroke markers"
         d="m 608,214 c 0,3.31371 -2.68629,6 -6,6 -3.31371,0 -6,-2.68629 -6,-6 0,-3.31371 2.68629,-6 6,-6 3.31371,0 6,2.68629 6,6 z"
         stroke-opacity="1"
         stroke-linecap="round"
         stroke-linejoin="round"
         stroke-miterlimit="10"
         id="path111" />
      <path
         fill="#404040"
         stroke="none"
         paint-order="stroke fill markers"
         d="m 622,248 c 0,3.31371 -2.68629,6 -6,6 -3.31371,0 -6,-2.68629 -6,-6 0,-3.31371 2.68629,-6 6,-6 3.31371,0 6,2.68629 6,6 z"
         fill-opacity="1"
         id="path112" />
      <path
         fill="none"
         stroke="#000000"
         paint-order="fill stroke markers"
         d="m 622,248 c 0,3.31371 -2.68629,6 -6,6 -3.31371,0 -6,-2.68629 -6,-6 0,-3.31371 2.68629,-6 6,-6 3.31371,0 6,2.68629 6,6 z"
         stroke-opacity="1"
         stroke-linecap="round"
         stroke-linejoin="round"
         stroke-miterlimit="10"
         id="path113" />
    </g>
  </g>
</svg>
