<?xml version="1.0" encoding="UTF-8" standalone="no"?>
<svg
   version="1.1"
   width="205.60243mm"
   height="166.29114mm"
   id="svg126"
   sodipodi:docname="lda_toy.svg"
   inkscape:version="1.4.2 (f4327f4, 2025-05-13)"
   xmlns:inkscape="http://www.inkscape.org/namespaces/inkscape"
   xmlns:sodipodi="http://sodipodi.sourceforge.net/DTD/sodipodi-0.dtd"
   xmlns="http://www.w3.org/2000/svg"
   xmlns:svg="http://www.w3.org/2000/svg">
  <sodipodi:namedview
     id="namedview126"
     pagecolor="#ffffff"
     bordercolor="#666666"
     borderopacity="1.0"
     inkscape:showpageshadow="2"
     inkscape:pageopacity="0.0"
     inkscape:pagecheckerboard="0"
     inkscape:deskcolor="#d1d1d1"
     inkscape:zoom="0.84804631"
     inkscape:cx="423.91553"
     inkscape:cy="312.48294"
     inkscape:window-width="1440"
     inkscape:window-height="830"
     inkscape:window-x="-6"
     inkscape:window-y="-6"
     inkscape:window-maximized="1"
     inkscape:current-layer="svg126"
     inkscape:document-units="mm" />
  <defs
     id="defs1">
    <clipPath
       id="krlKBempUqXx">
      <path
         fill="none"
         stroke="none"
         d="M 0,0 H 1140 V 691 H 0 Z"
         id="path1" />
    </clipPath>
  </defs>
  <g
     clip-path="url(#krlKBempUqXx)"
     id="g126"
     transform="translate(-146.21875,-33.017578)">
    <g
       id="g125">
      <path
         fill="none"
         stroke="#003399"
         paint-order="fill stroke markers"
         d="M 536.59075,640.0714 C 632.45397,613.5995 656.46088,505.70195 590.21168,399.07547 523.96248,292.44898 392.54439,227.47086 296.68117,253.94275 c -95.86322,26.4719 -119.87013,134.36946 -53.62092,240.99594 66.2492,106.62648 197.66728,171.60461 293.5305,145.13271 z"
         stroke-opacity="0.101961"
         stroke-linecap="round"
         stroke-linejoin="round"
         stroke-miterlimit="10"
         stroke-width="2.5"
         id="path2" />
      <path
         fill="none"
         stroke="#006699"
         paint-order="fill stroke markers"
         d="M 521.80375,616.27208 C 605.84978,593.06341 626.89732,498.46655 568.81475,404.98406 510.73218,311.50158 395.51419,254.5334 311.46817,277.74207 c -84.04602,23.20867 -105.09356,117.80554 -47.011,211.28802 58.08257,93.48248 173.30056,150.45066 257.34658,127.24199 z"
         stroke-opacity="0.101961"
         stroke-linecap="round"
         stroke-linejoin="round"
         stroke-miterlimit="10"
         stroke-width="2.5"
         id="path3" />
      <path
         fill="none"
         stroke="#0099ff"
         paint-order="fill stroke markers"
         d="m 474.33247,539.86821 c 46.10882,-12.7326 57.65579,-64.62975 25.79089,-115.91554 -31.8649,-51.28579 -95.07509,-82.53933 -141.18391,-69.80673 -46.10882,12.7326 -57.65579,64.62976 -25.79088,115.91554 31.8649,51.28579 95.07509,82.53933 141.1839,69.80673 z"
         stroke-opacity="0.101961"
         stroke-linecap="round"
         stroke-linejoin="round"
         stroke-miterlimit="10"
         stroke-width="2.5"
         id="path4" />
      <path
         fill="none"
         stroke="#0099cc"
         paint-order="fill stroke markers"
         d="m 498.24587,578.35624 c 65.21947,-18.00986 81.5523,-91.41676 36.4804,-163.9589 -45.07191,-72.54214 -134.48074,-116.74928 -199.70021,-98.73942 -65.21948,18.00986 -81.55231,91.41675 -36.4804,163.95889 45.0719,72.54214 134.48073,116.74929 199.70021,98.73943 z"
         stroke-opacity="0.101961"
         stroke-linecap="round"
         stroke-linejoin="round"
         stroke-miterlimit="10"
         stroke-width="2.5"
         id="path5" />
      <path
         fill="none"
         stroke="#800000"
         paint-order="fill stroke markers"
         d="M 764.65942,450.01418 C 860.52264,423.54228 884.52955,315.64472 818.28034,209.01824 752.03114,102.39176 620.61306,37.413633 524.74984,63.88553 428.88662,90.357428 404.87971,198.25498 471.12891,304.88146 537.37812,411.50794 668.7962,476.48607 764.65942,450.01418 Z"
         stroke-opacity="0.101961"
         stroke-linecap="round"
         stroke-linejoin="round"
         stroke-miterlimit="10"
         stroke-width="2.5"
         id="path6" />
      <path
         fill="none"
         stroke="#cc6600"
         paint-order="fill stroke markers"
         d="M 749.87242,426.21486 C 833.91845,403.00619 854.96599,308.40932 796.88342,214.92684 738.80085,121.44436 623.58286,64.476177 539.53684,87.684846 455.49081,110.89351 434.44327,205.49038 492.52584,298.97286 c 58.08257,93.48249 173.30056,150.45067 257.34658,127.242 z"
         stroke-opacity="0.101961"
         stroke-linecap="round"
         stroke-linejoin="round"
         stroke-miterlimit="10"
         stroke-width="2.5"
         id="path7" />
      <path
         fill="none"
         stroke="#ff9933"
         paint-order="fill stroke markers"
         d="m 702.40114,349.81099 c 46.10882,-12.7326 57.65579,-64.62976 25.79089,-115.91555 -31.86491,-51.28578 -95.0751,-82.53932 -141.18391,-69.80672 -46.10882,12.7326 -57.65579,64.62975 -25.79089,115.91554 31.86491,51.28579 95.07509,82.53932 141.18391,69.80673 z"
         stroke-opacity="0.101961"
         stroke-linecap="round"
         stroke-linejoin="round"
         stroke-miterlimit="10"
         stroke-width="2.5"
         id="path8" />
      <path
         fill="none"
         stroke="#ff6600"
         paint-order="fill stroke markers"
         d="m 726.31453,388.29901 c 65.21948,-18.00986 81.55231,-91.41676 36.4804,-163.95889 -45.0719,-72.54214 -134.48073,-116.74929 -199.70021,-98.73943 -65.21947,18.00986 -81.5523,91.41676 -36.48039,163.9589 45.0719,72.54214 134.48073,116.74928 199.7002,98.73942 z"
         stroke-opacity="0.101961"
         stroke-linecap="round"
         stroke-linejoin="round"
         stroke-miterlimit="10"
         stroke-width="2.5"
         id="path9" />
      <path
         fill="#4d4dff"
         stroke="none"
         paint-order="stroke fill markers"
         d="m 398.07867,407.75266 c 0,3.31371 -2.68629,6 -6,6 -3.31371,0 -6,-2.68629 -6,-6 0,-3.31371 2.68629,-6 6,-6 3.31371,0 6,2.68629 6,6 z"
         fill-opacity="1"
         id="path10" />
      <path
         fill="none"
         stroke="#000000"
         paint-order="fill stroke markers"
         d="m 398.07867,407.75266 c 0,3.31371 -2.68629,6 -6,6 -3.31371,0 -6,-2.68629 -6,-6 0,-3.31371 2.68629,-6 6,-6 3.31371,0 6,2.68629 6,6 z"
         stroke-opacity="1"
         stroke-linecap="round"
         stroke-linejoin="round"
         stroke-miterlimit="10"
         id="path11" />
      <path
         fill="#4d4dff"
         stroke="none"
         paint-order="stroke fill markers"
         d="m 458.38624,427.46088 c 0,3.3137 -2.68629,6 -6,6 -3.3137,0 -6,-2.6863 -6,-6 0,-3.31371 2.6863,-6 6,-6 3.31371,0 6,2.68629 6,6 z"
         fill-opacity="1"
         id="path12" />
      <path
         fill="none"
         stroke="#000000"
         paint-order="fill stroke markers"
         d="m 458.38624,427.46088 c 0,3.3137 -2.68629,6 -6,6 -3.3137,0 -6,-2.6863 -6,-6 0,-3.31371 2.6863,-6 6,-6 3.31371,0 6,2.68629 6,6 z"
         stroke-opacity="1"
         stroke-linecap="round"
         stroke-linejoin="round"
         stroke-miterlimit="10"
         id="path13" />
      <path
         fill="#4d4dff"
         stroke="none"
         paint-order="stroke fill markers"
         d="m 398.07874,407.75254 c 0,3.31371 -2.68629,6 -6,6 -3.3137,0 -6,-2.68629 -6,-6 0,-3.31371 2.6863,-6 6,-6 3.31371,0 6,2.68629 6,6 z"
         fill-opacity="1"
         id="path14" />
      <path
         fill="none"
         stroke="#000000"
         paint-order="fill stroke markers"
         d="m 398.07874,407.75254 c 0,3.31371 -2.68629,6 -6,6 -3.3137,0 -6,-2.68629 -6,-6 0,-3.31371 2.6863,-6 6,-6 3.31371,0 6,2.68629 6,6 z"
         stroke-opacity="1"
         stroke-linecap="round"
         stroke-linejoin="round"
         stroke-miterlimit="10"
         id="path15" />
      <path
         fill="#4d4dff"
         stroke="none"
         paint-order="stroke fill markers"
         d="m 465.48124,464.51254 c 0,3.31371 -2.68629,6 -6,6 -3.3137,0 -6,-2.68629 -6,-6 0,-3.31371 2.6863,-6 6,-6 3.31371,0 6,2.68629 6,6 z"
         fill-opacity="1"
         id="path16" />
      <path
         fill="none"
         stroke="#000000"
         paint-order="fill stroke markers"
         d="m 465.48124,464.51254 c 0,3.31371 -2.68629,6 -6,6 -3.3137,0 -6,-2.68629 -6,-6 0,-3.31371 2.6863,-6 6,-6 3.31371,0 6,2.68629 6,6 z"
         stroke-opacity="1"
         stroke-linecap="round"
         stroke-linejoin="round"
         stroke-miterlimit="10"
         id="path17" />
      <path
         fill="#4d4dff"
         stroke="none"
         paint-order="stroke fill markers"
         d="m 379.15874,456.62921 c 0,3.31371 -2.68629,6 -6,6 -3.3137,0 -6,-2.68629 -6,-6 0,-3.31371 2.6863,-6 6,-6 3.31371,0 6,2.68629 6,6 z"
         fill-opacity="1"
         id="path18" />
      <path
         fill="none"
         stroke="#000000"
         paint-order="fill stroke markers"
         d="m 379.15874,456.62921 c 0,3.31371 -2.68629,6 -6,6 -3.3137,0 -6,-2.68629 -6,-6 0,-3.31371 2.6863,-6 6,-6 3.31371,0 6,2.68629 6,6 z"
         stroke-opacity="1"
         stroke-linecap="round"
         stroke-linejoin="round"
         stroke-miterlimit="10"
         id="path19" />
      <path
         fill="#4d4dff"
         stroke="none"
         paint-order="stroke fill markers"
         d="m 443.01374,505.50588 c 0,3.3137 -2.68629,6 -6,6 -3.3137,0 -6,-2.6863 -6,-6 0,-3.31371 2.6863,-6 6,-6 3.31371,0 6,2.68629 6,6 z"
         fill-opacity="1"
         id="path20" />
      <path
         fill="none"
         stroke="#000000"
         paint-order="fill stroke markers"
         d="m 443.01374,505.50588 c 0,3.3137 -2.68629,6 -6,6 -3.3137,0 -6,-2.6863 -6,-6 0,-3.31371 2.6863,-6 6,-6 3.31371,0 6,2.68629 6,6 z"
         stroke-opacity="1"
         stroke-linecap="round"
         stroke-linejoin="round"
         stroke-miterlimit="10"
         id="path21" />
      <path
         fill="#4d4dff"
         stroke="none"
         paint-order="stroke fill markers"
         d="m 509.23374,500.77588 c 0,3.3137 -2.68629,6 -6,6 -3.3137,0 -6,-2.6863 -6,-6 0,-3.31371 2.6863,-6 6,-6 3.31371,0 6,2.68629 6,6 z"
         fill-opacity="1"
         id="path22" />
      <path
         fill="none"
         stroke="#000000"
         paint-order="fill stroke markers"
         d="m 509.23374,500.77588 c 0,3.3137 -2.68629,6 -6,6 -3.3137,0 -6,-2.6863 -6,-6 0,-3.31371 2.6863,-6 6,-6 3.31371,0 6,2.68629 6,6 z"
         stroke-opacity="1"
         stroke-linecap="round"
         stroke-linejoin="round"
         stroke-miterlimit="10"
         id="path23" />
      <path
         fill="#4d4dff"
         stroke="none"
         paint-order="stroke fill markers"
         d="m 450.10874,354.93421 c 0,3.31371 -2.68629,6 -6,6 -3.3137,0 -6,-2.68629 -6,-6 0,-3.31371 2.6863,-6 6,-6 3.31371,0 6,2.68629 6,6 z"
         fill-opacity="1"
         id="path24" />
      <path
         fill="none"
         stroke="#000000"
         paint-order="fill stroke markers"
         d="m 450.10874,354.93421 c 0,3.31371 -2.68629,6 -6,6 -3.3137,0 -6,-2.68629 -6,-6 0,-3.31371 2.6863,-6 6,-6 3.31371,0 6,2.68629 6,6 z"
         stroke-opacity="1"
         stroke-linecap="round"
         stroke-linejoin="round"
         stroke-miterlimit="10"
         id="path25" />
      <path
         fill="#4d4dff"
         stroke="none"
         paint-order="stroke fill markers"
         d="m 499.77374,419.57754 c 0,3.31371 -2.68629,6 -6,6 -3.3137,0 -6,-2.68629 -6,-6 0,-3.31371 2.6863,-6 6,-6 3.31371,0 6,2.68629 6,6 z"
         fill-opacity="1"
         id="path26" />
      <path
         fill="none"
         stroke="#000000"
         paint-order="fill stroke markers"
         d="m 499.77374,419.57754 c 0,3.31371 -2.68629,6 -6,6 -3.3137,0 -6,-2.68629 -6,-6 0,-3.31371 2.6863,-6 6,-6 3.31371,0 6,2.68629 6,6 z"
         stroke-opacity="1"
         stroke-linecap="round"
         stroke-linejoin="round"
         stroke-miterlimit="10"
         id="path27" />
      <path
         fill="#4d4dff"
         stroke="none"
         paint-order="stroke fill markers"
         d="m 472.57624,384.89088 c 0,3.3137 -2.68629,6 -6,6 -3.3137,0 -6,-2.6863 -6,-6 0,-3.31371 2.6863,-6 6,-6 3.31371,0 6,2.68629 6,6 z"
         fill-opacity="1"
         id="path28" />
      <path
         fill="none"
         stroke="#000000"
         paint-order="fill stroke markers"
         d="m 472.57624,384.89088 c 0,3.3137 -2.68629,6 -6,6 -3.3137,0 -6,-2.6863 -6,-6 0,-3.31371 2.6863,-6 6,-6 3.31371,0 6,2.68629 6,6 z"
         stroke-opacity="1"
         stroke-linecap="round"
         stroke-linejoin="round"
         stroke-miterlimit="10"
         id="path29" />
      <path
         fill="#4d4dff"
         stroke="none"
         paint-order="stroke fill markers"
         d="m 515.14624,435.34421 c 0,3.31371 -2.68629,6 -6,6 -3.3137,0 -6,-2.68629 -6,-6 0,-3.31371 2.6863,-6 6,-6 3.31371,0 6,2.68629 6,6 z"
         fill-opacity="1"
         id="path30" />
      <path
         fill="none"
         stroke="#000000"
         paint-order="fill stroke markers"
         d="m 515.14624,435.34421 c 0,3.31371 -2.68629,6 -6,6 -3.3137,0 -6,-2.68629 -6,-6 0,-3.31371 2.6863,-6 6,-6 3.31371,0 6,2.68629 6,6 z"
         stroke-opacity="1"
         stroke-linecap="round"
         stroke-linejoin="round"
         stroke-miterlimit="10"
         id="path31" />
      <path
         fill="#4d4dff"
         stroke="none"
         paint-order="stroke fill markers"
         d="m 519.87624,462.93588 c 0,3.3137 -2.68629,6 -6,6 -3.3137,0 -6,-2.6863 -6,-6 0,-3.31371 2.6863,-6 6,-6 3.31371,0 6,2.68629 6,6 z"
         fill-opacity="1"
         id="path32" />
      <path
         fill="none"
         stroke="#000000"
         paint-order="fill stroke markers"
         d="m 519.87624,462.93588 c 0,3.3137 -2.68629,6 -6,6 -3.3137,0 -6,-2.6863 -6,-6 0,-3.31371 2.6863,-6 6,-6 3.31371,0 6,2.68629 6,6 z"
         stroke-opacity="1"
         stroke-linecap="round"
         stroke-linejoin="round"
         stroke-miterlimit="10"
         id="path33" />
      <path
         fill="#4d4dff"
         stroke="none"
         paint-order="stroke fill markers"
         d="m 474.94124,552.80588 c 0,3.3137 -2.68629,6 -6,6 -3.3137,0 -6,-2.6863 -6,-6 0,-3.31371 2.6863,-6 6,-6 3.31371,0 6,2.68629 6,6 z"
         fill-opacity="1"
         id="path34" />
      <path
         fill="none"
         stroke="#000000"
         paint-order="fill stroke markers"
         d="m 474.94124,552.80588 c 0,3.3137 -2.68629,6 -6,6 -3.3137,0 -6,-2.6863 -6,-6 0,-3.31371 2.6863,-6 6,-6 3.31371,0 6,2.68629 6,6 z"
         stroke-opacity="1"
         stroke-linecap="round"
         stroke-linejoin="round"
         stroke-miterlimit="10"
         id="path35" />
      <path
         fill="#4d4dff"
         stroke="none"
         paint-order="stroke fill markers"
         d="m 370.88124,536.25088 c 0,3.3137 -2.68629,6 -6,6 -3.3137,0 -6,-2.6863 -6,-6 0,-3.31371 2.6863,-6 6,-6 3.31371,0 6,2.68629 6,6 z"
         fill-opacity="1"
         id="path36" />
      <path
         fill="none"
         stroke="#000000"
         paint-order="fill stroke markers"
         d="m 370.88124,536.25088 c 0,3.3137 -2.68629,6 -6,6 -3.3137,0 -6,-2.6863 -6,-6 0,-3.31371 2.6863,-6 6,-6 3.31371,0 6,2.68629 6,6 z"
         stroke-opacity="1"
         stroke-linecap="round"
         stroke-linejoin="round"
         stroke-miterlimit="10"
         id="path37" />
      <path
         fill="#4d4dff"
         stroke="none"
         paint-order="stroke fill markers"
         d="m 231.34624,428.24921 c 0,3.31371 -2.68629,6 -6,6 -3.3137,0 -6,-2.68629 -6,-6 0,-3.31371 2.6863,-6 6,-6 3.31371,0 6,2.68629 6,6 z"
         fill-opacity="1"
         id="path38" />
      <path
         fill="none"
         stroke="#000000"
         paint-order="fill stroke markers"
         d="m 231.34624,428.24921 c 0,3.31371 -2.68629,6 -6,6 -3.3137,0 -6,-2.68629 -6,-6 0,-3.31371 2.6863,-6 6,-6 3.31371,0 6,2.68629 6,6 z"
         stroke-opacity="1"
         stroke-linecap="round"
         stroke-linejoin="round"
         stroke-miterlimit="10"
         id="path39" />
      <path
         fill="#4d4dff"
         stroke="none"
         paint-order="stroke fill markers"
         d="m 308.20874,329.70754 c 0,3.31371 -2.68629,6 -6,6 -3.3137,0 -6,-2.68629 -6,-6 0,-3.31371 2.6863,-6 6,-6 3.31371,0 6,2.68629 6,6 z"
         fill-opacity="1"
         id="path40" />
      <path
         fill="none"
         stroke="#000000"
         paint-order="fill stroke markers"
         d="m 308.20874,329.70754 c 0,3.31371 -2.68629,6 -6,6 -3.3137,0 -6,-2.68629 -6,-6 0,-3.31371 2.6863,-6 6,-6 3.31371,0 6,2.68629 6,6 z"
         stroke-opacity="1"
         stroke-linecap="round"
         stroke-linejoin="round"
         stroke-miterlimit="10"
         id="path41" />
      <path
         fill="#4d4dff"
         stroke="none"
         paint-order="stroke fill markers"
         d="m 329.49374,418.78921 c 0,3.31371 -2.68629,6 -6,6 -3.3137,0 -6,-2.68629 -6,-6 0,-3.31371 2.6863,-6 6,-6 3.31371,0 6,2.68629 6,6 z"
         fill-opacity="1"
         id="path42" />
      <path
         fill="none"
         stroke="#000000"
         paint-order="fill stroke markers"
         d="m 329.49374,418.78921 c 0,3.31371 -2.68629,6 -6,6 -3.3137,0 -6,-2.68629 -6,-6 0,-3.31371 2.6863,-6 6,-6 3.31371,0 6,2.68629 6,6 z"
         stroke-opacity="1"
         stroke-linecap="round"
         stroke-linejoin="round"
         stroke-miterlimit="10"
         id="path43" />
      <path
         fill="#4d4dff"
         stroke="none"
         paint-order="stroke fill markers"
         d="m 388.61874,359.66421 c 0,3.31371 -2.68629,6 -6,6 -3.3137,0 -6,-2.68629 -6,-6 0,-3.31371 2.6863,-6 6,-6 3.31371,0 6,2.68629 6,6 z"
         fill-opacity="1"
         id="path44" />
      <path
         fill="none"
         stroke="#000000"
         paint-order="fill stroke markers"
         d="m 388.61874,359.66421 c 0,3.31371 -2.68629,6 -6,6 -3.3137,0 -6,-2.68629 -6,-6 0,-3.31371 2.6863,-6 6,-6 3.31371,0 6,2.68629 6,6 z"
         stroke-opacity="1"
         stroke-linecap="round"
         stroke-linejoin="round"
         stroke-miterlimit="10"
         id="path45" />
      <path
         fill="#4d4dff"
         stroke="none"
         paint-order="stroke fill markers"
         d="m 354.32624,439.28588 c 0,3.3137 -2.68629,6 -6,6 -3.3137,0 -6,-2.6863 -6,-6 0,-3.31371 2.6863,-6 6,-6 3.31371,0 6,2.68629 6,6 z"
         fill-opacity="1"
         id="path46" />
      <path
         fill="none"
         stroke="#000000"
         paint-order="fill stroke markers"
         d="m 354.32624,439.28588 c 0,3.3137 -2.68629,6 -6,6 -3.3137,0 -6,-2.6863 -6,-6 0,-3.31371 2.6863,-6 6,-6 3.31371,0 6,2.68629 6,6 z"
         stroke-opacity="1"
         stroke-linecap="round"
         stroke-linejoin="round"
         stroke-miterlimit="10"
         id="path47" />
      <path
         fill="#4d4dff"
         stroke="none"
         paint-order="stroke fill markers"
         d="m 386.25374,491.31588 c 0,3.3137 -2.68629,6 -6,6 -3.3137,0 -6,-2.6863 -6,-6 0,-3.31371 2.6863,-6 6,-6 3.31371,0 6,2.68629 6,6 z"
         fill-opacity="1"
         id="path48" />
      <path
         fill="none"
         stroke="#000000"
         paint-order="fill stroke markers"
         d="m 386.25374,491.31588 c 0,3.3137 -2.68629,6 -6,6 -3.3137,0 -6,-2.6863 -6,-6 0,-3.31371 2.6863,-6 6,-6 3.31371,0 6,2.68629 6,6 z"
         stroke-opacity="1"
         stroke-linecap="round"
         stroke-linejoin="round"
         stroke-miterlimit="10"
         id="path49" />
      <path
         fill="#4d4dff"
         stroke="none"
         paint-order="stroke fill markers"
         d="m 323.58124,387.25588 c 0,3.3137 -2.68629,6 -6,6 -3.3137,0 -6,-2.6863 -6,-6 0,-3.31371 2.6863,-6 6,-6 3.31371,0 6,2.68629 6,6 z"
         fill-opacity="1"
         id="path50" />
      <path
         fill="none"
         stroke="#000000"
         paint-order="fill stroke markers"
         d="m 323.58124,387.25588 c 0,3.3137 -2.68629,6 -6,6 -3.3137,0 -6,-2.6863 -6,-6 0,-3.31371 2.6863,-6 6,-6 3.31371,0 6,2.68629 6,6 z"
         stroke-opacity="1"
         stroke-linecap="round"
         stroke-linejoin="round"
         stroke-miterlimit="10"
         id="path51" />
      <path
         fill="#4d4dff"
         stroke="none"
         paint-order="stroke fill markers"
         d="m 576.63624,533.88588 c 0,3.3137 -2.68629,6 -6,6 -3.3137,0 -6,-2.6863 -6,-6 0,-3.31371 2.6863,-6 6,-6 3.31371,0 6,2.68629 6,6 z"
         fill-opacity="1"
         id="path52" />
      <path
         fill="none"
         stroke="#000000"
         paint-order="fill stroke markers"
         d="m 576.63624,533.88588 c 0,3.3137 -2.68629,6 -6,6 -3.3137,0 -6,-2.6863 -6,-6 0,-3.31371 2.6863,-6 6,-6 3.31371,0 6,2.68629 6,6 z"
         stroke-opacity="1"
         stroke-linecap="round"
         stroke-linejoin="round"
         stroke-miterlimit="10"
         id="path53" />
      <path
         fill="#4d4dff"
         stroke="none"
         paint-order="stroke fill markers"
         d="m 422.91124,336.01421 c 0,3.31371 -2.68629,6 -6,6 -3.3137,0 -6,-2.68629 -6,-6 0,-3.31371 2.6863,-6 6,-6 3.31371,0 6,2.68629 6,6 z"
         fill-opacity="1"
         id="path54" />
      <path
         fill="none"
         stroke="#000000"
         paint-order="fill stroke markers"
         d="m 422.91124,336.01421 c 0,3.31371 -2.68629,6 -6,6 -3.3137,0 -6,-2.68629 -6,-6 0,-3.31371 2.6863,-6 6,-6 3.31371,0 6,2.68629 6,6 z"
         stroke-opacity="1"
         stroke-linecap="round"
         stroke-linejoin="round"
         stroke-miterlimit="10"
         id="path55" />
      <path
         fill="#4d4dff"
         stroke="none"
         paint-order="stroke fill markers"
         d="m 413.45124,433.76754 c 0,3.31371 -2.68629,6 -6,6 -3.3137,0 -6,-2.68629 -6,-6 0,-3.31371 2.6863,-6 6,-6 3.31371,0 6,2.68629 6,6 z"
         fill-opacity="1"
         id="path56" />
      <path
         fill="none"
         stroke="#000000"
         paint-order="fill stroke markers"
         d="m 413.45124,433.76754 c 0,3.31371 -2.68629,6 -6,6 -3.3137,0 -6,-2.68629 -6,-6 0,-3.31371 2.6863,-6 6,-6 3.31371,0 6,2.68629 6,6 z"
         stroke-opacity="1"
         stroke-linecap="round"
         stroke-linejoin="round"
         stroke-miterlimit="10"
         id="path57" />
      <path
         fill="#4d4dff"
         stroke="none"
         paint-order="stroke fill markers"
         d="m 531.70124,392.77421 c 0,3.31371 -2.68629,6 -6,6 -3.3137,0 -6,-2.68629 -6,-6 0,-3.31371 2.6863,-6 6,-6 3.31371,0 6,2.68629 6,6 z"
         fill-opacity="1"
         id="path58" />
      <path
         fill="none"
         stroke="#000000"
         paint-order="fill stroke markers"
         d="m 531.70124,392.77421 c 0,3.31371 -2.68629,6 -6,6 -3.3137,0 -6,-2.68629 -6,-6 0,-3.31371 2.6863,-6 6,-6 3.31371,0 6,2.68629 6,6 z"
         stroke-opacity="1"
         stroke-linecap="round"
         stroke-linejoin="round"
         stroke-miterlimit="10"
         id="path59" />
      <path
         fill="#4d4dff"
         stroke="none"
         paint-order="stroke fill markers"
         d="m 376.79374,384.89088 c 0,3.3137 -2.68629,6 -6,6 -3.3137,0 -6,-2.6863 -6,-6 0,-3.31371 2.6863,-6 6,-6 3.31371,0 6,2.68629 6,6 z"
         fill-opacity="1"
         id="path60" />
      <path
         fill="none"
         stroke="#000000"
         paint-order="fill stroke markers"
         d="m 376.79374,384.89088 c 0,3.3137 -2.68629,6 -6,6 -3.3137,0 -6,-2.6863 -6,-6 0,-3.31371 2.6863,-6 6,-6 3.31371,0 6,2.68629 6,6 z"
         stroke-opacity="1"
         stroke-linecap="round"
         stroke-linejoin="round"
         stroke-miterlimit="10"
         id="path61" />
      <path
         fill="#4d4dff"
         stroke="none"
         paint-order="stroke fill markers"
         d="m 443.01374,408.54088 c 0,3.3137 -2.68629,6 -6,6 -3.3137,0 -6,-2.6863 -6,-6 0,-3.31371 2.6863,-6 6,-6 3.31371,0 6,2.68629 6,6 z"
         fill-opacity="1"
         id="path62" />
      <path
         fill="none"
         stroke="#000000"
         paint-order="fill stroke markers"
         d="m 443.01374,408.54088 c 0,3.3137 -2.68629,6 -6,6 -3.3137,0 -6,-2.6863 -6,-6 0,-3.31371 2.6863,-6 6,-6 3.31371,0 6,2.68629 6,6 z"
         stroke-opacity="1"
         stroke-linecap="round"
         stroke-linejoin="round"
         stroke-miterlimit="10"
         id="path63" />
      <path
         fill="#cc0000"
         stroke="none"
         paint-order="stroke fill markers"
         d="m 660.59374,244.56754 c 0,3.31371 -2.68629,6 -6,6 -3.3137,0 -6,-2.68629 -6,-6 0,-3.31371 2.6863,-6 6,-6 3.31371,0 6,2.68629 6,6 z"
         fill-opacity="1"
         id="path64" />
      <path
         fill="none"
         stroke="#000000"
         paint-order="fill stroke markers"
         d="m 660.59374,244.56754 c 0,3.31371 -2.68629,6 -6,6 -3.3137,0 -6,-2.68629 -6,-6 0,-3.31371 2.6863,-6 6,-6 3.31371,0 6,2.68629 6,6 z"
         stroke-opacity="1"
         stroke-linecap="round"
         stroke-linejoin="round"
         stroke-miterlimit="10"
         id="path65" />
      <path
         fill="#cc0000"
         stroke="none"
         paint-order="stroke fill markers"
         d="m 668.87124,266.64088 c 0,3.3137 -2.68629,6 -6,6 -3.3137,0 -6,-2.6863 -6,-6 0,-3.31371 2.6863,-6 6,-6 3.31371,0 6,2.68629 6,6 z"
         fill-opacity="1"
         id="path66" />
      <path
         fill="none"
         stroke="#000000"
         paint-order="fill stroke markers"
         d="m 668.87124,266.64088 c 0,3.3137 -2.68629,6 -6,6 -3.3137,0 -6,-2.6863 -6,-6 0,-3.31371 2.6863,-6 6,-6 3.31371,0 6,2.68629 6,6 z"
         stroke-opacity="1"
         stroke-linecap="round"
         stroke-linejoin="round"
         stroke-miterlimit="10"
         id="path67" />
      <path
         fill="#cc0000"
         stroke="none"
         paint-order="stroke fill markers"
         d="m 619.20624,261.91088 c 0,3.3137 -2.68629,6 -6,6 -3.3137,0 -6,-2.6863 -6,-6 0,-3.31371 2.6863,-6 6,-6 3.31371,0 6,2.68629 6,6 z"
         fill-opacity="1"
         id="path68" />
      <path
         fill="none"
         stroke="#000000"
         paint-order="fill stroke markers"
         d="m 619.20624,261.91088 c 0,3.3137 -2.68629,6 -6,6 -3.3137,0 -6,-2.6863 -6,-6 0,-3.31371 2.6863,-6 6,-6 3.31371,0 6,2.68629 6,6 z"
         stroke-opacity="1"
         stroke-linecap="round"
         stroke-linejoin="round"
         stroke-miterlimit="10"
         id="path69" />
      <path
         fill="#cc0000"
         stroke="none"
         paint-order="stroke fill markers"
         d="m 700.79874,242.20254 c 0,3.31371 -2.68629,6 -6,6 -3.3137,0 -6,-2.68629 -6,-6 0,-3.31371 2.6863,-6 6,-6 3.31371,0 6,2.68629 6,6 z"
         fill-opacity="1"
         id="path70" />
      <path
         fill="none"
         stroke="#000000"
         paint-order="fill stroke markers"
         d="m 700.79874,242.20254 c 0,3.31371 -2.68629,6 -6,6 -3.3137,0 -6,-2.68629 -6,-6 0,-3.31371 2.6863,-6 6,-6 3.31371,0 6,2.68629 6,6 z"
         stroke-opacity="1"
         stroke-linecap="round"
         stroke-linejoin="round"
         stroke-miterlimit="10"
         id="path71" />
      <path
         fill="#cc0000"
         stroke="none"
         paint-order="stroke fill markers"
         d="m 660.59374,199.63254 c 0,3.31371 -2.68629,6 -6,6 -3.3137,0 -6,-2.68629 -6,-6 0,-3.31371 2.6863,-6 6,-6 3.31371,0 6,2.68629 6,6 z"
         fill-opacity="1"
         id="path72" />
      <path
         fill="none"
         stroke="#000000"
         paint-order="fill stroke markers"
         d="m 660.59374,199.63254 c 0,3.31371 -2.68629,6 -6,6 -3.3137,0 -6,-2.68629 -6,-6 0,-3.31371 2.6863,-6 6,-6 3.31371,0 6,2.68629 6,6 z"
         stroke-opacity="1"
         stroke-linecap="round"
         stroke-linejoin="round"
         stroke-miterlimit="10"
         id="path73" />
      <path
         fill="#cc0000"
         stroke="none"
         paint-order="stroke fill markers"
         d="m 615.65874,228.01254 c 0,3.31371 -2.68629,6 -6,6 -3.3137,0 -6,-2.68629 -6,-6 0,-3.31371 2.6863,-6 6,-6 3.31371,0 6,2.68629 6,6 z"
         fill-opacity="1"
         id="path74" />
      <path
         fill="none"
         stroke="#000000"
         paint-order="fill stroke markers"
         d="m 615.65874,228.01254 c 0,3.31371 -2.68629,6 -6,6 -3.3137,0 -6,-2.68629 -6,-6 0,-3.31371 2.6863,-6 6,-6 3.31371,0 6,2.68629 6,6 z"
         stroke-opacity="1"
         stroke-linecap="round"
         stroke-linejoin="round"
         stroke-miterlimit="10"
         id="path75" />
      <path
         fill="#cc0000"
         stroke="none"
         paint-order="stroke fill markers"
         d="m 690.15624,216.97588 c 0,3.3137 -2.68629,6 -6,6 -3.3137,0 -6,-2.6863 -6,-6 0,-3.31371 2.6863,-6 6,-6 3.31371,0 6,2.68629 6,6 z"
         fill-opacity="1"
         id="path76" />
      <path
         fill="none"
         stroke="#000000"
         paint-order="fill stroke markers"
         d="m 690.15624,216.97588 c 0,3.3137 -2.68629,6 -6,6 -3.3137,0 -6,-2.6863 -6,-6 0,-3.31371 2.6863,-6 6,-6 3.31371,0 6,2.68629 6,6 z"
         stroke-opacity="1"
         stroke-linecap="round"
         stroke-linejoin="round"
         stroke-miterlimit="10"
         id="path77" />
      <path
         fill="#cc0000"
         stroke="none"
         paint-order="stroke fill markers"
         d="m 718.53624,280.83088 c 0,3.3137 -2.68629,6 -6,6 -3.3137,0 -6,-2.6863 -6,-6 0,-3.31371 2.6863,-6 6,-6 3.31371,0 6,2.68629 6,6 z"
         fill-opacity="1"
         id="path78" />
      <path
         fill="none"
         stroke="#000000"
         paint-order="fill stroke markers"
         d="m 718.53624,280.83088 c 0,3.3137 -2.68629,6 -6,6 -3.3137,0 -6,-2.6863 -6,-6 0,-3.31371 2.6863,-6 6,-6 3.31371,0 6,2.68629 6,6 z"
         stroke-opacity="1"
         stroke-linecap="round"
         stroke-linejoin="round"
         stroke-miterlimit="10"
         id="path79" />
      <path
         fill="#cc0000"
         stroke="none"
         paint-order="stroke fill markers"
         d="m 662.95874,321.82421 c 0,3.31371 -2.68629,6 -6,6 -3.3137,0 -6,-2.68629 -6,-6 0,-3.31371 2.6863,-6 6,-6 3.31371,0 6,2.68629 6,6 z"
         fill-opacity="1"
         id="path80" />
      <path
         fill="none"
         stroke="#000000"
         paint-order="fill stroke markers"
         d="m 662.95874,321.82421 c 0,3.31371 -2.68629,6 -6,6 -3.3137,0 -6,-2.68629 -6,-6 0,-3.31371 2.6863,-6 6,-6 3.31371,0 6,2.68629 6,6 z"
         stroke-opacity="1"
         stroke-linecap="round"
         stroke-linejoin="round"
         stroke-miterlimit="10"
         id="path81" />
      <path
         fill="#cc0000"
         stroke="none"
         paint-order="stroke fill markers"
         d="m 626.30124,298.96254 c 0,3.31371 -2.68629,6 -6,6 -3.3137,0 -6,-2.68629 -6,-6 0,-3.31371 2.6863,-6 6,-6 3.31371,0 6,2.68629 6,6 z"
         fill-opacity="1"
         id="path82" />
      <path
         fill="none"
         stroke="#000000"
         paint-order="fill stroke markers"
         d="m 626.30124,298.96254 c 0,3.31371 -2.68629,6 -6,6 -3.3137,0 -6,-2.68629 -6,-6 0,-3.31371 2.6863,-6 6,-6 3.31371,0 6,2.68629 6,6 z"
         stroke-opacity="1"
         stroke-linecap="round"
         stroke-linejoin="round"
         stroke-miterlimit="10"
         id="path83" />
      <path
         fill="#cc0000"
         stroke="none"
         paint-order="stroke fill markers"
         d="m 562.44624,248.50921 c 0,3.31371 -2.68629,6 -6,6 -3.3137,0 -6,-2.68629 -6,-6 0,-3.31371 2.6863,-6 6,-6 3.31371,0 6,2.68629 6,6 z"
         fill-opacity="1"
         id="path84" />
      <path
         fill="none"
         stroke="#000000"
         paint-order="fill stroke markers"
         d="m 562.44624,248.50921 c 0,3.31371 -2.68629,6 -6,6 -3.3137,0 -6,-2.68629 -6,-6 0,-3.31371 2.6863,-6 6,-6 3.31371,0 6,2.68629 6,6 z"
         stroke-opacity="1"
         stroke-linecap="round"
         stroke-linejoin="round"
         stroke-miterlimit="10"
         id="path85" />
      <path
         fill="#cc0000"
         stroke="none"
         paint-order="stroke fill markers"
         d="m 614.47624,175.98254 c 0,3.31371 -2.68629,6 -6,6 -3.3137,0 -6,-2.68629 -6,-6 0,-3.31371 2.6863,-6 6,-6 3.31371,0 6,2.68629 6,6 z"
         fill-opacity="1"
         id="path86" />
      <path
         fill="none"
         stroke="#000000"
         paint-order="fill stroke markers"
         d="m 614.47624,175.98254 c 0,3.31371 -2.68629,6 -6,6 -3.3137,0 -6,-2.68629 -6,-6 0,-3.31371 2.6863,-6 6,-6 3.31371,0 6,2.68629 6,6 z"
         stroke-opacity="1"
         stroke-linecap="round"
         stroke-linejoin="round"
         stroke-miterlimit="10"
         id="path87" />
      <path
         fill="#cc0000"
         stroke="none"
         paint-order="stroke fill markers"
         d="m 510.41624,339.16754 c 0,3.31371 -2.68629,6 -6,6 -3.3137,0 -6,-2.68629 -6,-6 0,-3.31371 2.6863,-6 6,-6 3.31371,0 6,2.68629 6,6 z"
         fill-opacity="1"
         id="path88" />
      <path
         fill="none"
         stroke="#000000"
         paint-order="fill stroke markers"
         d="m 510.41624,339.16754 c 0,3.31371 -2.68629,6 -6,6 -3.3137,0 -6,-2.68629 -6,-6 0,-3.31371 2.6863,-6 6,-6 3.31371,0 6,2.68629 6,6 z"
         stroke-opacity="1"
         stroke-linecap="round"
         stroke-linejoin="round"
         stroke-miterlimit="10"
         id="path89" />
      <path
         fill="#cc0000"
         stroke="none"
         paint-order="stroke fill markers"
         d="m 513.96374,287.13754 c 0,3.31371 -2.68629,6 -6,6 -3.3137,0 -6,-2.68629 -6,-6 0,-3.31371 2.6863,-6 6,-6 3.31371,0 6,2.68629 6,6 z"
         fill-opacity="1"
         id="path90" />
      <path
         fill="none"
         stroke="#000000"
         paint-order="fill stroke markers"
         d="m 513.96374,287.13754 c 0,3.31371 -2.68629,6 -6,6 -3.3137,0 -6,-2.68629 -6,-6 0,-3.31371 2.6863,-6 6,-6 3.31371,0 6,2.68629 6,6 z"
         stroke-opacity="1"
         stroke-linecap="round"
         stroke-linejoin="round"
         stroke-miterlimit="10"
         id="path91" />
      <path
         fill="#cc0000"
         stroke="none"
         paint-order="stroke fill markers"
         d="m 697.25124,364.39421 c 0,3.31371 -2.68629,6 -6,6 -3.3137,0 -6,-2.68629 -6,-6 0,-3.31371 2.6863,-6 6,-6 3.31371,0 6,2.68629 6,6 z"
         fill-opacity="1"
         id="path92" />
      <path
         fill="none"
         stroke="#000000"
         paint-order="fill stroke markers"
         d="m 697.25124,364.39421 c 0,3.31371 -2.68629,6 -6,6 -3.3137,0 -6,-2.68629 -6,-6 0,-3.31371 2.6863,-6 6,-6 3.31371,0 6,2.68629 6,6 z"
         stroke-opacity="1"
         stroke-linecap="round"
         stroke-linejoin="round"
         stroke-miterlimit="10"
         id="path93" />
      <path
         fill="#cc0000"
         stroke="none"
         paint-order="stroke fill markers"
         d="m 768.20124,280.04254 c 0,3.31371 -2.68629,6 -6,6 -3.3137,0 -6,-2.68629 -6,-6 0,-3.31371 2.6863,-6 6,-6 3.31371,0 6,2.68629 6,6 z"
         fill-opacity="1"
         id="path94" />
      <path
         fill="none"
         stroke="#000000"
         paint-order="fill stroke markers"
         d="m 768.20124,280.04254 c 0,3.31371 -2.68629,6 -6,6 -3.3137,0 -6,-2.68629 -6,-6 0,-3.31371 2.6863,-6 6,-6 3.31371,0 6,2.68629 6,6 z"
         stroke-opacity="1"
         stroke-linecap="round"
         stroke-linejoin="round"
         stroke-miterlimit="10"
         id="path95" />
      <path
         fill="#cc0000"
         stroke="none"
         paint-order="stroke fill markers"
         d="m 751.64624,233.53088 c 0,3.3137 -2.68629,6 -6,6 -3.3137,0 -6,-2.6863 -6,-6 0,-3.31371 2.6863,-6 6,-6 3.31371,0 6,2.68629 6,6 z"
         fill-opacity="1"
         id="path96" />
      <path
         fill="none"
         stroke="#000000"
         paint-order="fill stroke markers"
         d="m 751.64624,233.53088 c 0,3.3137 -2.68629,6 -6,6 -3.3137,0 -6,-2.6863 -6,-6 0,-3.31371 2.6863,-6 6,-6 3.31371,0 6,2.68629 6,6 z"
         stroke-opacity="1"
         stroke-linecap="round"
         stroke-linejoin="round"
         stroke-miterlimit="10"
         id="path97" />
      <path
         fill="#cc0000"
         stroke="none"
         paint-order="stroke fill markers"
         d="m 691.33874,146.02588 c 0,3.3137 -2.68629,6 -6,6 -3.3137,0 -6,-2.6863 -6,-6 0,-3.31371 2.6863,-6 6,-6 3.31371,0 6,2.68629 6,6 z"
         fill-opacity="1"
         id="path98" />
      <path
         fill="none"
         stroke="#000000"
         paint-order="fill stroke markers"
         d="m 691.33874,146.02588 c 0,3.3137 -2.68629,6 -6,6 -3.3137,0 -6,-2.6863 -6,-6 0,-3.31371 2.6863,-6 6,-6 3.31371,0 6,2.68629 6,6 z"
         stroke-opacity="1"
         stroke-linecap="round"
         stroke-linejoin="round"
         stroke-miterlimit="10"
         id="path99" />
      <path
         fill="#cc0000"
         stroke="none"
         paint-order="stroke fill markers"
         d="m 589.64374,213.03421 c 0,3.31371 -2.68629,6 -6,6 -3.3137,0 -6,-2.68629 -6,-6 0,-3.31371 2.6863,-6 6,-6 3.31371,0 6,2.68629 6,6 z"
         fill-opacity="1"
         id="path100" />
      <path
         fill="none"
         stroke="#000000"
         paint-order="fill stroke markers"
         d="m 589.64374,213.03421 c 0,3.31371 -2.68629,6 -6,6 -3.3137,0 -6,-2.68629 -6,-6 0,-3.31371 2.6863,-6 6,-6 3.31371,0 6,2.68629 6,6 z"
         stroke-opacity="1"
         stroke-linecap="round"
         stroke-linejoin="round"
         stroke-miterlimit="10"
         id="path101" />
      <path
         fill="#cc0000"
         stroke="none"
         paint-order="stroke fill markers"
         d="m 650.70463,142.91552 c 0,3.31371 -2.68629,6 -6,6 -3.31371,0 -6,-2.68629 -6,-6 0,-3.31371 2.68629,-6 6,-6 3.31371,0 6,2.68629 6,6 z"
         fill-opacity="1"
         id="path102" />
      <path
         fill="none"
         stroke="#000000"
         paint-order="fill stroke markers"
         d="m 650.70463,142.91552 c 0,3.31371 -2.68629,6 -6,6 -3.31371,0 -6,-2.68629 -6,-6 0,-3.31371 2.68629,-6 6,-6 3.31371,0 6,2.68629 6,6 z"
         stroke-opacity="1"
         stroke-linecap="round"
         stroke-linejoin="round"
         stroke-miterlimit="10"
         id="path103" />
      <path
         fill="#cc0000"
         stroke="none"
         paint-order="stroke fill markers"
         d="m 565.99374,180.71254 c 0,3.31371 -2.68629,6 -6,6 -3.3137,0 -6,-2.68629 -6,-6 0,-3.31371 2.6863,-6 6,-6 3.31371,0 6,2.68629 6,6 z"
         fill-opacity="1"
         id="path104" />
      <path
         fill="none"
         stroke="#000000"
         paint-order="fill stroke markers"
         d="m 565.99374,180.71254 c 0,3.31371 -2.68629,6 -6,6 -3.3137,0 -6,-2.68629 -6,-6 0,-3.31371 2.6863,-6 6,-6 3.31371,0 6,2.68629 6,6 z"
         stroke-opacity="1"
         stroke-linecap="round"
         stroke-linejoin="round"
         stroke-miterlimit="10"
         id="path105" />
      <path
         fill="#cc0000"
         stroke="none"
         paint-order="stroke fill markers"
         d="m 690.15624,323.40088 c 0,3.3137 -2.68629,6 -6,6 -3.3137,0 -6,-2.6863 -6,-6 0,-3.31371 2.6863,-6 6,-6 3.31371,0 6,2.68629 6,6 z"
         fill-opacity="1"
         id="path106" />
      <path
         fill="none"
         stroke="#000000"
         paint-order="fill stroke markers"
         d="m 690.15624,323.40088 c 0,3.3137 -2.68629,6 -6,6 -3.3137,0 -6,-2.6863 -6,-6 0,-3.31371 2.6863,-6 6,-6 3.31371,0 6,2.68629 6,6 z"
         stroke-opacity="1"
         stroke-linecap="round"
         stroke-linejoin="round"
         stroke-miterlimit="10"
         id="path107" />
      <path
         fill="#cc0000"
         stroke="none"
         paint-order="stroke fill markers"
         d="m 756.37624,333.64921 c 0,3.31371 -2.68629,6 -6,6 -3.3137,0 -6,-2.68629 -6,-6 0,-3.31371 2.6863,-6 6,-6 3.31371,0 6,2.68629 6,6 z"
         fill-opacity="1"
         id="path108" />
      <path
         fill="none"
         stroke="#000000"
         paint-order="fill stroke markers"
         d="m 756.37624,333.64921 c 0,3.31371 -2.68629,6 -6,6 -3.3137,0 -6,-2.68629 -6,-6 0,-3.31371 2.6863,-6 6,-6 3.31371,0 6,2.68629 6,6 z"
         stroke-opacity="1"
         stroke-linecap="round"
         stroke-linejoin="round"
         stroke-miterlimit="10"
         id="path109" />
      <path
         fill="#cc0000"
         stroke="none"
         paint-order="stroke fill markers"
         d="m 765.83624,408.54088 c 0,3.3137 -2.68629,6 -6,6 -3.3137,0 -6,-2.6863 -6,-6 0,-3.31371 2.6863,-6 6,-6 3.31371,0 6,2.68629 6,6 z"
         fill-opacity="1"
         id="path110" />
      <path
         fill="none"
         stroke="#000000"
         paint-order="fill stroke markers"
         d="m 765.83624,408.54088 c 0,3.3137 -2.68629,6 -6,6 -3.3137,0 -6,-2.6863 -6,-6 0,-3.31371 2.6863,-6 6,-6 3.31371,0 6,2.68629 6,6 z"
         stroke-opacity="1"
         stroke-linecap="round"
         stroke-linejoin="round"
         stroke-miterlimit="10"
         id="path111" />
      <path
         fill="#cc0000"
         stroke="none"
         paint-order="stroke fill markers"
         d="m 650.70463,218.93841 c 0,3.31371 -2.68629,6 -6,6 -3.31371,0 -6,-2.68629 -6,-6 0,-3.31371 2.68629,-6 6,-6 3.31371,0 6,2.68629 6,6 z"
         fill-opacity="1"
         id="path112" />
      <path
         fill="none"
         stroke="#000000"
         paint-order="fill stroke markers"
         d="m 650.70463,218.93841 c 0,3.31371 -2.68629,6 -6,6 -3.31371,0 -6,-2.68629 -6,-6 0,-3.31371 2.68629,-6 6,-6 3.31371,0 6,2.68629 6,6 z"
         stroke-opacity="1"
         stroke-linecap="round"
         stroke-linejoin="round"
         stroke-miterlimit="10"
         id="path113" />
      <path
         fill="#cc0000"
         stroke="none"
         paint-order="stroke fill markers"
         d="m 761.10624,167.31088 c 0,3.3137 -2.68629,6 -6,6 -3.3137,0 -6,-2.6863 -6,-6 0,-3.31371 2.6863,-6 6,-6 3.31371,0 6,2.68629 6,6 z"
         fill-opacity="1"
         id="path114" />
      <path
         fill="none"
         stroke="#000000"
         paint-order="fill stroke markers"
         d="m 761.10624,167.31088 c 0,3.3137 -2.68629,6 -6,6 -3.3137,0 -6,-2.6863 -6,-6 0,-3.31371 2.6863,-6 6,-6 3.31371,0 6,2.68629 6,6 z"
         stroke-opacity="1"
         stroke-linecap="round"
         stroke-linejoin="round"
         stroke-miterlimit="10"
         id="path115" />
      <path
         fill="#cc0000"
         stroke="none"
         paint-order="stroke fill markers"
         d="m 452.47374,200.42088 c 0,3.3137 -2.68629,6 -6,6 -3.3137,0 -6,-2.6863 -6,-6 0,-3.31371 2.6863,-6 6,-6 3.31371,0 6,2.68629 6,6 z"
         fill-opacity="1"
         id="path116" />
      <path
         fill="none"
         stroke="#000000"
         paint-order="fill stroke markers"
         d="m 452.47374,200.42088 c 0,3.3137 -2.68629,6 -6,6 -3.3137,0 -6,-2.6863 -6,-6 0,-3.31371 2.6863,-6 6,-6 3.31371,0 6,2.68629 6,6 z"
         stroke-opacity="1"
         stroke-linecap="round"
         stroke-linejoin="round"
         stroke-miterlimit="10"
         id="path117" />
      <path
         fill="#cc0000"
         stroke="none"
         paint-order="stroke fill markers"
         d="m 601.46874,346.26254 c 0,3.31371 -2.68629,6 -6,6 -3.3137,0 -6,-2.68629 -6,-6 0,-3.31371 2.6863,-6 6,-6 3.31371,0 6,2.68629 6,6 z"
         fill-opacity="1"
         id="path118" />
      <path
         fill="none"
         stroke="#000000"
         paint-order="fill stroke markers"
         d="m 601.46874,346.26254 c 0,3.31371 -2.68629,6 -6,6 -3.3137,0 -6,-2.68629 -6,-6 0,-3.31371 2.6863,-6 6,-6 3.31371,0 6,2.68629 6,6 z"
         stroke-opacity="1"
         stroke-linecap="round"
         stroke-linejoin="round"
         stroke-miterlimit="10"
         id="path119" />
      <path
         fill="#4d4dff"
         stroke="none"
         paint-order="stroke fill markers"
         d="m 583.73124,410.11754 c 0,3.31371 -2.68629,6 -6,6 -3.3137,0 -6,-2.68629 -6,-6 0,-3.31371 2.6863,-6 6,-6 3.31371,0 6,2.68629 6,6 z"
         fill-opacity="1"
         id="path120" />
      <path
         fill="none"
         stroke="#000000"
         paint-order="fill stroke markers"
         d="m 583.73124,410.11754 c 0,3.31371 -2.68629,6 -6,6 -3.3137,0 -6,-2.68629 -6,-6 0,-3.31371 2.6863,-6 6,-6 3.31371,0 6,2.68629 6,6 z"
         stroke-opacity="1"
         stroke-linecap="round"
         stroke-linejoin="round"
         stroke-miterlimit="10"
         id="path121" />
      <path
         fill="#cc0000"
         stroke="none"
         paint-order="stroke fill markers"
         d="m 544.12397,99.14876 c 0,3.31371 -2.68629,6 -6,6 -3.31371,0 -6,-2.68629 -6,-6 0,-3.313708 2.68629,-6 6,-6 3.31371,0 6,2.686292 6,6 z"
         fill-opacity="1"
         id="path122" />
      <path
         fill="none"
         stroke="#000000"
         paint-order="fill stroke markers"
         d="m 544.12397,99.14876 c 0,3.31371 -2.68629,6 -6,6 -3.31371,0 -6,-2.68629 -6,-6 0,-3.313708 2.68629,-6 6,-6 3.31371,0 6,2.686292 6,6 z"
         stroke-opacity="1"
         stroke-linecap="round"
         stroke-linejoin="round"
         stroke-miterlimit="10"
         id="path123" />
      <path
         fill="#cc0000"
         stroke="none"
         paint-order="stroke fill markers"
         d="m 586.85124,107.33058 c 0,3.31371 -2.68629,6 -6,6 -3.31371,0 -6,-2.68629 -6,-6 0,-3.31371 2.68629,-6 6,-6 3.31371,0 6,2.68629 6,6 z"
         fill-opacity="1"
         id="path124" />
      <path
         fill="none"
         stroke="#000000"
         paint-order="fill stroke markers"
         d="m 586.85124,107.33058 c 0,3.31371 -2.68629,6 -6,6 -3.31371,0 -6,-2.68629 -6,-6 0,-3.31371 2.68629,-6 6,-6 3.31371,0 6,2.68629 6,6 z"
         stroke-opacity="1"
         stroke-linecap="round"
         stroke-linejoin="round"
         stroke-miterlimit="10"
         id="path125" />
    </g>
  </g>
</svg>
