<?xml version="1.0" encoding="UTF-8" standalone="no"?>
<svg
   version="1.1"
   width="199.98662mm"
   height="162.23564mm"
   id="svg39"
   sodipodi:docname="lasso.svg"
   inkscape:version="1.4.2 (f4327f4, 2025-05-13)"
   xmlns:inkscape="http://www.inkscape.org/namespaces/inkscape"
   xmlns:sodipodi="http://sodipodi.sourceforge.net/DTD/sodipodi-0.dtd"
   xmlns="http://www.w3.org/2000/svg"
   xmlns:svg="http://www.w3.org/2000/svg">
  <sodipodi:namedview
     id="namedview39"
     pagecolor="#ffffff"
     bordercolor="#666666"
     borderopacity="1.0"
     inkscape:showpageshadow="2"
     inkscape:pageopacity="0.0"
     inkscape:pagecheckerboard="0"
     inkscape:deskcolor="#d1d1d1"
     inkscape:zoom="0.84804631"
     inkscape:cx="315.43089"
     inkscape:cy="327.81229"
     inkscape:window-width="1440"
     inkscape:window-height="830"
     inkscape:window-x="-6"
     inkscape:window-y="-6"
     inkscape:window-maximized="1"
     inkscape:current-layer="svg39"
     inkscape:document-units="mm" />
  <defs
     id="defs1">
    <clipPath
       id="ABbRxnTprxlO">
      <path
         fill="none"
         stroke="none"
         d="M 0,0 H 1374 V 691 H 0 Z"
         id="path1" />
    </clipPath>
    <clipPath
       clipPathUnits="userSpaceOnUse"
       id="clipPath39">
      <rect
         id="rect40"
         width="755.85492"
         height="613.17407"
         x="371.44199"
         y="17.687714" />
    </clipPath>
  </defs>
  <g
     clip-path="url(#ABbRxnTprxlO)"
     id="g39"
     transform="translate(-371.44199,-17.687714)">
    <g
       id="g38">
      <rect
         fill="#ffffff"
         stroke="none"
         x="0"
         y="0"
         width="1374"
         height="691"
         fill-opacity="1"
         id="rect1"
         clip-path="url(#clipPath39)" />
      <path
         fill="none"
         stroke="#252525"
         paint-order="fill stroke markers"
         d="m 596.5,2.5 v 689"
         stroke-opacity="1"
         stroke-miterlimit="10"
         id="path2" />
      <path
         fill="none"
         stroke="#252525"
         paint-order="fill stroke markers"
         d="m 596.5,1.5 -4,4"
         stroke-opacity="1"
         stroke-miterlimit="10"
         id="path3" />
      <path
         fill="none"
         stroke="#252525"
         paint-order="fill stroke markers"
         d="m 596.5,1.5 4,4"
         stroke-opacity="1"
         stroke-miterlimit="10"
         id="path4" />
      <path
         fill="none"
         stroke="#252525"
         paint-order="fill stroke markers"
         d="m 0.5,422.5 h 1372"
         stroke-opacity="1"
         stroke-miterlimit="10"
         id="path5" />
      <path
         fill="none"
         stroke="#252525"
         paint-order="fill stroke markers"
         d="m 1373.5,422.5 -4,-4"
         stroke-opacity="1"
         stroke-miterlimit="10"
         id="path6" />
      <path
         fill="none"
         stroke="#252525"
         paint-order="fill stroke markers"
         d="m 1373.5,422.5 -4,4"
         stroke-opacity="1"
         stroke-miterlimit="10"
         id="path7" />
      <path
         fill="#808080"
         stroke="none"
         paint-order="stroke fill markers"
         fill-rule="evenodd"
         d="M 596.39445,592.83747 767.14781,422.08411 596.39445,251.33075 425.64108,422.08411 Z"
         fill-opacity="0.156863"
         id="path8" />
      <path
         fill="none"
         stroke="#000000"
         paint-order="fill stroke markers"
         d="m 923.81775,167.1132 c -9.47841,-18.58872 -51.52762,-16.13489 -93.91954,5.4808 -42.39193,21.61568 -69.0736,54.20779 -59.59519,72.79652 9.47841,18.58872 51.52762,16.13488 93.91954,-5.4808 42.39193,-21.61568 69.0736,-54.2078 59.59519,-72.79652 z"
         stroke-opacity="0.698039"
         stroke-linejoin="round"
         stroke-miterlimit="10"
         stroke-width="2.5"
         stroke-dasharray="2.5, 3"
         id="path9" />
      <path
         fill="none"
         stroke="#000000"
         paint-order="fill stroke markers"
         d="M 1009.1747,115.42907 C 986.14717,75.817898 895.95498,85.286834 807.72482,136.57853 719.49467,187.87022 666.6375,261.56156 689.66505,301.17273 c 23.02755,39.61117 113.21974,30.14223 201.4499,-21.14946 88.23016,-51.2917 141.08735,-124.98303 118.05975,-164.5942 z"
         stroke-opacity="0.698039"
         stroke-linejoin="round"
         stroke-miterlimit="10"
         stroke-width="2.5"
         stroke-dasharray="2.5, 3"
         id="path10" />
      <path
         fill="none"
         stroke="#000000"
         paint-order="fill stroke markers"
         d="M 1056.0202,70.20989 C 1016.8944,12.984316 892.06692,30.254046 777.2103,108.78291 662.35367,187.31178 600.96173,297.3625 640.08754,354.58807 679.21336,411.81364 804.0408,394.54391 918.89742,316.01505 1033.754,237.48618 1095.146,127.43546 1056.0202,70.20989 Z"
         stroke-opacity="0.698039"
         stroke-linejoin="round"
         stroke-miterlimit="10"
         stroke-width="2.5"
         stroke-dasharray="2.5, 3"
         id="path11" />
      <path
         fill="none"
         stroke="#000000"
         paint-order="fill stroke markers"
         d="M 596.39445,592.83747 767.14781,422.08411"
         stroke-opacity="0.698039"
         stroke-linecap="round"
         stroke-linejoin="round"
         stroke-miterlimit="10"
         stroke-width="2.5"
         id="path12" />
      <path
         fill="none"
         stroke="#000000"
         paint-order="fill stroke markers"
         d="M 767.14781,422.08411 596.39445,251.33075"
         stroke-opacity="0.698039"
         stroke-linecap="round"
         stroke-linejoin="round"
         stroke-miterlimit="10"
         stroke-width="2.5"
         id="path13" />
      <path
         fill="none"
         stroke="#000000"
         paint-order="fill stroke markers"
         d="M 596.39445,251.33075 425.64108,422.08411"
         stroke-opacity="0.698039"
         stroke-linecap="round"
         stroke-linejoin="round"
         stroke-miterlimit="10"
         stroke-width="2.5"
         id="path14" />
      <path
         fill="none"
         stroke="#000000"
         paint-order="fill stroke markers"
         d="M 425.64108,422.08411 596.39445,592.83747"
         stroke-opacity="0.698039"
         stroke-linecap="round"
         stroke-linejoin="round"
         stroke-miterlimit="10"
         stroke-width="2.5"
         id="path15" />
      <path
         fill="#800000"
         stroke="none"
         paint-order="stroke fill markers"
         d="m 834.30203,203.86131 c 0,2.76142 -2.23857,5 -5,5 -2.76142,0 -5,-2.23858 -5,-5 0,-2.76142 2.23858,-5 5,-5 2.76143,0 5,2.23858 5,5 z"
         fill-opacity="1"
         id="path16" />
      <path
         fill="none"
         stroke="#000000"
         paint-order="fill stroke markers"
         d="m 834.30203,203.86131 c 0,2.76142 -2.23857,5 -5,5 -2.76142,0 -5,-2.23858 -5,-5 0,-2.76142 2.23858,-5 5,-5 2.76143,0 5,2.23858 5,5 z"
         stroke-opacity="1"
         stroke-linecap="round"
         stroke-linejoin="round"
         stroke-miterlimit="10"
         id="path17" />
      <path
         fill="#006400"
         stroke="none"
         paint-order="stroke fill markers"
         d="m 674.48226,323.41856 c 0,3.31371 -2.68629,6 -6,6 -3.31371,0 -6,-2.68629 -6,-6 0,-3.31371 2.68629,-6 6,-6 3.31371,0 6,2.68629 6,6 z"
         fill-opacity="1"
         id="path18" />
      <path
         fill="none"
         stroke="#000000"
         paint-order="fill stroke markers"
         d="m 674.48226,323.41856 c 0,3.31371 -2.68629,6 -6,6 -3.31371,0 -6,-2.68629 -6,-6 0,-3.31371 2.68629,-6 6,-6 3.31371,0 6,2.68629 6,6 z"
         stroke-opacity="1"
         stroke-linecap="round"
         stroke-linejoin="round"
         stroke-miterlimit="10"
         id="path19" />
      <g
         transform="scale(35)"
         id="g21">
        <g
           transform="translate(13.685714,11.568714)"
           id="g20">
          <path
             fill="#000000"
             stroke="none"
             paint-order="stroke fill markers"
             d="m 0.677,-0.162 v 0 L 0.644,0 H 0.485 Q 0.463,0 0.46,-0.007 0.459,-0.011 0.459,-0.021 q 0,-0.069 0.047,-0.201 0.049,-0.138 0.055,-0.203 0.001,-0.015 0.001,-0.03 0,-0.132 -0.092,-0.194 -0.05,-0.034 -0.11,-0.034 -0.085,0 -0.144,0.063 v 0.001 q -0.057,0.062 -0.057,0.164 0,0.077 0.049,0.212 0.054,0.15 0.054,0.222 0,0.017 -0.007,0.02 v 0 H 0.254 Q 0.25,0 0.237,0 H 0.077 L 0.044,-0.162 h 0.025 q 0.01,0.052 0.018,0.074 0.005,0.015 0.018,0.019 0.013,0.004 0.048,0.004 h 0.08 Q 0.22,-0.12 0.159,-0.212 L 0.153,-0.222 Q 0.15,-0.226 0.144,-0.235 0.072,-0.343 0.06,-0.412 0.056,-0.433 0.056,-0.454 q 0,-0.104 0.089,-0.177 0.088,-0.074 0.216,-0.074 0.135,0 0.225,0.082 0.079,0.071 0.079,0.169 0,0.081 -0.07,0.192 v 0 L 0.594,-0.261 0.593,-0.26 0.577,-0.235 q -0.068,0.1 -0.084,0.152 -0.003,0.009 -0.005,0.018 h 0.08 q 0.055,0 0.063,-0.015 l 0.003,-0.009 q 0.008,-0.022 0.018,-0.073 z"
             id="path20" />
        </g>
      </g>
      <g
         transform="scale(35)"
         id="g28">
        <g
           transform="translate(24.018429,5.8441087)"
           id="g22">
          <path
             fill="#993300"
             stroke="none"
             paint-order="stroke fill markers"
             d="M 0.25,-0.694 0.383,-0.558 0.365,-0.54 0.25,-0.642 0.134,-0.54 0.116,-0.558 Z"
             id="path21" />
        </g>
        <g
           transform="translate(23.971429,6.1071087)"
           id="g23">
          <path
             fill="#993300"
             stroke="none"
             paint-order="stroke fill markers"
             d="m 0.547,-0.49 q 0,0.071 -0.027,0.1725 Q 0.493,-0.216 0.436,-0.133 0.388,-0.061 0.3275,-0.0265 0.267,0.008 0.212,0.008 0.14,0.008 0.093,-0.0455 0.046,-0.099 0.046,-0.203 0.046,-0.267 0.0685,-0.3565 0.091,-0.446 0.128,-0.514 0.181,-0.61 0.249,-0.656 q 0.068,-0.046 0.133,-0.046 0.026,0 0.052,0.009 0.026,0.009 0.053,0.0305 0.027,0.0215 0.0435,0.066 Q 0.547,-0.552 0.547,-0.49 m -0.349,0.119 h 0.209 q 0.033,-0.126 0.033,-0.192 0,-0.103 -0.06,-0.103 -0.059,0 -0.112,0.094 -0.037,0.064 -0.07,0.201 m 0.197,0.048 H 0.186 q -0.033,0.129 -0.033,0.193 0,0.04 0.012,0.067 0.016,0.035 0.049,0.035 0.013,0 0.0265,-0.0045 Q 0.254,-0.037 0.275,-0.055 0.296,-0.073 0.315,-0.103 0.334,-0.133 0.3555,-0.19 0.377,-0.247 0.395,-0.323 Z"
             id="path22" />
        </g>
        <g
           transform="matrix(0.7,0,0,0.7,24.565429,5.4203843)"
           id="g27">
          <g
             transform="scale(0.7)"
             id="g24">
            <path
               fill="#993300"
               stroke="none"
               paint-order="stroke fill markers"
               d="m 0.721,-0.339 q 0,0.149 -0.097,0.255 -0.092,0.1 -0.223,0.106 H 0.388 q -0.129,0 -0.225,-0.096 -0.101,-0.1 -0.107,-0.249 v -0.016 q 0,-0.152 0.098,-0.259 0.092,-0.101 0.22,-0.107 h 0.014 q 0.131,0 0.228,0.099 0.099,0.102 0.105,0.25 v 0.017 m -0.332,0.335 v 0 q 0.083,0 0.145,-0.071 0.084,-0.095 0.084,-0.278 0,-0.21 -0.12,-0.291 -0.052,-0.036 -0.11,-0.036 -0.08,0 -0.143,0.063 v 0.001 q -0.086,0.088 -0.086,0.263 0,0.216 0.113,0.306 0.054,0.043 0.117,0.043 z"
               id="path23" />
          </g>
          <g
             transform="matrix(0.7,0,0,0.7,0.5446,0)"
             id="g25">
            <path
               fill="#993300"
               stroke="none"
               paint-order="stroke fill markers"
               d="M 0.582,-0.258 0.554,0 H 0.033 v -0.031 h 0.024 q 0.065,0 0.075,-0.017 0.004,-0.007 0.004,-0.03 v -0.527 q 0,-0.03 -0.012,-0.038 Q 0.11,-0.652 0.057,-0.652 H 0.033 v -0.031 q 0.035,0.003 0.152,0.003 0.132,0 0.168,-0.003 v 0.031 H 0.32 q -0.08,0 -0.091,0.02 -0.004,0.007 -0.004,0.028 v 0.533 q 0,0.03 0.011,0.035 h 0.001 q 0.009,0.005 0.037,0.005 h 0.082 q 0.141,0 0.18,-0.113 0.013,-0.037 0.021,-0.114 z"
               id="path24" />
          </g>
          <g
             transform="matrix(0.7,0,0,0.7,0.9821,0)"
             id="g26">
            <path
               fill="#993300"
               stroke="none"
               paint-order="stroke fill markers"
               d="m 0.349,-0.388 v 0 q 0.079,0.019 0.122,0.094 0.028,0.05 0.028,0.108 0,0.095 -0.066,0.157 -0.055,0.051 -0.131,0.051 -0.108,0 -0.174,-0.06 v 0 l -0.01,-0.01 Q 0.082,0.01 0.082,0.009 0.074,0.022 0.067,0.022 0.057,0.013 0.056,-0.002 v -0.2 q 0,-0.022 0.007,-0.024 v 0 l 0.001,-0.001 h 0.005 q 0.011,0 0.012,0.01 0.003,0.096 0.058,0.15 l 0.004,0.004 q 0.058,0.054 0.158,0.054 0.075,0 0.113,-0.066 0.021,-0.036 0.021,-0.077 0,-0.054 -0.031,-0.092 Q 0.377,-0.28 0.326,-0.293 L 0.325,-0.294 q 0,0.001 -0.006,-0.001 -0.124,-0.03 -0.132,-0.033 -0.079,-0.027 -0.114,-0.103 -0.017,-0.038 -0.017,-0.08 0,-0.091 0.069,-0.149 0.054,-0.045 0.126,-0.045 0.085,0 0.147,0.057 l 0.013,0.013 0.035,-0.057 q 0.007,-0.013 0.015,-0.013 0.01,0.009 0.011,0.024 v 0.201 q 0,0.021 -0.006,0.023 H 0.465 L 0.464,-0.456 H 0.459 q -0.01,0 -0.012,-0.012 -0.028,-0.207 -0.195,-0.209 -0.072,0 -0.11,0.058 l -0.001,0.001 q -0.021,0.033 -0.021,0.072 0,0.066 0.053,0.105 0.021,0.016 0.048,0.022 z"
               id="path25" />
          </g>
        </g>
      </g>
      <g
         transform="scale(35)"
         id="g37">
        <g
           transform="translate(19.047,8.632373)"
           id="g29">
          <path
             fill="#006400"
             stroke="none"
             paint-order="stroke fill markers"
             d="M 0.25,-0.694 0.383,-0.558 0.365,-0.54 0.25,-0.642 0.134,-0.54 0.116,-0.558 Z"
             id="path28" />
        </g>
        <g
           transform="translate(19,8.895373)"
           id="g30">
          <path
             fill="#006400"
             stroke="none"
             paint-order="stroke fill markers"
             d="m 0.547,-0.49 q 0,0.071 -0.027,0.1725 Q 0.493,-0.216 0.436,-0.133 0.388,-0.061 0.3275,-0.0265 0.267,0.008 0.212,0.008 0.14,0.008 0.093,-0.0455 0.046,-0.099 0.046,-0.203 0.046,-0.267 0.0685,-0.3565 0.091,-0.446 0.128,-0.514 0.181,-0.61 0.249,-0.656 q 0.068,-0.046 0.133,-0.046 0.026,0 0.052,0.009 0.026,0.009 0.053,0.0305 0.027,0.0215 0.0435,0.066 Q 0.547,-0.552 0.547,-0.49 m -0.349,0.119 h 0.209 q 0.033,-0.126 0.033,-0.192 0,-0.103 -0.06,-0.103 -0.059,0 -0.112,0.094 -0.037,0.064 -0.07,0.201 m 0.197,0.048 H 0.186 q -0.033,0.129 -0.033,0.193 0,0.04 0.012,0.067 0.016,0.035 0.049,0.035 0.013,0 0.0265,-0.0045 Q 0.254,-0.037 0.275,-0.055 0.296,-0.073 0.315,-0.103 0.334,-0.133 0.3555,-0.19 0.377,-0.247 0.395,-0.323 Z"
             id="path29" />
        </g>
        <g
           transform="matrix(0.9,0,0,0.9,19.594,8.2086486)"
           id="g36">
          <g
             transform="scale(0.7)"
             id="g31">
            <path
               fill="#006400"
               stroke="none"
               paint-order="stroke fill markers"
               d="m 0.177,-0.694 v 0.618 q 0,0.034 0.016,0.04 0.011,0.005 0.062,0.005 V 0 L 0.144,-0.003 Q 0.132,-0.003 0.033,0 v -0.031 q 0.059,0 0.069,-0.009 L 0.104,-0.042 Q 0.111,-0.05 0.111,-0.076 v -0.52 q 0,-0.039 -0.014,-0.048 H 0.096 Q 0.085,-0.65 0.058,-0.652 H 0.033 v -0.031 z"
               id="path30" />
          </g>
          <g
             transform="matrix(0.7,0,0,0.7,0.1946,0)"
             id="g32">
            <path
               fill="#006400"
               stroke="none"
               paint-order="stroke fill markers"
               d="M 0.333,-0.076 Q 0.308,-0.014 0.245,0.005 0.225,0.011 0.202,0.011 0.117,0.011 0.071,-0.03 0.042,-0.056 0.042,-0.095 q 0,-0.077 0.085,-0.123 0.007,-0.004 0.015,-0.007 0.061,-0.029 0.179,-0.036 h 0.005 v -0.037 q 0,-0.085 -0.061,-0.117 -0.021,-0.011 -0.045,-0.011 -0.066,0 -0.102,0.039 -0.003,0.004 -0.006,0.007 0.047,0.006 0.051,0.046 0,0.034 -0.031,0.044 -0.007,0.002 -0.015,0.002 -0.036,0 -0.044,-0.033 -0.002,-0.005 -0.002,-0.014 0,-0.06 0.063,-0.092 0.039,-0.021 0.088,-0.021 0.082,0 0.137,0.055 0.035,0.036 0.036,0.1 v 0.001 0.017 0.2 q 0,0.029 0.018,0.043 0.008,0.007 0.019,0.007 0.035,0 0.036,-0.064 v -0.056 h 0.025 v 0.056 q 0,0.073 -0.06,0.091 -0.012,0.004 -0.022,0.004 -0.049,0 -0.07,-0.052 Q 0.335,-0.06 0.333,-0.076 M 0.326,-0.24 q -0.154,0.006 -0.196,0.094 -0.011,0.024 -0.011,0.05 0,0.051 0.046,0.075 0.02,0.01 0.044,0.01 0.052,0 0.087,-0.041 0.03,-0.034 0.03,-0.088 z"
               id="path31" />
          </g>
          <g
             transform="matrix(0.7,0,0,0.7,0.5446,0)"
             id="g33">
            <path
               fill="#006400"
               stroke="none"
               paint-order="stroke fill markers"
               d="m 0.208,-0.194 v 0 Q 0.122,-0.211 0.095,-0.227 0.085,-0.232 0.076,-0.24 0.033,-0.275 0.033,-0.325 q 0,-0.07 0.062,-0.102 0.039,-0.021 0.098,-0.021 0.056,0 0.094,0.028 0.011,-0.009 0.017,-0.016 0.013,-0.012 0.02,-0.012 0.01,0.009 0.011,0.024 v 0.101 q 0,0.021 -0.006,0.023 H 0.328 L 0.327,-0.299 H 0.322 q -0.011,0 -0.012,-0.009 -0.007,-0.101 -0.083,-0.118 -0.016,-0.003 -0.034,-0.003 -0.094,0 -0.11,0.058 -0.002,0.009 -0.002,0.018 0,0.051 0.077,0.072 0.015,0.004 0.046,0.01 0.072,0.014 0.103,0.039 0.006,0.004 0.011,0.009 0.042,0.042 0.042,0.095 0,0.085 -0.07,0.12 -0.038,0.019 -0.091,0.019 -0.065,0 -0.11,-0.043 l -0.02,0.023 Q 0.049,0.011 0.044,0.011 0.034,0.002 0.033,-0.013 v -0.132 q 0,-0.022 0.007,-0.024 v 0 L 0.041,-0.17 h 0.005 q 0.01,0 0.013,0.011 0,0.002 0.001,0.006 0.026,0.116 0.099,0.137 0.018,0.005 0.04,0.005 0.09,0 0.109,-0.063 0.004,-0.013 0.004,-0.028 0,-0.073 -0.104,-0.092 z"
               id="path32" />
          </g>
          <g
             transform="matrix(0.7,0,0,0.7,0.8204,0)"
             id="g34">
            <path
               fill="#006400"
               stroke="none"
               paint-order="stroke fill markers"
               d="m 0.208,-0.194 v 0 Q 0.122,-0.211 0.095,-0.227 0.085,-0.232 0.076,-0.24 0.033,-0.275 0.033,-0.325 q 0,-0.07 0.062,-0.102 0.039,-0.021 0.098,-0.021 0.056,0 0.094,0.028 0.011,-0.009 0.017,-0.016 0.013,-0.012 0.02,-0.012 0.01,0.009 0.011,0.024 v 0.101 q 0,0.021 -0.006,0.023 H 0.328 L 0.327,-0.299 H 0.322 q -0.011,0 -0.012,-0.009 -0.007,-0.101 -0.083,-0.118 -0.016,-0.003 -0.034,-0.003 -0.094,0 -0.11,0.058 -0.002,0.009 -0.002,0.018 0,0.051 0.077,0.072 0.015,0.004 0.046,0.01 0.072,0.014 0.103,0.039 0.006,0.004 0.011,0.009 0.042,0.042 0.042,0.095 0,0.085 -0.07,0.12 -0.038,0.019 -0.091,0.019 -0.065,0 -0.11,-0.043 l -0.02,0.023 Q 0.049,0.011 0.044,0.011 0.034,0.002 0.033,-0.013 v -0.132 q 0,-0.022 0.007,-0.024 v 0 L 0.041,-0.17 h 0.005 q 0.01,0 0.013,0.011 0,0.002 0.001,0.006 0.026,0.116 0.099,0.137 0.018,0.005 0.04,0.005 0.09,0 0.109,-0.063 0.004,-0.013 0.004,-0.028 0,-0.073 -0.104,-0.092 z"
               id="path33" />
          </g>
          <g
             transform="matrix(0.7,0,0,0.7,1.0962,0)"
             id="g35">
            <path
               fill="#006400"
               stroke="none"
               paint-order="stroke fill markers"
               d="m 0.471,-0.214 v 0 q 0,0.103 -0.076,0.17 -0.063,0.055 -0.146,0.055 -0.096,0 -0.162,-0.072 -0.059,-0.065 -0.059,-0.153 0,-0.102 0.073,-0.172 0.063,-0.062 0.149,-0.062 0.097,0 0.163,0.077 0.058,0.067 0.058,0.157 m -0.221,0.2 v 0 q 0.067,0 0.106,-0.056 l 0.01,-0.018 q 0.022,-0.044 0.022,-0.134 0,-0.096 -0.026,-0.139 -0.043,-0.062 -0.113,-0.065 -0.062,0 -0.102,0.05 -0.007,0.008 -0.012,0.017 -0.024,0.044 -0.024,0.137 0,0.097 0.025,0.141 0.042,0.065 0.114,0.067 z"
               id="path34" />
          </g>
        </g>
      </g>
    </g>
  </g>
</svg>
