<?xml version="1.0" encoding="UTF-8" standalone="no"?>
<svg
   version="1.1"
   width="245.67587mm"
   height="168.63918mm"
   id="svg97"
   sodipodi:docname="svm_margenes.svg"
   inkscape:version="1.4.2 (f4327f4, 2025-05-13)"
   xmlns:inkscape="http://www.inkscape.org/namespaces/inkscape"
   xmlns:sodipodi="http://sodipodi.sourceforge.net/DTD/sodipodi-0.dtd"
   xmlns="http://www.w3.org/2000/svg"
   xmlns:svg="http://www.w3.org/2000/svg">
  <sodipodi:namedview
     id="namedview97"
     pagecolor="#ffffff"
     bordercolor="#666666"
     borderopacity="1.0"
     inkscape:showpageshadow="2"
     inkscape:pageopacity="0.0"
     inkscape:pagecheckerboard="0"
     inkscape:deskcolor="#d1d1d1"
     showgrid="false"
     inkscape:zoom="0.81741336"
     inkscape:cx="493.6303"
     inkscape:cy="332.75698"
     inkscape:window-width="1440"
     inkscape:window-height="830"
     inkscape:window-x="-6"
     inkscape:window-y="-6"
     inkscape:window-maximized="1"
     inkscape:current-layer="svg97"
     inkscape:document-units="mm" />
  <defs
     id="defs1">
    <clipPath
       id="KvTdSkSsLTXW">
      <path
         fill="none"
         stroke="none"
         d="M 0,0 H 1183 V 691 H 0 Z"
         id="path1" />
    </clipPath>
    <clipPath
       clipPathUnits="userSpaceOnUse"
       id="clipPath97">
      <rect
         id="rect98"
         width="928.53876"
         height="637.3764"
         x="97.869698"
         y="12.233712" />
    </clipPath>
  </defs>
  <g
     clip-path="url(#KvTdSkSsLTXW)"
     id="g97"
     transform="translate(-97.869698,-12.233712)">
    <g
       id="g96">
      <rect
         fill="#ffffff"
         stroke="none"
         x="0"
         y="0"
         width="1183"
         height="691"
         fill-opacity="1"
         id="rect1"
         clip-path="url(#clipPath97)" />
      <path
         fill="#009900"
         stroke="none"
         paint-order="stroke fill markers"
         fill-rule="evenodd"
         d="M -60.44478,596.86459 -89.698398,490.84276 1212.4754,53.02538 l 34.7338,104.17929 z"
         fill-opacity="0.0980392"
         id="path2" />
      <path
         fill="#ff9933"
         stroke="none"
         paint-order="stroke fill markers"
         fill-rule="evenodd"
         d="m -59.383487,453.82787 -9.401311,-73.99659 1336.613498,-142.3612 7.945,74.1517 z"
         fill-opacity="0.0980392"
         id="path3" />
      <path
         fill="none"
         stroke="#009900"
         paint-order="fill stroke markers"
         d="M -5,578.22293 1188,177.11201"
         stroke-opacity="0.501961"
         stroke-linejoin="round"
         stroke-miterlimit="10"
         stroke-width="1.5"
         stroke-dasharray="1.5, 3"
         id="path4" />
      <text
         fill="#009900"
         stroke="none"
         font-family="geogebra-sans-serif, sans-serif"
         font-size="16px"
         font-style="normal"
         font-weight="normal"
         text-decoration="normal"
         x="8"
         y="565"
         text-anchor="start"
         dominant-baseline="alphabetic"
         fill-opacity="1"
         id="text4">f</text>
      <path
         fill="none"
         stroke="#009900"
         paint-order="fill stroke markers"
         d="M -5,462.36543 1188,61.254517"
         stroke-opacity="0.501961"
         stroke-linejoin="round"
         stroke-miterlimit="10"
         stroke-width="1.5"
         stroke-dasharray="1.5, 3"
         id="path5" />
      <text
         fill="#009900"
         stroke="none"
         font-family="geogebra-sans-serif, sans-serif"
         font-size="16px"
         font-style="normal"
         font-weight="normal"
         text-decoration="normal"
         x="8"
         y="449"
         text-anchor="start"
         dominant-baseline="alphabetic"
         fill-opacity="1"
         id="text5">g</text>
      <path
         fill="none"
         stroke="#ff7f00"
         paint-order="fill stroke markers"
         d="M -5,448.03555 1188,320.97046"
         stroke-opacity="0.501961"
         stroke-linejoin="round"
         stroke-miterlimit="10"
         stroke-width="1.5"
         stroke-dasharray="1.5, 3"
         id="path6" />
      <text
         fill="#ff7f00"
         stroke="none"
         font-family="geogebra-sans-serif, sans-serif"
         font-size="16px"
         font-style="normal"
         font-weight="normal"
         text-decoration="normal"
         x="8"
         y="439"
         text-anchor="start"
         dominant-baseline="alphabetic"
         fill-opacity="1"
         id="text6">h</text>
      <path
         fill="none"
         stroke="#ff7f00"
         paint-order="fill stroke markers"
         d="M -5,373.03763 1188,245.97255"
         stroke-opacity="0.501961"
         stroke-linejoin="round"
         stroke-miterlimit="10"
         stroke-width="2.5"
         stroke-dasharray="2.5, 3"
         id="path7" />
      <text
         fill="#ff7f00"
         stroke="none"
         font-family="geogebra-sans-serif, sans-serif"
         font-size="16px"
         font-style="normal"
         font-weight="normal"
         text-decoration="normal"
         x="8"
         y="364"
         text-anchor="start"
         dominant-baseline="alphabetic"
         fill-opacity="1"
         id="text7">i</text>
      <path
         fill="none"
         stroke="#000000"
         paint-order="fill stroke markers"
         d="M 1188,413.53017 1143.4228,-5"
         stroke-opacity="0.698039"
         stroke-linecap="round"
         stroke-linejoin="round"
         stroke-miterlimit="10"
         stroke-width="2.5"
         id="path8" />
      <text
         fill="#000000"
         stroke="none"
         font-family="geogebra-sans-serif, sans-serif"
         font-size="16px"
         font-style="normal"
         font-weight="normal"
         text-decoration="normal"
         x="1128"
         y="24"
         text-anchor="start"
         dominant-baseline="alphabetic"
         fill-opacity="1"
         id="text8">j</text>
      <path
         fill="none"
         stroke="#000000"
         paint-order="fill stroke markers"
         d="M 1188,383.81771 1057.2716,-5"
         stroke-opacity="0.698039"
         stroke-linecap="round"
         stroke-linejoin="round"
         stroke-miterlimit="10"
         stroke-width="2.5"
         id="path9" />
      <text
         fill="#000000"
         stroke="none"
         font-family="geogebra-sans-serif, sans-serif"
         font-size="16px"
         font-style="normal"
         font-weight="normal"
         text-decoration="normal"
         x="1046"
         y="24"
         text-anchor="start"
         dominant-baseline="alphabetic"
         fill-opacity="1"
         id="text9">k</text>
      <path
         fill="none"
         stroke="#ff6600"
         paint-order="fill stroke markers"
         d="M -5,410.53659 1188,283.4715"
         stroke-opacity="0.698039"
         stroke-linecap="round"
         stroke-linejoin="round"
         stroke-miterlimit="10"
         stroke-width="2.5"
         id="path10" />
      <text
         fill="#ff6600"
         stroke="none"
         font-family="geogebra-sans-serif, sans-serif"
         font-size="16px"
         font-style="normal"
         font-weight="normal"
         text-decoration="normal"
         x="8"
         y="401"
         text-anchor="start"
         dominant-baseline="alphabetic"
         fill-opacity="1"
         id="text10">l</text>
      <path
         fill="none"
         stroke="#006400"
         paint-order="fill stroke markers"
         d="M -5,517.54348 1188,116.43256"
         stroke-opacity="0.698039"
         stroke-linecap="round"
         stroke-linejoin="round"
         stroke-miterlimit="10"
         stroke-width="2.5"
         id="path11" />
      <text
         fill="#006400"
         stroke="none"
         font-family="geogebra-sans-serif, sans-serif"
         font-size="16px"
         font-style="normal"
         font-weight="normal"
         text-decoration="normal"
         x="8"
         y="504"
         text-anchor="start"
         dominant-baseline="alphabetic"
         fill-opacity="1"
         id="text11">m</text>
      <path
         fill="#000000"
         stroke="none"
         paint-order="stroke fill markers"
         d="m 805.93708,188.96168 c -0.0791,0 -0.15953,0.0126 -0.23864,0.0392 v 0 c 0.0776,-0.026 0.15818,-0.0389 0.23854,-0.0389 0.11365,0 0.22689,0.0258 0.33077,0.0769 v 0 c -0.10174,-0.05 -0.21476,-0.0771 -0.33067,-0.0771 z m -0.24043,0.0398 c -0.19416,0.0657 -0.34383,0.20313 -0.42937,0.37283 v 0 c 0.0886,-0.17578 0.24282,-0.30972 0.42937,-0.37283 z m 2.14632,4.0259 -1.42179,0.47804 14.27762,42.46505 v 0 l 1.42179,-0.47804 v 0 z m 15.43137,46.59647 v 0 c -0.0886,0.17562 -0.24277,0.30944 -0.42921,0.37251 v 0 c 0.19404,-0.0656 0.34364,-0.20296 0.42921,-0.37251 z m -0.43054,0.37296 z m -0.56968,-0.0377 v 0 c 0.10171,0.05 0.2147,0.077 0.33057,0.077 0.0788,0 0.15894,-0.0125 0.23778,-0.0389 v 0 c -0.0774,0.0258 -0.15761,0.0387 -0.23767,0.0387 -0.11362,0 -0.22683,-0.0258 -0.33068,-0.0768 z"
         fill-opacity="0.698039"
         id="path12" />
      <path
         fill="#000000"
         stroke="none"
         paint-order="stroke fill markers"
         d="m 824.49217,234.7362 c -0.0798,0 -0.16049,0.0128 -0.2389,0.0391 l -5.68715,1.91214 c -0.28753,0.0967 -0.48852,0.35703 -0.50923,0.65967 -0.0207,0.30264 0.1429,0.58795 0.41458,0.72291 l 3.79964,1.88751 c 0.10468,0.052 0.21897,0.0783 0.33369,0.0783 0.0805,0 0.16124,-0.013 0.239,-0.0391 0.18854,-0.0634 0.34417,-0.19908 0.43267,-0.37722 l 1.88751,-3.79965 c 0.13495,-0.27167 0.093,-0.59789 -0.10638,-0.82654 -0.14498,-0.16629 -0.35244,-0.25716 -0.56543,-0.25716 z"
         fill-opacity="0.698039"
         id="path13" />
      <path
         fill="#000000"
         stroke="none"
         paint-order="stroke fill markers"
         d="m 805.93698,188.96189 c -0.0805,0 -0.16125,0.013 -0.239,0.0391 -0.18854,0.0634 -0.34418,0.19909 -0.43268,0.37723 l -1.8875,3.79965 c -0.13496,0.27167 -0.093,0.59789 0.10637,0.82653 0.14499,0.1663 0.35245,0.25717 0.56543,0.25717 0.0799,0 0.16049,-0.0128 0.2389,-0.0391 l 5.68716,-1.91214 c 0.28753,-0.0967 0.48851,-0.35703 0.50923,-0.65967 0.0207,-0.30264 -0.14291,-0.58796 -0.41458,-0.72291 l -3.79965,-1.88751 c -0.10467,-0.052 -0.21897,-0.0783 -0.33368,-0.0783 z"
         fill-opacity="0.698039"
         id="path14" />
      <path
         fill="#000000"
         stroke="none"
         paint-order="stroke fill markers"
         d="m 888.53998,314.61669 c -0.0266,0 -0.0534,10e-4 -0.0804,0.004 v 0 c 0.0265,-0.003 0.0532,-0.004 0.0799,-0.004 0.0711,0 0.14239,0.0101 0.21159,0.0304 v 0 c -0.0673,-0.0199 -0.13823,-0.0305 -0.21113,-0.0305 z m -0.0813,0.004 c -0.10076,0.0109 -0.19471,0.0412 -0.2785,0.0869 v 0 c 0.0869,-0.0473 0.18168,-0.0765 0.2785,-0.0869 z m 1.22335,4.39516 -1.49157,0.15886 v 0 l 3.15485,29.62052 v 0 l 1.49156,-0.15887 v 0 z m 3.16505,34.08767 c -0.0871,0.0474 -0.18209,0.0766 -0.27913,0.0869 v 0 c 0.101,-0.0108 0.19517,-0.0412 0.27913,-0.0869 z m -0.57079,0.0608 c 0.0673,0.0198 0.13817,0.0304 0.21105,0.0304 0.0262,0 0.0527,-0.001 0.0794,-0.004 v 0 c -0.0262,0.003 -0.0526,0.004 -0.0789,0.004 -0.0711,0 -0.14232,-0.01 -0.2115,-0.0304 z"
         fill-opacity="0.698039"
         id="path15" />
      <path
         fill="#000000"
         stroke="none"
         paint-order="stroke fill markers"
         d="m 895.15386,348.39421 c -0.0264,0 -0.053,0.001 -0.0797,0.004 l -5.96626,0.63545 c -0.30164,0.0321 -0.55422,0.2428 -0.63997,0.53377 -0.0858,0.29098 0.0122,0.60496 0.24823,0.79553 l 3.30085,2.6654 c 0.13875,0.11203 0.30528,0.16651 0.47072,0.16651 0.21885,0 0.43579,-0.0953 0.58398,-0.27885 l 2.6654,-3.30085 c 0.19057,-0.23601 0.22021,-0.56358 0.0751,-0.82997 -0.13229,-0.24283 -0.38605,-0.39123 -0.65839,-0.39123 z"
         fill-opacity="0.698039"
         id="path16" />
      <path
         fill="#000000"
         stroke="none"
         paint-order="stroke fill markers"
         d="m 888.53952,314.61672 c -0.21884,0 -0.43578,0.0953 -0.58397,0.27885 l -2.6654,3.30086 c -0.19057,0.23601 -0.22022,0.56358 -0.0751,0.82996 0.13229,0.24284 0.38605,0.39123 0.65839,0.39123 0.0264,0 0.053,-10e-4 0.0797,-0.004 l 5.96625,-0.63546 c 0.30164,-0.0321 0.55423,-0.2428 0.63998,-0.53377 0.0857,-0.29097 -0.0122,-0.60495 -0.24823,-0.79553 l -3.30086,-2.66539 c -0.13874,-0.11204 -0.30527,-0.16652 -0.47072,-0.16652 z"
         fill-opacity="0.698039"
         id="path17" />
      <path
         fill="#0033cc"
         stroke="none"
         paint-order="stroke fill markers"
         d="m 359.25684,119.24676 c 0,3.31371 -2.68629,6 -6,6 -3.31371,0 -6,-2.68629 -6,-6 0,-3.31371 2.68629,-6 6,-6 3.31371,0 6,2.68629 6,6 z"
         fill-opacity="1"
         id="path18" />
      <path
         fill="none"
         stroke="#000000"
         paint-order="fill stroke markers"
         d="m 359.25684,119.24676 c 0,3.31371 -2.68629,6 -6,6 -3.31371,0 -6,-2.68629 -6,-6 0,-3.31371 2.68629,-6 6,-6 3.31371,0 6,2.68629 6,6 z"
         stroke-opacity="1"
         stroke-linecap="round"
         stroke-linejoin="round"
         stroke-miterlimit="10"
         id="path19" />
      <path
         fill="#0033cc"
         stroke="none"
         paint-order="stroke fill markers"
         d="m 516.307,134.599 c 0,3.31371 -2.68629,6 -6,6 -3.31371,0 -6,-2.68629 -6,-6 0,-3.31371 2.68629,-6 6,-6 3.31371,0 6,2.68629 6,6 z"
         fill-opacity="1"
         id="path20" />
      <path
         fill="none"
         stroke="#000000"
         paint-order="fill stroke markers"
         d="m 516.307,134.599 c 0,3.31371 -2.68629,6 -6,6 -3.31371,0 -6,-2.68629 -6,-6 0,-3.31371 2.68629,-6 6,-6 3.31371,0 6,2.68629 6,6 z"
         stroke-opacity="1"
         stroke-linecap="round"
         stroke-linejoin="round"
         stroke-miterlimit="10"
         id="path21" />
      <path
         fill="#0033cc"
         stroke="none"
         paint-order="stroke fill markers"
         d="m 722.80445,218.2775 c 0,3.3137 -2.68629,6 -6,6 -3.31371,0 -6,-2.6863 -6,-6 0,-3.31371 2.68629,-6 6,-6 3.31371,0 6,2.68629 6,6 z"
         fill-opacity="1"
         id="path22" />
      <path
         fill="none"
         stroke="#000000"
         paint-order="fill stroke markers"
         d="m 722.80445,218.2775 c 0,3.3137 -2.68629,6 -6,6 -3.31371,0 -6,-2.6863 -6,-6 0,-3.31371 2.68629,-6 6,-6 3.31371,0 6,2.68629 6,6 z"
         stroke-opacity="1"
         stroke-linecap="round"
         stroke-linejoin="round"
         stroke-miterlimit="10"
         id="path23" />
      <path
         fill="#0033cc"
         stroke="none"
         paint-order="stroke fill markers"
         d="m 564.223,38.767 c 0,3.313708 -2.68629,6 -6,6 -3.31371,0 -6,-2.686292 -6,-6 0,-3.313708 2.68629,-6 6,-6 3.31371,0 6,2.686292 6,6 z"
         fill-opacity="1"
         id="path24" />
      <path
         fill="none"
         stroke="#000000"
         paint-order="fill stroke markers"
         d="m 564.223,38.767 c 0,3.313708 -2.68629,6 -6,6 -3.31371,0 -6,-2.686292 -6,-6 0,-3.313708 2.68629,-6 6,-6 3.31371,0 6,2.686292 6,6 z"
         stroke-opacity="1"
         stroke-linecap="round"
         stroke-linejoin="round"
         stroke-miterlimit="10"
         id="path25" />
      <path
         fill="#0033cc"
         stroke="none"
         paint-order="stroke fill markers"
         d="m 233.44663,270.1623 c 0,3.31371 -2.68629,6 -6,6 -3.3137,0 -6,-2.68629 -6,-6 0,-3.31371 2.6863,-6 6,-6 3.31371,0 6,2.68629 6,6 z"
         fill-opacity="1"
         id="path26" />
      <path
         fill="none"
         stroke="#000000"
         paint-order="fill stroke markers"
         d="m 233.44663,270.1623 c 0,3.31371 -2.68629,6 -6,6 -3.3137,0 -6,-2.68629 -6,-6 0,-3.31371 2.6863,-6 6,-6 3.31371,0 6,2.68629 6,6 z"
         stroke-opacity="1"
         stroke-linecap="round"
         stroke-linejoin="round"
         stroke-miterlimit="10"
         id="path27" />
      <path
         fill="#0033cc"
         stroke="none"
         paint-order="stroke fill markers"
         d="m 191.93512,270.1623 c 0,3.31371 -2.6863,6 -6,6 -3.31371,0 -6,-2.68629 -6,-6 0,-3.31371 2.68629,-6 6,-6 3.3137,0 6,2.68629 6,6 z"
         fill-opacity="1"
         id="path28" />
      <path
         fill="none"
         stroke="#000000"
         paint-order="fill stroke markers"
         d="m 191.93512,270.1623 c 0,3.31371 -2.6863,6 -6,6 -3.31371,0 -6,-2.68629 -6,-6 0,-3.31371 2.68629,-6 6,-6 3.3137,0 6,2.68629 6,6 z"
         stroke-opacity="1"
         stroke-linecap="round"
         stroke-linejoin="round"
         stroke-miterlimit="10"
         id="path29" />
      <path
         fill="#0033cc"
         stroke="none"
         paint-order="stroke fill markers"
         d="m 196.23722,233.89633 c 0,3.31371 -2.68629,6 -6,6 -3.31371,0 -6,-2.68629 -6,-6 0,-3.31371 2.68629,-6 6,-6 3.31371,0 6,2.68629 6,6 z"
         fill-opacity="1"
         id="path30" />
      <path
         fill="none"
         stroke="#000000"
         paint-order="fill stroke markers"
         d="m 196.23722,233.89633 c 0,3.31371 -2.68629,6 -6,6 -3.31371,0 -6,-2.68629 -6,-6 0,-3.31371 2.68629,-6 6,-6 3.31371,0 6,2.68629 6,6 z"
         stroke-opacity="1"
         stroke-linecap="round"
         stroke-linejoin="round"
         stroke-miterlimit="10"
         id="path31" />
      <path
         fill="#0033cc"
         stroke="none"
         paint-order="stroke fill markers"
         d="m 413.75758,191.55458 c 0,3.31371 -2.68629,6 -6,6 -3.31371,0 -6,-2.68629 -6,-6 0,-3.31371 2.68629,-6 6,-6 3.31371,0 6,2.68629 6,6 z"
         fill-opacity="1"
         id="path32" />
      <path
         fill="none"
         stroke="#000000"
         paint-order="fill stroke markers"
         d="m 413.75758,191.55458 c 0,3.31371 -2.68629,6 -6,6 -3.31371,0 -6,-2.68629 -6,-6 0,-3.31371 2.68629,-6 6,-6 3.31371,0 6,2.68629 6,6 z"
         stroke-opacity="1"
         stroke-linecap="round"
         stroke-linejoin="round"
         stroke-miterlimit="10"
         id="path33" />
      <path
         fill="#0033cc"
         stroke="none"
         paint-order="stroke fill markers"
         d="m 652.069,137.261 c 0,3.31371 -2.68629,6 -6,6 -3.31371,0 -6,-2.68629 -6,-6 0,-3.31371 2.68629,-6 6,-6 3.31371,0 6,2.68629 6,6 z"
         fill-opacity="1"
         id="path34" />
      <path
         fill="none"
         stroke="#000000"
         paint-order="fill stroke markers"
         d="m 652.069,137.261 c 0,3.31371 -2.68629,6 -6,6 -3.31371,0 -6,-2.68629 -6,-6 0,-3.31371 2.68629,-6 6,-6 3.31371,0 6,2.68629 6,6 z"
         stroke-opacity="1"
         stroke-linecap="round"
         stroke-linejoin="round"
         stroke-miterlimit="10"
         id="path35" />
      <path
         fill="#0033cc"
         stroke="none"
         paint-order="stroke fill markers"
         d="m 316.2567,339.46 c 0,3.31371 -2.68629,6 -6,6 -3.31371,0 -6,-2.68629 -6,-6 0,-3.31371 2.68629,-6 6,-6 3.31371,0 6,2.68629 6,6 z"
         fill-opacity="1"
         id="path36" />
      <path
         fill="none"
         stroke="#000000"
         paint-order="fill stroke markers"
         d="m 316.2567,339.46 c 0,3.31371 -2.68629,6 -6,6 -3.31371,0 -6,-2.68629 -6,-6 0,-3.31371 2.68629,-6 6,-6 3.31371,0 6,2.68629 6,6 z"
         stroke-opacity="1"
         stroke-linecap="round"
         stroke-linejoin="round"
         stroke-miterlimit="10"
         id="path37" />
      <path
         fill="#0033cc"
         stroke="none"
         paint-order="stroke fill markers"
         d="m 428.461,271.692 c 0,3.31371 -2.68629,6 -6,6 -3.31371,0 -6,-2.68629 -6,-6 0,-3.31371 2.68629,-6 6,-6 3.31371,0 6,2.68629 6,6 z"
         fill-opacity="1"
         id="path38" />
      <path
         fill="none"
         stroke="#000000"
         paint-order="fill stroke markers"
         d="m 428.461,271.692 c 0,3.31371 -2.68629,6 -6,6 -3.31371,0 -6,-2.68629 -6,-6 0,-3.31371 2.68629,-6 6,-6 3.31371,0 6,2.68629 6,6 z"
         stroke-opacity="1"
         stroke-linecap="round"
         stroke-linejoin="round"
         stroke-miterlimit="10"
         id="path39" />
      <path
         fill="#0033cc"
         stroke="none"
         paint-order="stroke fill markers"
         d="m 606.8341,258.67166 c 0,3.31371 -2.6863,6 -6,6 -3.31371,0 -6,-2.68629 -6,-6 0,-3.31371 2.68629,-6 6,-6 3.3137,0 6,2.68629 6,6 z"
         fill-opacity="1"
         id="path40" />
      <path
         fill="none"
         stroke="#000000"
         paint-order="fill stroke markers"
         d="m 606.8341,258.67166 c 0,3.31371 -2.6863,6 -6,6 -3.31371,0 -6,-2.68629 -6,-6 0,-3.31371 2.68629,-6 6,-6 3.3137,0 6,2.68629 6,6 z"
         stroke-opacity="1"
         stroke-linecap="round"
         stroke-linejoin="round"
         stroke-miterlimit="10"
         id="path41" />
      <path
         fill="#0033cc"
         stroke="none"
         paint-order="stroke fill markers"
         d="m 709.77407,93.185881 c 0,3.313708 -2.68629,6 -6,6 -3.31371,0 -6,-2.686292 -6,-6 0,-3.313709 2.68629,-6 6,-6 3.31371,0 6,2.686291 6,6 z"
         fill-opacity="1"
         id="path42" />
      <path
         fill="none"
         stroke="#000000"
         paint-order="fill stroke markers"
         d="m 709.77407,93.185881 c 0,3.313708 -2.68629,6 -6,6 -3.31371,0 -6,-2.686292 -6,-6 0,-3.313709 2.68629,-6 6,-6 3.31371,0 6,2.686291 6,6 z"
         stroke-opacity="1"
         stroke-linecap="round"
         stroke-linejoin="round"
         stroke-miterlimit="10"
         id="path43" />
      <path
         fill="#0033cc"
         stroke="none"
         paint-order="stroke fill markers"
         d="m 318.53015,212.97452 c 0,3.31371 -2.68629,6 -6,6 -3.31371,0 -6,-2.68629 -6,-6 0,-3.31371 2.68629,-6 6,-6 3.31371,0 6,2.68629 6,6 z"
         fill-opacity="1"
         id="path44" />
      <path
         fill="none"
         stroke="#000000"
         paint-order="fill stroke markers"
         d="m 318.53015,212.97452 c 0,3.31371 -2.68629,6 -6,6 -3.31371,0 -6,-2.68629 -6,-6 0,-3.31371 2.68629,-6 6,-6 3.31371,0 6,2.68629 6,6 z"
         stroke-opacity="1"
         stroke-linecap="round"
         stroke-linejoin="round"
         stroke-miterlimit="10"
         id="path45" />
      <path
         fill="#0033cc"
         stroke="none"
         paint-order="stroke fill markers"
         d="m 524.02727,270.1623 c 0,3.31371 -2.6863,6 -6,6 -3.31371,0 -6,-2.68629 -6,-6 0,-3.31371 2.68629,-6 6,-6 3.3137,0 6,2.68629 6,6 z"
         fill-opacity="1"
         id="path46" />
      <path
         fill="none"
         stroke="#000000"
         paint-order="fill stroke markers"
         d="m 524.02727,270.1623 c 0,3.31371 -2.6863,6 -6,6 -3.31371,0 -6,-2.68629 -6,-6 0,-3.31371 2.68629,-6 6,-6 3.3137,0 6,2.68629 6,6 z"
         stroke-opacity="1"
         stroke-linecap="round"
         stroke-linejoin="round"
         stroke-miterlimit="10"
         id="path47" />
      <path
         fill="#0033cc"
         stroke="none"
         paint-order="stroke fill markers"
         d="m 608.146,191.832 c 0,3.31371 -2.68629,6 -6,6 -3.31371,0 -6,-2.68629 -6,-6 0,-3.31371 2.68629,-6 6,-6 3.31371,0 6,2.68629 6,6 z"
         fill-opacity="1"
         id="path48" />
      <path
         fill="none"
         stroke="#000000"
         paint-order="fill stroke markers"
         d="m 608.146,191.832 c 0,3.31371 -2.68629,6 -6,6 -3.31371,0 -6,-2.68629 -6,-6 0,-3.31371 2.68629,-6 6,-6 3.31371,0 6,2.68629 6,6 z"
         stroke-opacity="1"
         stroke-linecap="round"
         stroke-linejoin="round"
         stroke-miterlimit="10"
         id="path49" />
      <path
         fill="#cc0000"
         stroke="none"
         paint-order="stroke fill markers"
         d="m 310.49367,474.16485 c 0,3.31371 -2.68629,6 -6,6 -3.3137,0 -6,-2.68629 -6,-6 0,-3.31371 2.6863,-6 6,-6 3.31371,0 6,2.68629 6,6 z"
         fill-opacity="1"
         id="path50" />
      <path
         fill="none"
         stroke="#000000"
         paint-order="fill stroke markers"
         d="m 310.49367,474.16485 c 0,3.31371 -2.68629,6 -6,6 -3.3137,0 -6,-2.68629 -6,-6 0,-3.31371 2.6863,-6 6,-6 3.31371,0 6,2.68629 6,6 z"
         stroke-opacity="1"
         stroke-linecap="round"
         stroke-linejoin="round"
         stroke-miterlimit="10"
         id="path51" />
      <path
         fill="#cc0000"
         stroke="none"
         paint-order="stroke fill markers"
         d="m 439.0796,451.05969 c 0,3.3137 -2.68629,6 -6,6 -3.3137,0 -6,-2.6863 -6,-6 0,-3.31371 2.6863,-6 6,-6 3.31371,0 6,2.68629 6,6 z"
         fill-opacity="1"
         id="path52" />
      <path
         fill="none"
         stroke="#000000"
         paint-order="fill stroke markers"
         d="m 439.0796,451.05969 c 0,3.3137 -2.68629,6 -6,6 -3.3137,0 -6,-2.6863 -6,-6 0,-3.31371 2.6863,-6 6,-6 3.31371,0 6,2.68629 6,6 z"
         stroke-opacity="1"
         stroke-linecap="round"
         stroke-linejoin="round"
         stroke-miterlimit="10"
         id="path53" />
      <path
         fill="#cc0000"
         stroke="none"
         paint-order="stroke fill markers"
         d="m 578.71605,441.0139 c 0,3.31371 -2.68629,6 -6,6 -3.31371,0 -6,-2.68629 -6,-6 0,-3.31371 2.68629,-6 6,-6 3.31371,0 6,2.68629 6,6 z"
         fill-opacity="1"
         id="path54" />
      <path
         fill="none"
         stroke="#000000"
         paint-order="fill stroke markers"
         d="m 578.71605,441.0139 c 0,3.31371 -2.68629,6 -6,6 -3.31371,0 -6,-2.68629 -6,-6 0,-3.31371 2.68629,-6 6,-6 3.31371,0 6,2.68629 6,6 z"
         stroke-opacity="1"
         stroke-linecap="round"
         stroke-linejoin="round"
         stroke-miterlimit="10"
         id="path55" />
      <path
         fill="#cc0000"
         stroke="none"
         paint-order="stroke fill markers"
         d="m 668.041,557.857 c 0,3.31371 -2.68629,6 -6,6 -3.31371,0 -6,-2.68629 -6,-6 0,-3.31371 2.68629,-6 6,-6 3.31371,0 6,2.68629 6,6 z"
         fill-opacity="1"
         id="path56" />
      <path
         fill="none"
         stroke="#000000"
         paint-order="fill stroke markers"
         d="m 668.041,557.857 c 0,3.31371 -2.68629,6 -6,6 -3.31371,0 -6,-2.68629 -6,-6 0,-3.31371 2.68629,-6 6,-6 3.31371,0 6,2.68629 6,6 z"
         stroke-opacity="1"
         stroke-linecap="round"
         stroke-linejoin="round"
         stroke-miterlimit="10"
         id="path57" />
      <path
         fill="#cc0000"
         stroke="none"
         paint-order="stroke fill markers"
         d="m 447.11623,541.47177 c 0,3.31371 -2.68629,6 -6,6 -3.3137,0 -6,-2.68629 -6,-6 0,-3.3137 2.6863,-6 6,-6 3.31371,0 6,2.6863 6,6 z"
         fill-opacity="1"
         id="path58" />
      <path
         fill="none"
         stroke="#000000"
         paint-order="fill stroke markers"
         d="m 447.11623,541.47177 c 0,3.31371 -2.68629,6 -6,6 -3.3137,0 -6,-2.68629 -6,-6 0,-3.3137 2.6863,-6 6,-6 3.31371,0 6,2.6863 6,6 z"
         stroke-opacity="1"
         stroke-linecap="round"
         stroke-linejoin="round"
         stroke-miterlimit="10"
         id="path59" />
      <path
         fill="#cc0000"
         stroke="none"
         paint-order="stroke fill markers"
         d="m 483.28107,504.30236 c 0,3.31371 -2.68629,6 -6,6 -3.31371,0 -6,-2.68629 -6,-6 0,-3.31371 2.68629,-6 6,-6 3.31371,0 6,2.68629 6,6 z"
         fill-opacity="1"
         id="path60" />
      <path
         fill="none"
         stroke="#000000"
         paint-order="fill stroke markers"
         d="m 483.28107,504.30236 c 0,3.31371 -2.68629,6 -6,6 -3.31371,0 -6,-2.68629 -6,-6 0,-3.31371 2.68629,-6 6,-6 3.31371,0 6,2.68629 6,6 z"
         stroke-opacity="1"
         stroke-linecap="round"
         stroke-linejoin="round"
         stroke-miterlimit="10"
         id="path61" />
      <path
         fill="#cc0000"
         stroke="none"
         paint-order="stroke fill markers"
         d="m 674.15103,424.94064 c 0,3.31371 -2.68629,6 -6,6 -3.31371,0 -6,-2.68629 -6,-6 0,-3.31371 2.68629,-6 6,-6 3.31371,0 6,2.68629 6,6 z"
         fill-opacity="1"
         id="path62" />
      <path
         fill="none"
         stroke="#000000"
         paint-order="fill stroke markers"
         d="m 674.15103,424.94064 c 0,3.31371 -2.68629,6 -6,6 -3.31371,0 -6,-2.68629 -6,-6 0,-3.31371 2.68629,-6 6,-6 3.31371,0 6,2.68629 6,6 z"
         stroke-opacity="1"
         stroke-linecap="round"
         stroke-linejoin="round"
         stroke-miterlimit="10"
         id="path63" />
      <path
         fill="#cc0000"
         stroke="none"
         paint-order="stroke fill markers"
         d="m 711.32045,491.24284 c 0,3.3137 -2.6863,6 -6,6 -3.31371,0 -6,-2.6863 -6,-6 0,-3.31371 2.68629,-6 6,-6 3.3137,0 6,2.68629 6,6 z"
         fill-opacity="1"
         id="path64" />
      <path
         fill="none"
         stroke="#000000"
         paint-order="fill stroke markers"
         d="m 711.32045,491.24284 c 0,3.3137 -2.6863,6 -6,6 -3.31371,0 -6,-2.6863 -6,-6 0,-3.31371 2.68629,-6 6,-6 3.3137,0 6,2.68629 6,6 z"
         stroke-opacity="1"
         stroke-linecap="round"
         stroke-linejoin="round"
         stroke-miterlimit="10"
         id="path65" />
      <path
         fill="#cc0000"
         stroke="none"
         paint-order="stroke fill markers"
         d="m 588.181,543.216 c 0,3.31371 -2.68629,6 -6,6 -3.31371,0 -6,-2.68629 -6,-6 0,-3.31371 2.68629,-6 6,-6 3.31371,0 6,2.68629 6,6 z"
         fill-opacity="1"
         id="path66" />
      <path
         fill="none"
         stroke="#000000"
         paint-order="fill stroke markers"
         d="m 588.181,543.216 c 0,3.31371 -2.68629,6 -6,6 -3.31371,0 -6,-2.68629 -6,-6 0,-3.31371 2.68629,-6 6,-6 3.31371,0 6,2.68629 6,6 z"
         stroke-opacity="1"
         stroke-linecap="round"
         stroke-linejoin="round"
         stroke-miterlimit="10"
         id="path67" />
      <path
         fill="#cc0000"
         stroke="none"
         paint-order="stroke fill markers"
         d="m 567.74297,387.67239 c 0,3.31371 -2.6863,6 -6,6 -3.31371,0 -6,-2.68629 -6,-6 0,-3.31371 2.68629,-6 6,-6 3.3137,0 6,2.68629 6,6 z"
         fill-opacity="1"
         id="path68" />
      <path
         fill="none"
         stroke="#000000"
         paint-order="fill stroke markers"
         d="m 567.74297,387.67239 c 0,3.31371 -2.6863,6 -6,6 -3.31371,0 -6,-2.68629 -6,-6 0,-3.31371 2.68629,-6 6,-6 3.3137,0 6,2.68629 6,6 z"
         stroke-opacity="1"
         stroke-linecap="round"
         stroke-linejoin="round"
         stroke-miterlimit="10"
         id="path69" />
      <path
         fill="#cc0000"
         stroke="none"
         paint-order="stroke fill markers"
         d="m 385.31769,579.21893 c 0,3.3137 -2.68629,6 -6,6 -3.3137,0 -6,-2.6863 -6,-6 0,-3.31371 2.6863,-6 6,-6 3.31371,0 6,2.68629 6,6 z"
         fill-opacity="1"
         id="path70" />
      <path
         fill="none"
         stroke="#000000"
         paint-order="fill stroke markers"
         d="m 385.31769,579.21893 c 0,3.3137 -2.68629,6 -6,6 -3.3137,0 -6,-2.6863 -6,-6 0,-3.31371 2.6863,-6 6,-6 3.31371,0 6,2.68629 6,6 z"
         stroke-opacity="1"
         stroke-linecap="round"
         stroke-linejoin="round"
         stroke-miterlimit="10"
         id="path71" />
      <path
         fill="#cc0000"
         stroke="none"
         paint-order="stroke fill markers"
         d="m 280.35616,549.5084 c 0,3.31371 -2.68629,6 -6,6 -3.31371,0 -6,-2.68629 -6,-6 0,-3.3137 2.68629,-6 6,-6 3.31371,0 6,2.6863 6,6 z"
         fill-opacity="1"
         id="path72" />
      <path
         fill="none"
         stroke="#000000"
         paint-order="fill stroke markers"
         d="m 280.35616,549.5084 c 0,3.31371 -2.68629,6 -6,6 -3.31371,0 -6,-2.68629 -6,-6 0,-3.3137 2.68629,-6 6,-6 3.31371,0 6,2.6863 6,6 z"
         stroke-opacity="1"
         stroke-linecap="round"
         stroke-linejoin="round"
         stroke-miterlimit="10"
         id="path73" />
      <path
         fill="#cc0000"
         stroke="none"
         paint-order="stroke fill markers"
         d="m 243.28659,553.15817 c 0,3.31371 -2.68629,6 -6,6 -3.31371,0 -6,-2.68629 -6,-6 0,-3.31371 2.68629,-6 6,-6 3.31371,0 6,2.68629 6,6 z"
         fill-opacity="1"
         id="path74" />
      <path
         fill="none"
         stroke="#000000"
         paint-order="fill stroke markers"
         d="m 243.28659,553.15817 c 0,3.31371 -2.68629,6 -6,6 -3.31371,0 -6,-2.68629 -6,-6 0,-3.31371 2.68629,-6 6,-6 3.31371,0 6,2.68629 6,6 z"
         stroke-opacity="1"
         stroke-linecap="round"
         stroke-linejoin="round"
         stroke-miterlimit="10"
         id="path75" />
      <path
         fill="#cc0000"
         stroke="none"
         paint-order="stroke fill markers"
         d="m 517.638,619.083 c 0,3.31371 -2.68629,6 -6,6 -3.31371,0 -6,-2.68629 -6,-6 0,-3.31371 2.68629,-6 6,-6 3.31371,0 6,2.68629 6,6 z"
         fill-opacity="1"
         id="path76" />
      <path
         fill="none"
         stroke="#000000"
         paint-order="fill stroke markers"
         d="m 517.638,619.083 c 0,3.31371 -2.68629,6 -6,6 -3.31371,0 -6,-2.68629 -6,-6 0,-3.31371 2.68629,-6 6,-6 3.31371,0 6,2.68629 6,6 z"
         stroke-opacity="1"
         stroke-linecap="round"
         stroke-linejoin="round"
         stroke-miterlimit="10"
         id="path77" />
      <path
         fill="#cc0000"
         stroke="none"
         paint-order="stroke fill markers"
         d="m 787.95633,364.21771 c 0,3.31371 -2.68629,6 -6,6 -3.31371,0 -6,-2.68629 -6,-6 0,-3.31371 2.68629,-6 6,-6 3.31371,0 6,2.68629 6,6 z"
         fill-opacity="1"
         id="path78" />
      <path
         fill="none"
         stroke="#000000"
         paint-order="fill stroke markers"
         d="m 787.95633,364.21771 c 0,3.31371 -2.68629,6 -6,6 -3.31371,0 -6,-2.68629 -6,-6 0,-3.31371 2.68629,-6 6,-6 3.31371,0 6,2.68629 6,6 z"
         stroke-opacity="1"
         stroke-linecap="round"
         stroke-linejoin="round"
         stroke-miterlimit="10"
         id="path79" />
      <path
         fill="#cc0000"
         stroke="none"
         paint-order="stroke fill markers"
         d="m 800.98671,512.76401 c 0,3.3137 -2.6863,6 -6,6 -3.31371,0 -6,-2.6863 -6,-6 0,-3.31371 2.68629,-6 6,-6 3.3137,0 6,2.68629 6,6 z"
         fill-opacity="1"
         id="path80" />
      <path
         fill="none"
         stroke="#000000"
         paint-order="fill stroke markers"
         d="m 800.98671,512.76401 c 0,3.3137 -2.6863,6 -6,6 -3.31371,0 -6,-2.6863 -6,-6 0,-3.31371 2.68629,-6 6,-6 3.3137,0 6,2.68629 6,6 z"
         stroke-opacity="1"
         stroke-linecap="round"
         stroke-linejoin="round"
         stroke-miterlimit="10"
         id="path81" />
      <path
         fill="#7d7dff"
         stroke="none"
         paint-order="stroke fill markers"
         d="m 1175.3538,247.85202 c 0,2.76143 -2.2386,5 -5,5 -2.7614,0 -5,-2.23857 -5,-5 0,-2.76142 2.2386,-5 5,-5 2.7614,0 5,2.23858 5,5 z"
         fill-opacity="1"
         id="path82" />
      <path
         fill="none"
         stroke="#000000"
         paint-order="fill stroke markers"
         d="m 1175.3538,247.85202 c 0,2.76143 -2.2386,5 -5,5 -2.7614,0 -5,-2.23857 -5,-5 0,-2.76142 2.2386,-5 5,-5 2.7614,0 5,2.23858 5,5 z"
         stroke-opacity="1"
         stroke-linecap="round"
         stroke-linejoin="round"
         stroke-miterlimit="10"
         id="path83" />
      <text
         fill="#7d7dff"
         stroke="none"
         font-family="geogebra-sans-serif, sans-serif"
         font-size="16px"
         font-style="normal"
         font-weight="normal"
         text-decoration="normal"
         x="1155"
         y="238"
         text-anchor="start"
         dominant-baseline="alphabetic"
         fill-opacity="1"
         id="text83">Q</text>
      <text
         fill="#7d7dff"
         stroke="none"
         font-family="geogebra-sans-serif, sans-serif"
         font-size="14px"
         font-style="normal"
         font-weight="normal"
         text-decoration="normal"
         x="1167"
         y="245"
         text-anchor="start"
         dominant-baseline="alphabetic"
         fill-opacity="1"
         id="text84">1</text>
      <path
         fill="#4d4dff"
         stroke="none"
         paint-order="stroke fill markers"
         d="m 1128.898,193.163 c 0,2.76142 -2.2386,5 -5,5 -2.7614,0 -5,-2.23858 -5,-5 0,-2.76142 2.2386,-5 5,-5 2.7614,0 5,2.23858 5,5 z"
         fill-opacity="1"
         id="path84" />
      <path
         fill="none"
         stroke="#000000"
         paint-order="fill stroke markers"
         d="m 1128.898,193.163 c 0,2.76142 -2.2386,5 -5,5 -2.7614,0 -5,-2.23858 -5,-5 0,-2.76142 2.2386,-5 5,-5 2.7614,0 5,2.23858 5,5 z"
         stroke-opacity="1"
         stroke-linecap="round"
         stroke-linejoin="round"
         stroke-miterlimit="10"
         id="path85" />
      <text
         fill="#4d4dff"
         stroke="none"
         font-family="geogebra-sans-serif, sans-serif"
         font-size="16px"
         font-style="normal"
         font-weight="normal"
         text-decoration="normal"
         x="1128"
         y="183"
         text-anchor="start"
         dominant-baseline="alphabetic"
         fill-opacity="1"
         id="text85">R</text>
      <text
         fill="#4d4dff"
         stroke="none"
         font-family="geogebra-sans-serif, sans-serif"
         font-size="14px"
         font-style="normal"
         font-weight="normal"
         text-decoration="normal"
         x="1140"
         y="190"
         text-anchor="start"
         dominant-baseline="alphabetic"
         fill-opacity="1"
         id="text86">1</text>
      <path
         fill="#6e6d73"
         stroke="none"
         paint-order="stroke fill markers"
         d="m 1094.5624,94.015016 c 0,2.209139 -1.7908,4 -4,4 -2.2091,0 -4,-1.790861 -4,-4 0,-2.209139 1.7909,-4 4,-4 2.2092,0 4,1.790861 4,4 z"
         fill-opacity="1"
         id="path86" />
      <path
         fill="none"
         stroke="#000000"
         paint-order="fill stroke markers"
         d="m 1094.5624,94.015016 c 0,2.209139 -1.7908,4 -4,4 -2.2091,0 -4,-1.790861 -4,-4 0,-2.209139 1.7909,-4 4,-4 2.2092,0 4,1.790861 4,4 z"
         stroke-opacity="1"
         stroke-linecap="round"
         stroke-linejoin="round"
         stroke-miterlimit="10"
         id="path87" />
      <text
         fill="#6e6d73"
         stroke="none"
         font-family="geogebra-sans-serif, sans-serif"
         font-size="16px"
         font-style="normal"
         font-weight="normal"
         text-decoration="normal"
         x="1095"
         y="86"
         text-anchor="start"
         dominant-baseline="alphabetic"
         fill-opacity="1"
         id="text87">S</text>
      <text
         fill="#6e6d73"
         stroke="none"
         font-family="geogebra-sans-serif, sans-serif"
         font-size="14px"
         font-style="normal"
         font-weight="normal"
         text-decoration="normal"
         x="1106"
         y="93"
         text-anchor="start"
         dominant-baseline="alphabetic"
         fill-opacity="1"
         id="text88">1</text>
      <path
         fill="#6e6d73"
         stroke="none"
         paint-order="stroke fill markers"
         d="m 1182.2522,322.00869 c 0,2.20914 -1.7909,4 -4,4 -2.2092,0 -4,-1.79086 -4,-4 0,-2.20914 1.7908,-4 4,-4 2.2091,0 4,1.79086 4,4 z"
         fill-opacity="1"
         id="path88" />
      <path
         fill="none"
         stroke="#000000"
         paint-order="fill stroke markers"
         d="m 1182.2522,322.00869 c 0,2.20914 -1.7909,4 -4,4 -2.2092,0 -4,-1.79086 -4,-4 0,-2.20914 1.7908,-4 4,-4 2.2091,0 4,1.79086 4,4 z"
         stroke-opacity="1"
         stroke-linecap="round"
         stroke-linejoin="round"
         stroke-miterlimit="10"
         id="path89" />
      <text
         fill="#6e6d73"
         stroke="none"
         font-family="geogebra-sans-serif, sans-serif"
         font-size="16px"
         font-style="normal"
         font-weight="normal"
         text-decoration="normal"
         x="1157"
         y="314"
         text-anchor="start"
         dominant-baseline="alphabetic"
         fill-opacity="1"
         id="text89">T</text>
      <text
         fill="#6e6d73"
         stroke="none"
         font-family="geogebra-sans-serif, sans-serif"
         font-size="14px"
         font-style="normal"
         font-weight="normal"
         text-decoration="normal"
         x="1167"
         y="321"
         text-anchor="start"
         dominant-baseline="alphabetic"
         fill-opacity="1"
         id="text90">1</text>
      <g
         transform="scale(25)"
         id="g92">
        <g
           transform="translate(32.8,8.643)"
           id="g90">
          <path
             fill="#006400"
             stroke="none"
             paint-order="stroke fill markers"
             d="m 0.926,-0.606 -0.133,0.533 q -0.005,0.018 -0.005,0.024 0,0.017 0.047,0.018 h 0.001 0.017 q 0.026,0 0.028,0.011 Q 0.881,0 0.862,0 L 0.738,-0.003 H 0.737 L 0.614,0 H 0.613 q -0.015,0 -0.015,-0.012 0,-0.017 0.016,-0.019 h 0.012 q 0.065,0 0.078,-0.014 0.006,-0.007 0.012,-0.028 0,-0.001 0.001,-0.005 L 0.86,-0.651 H 0.859 L 0.455,-0.018 Q 0.443,-0.001 0.433,0 0.422,0 0.418,-0.023 L 0.332,-0.643 H 0.331 l -0.136,0.545 q -0.004,0.015 -0.004,0.023 0,0.037 0.048,0.043 0.009,0.001 0.02,0.001 0.018,0 0.018,0.011 Q 0.277,0 0.259,0 l -0.1,-0.003 H 0.156 L 0.057,0 H 0.056 q -0.014,0 -0.014,-0.012 0,-0.019 0.018,-0.019 0.079,-0.003 0.1,-0.05 0.004,-0.01 0.008,-0.025 l 0.127,-0.509 q 0.004,-0.016 0.004,-0.019 0,-0.012 -0.016,-0.015 H 0.282 v 0 Q 0.28,-0.65 0.277,-0.65 0.253,-0.652 0.234,-0.652 q -0.026,0 -0.028,-0.008 -0.001,-0.002 -0.001,-0.004 0,-0.017 0.017,-0.019 v 0 h 0.013 0.137 q 0.023,0 0.027,0.005 v 0.001 q 0.002,0.004 0.004,0.017 l 0.078,0.566 0.365,-0.57 q 0.011,-0.017 0.02,-0.018 0.004,-0.001 0.019,-0.001 h 0.132 q 0.025,0 0.027,0.011 0,0.017 -0.014,0.019 -0.005,0.001 -0.018,0.001 -0.063,0 -0.075,0.016 l -0.001,0.001 v 0.001 q -0.005,0.007 -0.01,0.028 z"
             id="path90" />
        </g>
        <g
           transform="matrix(0.7,0,0,0.7,33.77,8.793)"
           id="g91">
          <path
             fill="#006400"
             stroke="none"
             paint-order="stroke fill markers"
             d="m 0.294,-0.64 v 0.561 q 0,0.03 0.012,0.038 0.017,0.01 0.081,0.01 H 0.419 V 0 Q 0.384,-0.003 0.257,-0.003 0.13,-0.003 0.095,0 v -0.031 h 0.032 q 0.077,0 0.088,-0.018 L 0.216,-0.05 Q 0.22,-0.058 0.22,-0.079 v -0.518 q -0.052,0.026 -0.131,0.026 v -0.031 q 0.12,0 0.182,-0.064 0.019,0 0.022,0.007 v 0 0.001 q 0.001,0.003 0.001,0.018 z"
             id="path91" />
        </g>
      </g>
      <g
         transform="scale(25)"
         id="g95">
        <g
           transform="translate(35.84,13.723)"
           id="g93">
          <path
             fill="#cc6600"
             stroke="none"
             paint-order="stroke fill markers"
             d="m 0.926,-0.606 -0.133,0.533 q -0.005,0.018 -0.005,0.024 0,0.017 0.047,0.018 h 0.001 0.017 q 0.026,0 0.028,0.011 Q 0.881,0 0.862,0 L 0.738,-0.003 H 0.737 L 0.614,0 H 0.613 q -0.015,0 -0.015,-0.012 0,-0.017 0.016,-0.019 h 0.012 q 0.065,0 0.078,-0.014 0.006,-0.007 0.012,-0.028 0,-0.001 0.001,-0.005 L 0.86,-0.651 H 0.859 L 0.455,-0.018 Q 0.443,-0.001 0.433,0 0.422,0 0.418,-0.023 L 0.332,-0.643 H 0.331 l -0.136,0.545 q -0.004,0.015 -0.004,0.023 0,0.037 0.048,0.043 0.009,0.001 0.02,0.001 0.018,0 0.018,0.011 Q 0.277,0 0.259,0 l -0.1,-0.003 H 0.156 L 0.057,0 H 0.056 q -0.014,0 -0.014,-0.012 0,-0.019 0.018,-0.019 0.079,-0.003 0.1,-0.05 0.004,-0.01 0.008,-0.025 l 0.127,-0.509 q 0.004,-0.016 0.004,-0.019 0,-0.012 -0.016,-0.015 H 0.282 v 0 Q 0.28,-0.65 0.277,-0.65 0.253,-0.652 0.234,-0.652 q -0.026,0 -0.028,-0.008 -0.001,-0.002 -0.001,-0.004 0,-0.017 0.017,-0.019 v 0 h 0.013 0.137 q 0.023,0 0.027,0.005 v 0.001 q 0.002,0.004 0.004,0.017 l 0.078,0.566 0.365,-0.57 q 0.011,-0.017 0.02,-0.018 0.004,-0.001 0.019,-0.001 h 0.132 q 0.025,0 0.027,0.011 0,0.017 -0.014,0.019 -0.005,0.001 -0.018,0.001 -0.063,0 -0.075,0.016 l -0.001,0.001 v 0.001 q -0.005,0.007 -0.01,0.028 z"
             id="path92" />
        </g>
        <g
           transform="matrix(0.7,0,0,0.7,36.81,13.873)"
           id="g94">
          <path
             fill="#cc6600"
             stroke="none"
             paint-order="stroke fill markers"
             d="m 0.449,-0.174 v 0 L 0.421,0 H 0.05 q 0,-0.025 0.006,-0.032 l 0.005,-0.005 0.192,-0.214 q 0.105,-0.118 0.105,-0.221 0,-0.089 -0.054,-0.135 L 0.303,-0.608 H 0.302 Q 0.27,-0.635 0.224,-0.635 q -0.072,0 -0.115,0.062 -0.012,0.018 -0.02,0.04 0.003,-0.001 0.013,-0.001 0.04,0 0.051,0.036 v 0.001 q 0.002,0.007 0.002,0.015 0,0.04 -0.038,0.051 -0.008,0.002 -0.014,0.002 -0.037,0 -0.049,-0.031 -0.004,-0.011 -0.004,-0.025 0,-0.077 0.059,-0.132 0.053,-0.049 0.128,-0.049 0.11,0 0.171,0.074 0.035,0.043 0.04,0.102 0.001,0.009 0.001,0.018 0,0.073 -0.055,0.139 -0.029,0.034 -0.09,0.09 l -0.061,0.054 -0.01,0.009 -0.106,0.103 h 0.18 q 0.088,0 0.095,-0.008 0.01,-0.014 0.022,-0.089 z"
             id="path93" />
        </g>
      </g>
    </g>
  </g>
</svg>
