<?xml version="1.0" encoding="UTF-8" standalone="no"?>
<svg
   version="1.1"
   width="150.45938mm"
   height="160.90404mm"
   id="svg108"
   sodipodi:docname="ej_vertices_no_optimos.svg"
   inkscape:export-filename="ej_vertices_no_optimos.pdf"
   inkscape:export-xdpi="96"
   inkscape:export-ydpi="96"
   inkscape:version="1.4.3 (0d15f75, 2025-12-25)"
   xmlns:inkscape="http://www.inkscape.org/namespaces/inkscape"
   xmlns:sodipodi="http://sodipodi.sourceforge.net/DTD/sodipodi-0.dtd"
   xmlns="http://www.w3.org/2000/svg"
   xmlns:svg="http://www.w3.org/2000/svg">
  <sodipodi:namedview
     id="namedview108"
     pagecolor="#ffffff"
     bordercolor="#000000"
     borderopacity="0.25"
     inkscape:showpageshadow="2"
     inkscape:pageopacity="0.0"
     inkscape:pagecheckerboard="0"
     inkscape:deskcolor="#d1d1d1"
     inkscape:zoom="0.93728223"
     inkscape:cx="335.54461"
     inkscape:cy="273.66357"
     inkscape:window-width="1920"
     inkscape:window-height="1009"
     inkscape:window-x="-8"
     inkscape:window-y="-8"
     inkscape:window-maximized="1"
     inkscape:current-layer="svg108"
     inkscape:document-units="mm" />
  <defs
     id="defs1">
    <clipPath
       id="nugSzmEFEMtD">
      <path
         fill="none"
         stroke="none"
         d="M 0,0 H 1397 V 861 H 0 Z"
         id="path1" />
    </clipPath>
    <clipPath
       clipPathUnits="userSpaceOnUse"
       id="clipPath108">
      <rect
         style="fill:#000000"
         id="rect109"
         width="568.66541"
         height="608.14124"
         x="362.75092"
         y="156.83643" />
    </clipPath>
  </defs>
  <g
     clip-path="url(#nugSzmEFEMtD)"
     id="g108"
     transform="translate(-362.75092,-156.83643)">
    <g
       id="g107">
      <path
         fill="none"
         stroke="#252525"
         paint-order="fill stroke markers"
         d="m 497.5,2.5 v 859"
         stroke-opacity="1"
         stroke-miterlimit="10"
         id="path2" />
      <path
         fill="none"
         stroke="#252525"
         paint-order="fill stroke markers"
         d="m 497.5,1.5 -4,4"
         stroke-opacity="1"
         stroke-miterlimit="10"
         id="path3" />
      <path
         fill="none"
         stroke="#252525"
         paint-order="fill stroke markers"
         d="m 497.5,1.5 4,4"
         stroke-opacity="1"
         stroke-miterlimit="10"
         id="path4" />
      <path
         fill="none"
         stroke="#252525"
         paint-order="fill stroke markers"
         d="m 0.5,362.5 h 1395"
         stroke-opacity="1"
         stroke-miterlimit="10"
         id="path5" />
      <path
         fill="none"
         stroke="#252525"
         paint-order="fill stroke markers"
         d="m 1396.5,362.5 -4,-4"
         stroke-opacity="1"
         stroke-miterlimit="10"
         id="path6" />
      <path
         fill="none"
         stroke="#252525"
         paint-order="fill stroke markers"
         d="m 1396.5,362.5 -4,4"
         stroke-opacity="1"
         stroke-miterlimit="10"
         id="path7" />
      <text
         fill="#252525"
         stroke="none"
         font-family="geogebra-sans-serif, sans-serif"
         font-size="12px"
         font-style="normal"
         font-weight="normal"
         text-decoration="normal"
         x="93"
         y="378"
         text-anchor="start"
         dominant-baseline="alphabetic"
         fill-opacity="1"
         id="text7">–2</text>
      <path
         fill="none"
         stroke="#252525"
         paint-order="fill stroke markers"
         d="m 98.5,362.5 v 3"
         stroke-opacity="1"
         stroke-miterlimit="10"
         id="path8" />
      <text
         fill="#252525"
         stroke="none"
         font-family="geogebra-sans-serif, sans-serif"
         font-size="12px"
         font-style="normal"
         font-weight="normal"
         text-decoration="normal"
         x="293"
         y="378"
         text-anchor="start"
         dominant-baseline="alphabetic"
         fill-opacity="1"
         id="text8">–1</text>
      <path
         fill="none"
         stroke="#252525"
         paint-order="fill stroke markers"
         d="m 298.5,362.5 v 3"
         stroke-opacity="1"
         stroke-miterlimit="10"
         id="path9" />
      <path
         fill="none"
         stroke="#252525"
         paint-order="fill stroke markers"
         d="m 497.5,362.5 v 3"
         stroke-opacity="1"
         stroke-miterlimit="10"
         id="path10" />
      <text
         fill="#252525"
         stroke="none"
         font-family="geogebra-sans-serif, sans-serif"
         font-size="12px"
         font-style="normal"
         font-weight="normal"
         text-decoration="normal"
         x="695"
         y="378"
         text-anchor="start"
         dominant-baseline="alphabetic"
         fill-opacity="1"
         id="text10">1</text>
      <path
         fill="none"
         stroke="#252525"
         paint-order="fill stroke markers"
         d="m 697.5,362.5 v 3"
         stroke-opacity="1"
         stroke-miterlimit="10"
         id="path11" />
      <text
         fill="#252525"
         stroke="none"
         font-family="geogebra-sans-serif, sans-serif"
         font-size="12px"
         font-style="normal"
         font-weight="normal"
         text-decoration="normal"
         x="895"
         y="378"
         text-anchor="start"
         dominant-baseline="alphabetic"
         fill-opacity="1"
         id="text11">2</text>
      <path
         fill="none"
         stroke="#252525"
         paint-order="fill stroke markers"
         d="m 897.5,362.5 v 3"
         stroke-opacity="1"
         stroke-miterlimit="10"
         id="path12" />
      <text
         fill="#252525"
         stroke="none"
         font-family="geogebra-sans-serif, sans-serif"
         font-size="12px"
         font-style="normal"
         font-weight="normal"
         text-decoration="normal"
         x="1095"
         y="378"
         text-anchor="start"
         dominant-baseline="alphabetic"
         fill-opacity="1"
         id="text12">3</text>
      <path
         fill="none"
         stroke="#252525"
         paint-order="fill stroke markers"
         d="m 1097.5,362.5 v 3"
         stroke-opacity="1"
         stroke-miterlimit="10"
         id="path13" />
      <text
         fill="#252525"
         stroke="none"
         font-family="geogebra-sans-serif, sans-serif"
         font-size="12px"
         font-style="normal"
         font-weight="normal"
         text-decoration="normal"
         x="1294"
         y="378"
         text-anchor="start"
         dominant-baseline="alphabetic"
         fill-opacity="1"
         id="text13">4</text>
      <path
         fill="none"
         stroke="#252525"
         paint-order="fill stroke markers"
         d="m 1296.5,362.5 v 3"
         stroke-opacity="1"
         stroke-miterlimit="10"
         id="path14" />
      <path
         fill="none"
         stroke="#252525"
         paint-order="fill stroke markers"
         d="m 494.5,761.5 h 3"
         stroke-opacity="1"
         stroke-miterlimit="10"
         id="path15" />
      <path
         fill="none"
         stroke="#252525"
         paint-order="fill stroke markers"
         d="m 494.5,661.5 h 3"
         stroke-opacity="1"
         stroke-miterlimit="10"
         id="path16" />
      <path
         fill="none"
         stroke="#252525"
         paint-order="fill stroke markers"
         d="m 494.5,561.5 h 3"
         stroke-opacity="1"
         stroke-miterlimit="10"
         id="path17" />
      <path
         fill="none"
         stroke="#252525"
         paint-order="fill stroke markers"
         d="m 494.5,462.5 h 3"
         stroke-opacity="1"
         stroke-miterlimit="10"
         id="path18" />
      <path
         fill="none"
         stroke="#252525"
         paint-order="fill stroke markers"
         d="m 494.5,262.5 h 3"
         stroke-opacity="1"
         stroke-miterlimit="10"
         id="path19" />
      <path
         fill="none"
         stroke="#252525"
         paint-order="fill stroke markers"
         d="m 494.5,162.5 h 3"
         stroke-opacity="1"
         stroke-miterlimit="10"
         id="path20" />
      <path
         fill="none"
         stroke="#252525"
         paint-order="fill stroke markers"
         d="m 494.5,62.5 h 3"
         stroke-opacity="1"
         stroke-miterlimit="10"
         id="path21" />
      <text
         fill="#252525"
         stroke="none"
         font-family="geogebra-sans-serif, sans-serif"
         font-size="12px"
         font-style="normal"
         font-weight="normal"
         text-decoration="normal"
         x="477"
         y="766"
         text-anchor="start"
         dominant-baseline="alphabetic"
         fill-opacity="1"
         id="text21">–4</text>
      <text
         fill="#252525"
         stroke="none"
         font-family="geogebra-sans-serif, sans-serif"
         font-size="12px"
         font-style="normal"
         font-weight="normal"
         text-decoration="normal"
         x="477"
         y="666"
         text-anchor="start"
         dominant-baseline="alphabetic"
         fill-opacity="1"
         id="text22">–3</text>
      <text
         fill="#252525"
         stroke="none"
         font-family="geogebra-sans-serif, sans-serif"
         font-size="12px"
         font-style="normal"
         font-weight="normal"
         text-decoration="normal"
         x="477"
         y="566"
         text-anchor="start"
         dominant-baseline="alphabetic"
         fill-opacity="1"
         id="text23">–2</text>
      <text
         fill="#252525"
         stroke="none"
         font-family="geogebra-sans-serif, sans-serif"
         font-size="12px"
         font-style="normal"
         font-weight="normal"
         text-decoration="normal"
         x="477"
         y="467"
         text-anchor="start"
         dominant-baseline="alphabetic"
         fill-opacity="1"
         id="text24">–1</text>
      <text
         fill="#252525"
         stroke="none"
         font-family="geogebra-sans-serif, sans-serif"
         font-size="12px"
         font-style="normal"
         font-weight="normal"
         text-decoration="normal"
         x="483"
         y="267"
         text-anchor="start"
         dominant-baseline="alphabetic"
         fill-opacity="1"
         id="text25">1</text>
      <text
         fill="#252525"
         stroke="none"
         font-family="geogebra-sans-serif, sans-serif"
         font-size="12px"
         font-style="normal"
         font-weight="normal"
         text-decoration="normal"
         x="483"
         y="167"
         text-anchor="start"
         dominant-baseline="alphabetic"
         fill-opacity="1"
         id="text26">2</text>
      <text
         fill="#252525"
         stroke="none"
         font-family="geogebra-sans-serif, sans-serif"
         font-size="12px"
         font-style="normal"
         font-weight="normal"
         text-decoration="normal"
         x="483"
         y="67"
         text-anchor="start"
         dominant-baseline="alphabetic"
         fill-opacity="1"
         id="text27">3</text>
      <text
         fill="#252525"
         stroke="none"
         font-family="geogebra-sans-serif, sans-serif"
         font-size="12px"
         font-style="normal"
         font-weight="normal"
         text-decoration="normal"
         x="483"
         y="378"
         text-anchor="start"
         dominant-baseline="alphabetic"
         fill-opacity="1"
         id="text28">0</text>
      <path
         fill="#808080"
         stroke="none"
         paint-order="stroke fill markers"
         fill-rule="evenodd"
         d="M 497.89224,362.16081 H 797.482 L 497.89224,212.36593 Z"
         fill-opacity="0.0980392"
         id="path28" />
      <path
         fill="#993300"
         stroke="none"
         paint-order="stroke fill markers"
         fill-rule="evenodd"
         d="M 797.482,967.87866 V 362.16081 l 762.5149,-381.257446 z"
         fill-opacity="0.0980392"
         id="path29" />
      <path
         fill="#993300"
         stroke="none"
         paint-order="stroke fill markers"
         fill-rule="evenodd"
         d="M 497.89224,212.36593 991.11705,-34.246476 65.54,212.36593 Z"
         fill-opacity="0.0980392"
         id="path30" />
      <path
         fill="#993300"
         stroke="none"
         paint-order="stroke fill markers"
         fill-rule="evenodd"
         d="M -174.04,362.16081 H 497.89224 V 1115.29 Z"
         fill-opacity="0.0980392"
         id="path31" />
      <path
         fill="none"
         stroke="#000000"
         paint-order="fill stroke markers"
         d="M 497.89224,362.16081 H 797.482"
         stroke-opacity="0.698039"
         stroke-linecap="round"
         stroke-linejoin="round"
         stroke-miterlimit="10"
         stroke-width="2.5"
         id="path32" />
      <path
         fill="none"
         stroke="#000000"
         paint-order="fill stroke markers"
         d="M 797.482,362.16081 497.89224,212.36593"
         stroke-opacity="0.698039"
         stroke-linecap="round"
         stroke-linejoin="round"
         stroke-miterlimit="10"
         stroke-width="2.5"
         id="path33" />
      <path
         fill="none"
         stroke="#000000"
         paint-order="fill stroke markers"
         d="M 497.89224,212.36593 V 362.16081"
         stroke-opacity="0.698039"
         stroke-linecap="round"
         stroke-linejoin="round"
         stroke-miterlimit="10"
         stroke-width="2.5"
         id="path34" />
      <path
         fill="#ff6600"
         stroke="none"
         paint-order="stroke fill markers"
         d="m 697.61875,162.4343 3.80131,17.10592 2.68328,-1.34164 v 0 l 92.26063,184.52125 c 0.21901,0.43801 0.66048,0.69126 1.119,0.69126 0.18787,0 0.37859,-0.0425 0.55805,-0.13224 0.61747,-0.30874 0.86775,-1.05958 0.55902,-1.67705 L 706.33941,177.08055 v 0 l 2.68328,-1.34164 z"
         fill-opacity="0.698039"
         id="path35" />
      <path
         fill="#ff6600"
         stroke="none"
         paint-order="stroke fill markers"
         d="m 697.61875,162.4343 -15.02602,9.01561 2.12132,2.12132 -187.7057,187.7057 c -0.48815,0.48816 -0.48815,1.27961 0,1.76777 0.24408,0.24408 0.56398,0.36611 0.88389,0.36611 0.3199,0 0.6398,-0.12203 0.88388,-0.36611 l 187.7057,-187.7057 2.12132,2.12132 z"
         fill-opacity="0.698039"
         id="path36" />
      <path
         fill="#ff6600"
         stroke="none"
         paint-order="stroke fill markers"
         d="m 497.89214,211.11559 c -0.14183,0 -0.28607,0.0243 -0.42708,0.0756 -0.6488,0.23592 -0.98349,0.95313 -0.74757,1.60192 l 193.91688,533.27142 v 0 l -2.81938,1.02523 9.80376,14.52408 -1.81551,-17.4289 -2.81938,1.02523 v 0 L 499.06698,211.93875 c -0.18465,-0.50778 -0.66411,-0.82316 -1.17484,-0.82316 z"
         fill-opacity="0.698039"
         id="path37" />
      <path
         fill="#ff0000"
         stroke="none"
         paint-order="stroke fill markers"
         d="m 801.482,362.16081 c 0,2.20914 -1.79086,4 -4,4 -2.20914,0 -4,-1.79086 -4,-4 0,-2.20914 1.79086,-4 4,-4 2.20914,0 4,1.79086 4,4 z"
         fill-opacity="1"
         id="path38" />
      <path
         fill="none"
         stroke="#000000"
         paint-order="fill stroke markers"
         d="m 801.482,362.16081 c 0,2.20914 -1.79086,4 -4,4 -2.20914,0 -4,-1.79086 -4,-4 0,-2.20914 1.79086,-4 4,-4 2.20914,0 4,1.79086 4,4 z"
         stroke-opacity="1"
         stroke-linecap="round"
         stroke-linejoin="round"
         stroke-miterlimit="10"
         id="path39" />
      <path
         fill="#ff0000"
         stroke="none"
         paint-order="stroke fill markers"
         d="m 501.89224,362.16081 c 0,2.20914 -1.79087,4 -4,4 -2.20914,0 -4,-1.79086 -4,-4 0,-2.20914 1.79086,-4 4,-4 2.20913,0 4,1.79086 4,4 z"
         fill-opacity="1"
         id="path40" />
      <path
         fill="none"
         stroke="#000000"
         paint-order="fill stroke markers"
         d="m 501.89224,362.16081 c 0,2.20914 -1.79087,4 -4,4 -2.20914,0 -4,-1.79086 -4,-4 0,-2.20914 1.79086,-4 4,-4 2.20913,0 4,1.79086 4,4 z"
         stroke-opacity="1"
         stroke-linecap="round"
         stroke-linejoin="round"
         stroke-miterlimit="10"
         id="path41" />
      <path
         fill="#ff0000"
         stroke="none"
         paint-order="stroke fill markers"
         d="m 501.89224,212.36593 c 0,2.20914 -1.79087,4 -4,4 -2.20914,0 -4,-1.79086 -4,-4 0,-2.20914 1.79086,-4 4,-4 2.20913,0 4,1.79086 4,4 z"
         fill-opacity="1"
         id="path42" />
      <path
         fill="none"
         stroke="#000000"
         paint-order="fill stroke markers"
         d="m 501.89224,212.36593 c 0,2.20914 -1.79087,4 -4,4 -2.20914,0 -4,-1.79086 -4,-4 0,-2.20914 1.79086,-4 4,-4 2.20913,0 4,1.79086 4,4 z"
         stroke-opacity="1"
         stroke-linecap="round"
         stroke-linejoin="round"
         stroke-miterlimit="10"
         id="path43" />
      <path
         fill="#7d7dff"
         stroke="none"
         paint-order="stroke fill markers"
         d="m 70.54,212.36593 c 0,2.76142 -2.238576,5 -5,5 -2.761424,0 -5,-2.23858 -5,-5 0,-2.76142 2.238576,-5 5,-5 2.761424,0 5,2.23858 5,5 z"
         fill-opacity="1"
         id="path44" />
      <path
         fill="none"
         stroke="#000000"
         paint-order="fill stroke markers"
         d="m 70.54,212.36593 c 0,2.76142 -2.238576,5 -5,5 -2.761424,0 -5,-2.23858 -5,-5 0,-2.76142 2.238576,-5 5,-5 2.761424,0 5,2.23858 5,5 z"
         stroke-opacity="1"
         stroke-linecap="round"
         stroke-linejoin="round"
         stroke-miterlimit="10"
         id="path45" />
      <text
         fill="#7d7dff"
         stroke="none"
         font-family="geogebra-sans-serif, sans-serif"
         font-size="16px"
         font-style="normal"
         font-weight="normal"
         text-decoration="normal"
         x="70"
         y="202"
         text-anchor="start"
         dominant-baseline="alphabetic"
         fill-opacity="1"
         id="text45">H</text>
      <g
         transform="scale(25)"
         id="g47">
        <g
           transform="translate(27.64,13.883)"
           id="g46">
          <path
             fill="#000000"
             stroke="none"
             paint-order="stroke fill markers"
             d="m 0.677,-0.162 v 0 L 0.644,0 H 0.485 Q 0.463,0 0.46,-0.007 0.459,-0.011 0.459,-0.021 q 0,-0.069 0.047,-0.201 0.049,-0.138 0.055,-0.203 0.001,-0.015 0.001,-0.03 0,-0.132 -0.092,-0.194 -0.05,-0.034 -0.11,-0.034 -0.085,0 -0.144,0.063 v 0.001 q -0.057,0.062 -0.057,0.164 0,0.077 0.049,0.212 0.054,0.15 0.054,0.222 0,0.017 -0.007,0.02 v 0 H 0.254 Q 0.25,0 0.237,0 H 0.077 L 0.044,-0.162 h 0.025 q 0.01,0.052 0.018,0.074 0.005,0.015 0.018,0.019 0.013,0.004 0.048,0.004 h 0.08 Q 0.22,-0.12 0.159,-0.212 L 0.153,-0.222 Q 0.15,-0.226 0.144,-0.235 0.072,-0.343 0.06,-0.412 0.056,-0.433 0.056,-0.454 q 0,-0.104 0.089,-0.177 0.088,-0.074 0.216,-0.074 0.135,0 0.225,0.082 0.079,0.071 0.079,0.169 0,0.081 -0.07,0.192 v 0 L 0.594,-0.261 0.593,-0.26 0.577,-0.235 q -0.068,0.1 -0.084,0.152 -0.003,0.009 -0.005,0.018 h 0.08 q 0.055,0 0.063,-0.015 l 0.003,-0.009 q 0.008,-0.022 0.018,-0.073 z"
             fill-opacity="1"
             id="path46" />
        </g>
      </g>
      <g
         transform="scale(19)"
         id="g58">
        <g
           transform="translate(30.526316,38.434211)"
           id="g48">
          <path
             fill="#ff6600"
             stroke="none"
             paint-order="stroke fill markers"
             d="M 0.661,-0.23 H 0.116 q -0.032,0 -0.033,-0.02 0,-0.02 0.033,-0.02 h 0.545 q 0.032,0 0.033,0.02 0,0.02 -0.033,0.02 z"
             fill-opacity="1"
             id="path47" />
        </g>
        <g
           transform="translate(31.304316,38.434211)"
           id="g49">
          <path
             fill="#ff6600"
             stroke="none"
             paint-order="stroke fill markers"
             d="M 0.78,-0.663 0.442,0.015 Q 0.434,0.03 0.426,0.032 0.422,0.033 0.416,0.033 0.4,0.033 0.394,0.022 0.393,0.02 0.39,0.015 L 0.052,-0.663 Q 0.047,-0.672 0.047,-0.675 0.053,-0.683 0.069,-0.683 h 0.694 q 0.021,0 0.022,0.008 0,0.003 -0.005,0.012 m -0.61,0.051 0.275,0.551 H 0.446 L 0.72,-0.612 Z"
             fill-opacity="1"
             id="path48" />
        </g>
        <g
           transform="translate(32.137316,38.434211)"
           id="g50">
          <path
             fill="#ff6600"
             stroke="none"
             paint-order="stroke fill markers"
             d="m 0.367,-0.4 v 0 l -0.06,0.317 Q 0.298,-0.021 0.271,0.059 0.261,0.088 0.251,0.108 0.216,0.182 0.164,0.2 0.151,0.205 0.138,0.205 0.088,0.205 0.064,0.171 0.053,0.156 0.053,0.136 q 0,-0.04 0.034,-0.055 0.01,-0.005 0.021,-0.005 0.029,0 0.036,0.025 0.001,0.005 0.001,0.01 0,0.034 -0.03,0.048 -0.011,0.005 -0.025,0.006 0.019,0.018 0.048,0.018 0.044,0 0.069,-0.098 0.005,-0.023 0.012,-0.06 L 0.225,-0.005 0.3,-0.4 H 0.234 q -0.025,0 -0.027,-0.008 H 0.206 v -0.004 q 0,-0.017 0.017,-0.019 v 0 h 0.013 0.069 q 0.024,-0.125 0.033,-0.157 0.03,-0.1 0.106,-0.115 0.011,-0.002 0.021,-0.002 0.052,0 0.076,0.034 v 0 q 0.011,0.015 0.011,0.035 0,0.04 -0.034,0.055 -0.01,0.005 -0.021,0.005 -0.029,0 -0.036,-0.025 -0.001,-0.005 -0.001,-0.01 0,-0.031 0.028,-0.046 0.011,-0.007 0.026,-0.008 -0.019,-0.018 -0.049,-0.018 -0.031,0 -0.047,0.034 -0.007,0.014 -0.024,0.104 l -0.021,0.114 h 0.083 q 0.025,0 0.027,0.011 0,0.018 -0.016,0.02 H 0.466 0.453 Z"
             fill-opacity="1"
             id="path49" />
        </g>
        <g
           transform="translate(32.735316,38.434211)"
           id="g51">
          <path
             fill="#ff6600"
             stroke="none"
             paint-order="stroke fill markers"
             d="m 0.331,0.24 v 0 q 0,0.01 -0.01,0.01 Q 0.309,0.25 0.268,0.209 0.206,0.147 0.165,0.062 0.099,-0.074 0.099,-0.25 q 0,-0.169 0.063,-0.305 0.052,-0.111 0.132,-0.178 0.021,-0.017 0.027,-0.017 0.01,0 0.01,0.01 0,0.005 -0.013,0.017 -0.161,0.164 -0.161,0.473 0,0.308 0.157,0.468 0.017,0.017 0.017,0.022 z"
             fill-opacity="1"
             id="path50" />
        </g>
        <g
           transform="translate(33.124316,38.434211)"
           id="g52">
          <path
             fill="#ff6600"
             stroke="none"
             paint-order="stroke fill markers"
             d="m 0.46,-0.32 q 0,0.146 -0.037,0.226 Q 0.364,0.018 0.249,0.022 0.158,0.022 0.103,-0.05 0.092,-0.063 0.084,-0.079 0.039,-0.162 0.039,-0.32 q 0,-0.147 0.037,-0.227 0.05,-0.112 0.162,-0.119 H 0.25 q 0.089,0 0.145,0.071 v 0.001 q 0.014,0.018 0.025,0.04 0.04,0.085 0.04,0.234 M 0.249,0 v 0 q 0.063,0 0.097,-0.061 0.014,-0.027 0.02,-0.064 0.011,-0.064 0.011,-0.207 0,-0.139 -0.01,-0.195 -0.018,-0.095 -0.092,-0.114 -0.013,-0.003 -0.026,-0.003 -0.07,0 -0.102,0.07 -0.011,0.024 -0.017,0.058 -0.008,0.054 -0.008,0.184 0,0.151 0.011,0.211 0.018,0.096 0.088,0.117 Q 0.235,0 0.249,0 Z"
             fill-opacity="1"
             id="path51" />
        </g>
        <g
           transform="translate(33.624316,38.434211)"
           id="g53">
          <path
             fill="#ff6600"
             stroke="none"
             paint-order="stroke fill markers"
             d="m 0.203,-0.001 v 0 q 0,0.097 -0.063,0.17 -0.017,0.02 -0.028,0.024 -0.01,0 -0.01,-0.011 0,-0.005 0.011,-0.016 0.06,-0.06 0.067,-0.147 0.001,-0.01 0.001,-0.02 0,-0.015 -0.002,-0.015 -0.001,0 -0.005,0.003 Q 0.16,0 0.139,0 0.102,0 0.09,-0.034 0.086,-0.043 0.086,-0.053 q 0,-0.036 0.031,-0.049 0.01,-0.004 0.022,-0.004 0.044,0 0.059,0.058 0.005,0.021 0.005,0.047 z"
             fill-opacity="1"
             id="path52" />
        </g>
        <g
           transform="translate(34.068982,38.434211)"
           id="g54">
          <path
             fill="#ff6600"
             stroke="none"
             paint-order="stroke fill markers"
             d="m 0.294,-0.64 v 0.561 q 0,0.03 0.012,0.038 0.017,0.01 0.081,0.01 H 0.419 V 0 Q 0.384,-0.003 0.257,-0.003 0.13,-0.003 0.095,0 v -0.031 h 0.032 q 0.077,0 0.088,-0.018 L 0.216,-0.05 Q 0.22,-0.058 0.22,-0.079 v -0.518 q -0.052,0.026 -0.131,0.026 v -0.031 q 0.12,0 0.182,-0.064 0.019,0 0.022,0.007 v 0 0.001 q 0.001,0.003 0.001,0.018 z"
             fill-opacity="1"
             id="path53" />
        </g>
        <g
           transform="translate(34.568982,38.434211)"
           id="g55">
          <path
             fill="#ff6600"
             stroke="none"
             paint-order="stroke fill markers"
             d="M 0.18,-0.083 V 0 H 0.097 v -0.083 z"
             fill-opacity="1"
             id="path54" />
        </g>
        <g
           transform="translate(34.846982,38.434211)"
           id="g56">
          <path
             fill="#ff6600"
             stroke="none"
             paint-order="stroke fill markers"
             d="m 0.449,-0.201 v 0 q 0,0.103 -0.077,0.17 Q 0.31,0.022 0.231,0.022 0.139,0.022 0.085,-0.055 0.05,-0.104 0.05,-0.161 q 0,-0.046 0.041,-0.052 0.004,-0.001 0.008,-0.001 0.037,0 0.048,0.033 0.002,0.008 0.002,0.016 0,0.032 -0.028,0.044 -0.01,0.005 -0.022,0.005 -0.011,0 -0.017,-0.002 0.018,0.063 0.077,0.094 0.033,0.018 0.07,0.018 0.067,0 0.107,-0.065 0.024,-0.042 0.024,-0.137 0,-0.084 -0.018,-0.126 -0.028,-0.064 -0.085,-0.064 -0.081,0 -0.129,0.07 -0.006,0.009 -0.013,0.009 -0.013,0 -0.014,-0.014 v -0.012 -0.296 q 0,-0.023 0.01,-0.024 0.004,0 0.012,0.003 0.063,0.028 0.133,0.028 0.072,0 0.136,-0.029 0.005,-0.003 0.008,-0.003 0.01,0 0.01,0.011 0,0.013 -0.032,0.042 -0.068,0.062 -0.161,0.062 -0.042,0 -0.085,-0.013 v 0.195 q 0.052,-0.051 0.127,-0.051 0.088,0 0.145,0.077 0.045,0.061 0.045,0.142 z"
             fill-opacity="1"
             id="path55" />
        </g>
        <g
           transform="translate(35.346982,38.434211)"
           id="g57">
          <path
             fill="#ff6600"
             stroke="none"
             paint-order="stroke fill markers"
             d="m 0.289,-0.25 v 0 q 0,0.169 -0.063,0.305 Q 0.174,0.166 0.094,0.233 0.073,0.25 0.067,0.25 q -0.01,0 -0.01,-0.01 0,-0.005 0.013,-0.017 0.161,-0.164 0.161,-0.473 0,-0.305 -0.15,-0.462 L 0.076,-0.717 Q 0.057,-0.735 0.057,-0.74 q 0,-0.01 0.01,-0.01 0.012,0 0.053,0.041 0.062,0.062 0.103,0.147 0.066,0.136 0.066,0.312 z"
             fill-opacity="1"
             id="path56" />
        </g>
      </g>
      <g
         transform="scale(19)"
         id="g69">
        <g
           transform="translate(38,10.644737)"
           id="g59">
          <path
             fill="#ff6600"
             stroke="none"
             paint-order="stroke fill markers"
             d="M 0.661,-0.23 H 0.116 q -0.032,0 -0.033,-0.02 0,-0.02 0.033,-0.02 h 0.545 q 0.032,0 0.033,0.02 0,0.02 -0.033,0.02 z"
             fill-opacity="1"
             id="path58" />
        </g>
        <g
           transform="translate(38.778,10.644737)"
           id="g60">
          <path
             fill="#ff6600"
             stroke="none"
             paint-order="stroke fill markers"
             d="M 0.78,-0.663 0.442,0.015 Q 0.434,0.03 0.426,0.032 0.422,0.033 0.416,0.033 0.4,0.033 0.394,0.022 0.393,0.02 0.39,0.015 L 0.052,-0.663 Q 0.047,-0.672 0.047,-0.675 0.053,-0.683 0.069,-0.683 h 0.694 q 0.021,0 0.022,0.008 0,0.003 -0.005,0.012 m -0.61,0.051 0.275,0.551 H 0.446 L 0.72,-0.612 Z"
             fill-opacity="1"
             id="path59" />
        </g>
        <g
           transform="translate(39.611,10.644737)"
           id="g61">
          <path
             fill="#ff6600"
             stroke="none"
             paint-order="stroke fill markers"
             d="m 0.367,-0.4 v 0 l -0.06,0.317 Q 0.298,-0.021 0.271,0.059 0.261,0.088 0.251,0.108 0.216,0.182 0.164,0.2 0.151,0.205 0.138,0.205 0.088,0.205 0.064,0.171 0.053,0.156 0.053,0.136 q 0,-0.04 0.034,-0.055 0.01,-0.005 0.021,-0.005 0.029,0 0.036,0.025 0.001,0.005 0.001,0.01 0,0.034 -0.03,0.048 -0.011,0.005 -0.025,0.006 0.019,0.018 0.048,0.018 0.044,0 0.069,-0.098 0.005,-0.023 0.012,-0.06 L 0.225,-0.005 0.3,-0.4 H 0.234 q -0.025,0 -0.027,-0.008 H 0.206 v -0.004 q 0,-0.017 0.017,-0.019 v 0 h 0.013 0.069 q 0.024,-0.125 0.033,-0.157 0.03,-0.1 0.106,-0.115 0.011,-0.002 0.021,-0.002 0.052,0 0.076,0.034 v 0 q 0.011,0.015 0.011,0.035 0,0.04 -0.034,0.055 -0.01,0.005 -0.021,0.005 -0.029,0 -0.036,-0.025 -0.001,-0.005 -0.001,-0.01 0,-0.031 0.028,-0.046 0.011,-0.007 0.026,-0.008 -0.019,-0.018 -0.049,-0.018 -0.031,0 -0.047,0.034 -0.007,0.014 -0.024,0.104 l -0.021,0.114 h 0.083 q 0.025,0 0.027,0.011 0,0.018 -0.016,0.02 H 0.466 0.453 Z"
             fill-opacity="1"
             id="path60" />
        </g>
        <g
           transform="translate(40.209,10.644737)"
           id="g62">
          <path
             fill="#ff6600"
             stroke="none"
             paint-order="stroke fill markers"
             d="m 0.331,0.24 v 0 q 0,0.01 -0.01,0.01 Q 0.309,0.25 0.268,0.209 0.206,0.147 0.165,0.062 0.099,-0.074 0.099,-0.25 q 0,-0.169 0.063,-0.305 0.052,-0.111 0.132,-0.178 0.021,-0.017 0.027,-0.017 0.01,0 0.01,0.01 0,0.005 -0.013,0.017 -0.161,0.164 -0.161,0.473 0,0.308 0.157,0.468 0.017,0.017 0.017,0.022 z"
             fill-opacity="1"
             id="path61" />
        </g>
        <g
           transform="translate(40.598,10.644737)"
           id="g63">
          <path
             fill="#ff6600"
             stroke="none"
             paint-order="stroke fill markers"
             d="m 0.294,-0.64 v 0.561 q 0,0.03 0.012,0.038 0.017,0.01 0.081,0.01 H 0.419 V 0 Q 0.384,-0.003 0.257,-0.003 0.13,-0.003 0.095,0 v -0.031 h 0.032 q 0.077,0 0.088,-0.018 L 0.216,-0.05 Q 0.22,-0.058 0.22,-0.079 v -0.518 q -0.052,0.026 -0.131,0.026 v -0.031 q 0.12,0 0.182,-0.064 0.019,0 0.022,0.007 v 0 0.001 q 0.001,0.003 0.001,0.018 z"
             fill-opacity="1"
             id="path62" />
        </g>
        <g
           transform="translate(41.098,10.644737)"
           id="g64">
          <path
             fill="#ff6600"
             stroke="none"
             paint-order="stroke fill markers"
             d="M 0.18,-0.083 V 0 H 0.097 v -0.083 z"
             fill-opacity="1"
             id="path63" />
        </g>
        <g
           transform="translate(41.376,10.644737)"
           id="g65">
          <path
             fill="#ff6600"
             stroke="none"
             paint-order="stroke fill markers"
             d="m 0.449,-0.201 v 0 q 0,0.103 -0.077,0.17 Q 0.31,0.022 0.231,0.022 0.139,0.022 0.085,-0.055 0.05,-0.104 0.05,-0.161 q 0,-0.046 0.041,-0.052 0.004,-0.001 0.008,-0.001 0.037,0 0.048,0.033 0.002,0.008 0.002,0.016 0,0.032 -0.028,0.044 -0.01,0.005 -0.022,0.005 -0.011,0 -0.017,-0.002 0.018,0.063 0.077,0.094 0.033,0.018 0.07,0.018 0.067,0 0.107,-0.065 0.024,-0.042 0.024,-0.137 0,-0.084 -0.018,-0.126 -0.028,-0.064 -0.085,-0.064 -0.081,0 -0.129,0.07 -0.006,0.009 -0.013,0.009 -0.013,0 -0.014,-0.014 v -0.012 -0.296 q 0,-0.023 0.01,-0.024 0.004,0 0.012,0.003 0.063,0.028 0.133,0.028 0.072,0 0.136,-0.029 0.005,-0.003 0.008,-0.003 0.01,0 0.01,0.011 0,0.013 -0.032,0.042 -0.068,0.062 -0.161,0.062 -0.042,0 -0.085,-0.013 v 0.195 q 0.052,-0.051 0.127,-0.051 0.088,0 0.145,0.077 0.045,0.061 0.045,0.142 z"
             fill-opacity="1"
             id="path64" />
        </g>
        <g
           transform="translate(41.876,10.644737)"
           id="g66">
          <path
             fill="#ff6600"
             stroke="none"
             paint-order="stroke fill markers"
             d="m 0.203,-0.001 v 0 q 0,0.097 -0.063,0.17 -0.017,0.02 -0.028,0.024 -0.01,0 -0.01,-0.011 0,-0.005 0.011,-0.016 0.06,-0.06 0.067,-0.147 0.001,-0.01 0.001,-0.02 0,-0.015 -0.002,-0.015 -0.001,0 -0.005,0.003 Q 0.16,0 0.139,0 0.102,0 0.09,-0.034 0.086,-0.043 0.086,-0.053 q 0,-0.036 0.031,-0.049 0.01,-0.004 0.022,-0.004 0.044,0 0.059,0.058 0.005,0.021 0.005,0.047 z"
             fill-opacity="1"
             id="path65" />
        </g>
        <g
           transform="translate(42.320667,10.644737)"
           id="g67">
          <path
             fill="#ff6600"
             stroke="none"
             paint-order="stroke fill markers"
             d="m 0.46,-0.32 q 0,0.146 -0.037,0.226 Q 0.364,0.018 0.249,0.022 0.158,0.022 0.103,-0.05 0.092,-0.063 0.084,-0.079 0.039,-0.162 0.039,-0.32 q 0,-0.147 0.037,-0.227 0.05,-0.112 0.162,-0.119 H 0.25 q 0.089,0 0.145,0.071 v 0.001 q 0.014,0.018 0.025,0.04 0.04,0.085 0.04,0.234 M 0.249,0 v 0 q 0.063,0 0.097,-0.061 0.014,-0.027 0.02,-0.064 0.011,-0.064 0.011,-0.207 0,-0.139 -0.01,-0.195 -0.018,-0.095 -0.092,-0.114 -0.013,-0.003 -0.026,-0.003 -0.07,0 -0.102,0.07 -0.011,0.024 -0.017,0.058 -0.008,0.054 -0.008,0.184 0,0.151 0.011,0.211 0.018,0.096 0.088,0.117 Q 0.235,0 0.249,0 Z"
             fill-opacity="1"
             id="path66" />
        </g>
        <g
           transform="translate(42.820667,10.644737)"
           id="g68">
          <path
             fill="#ff6600"
             stroke="none"
             paint-order="stroke fill markers"
             d="m 0.289,-0.25 v 0 q 0,0.169 -0.063,0.305 Q 0.174,0.166 0.094,0.233 0.073,0.25 0.067,0.25 q -0.01,0 -0.01,-0.01 0,-0.005 0.013,-0.017 0.161,-0.164 0.161,-0.473 0,-0.305 -0.15,-0.462 L 0.076,-0.717 Q 0.057,-0.735 0.057,-0.74 q 0,-0.01 0.01,-0.01 0.012,0 0.053,0.041 0.062,0.062 0.103,0.147 0.066,0.136 0.066,0.312 z"
             fill-opacity="1"
             id="path67" />
        </g>
      </g>
      <g
         transform="scale(19)"
         id="g78">
        <g
           transform="translate(30,10.539474)"
           id="g70">
          <path
             fill="#ff6600"
             stroke="none"
             paint-order="stroke fill markers"
             d="M 0.661,-0.23 H 0.116 q -0.032,0 -0.033,-0.02 0,-0.02 0.033,-0.02 h 0.545 q 0.032,0 0.033,0.02 0,0.02 -0.033,0.02 z"
             fill-opacity="1"
             id="path69" />
        </g>
        <g
           transform="translate(30.778,10.539474)"
           id="g71">
          <path
             fill="#ff6600"
             stroke="none"
             paint-order="stroke fill markers"
             d="M 0.78,-0.663 0.442,0.015 Q 0.434,0.03 0.426,0.032 0.422,0.033 0.416,0.033 0.4,0.033 0.394,0.022 0.393,0.02 0.39,0.015 L 0.052,-0.663 Q 0.047,-0.672 0.047,-0.675 0.053,-0.683 0.069,-0.683 h 0.694 q 0.021,0 0.022,0.008 0,0.003 -0.005,0.012 m -0.61,0.051 0.275,0.551 H 0.446 L 0.72,-0.612 Z"
             fill-opacity="1"
             id="path70" />
        </g>
        <g
           transform="translate(31.611,10.539474)"
           id="g72">
          <path
             fill="#ff6600"
             stroke="none"
             paint-order="stroke fill markers"
             d="m 0.367,-0.4 v 0 l -0.06,0.317 Q 0.298,-0.021 0.271,0.059 0.261,0.088 0.251,0.108 0.216,0.182 0.164,0.2 0.151,0.205 0.138,0.205 0.088,0.205 0.064,0.171 0.053,0.156 0.053,0.136 q 0,-0.04 0.034,-0.055 0.01,-0.005 0.021,-0.005 0.029,0 0.036,0.025 0.001,0.005 0.001,0.01 0,0.034 -0.03,0.048 -0.011,0.005 -0.025,0.006 0.019,0.018 0.048,0.018 0.044,0 0.069,-0.098 0.005,-0.023 0.012,-0.06 L 0.225,-0.005 0.3,-0.4 H 0.234 q -0.025,0 -0.027,-0.008 H 0.206 v -0.004 q 0,-0.017 0.017,-0.019 v 0 h 0.013 0.069 q 0.024,-0.125 0.033,-0.157 0.03,-0.1 0.106,-0.115 0.011,-0.002 0.021,-0.002 0.052,0 0.076,0.034 v 0 q 0.011,0.015 0.011,0.035 0,0.04 -0.034,0.055 -0.01,0.005 -0.021,0.005 -0.029,0 -0.036,-0.025 -0.001,-0.005 -0.001,-0.01 0,-0.031 0.028,-0.046 0.011,-0.007 0.026,-0.008 -0.019,-0.018 -0.049,-0.018 -0.031,0 -0.047,0.034 -0.007,0.014 -0.024,0.104 l -0.021,0.114 h 0.083 q 0.025,0 0.027,0.011 0,0.018 -0.016,0.02 H 0.466 0.453 Z"
             fill-opacity="1"
             id="path71" />
        </g>
        <g
           transform="translate(32.209,10.539474)"
           id="g73">
          <path
             fill="#ff6600"
             stroke="none"
             paint-order="stroke fill markers"
             d="m 0.331,0.24 v 0 q 0,0.01 -0.01,0.01 Q 0.309,0.25 0.268,0.209 0.206,0.147 0.165,0.062 0.099,-0.074 0.099,-0.25 q 0,-0.169 0.063,-0.305 0.052,-0.111 0.132,-0.178 0.021,-0.017 0.027,-0.017 0.01,0 0.01,0.01 0,0.005 -0.013,0.017 -0.161,0.164 -0.161,0.473 0,0.308 0.157,0.468 0.017,0.017 0.017,0.022 z"
             fill-opacity="1"
             id="path72" />
        </g>
        <g
           transform="translate(32.598,10.539474)"
           id="g74">
          <path
             fill="#ff6600"
             stroke="none"
             paint-order="stroke fill markers"
             d="m 0.46,-0.32 q 0,0.146 -0.037,0.226 Q 0.364,0.018 0.249,0.022 0.158,0.022 0.103,-0.05 0.092,-0.063 0.084,-0.079 0.039,-0.162 0.039,-0.32 q 0,-0.147 0.037,-0.227 0.05,-0.112 0.162,-0.119 H 0.25 q 0.089,0 0.145,0.071 v 0.001 q 0.014,0.018 0.025,0.04 0.04,0.085 0.04,0.234 M 0.249,0 v 0 q 0.063,0 0.097,-0.061 0.014,-0.027 0.02,-0.064 0.011,-0.064 0.011,-0.207 0,-0.139 -0.01,-0.195 -0.018,-0.095 -0.092,-0.114 -0.013,-0.003 -0.026,-0.003 -0.07,0 -0.102,0.07 -0.011,0.024 -0.017,0.058 -0.008,0.054 -0.008,0.184 0,0.151 0.011,0.211 0.018,0.096 0.088,0.117 Q 0.235,0 0.249,0 Z"
             fill-opacity="1"
             id="path73" />
        </g>
        <g
           transform="translate(33.098,10.539474)"
           id="g75">
          <path
             fill="#ff6600"
             stroke="none"
             paint-order="stroke fill markers"
             d="m 0.203,-0.001 v 0 q 0,0.097 -0.063,0.17 -0.017,0.02 -0.028,0.024 -0.01,0 -0.01,-0.011 0,-0.005 0.011,-0.016 0.06,-0.06 0.067,-0.147 0.001,-0.01 0.001,-0.02 0,-0.015 -0.002,-0.015 -0.001,0 -0.005,0.003 Q 0.16,0 0.139,0 0.102,0 0.09,-0.034 0.086,-0.043 0.086,-0.053 q 0,-0.036 0.031,-0.049 0.01,-0.004 0.022,-0.004 0.044,0 0.059,0.058 0.005,0.021 0.005,0.047 z"
             fill-opacity="1"
             id="path74" />
        </g>
        <g
           transform="translate(33.542667,10.539474)"
           id="g76">
          <path
             fill="#ff6600"
             stroke="none"
             paint-order="stroke fill markers"
             d="m 0.46,-0.32 q 0,0.146 -0.037,0.226 Q 0.364,0.018 0.249,0.022 0.158,0.022 0.103,-0.05 0.092,-0.063 0.084,-0.079 0.039,-0.162 0.039,-0.32 q 0,-0.147 0.037,-0.227 0.05,-0.112 0.162,-0.119 H 0.25 q 0.089,0 0.145,0.071 v 0.001 q 0.014,0.018 0.025,0.04 0.04,0.085 0.04,0.234 M 0.249,0 v 0 q 0.063,0 0.097,-0.061 0.014,-0.027 0.02,-0.064 0.011,-0.064 0.011,-0.207 0,-0.139 -0.01,-0.195 -0.018,-0.095 -0.092,-0.114 -0.013,-0.003 -0.026,-0.003 -0.07,0 -0.102,0.07 -0.011,0.024 -0.017,0.058 -0.008,0.054 -0.008,0.184 0,0.151 0.011,0.211 0.018,0.096 0.088,0.117 Q 0.235,0 0.249,0 Z"
             fill-opacity="1"
             id="path75" />
        </g>
        <g
           transform="translate(34.042667,10.539474)"
           id="g77">
          <path
             fill="#ff6600"
             stroke="none"
             paint-order="stroke fill markers"
             d="m 0.289,-0.25 v 0 q 0,0.169 -0.063,0.305 Q 0.174,0.166 0.094,0.233 0.073,0.25 0.067,0.25 q -0.01,0 -0.01,-0.01 0,-0.005 0.013,-0.017 0.161,-0.164 0.161,-0.473 0,-0.305 -0.15,-0.462 L 0.076,-0.717 Q 0.057,-0.735 0.057,-0.74 q 0,-0.01 0.01,-0.01 0.012,0 0.053,0.041 0.062,0.062 0.103,0.147 0.066,0.136 0.066,0.312 z"
             fill-opacity="1"
             id="path76" />
        </g>
      </g>
      <g
         transform="scale(19)"
         id="g88">
        <g
           transform="translate(43.947368,23.223684)"
           id="g79">
          <path
             fill="#993300"
             stroke="none"
             paint-order="stroke fill markers"
             d="m 0.756,-0.578 -0.14,0.557 q -0.005,0.019 -0.01,0.02 L 0.605,0 H 0.6 Q 0.59,0 0.584,-0.012 0.583,-0.015 0.581,-0.019 L 0.332,-0.608 0.323,-0.626 0.191,-0.098 q -0.004,0.015 -0.004,0.023 0,0.034 0.043,0.042 0.01,0.002 0.023,0.002 0.02,0 0.02,0.011 Q 0.273,0 0.255,0 l -0.1,-0.003 H 0.152 L 0.053,0 H 0.052 q -0.013,0 -0.013,-0.011 0,-0.02 0.017,-0.02 0.079,-0.003 0.1,-0.05 0.004,-0.01 0.008,-0.025 l 0.134,-0.537 q 0,-0.009 -0.068,-0.009 -0.026,0 -0.028,-0.011 0,-0.018 0.015,-0.02 h 0.014 0.134 q 0.021,0 0.026,0.007 0.002,0.003 0.006,0.012 l 0.221,0.522 0.112,-0.445 q 0.003,-0.009 0.003,-0.021 0,-0.043 -0.068,-0.044 -0.018,0 -0.018,-0.011 0,-0.02 0.018,-0.02 l 0.101,0.003 h 0.001 l 0.1,-0.003 h 0.001 q 0.013,0 0.013,0.011 0,0.02 -0.017,0.02 -0.078,0.003 -0.1,0.049 v 0 q -0.004,0.01 -0.008,0.025 z"
             fill-opacity="1"
             id="path78" />
        </g>
        <g
           transform="matrix(0.7,0,0,0.7,44.750368,23.373684)"
           id="g80">
          <path
             fill="#993300"
             stroke="none"
             paint-order="stroke fill markers"
             d="m 0.677,-0.162 v 0 L 0.644,0 H 0.485 Q 0.463,0 0.46,-0.007 0.459,-0.011 0.459,-0.021 q 0,-0.069 0.047,-0.201 0.049,-0.138 0.055,-0.203 0.001,-0.015 0.001,-0.03 0,-0.132 -0.092,-0.194 -0.05,-0.034 -0.11,-0.034 -0.085,0 -0.144,0.063 v 0.001 q -0.057,0.062 -0.057,0.164 0,0.077 0.049,0.212 0.054,0.15 0.054,0.222 0,0.017 -0.007,0.02 v 0 H 0.254 Q 0.25,0 0.237,0 H 0.077 L 0.044,-0.162 h 0.025 q 0.01,0.052 0.018,0.074 0.005,0.015 0.018,0.019 0.013,0.004 0.048,0.004 h 0.08 Q 0.22,-0.12 0.159,-0.212 L 0.153,-0.222 Q 0.15,-0.226 0.144,-0.235 0.072,-0.343 0.06,-0.412 0.056,-0.433 0.056,-0.454 q 0,-0.104 0.089,-0.177 0.088,-0.074 0.216,-0.074 0.135,0 0.225,0.082 0.079,0.071 0.079,0.169 0,0.081 -0.07,0.192 v 0 L 0.594,-0.261 0.593,-0.26 0.577,-0.235 q -0.068,0.1 -0.084,0.152 -0.003,0.009 -0.005,0.018 h 0.08 q 0.055,0 0.063,-0.015 l 0.003,-0.009 q 0.008,-0.022 0.018,-0.073 z"
             fill-opacity="1"
             id="path79" />
        </g>
        <g
           transform="translate(45.255768,23.223684)"
           id="g81">
          <path
             fill="#993300"
             stroke="none"
             paint-order="stroke fill markers"
             d="m 0.331,0.24 v 0 q 0,0.01 -0.01,0.01 Q 0.309,0.25 0.268,0.209 0.206,0.147 0.165,0.062 0.099,-0.074 0.099,-0.25 q 0,-0.169 0.063,-0.305 0.052,-0.111 0.132,-0.178 0.021,-0.017 0.027,-0.017 0.01,0 0.01,0.01 0,0.005 -0.013,0.017 -0.161,0.164 -0.161,0.473 0,0.308 0.157,0.468 0.017,0.017 0.017,0.022 z"
             fill-opacity="1"
             id="path80" />
        </g>
        <g
           transform="translate(45.644768,23.223684)"
           id="g82">
          <path
             fill="#993300"
             stroke="none"
             paint-order="stroke fill markers"
             d="m 0.294,-0.64 v 0.561 q 0,0.03 0.012,0.038 0.017,0.01 0.081,0.01 H 0.419 V 0 Q 0.384,-0.003 0.257,-0.003 0.13,-0.003 0.095,0 v -0.031 h 0.032 q 0.077,0 0.088,-0.018 L 0.216,-0.05 Q 0.22,-0.058 0.22,-0.079 v -0.518 q -0.052,0.026 -0.131,0.026 v -0.031 q 0.12,0 0.182,-0.064 0.019,0 0.022,0.007 v 0 0.001 q 0.001,0.003 0.001,0.018 z"
             fill-opacity="1"
             id="path81" />
        </g>
        <g
           transform="translate(46.144768,23.223684)"
           id="g83">
          <path
             fill="#993300"
             stroke="none"
             paint-order="stroke fill markers"
             d="M 0.18,-0.083 V 0 H 0.097 v -0.083 z"
             fill-opacity="1"
             id="path82" />
        </g>
        <g
           transform="translate(46.422768,23.223684)"
           id="g84">
          <path
             fill="#993300"
             stroke="none"
             paint-order="stroke fill markers"
             d="m 0.449,-0.201 v 0 q 0,0.103 -0.077,0.17 Q 0.31,0.022 0.231,0.022 0.139,0.022 0.085,-0.055 0.05,-0.104 0.05,-0.161 q 0,-0.046 0.041,-0.052 0.004,-0.001 0.008,-0.001 0.037,0 0.048,0.033 0.002,0.008 0.002,0.016 0,0.032 -0.028,0.044 -0.01,0.005 -0.022,0.005 -0.011,0 -0.017,-0.002 0.018,0.063 0.077,0.094 0.033,0.018 0.07,0.018 0.067,0 0.107,-0.065 0.024,-0.042 0.024,-0.137 0,-0.084 -0.018,-0.126 -0.028,-0.064 -0.085,-0.064 -0.081,0 -0.129,0.07 -0.006,0.009 -0.013,0.009 -0.013,0 -0.014,-0.014 v -0.012 -0.296 q 0,-0.023 0.01,-0.024 0.004,0 0.012,0.003 0.063,0.028 0.133,0.028 0.072,0 0.136,-0.029 0.005,-0.003 0.008,-0.003 0.01,0 0.01,0.011 0,0.013 -0.032,0.042 -0.068,0.062 -0.161,0.062 -0.042,0 -0.085,-0.013 v 0.195 q 0.052,-0.051 0.127,-0.051 0.088,0 0.145,0.077 0.045,0.061 0.045,0.142 z"
             fill-opacity="1"
             id="path83" />
        </g>
        <g
           transform="translate(46.922768,23.223684)"
           id="g85">
          <path
             fill="#993300"
             stroke="none"
             paint-order="stroke fill markers"
             d="m 0.203,-0.001 v 0 q 0,0.097 -0.063,0.17 -0.017,0.02 -0.028,0.024 -0.01,0 -0.01,-0.011 0,-0.005 0.011,-0.016 0.06,-0.06 0.067,-0.147 0.001,-0.01 0.001,-0.02 0,-0.015 -0.002,-0.015 -0.001,0 -0.005,0.003 Q 0.16,0 0.139,0 0.102,0 0.09,-0.034 0.086,-0.043 0.086,-0.053 q 0,-0.036 0.031,-0.049 0.01,-0.004 0.022,-0.004 0.044,0 0.059,0.058 0.005,0.021 0.005,0.047 z"
             fill-opacity="1"
             id="path84" />
        </g>
        <g
           transform="translate(47.367435,23.223684)"
           id="g86">
          <path
             fill="#993300"
             stroke="none"
             paint-order="stroke fill markers"
             d="m 0.46,-0.32 q 0,0.146 -0.037,0.226 Q 0.364,0.018 0.249,0.022 0.158,0.022 0.103,-0.05 0.092,-0.063 0.084,-0.079 0.039,-0.162 0.039,-0.32 q 0,-0.147 0.037,-0.227 0.05,-0.112 0.162,-0.119 H 0.25 q 0.089,0 0.145,0.071 v 0.001 q 0.014,0.018 0.025,0.04 0.04,0.085 0.04,0.234 M 0.249,0 v 0 q 0.063,0 0.097,-0.061 0.014,-0.027 0.02,-0.064 0.011,-0.064 0.011,-0.207 0,-0.139 -0.01,-0.195 -0.018,-0.095 -0.092,-0.114 -0.013,-0.003 -0.026,-0.003 -0.07,0 -0.102,0.07 -0.011,0.024 -0.017,0.058 -0.008,0.054 -0.008,0.184 0,0.151 0.011,0.211 0.018,0.096 0.088,0.117 Q 0.235,0 0.249,0 Z"
             fill-opacity="1"
             id="path85" />
        </g>
        <g
           transform="translate(47.867435,23.223684)"
           id="g87">
          <path
             fill="#993300"
             stroke="none"
             paint-order="stroke fill markers"
             d="m 0.289,-0.25 v 0 q 0,0.169 -0.063,0.305 Q 0.174,0.166 0.094,0.233 0.073,0.25 0.067,0.25 q -0.01,0 -0.01,-0.01 0,-0.005 0.013,-0.017 0.161,-0.164 0.161,-0.473 0,-0.305 -0.15,-0.462 L 0.076,-0.717 Q 0.057,-0.735 0.057,-0.74 q 0,-0.01 0.01,-0.01 0.012,0 0.053,0.041 0.062,0.062 0.103,0.147 0.066,0.136 0.066,0.312 z"
             fill-opacity="1"
             id="path86" />
        </g>
      </g>
      <g
         transform="scale(19)"
         id="g96">
        <g
           transform="translate(19.578947,23.276316)"
           id="g89">
          <path
             fill="#993300"
             stroke="none"
             paint-order="stroke fill markers"
             d="m 0.756,-0.578 -0.14,0.557 q -0.005,0.019 -0.01,0.02 L 0.605,0 H 0.6 Q 0.59,0 0.584,-0.012 0.583,-0.015 0.581,-0.019 L 0.332,-0.608 0.323,-0.626 0.191,-0.098 q -0.004,0.015 -0.004,0.023 0,0.034 0.043,0.042 0.01,0.002 0.023,0.002 0.02,0 0.02,0.011 Q 0.273,0 0.255,0 l -0.1,-0.003 H 0.152 L 0.053,0 H 0.052 q -0.013,0 -0.013,-0.011 0,-0.02 0.017,-0.02 0.079,-0.003 0.1,-0.05 0.004,-0.01 0.008,-0.025 l 0.134,-0.537 q 0,-0.009 -0.068,-0.009 -0.026,0 -0.028,-0.011 0,-0.018 0.015,-0.02 h 0.014 0.134 q 0.021,0 0.026,0.007 0.002,0.003 0.006,0.012 l 0.221,0.522 0.112,-0.445 q 0.003,-0.009 0.003,-0.021 0,-0.043 -0.068,-0.044 -0.018,0 -0.018,-0.011 0,-0.02 0.018,-0.02 l 0.101,0.003 h 0.001 l 0.1,-0.003 h 0.001 q 0.013,0 0.013,0.011 0,0.02 -0.017,0.02 -0.078,0.003 -0.1,0.049 v 0 q -0.004,0.01 -0.008,0.025 z"
             fill-opacity="1"
             id="path88" />
        </g>
        <g
           transform="matrix(0.7,0,0,0.7,20.381947,23.426316)"
           id="g90">
          <path
             fill="#993300"
             stroke="none"
             paint-order="stroke fill markers"
             d="m 0.677,-0.162 v 0 L 0.644,0 H 0.485 Q 0.463,0 0.46,-0.007 0.459,-0.011 0.459,-0.021 q 0,-0.069 0.047,-0.201 0.049,-0.138 0.055,-0.203 0.001,-0.015 0.001,-0.03 0,-0.132 -0.092,-0.194 -0.05,-0.034 -0.11,-0.034 -0.085,0 -0.144,0.063 v 0.001 q -0.057,0.062 -0.057,0.164 0,0.077 0.049,0.212 0.054,0.15 0.054,0.222 0,0.017 -0.007,0.02 v 0 H 0.254 Q 0.25,0 0.237,0 H 0.077 L 0.044,-0.162 h 0.025 q 0.01,0.052 0.018,0.074 0.005,0.015 0.018,0.019 0.013,0.004 0.048,0.004 h 0.08 Q 0.22,-0.12 0.159,-0.212 L 0.153,-0.222 Q 0.15,-0.226 0.144,-0.235 0.072,-0.343 0.06,-0.412 0.056,-0.433 0.056,-0.454 q 0,-0.104 0.089,-0.177 0.088,-0.074 0.216,-0.074 0.135,0 0.225,0.082 0.079,0.071 0.079,0.169 0,0.081 -0.07,0.192 v 0 L 0.594,-0.261 0.593,-0.26 0.577,-0.235 q -0.068,0.1 -0.084,0.152 -0.003,0.009 -0.005,0.018 h 0.08 q 0.055,0 0.063,-0.015 l 0.003,-0.009 q 0.008,-0.022 0.018,-0.073 z"
             fill-opacity="1"
             id="path89" />
        </g>
        <g
           transform="translate(20.887347,23.276316)"
           id="g91">
          <path
             fill="#993300"
             stroke="none"
             paint-order="stroke fill markers"
             d="m 0.331,0.24 v 0 q 0,0.01 -0.01,0.01 Q 0.309,0.25 0.268,0.209 0.206,0.147 0.165,0.062 0.099,-0.074 0.099,-0.25 q 0,-0.169 0.063,-0.305 0.052,-0.111 0.132,-0.178 0.021,-0.017 0.027,-0.017 0.01,0 0.01,0.01 0,0.005 -0.013,0.017 -0.161,0.164 -0.161,0.473 0,0.308 0.157,0.468 0.017,0.017 0.017,0.022 z"
             fill-opacity="1"
             id="path90" />
        </g>
        <g
           transform="translate(21.276347,23.276316)"
           id="g92">
          <path
             fill="#993300"
             stroke="none"
             paint-order="stroke fill markers"
             d="m 0.46,-0.32 q 0,0.146 -0.037,0.226 Q 0.364,0.018 0.249,0.022 0.158,0.022 0.103,-0.05 0.092,-0.063 0.084,-0.079 0.039,-0.162 0.039,-0.32 q 0,-0.147 0.037,-0.227 0.05,-0.112 0.162,-0.119 H 0.25 q 0.089,0 0.145,0.071 v 0.001 q 0.014,0.018 0.025,0.04 0.04,0.085 0.04,0.234 M 0.249,0 v 0 q 0.063,0 0.097,-0.061 0.014,-0.027 0.02,-0.064 0.011,-0.064 0.011,-0.207 0,-0.139 -0.01,-0.195 -0.018,-0.095 -0.092,-0.114 -0.013,-0.003 -0.026,-0.003 -0.07,0 -0.102,0.07 -0.011,0.024 -0.017,0.058 -0.008,0.054 -0.008,0.184 0,0.151 0.011,0.211 0.018,0.096 0.088,0.117 Q 0.235,0 0.249,0 Z"
             fill-opacity="1"
             id="path91" />
        </g>
        <g
           transform="translate(21.776347,23.276316)"
           id="g93">
          <path
             fill="#993300"
             stroke="none"
             paint-order="stroke fill markers"
             d="m 0.203,-0.001 v 0 q 0,0.097 -0.063,0.17 -0.017,0.02 -0.028,0.024 -0.01,0 -0.01,-0.011 0,-0.005 0.011,-0.016 0.06,-0.06 0.067,-0.147 0.001,-0.01 0.001,-0.02 0,-0.015 -0.002,-0.015 -0.001,0 -0.005,0.003 Q 0.16,0 0.139,0 0.102,0 0.09,-0.034 0.086,-0.043 0.086,-0.053 q 0,-0.036 0.031,-0.049 0.01,-0.004 0.022,-0.004 0.044,0 0.059,0.058 0.005,0.021 0.005,0.047 z"
             fill-opacity="1"
             id="path92" />
        </g>
        <g
           transform="translate(22.221014,23.276316)"
           id="g94">
          <path
             fill="#993300"
             stroke="none"
             paint-order="stroke fill markers"
             d="m 0.46,-0.32 q 0,0.146 -0.037,0.226 Q 0.364,0.018 0.249,0.022 0.158,0.022 0.103,-0.05 0.092,-0.063 0.084,-0.079 0.039,-0.162 0.039,-0.32 q 0,-0.147 0.037,-0.227 0.05,-0.112 0.162,-0.119 H 0.25 q 0.089,0 0.145,0.071 v 0.001 q 0.014,0.018 0.025,0.04 0.04,0.085 0.04,0.234 M 0.249,0 v 0 q 0.063,0 0.097,-0.061 0.014,-0.027 0.02,-0.064 0.011,-0.064 0.011,-0.207 0,-0.139 -0.01,-0.195 -0.018,-0.095 -0.092,-0.114 -0.013,-0.003 -0.026,-0.003 -0.07,0 -0.102,0.07 -0.011,0.024 -0.017,0.058 -0.008,0.054 -0.008,0.184 0,0.151 0.011,0.211 0.018,0.096 0.088,0.117 Q 0.235,0 0.249,0 Z"
             fill-opacity="1"
             id="path93" />
        </g>
        <g
           transform="translate(22.721014,23.276316)"
           id="g95">
          <path
             fill="#993300"
             stroke="none"
             paint-order="stroke fill markers"
             d="m 0.289,-0.25 v 0 q 0,0.169 -0.063,0.305 Q 0.174,0.166 0.094,0.233 0.073,0.25 0.067,0.25 q -0.01,0 -0.01,-0.01 0,-0.005 0.013,-0.017 0.161,-0.164 0.161,-0.473 0,-0.305 -0.15,-0.462 L 0.076,-0.717 Q 0.057,-0.735 0.057,-0.74 q 0,-0.01 0.01,-0.01 0.012,0 0.053,0.041 0.062,0.062 0.103,0.147 0.066,0.136 0.066,0.312 z"
             fill-opacity="1"
             id="path94" />
        </g>
      </g>
      <g
         transform="scale(19)"
         id="g106">
        <g
           transform="translate(19.368421,10.328947)"
           id="g97">
          <path
             fill="#993300"
             stroke="none"
             paint-order="stroke fill markers"
             d="m 0.756,-0.578 -0.14,0.557 q -0.005,0.019 -0.01,0.02 L 0.605,0 H 0.6 Q 0.59,0 0.584,-0.012 0.583,-0.015 0.581,-0.019 L 0.332,-0.608 0.323,-0.626 0.191,-0.098 q -0.004,0.015 -0.004,0.023 0,0.034 0.043,0.042 0.01,0.002 0.023,0.002 0.02,0 0.02,0.011 Q 0.273,0 0.255,0 l -0.1,-0.003 H 0.152 L 0.053,0 H 0.052 q -0.013,0 -0.013,-0.011 0,-0.02 0.017,-0.02 0.079,-0.003 0.1,-0.05 0.004,-0.01 0.008,-0.025 l 0.134,-0.537 q 0,-0.009 -0.068,-0.009 -0.026,0 -0.028,-0.011 0,-0.018 0.015,-0.02 h 0.014 0.134 q 0.021,0 0.026,0.007 0.002,0.003 0.006,0.012 l 0.221,0.522 0.112,-0.445 q 0.003,-0.009 0.003,-0.021 0,-0.043 -0.068,-0.044 -0.018,0 -0.018,-0.011 0,-0.02 0.018,-0.02 l 0.101,0.003 h 0.001 l 0.1,-0.003 h 0.001 q 0.013,0 0.013,0.011 0,0.02 -0.017,0.02 -0.078,0.003 -0.1,0.049 v 0 q -0.004,0.01 -0.008,0.025 z"
             fill-opacity="1"
             id="path96" />
        </g>
        <g
           transform="matrix(0.7,0,0,0.7,20.171421,10.478947)"
           id="g98">
          <path
             fill="#993300"
             stroke="none"
             paint-order="stroke fill markers"
             d="m 0.677,-0.162 v 0 L 0.644,0 H 0.485 Q 0.463,0 0.46,-0.007 0.459,-0.011 0.459,-0.021 q 0,-0.069 0.047,-0.201 0.049,-0.138 0.055,-0.203 0.001,-0.015 0.001,-0.03 0,-0.132 -0.092,-0.194 -0.05,-0.034 -0.11,-0.034 -0.085,0 -0.144,0.063 v 0.001 q -0.057,0.062 -0.057,0.164 0,0.077 0.049,0.212 0.054,0.15 0.054,0.222 0,0.017 -0.007,0.02 v 0 H 0.254 Q 0.25,0 0.237,0 H 0.077 L 0.044,-0.162 h 0.025 q 0.01,0.052 0.018,0.074 0.005,0.015 0.018,0.019 0.013,0.004 0.048,0.004 h 0.08 Q 0.22,-0.12 0.159,-0.212 L 0.153,-0.222 Q 0.15,-0.226 0.144,-0.235 0.072,-0.343 0.06,-0.412 0.056,-0.433 0.056,-0.454 q 0,-0.104 0.089,-0.177 0.088,-0.074 0.216,-0.074 0.135,0 0.225,0.082 0.079,0.071 0.079,0.169 0,0.081 -0.07,0.192 v 0 L 0.594,-0.261 0.593,-0.26 0.577,-0.235 q -0.068,0.1 -0.084,0.152 -0.003,0.009 -0.005,0.018 h 0.08 q 0.055,0 0.063,-0.015 l 0.003,-0.009 q 0.008,-0.022 0.018,-0.073 z"
             fill-opacity="1"
             id="path97" />
        </g>
        <g
           transform="translate(20.676821,10.328947)"
           id="g99">
          <path
             fill="#993300"
             stroke="none"
             paint-order="stroke fill markers"
             d="m 0.331,0.24 v 0 q 0,0.01 -0.01,0.01 Q 0.309,0.25 0.268,0.209 0.206,0.147 0.165,0.062 0.099,-0.074 0.099,-0.25 q 0,-0.169 0.063,-0.305 0.052,-0.111 0.132,-0.178 0.021,-0.017 0.027,-0.017 0.01,0 0.01,0.01 0,0.005 -0.013,0.017 -0.161,0.164 -0.161,0.473 0,0.308 0.157,0.468 0.017,0.017 0.017,0.022 z"
             fill-opacity="1"
             id="path98" />
        </g>
        <g
           transform="translate(21.065821,10.328947)"
           id="g100">
          <path
             fill="#993300"
             stroke="none"
             paint-order="stroke fill markers"
             d="m 0.46,-0.32 q 0,0.146 -0.037,0.226 Q 0.364,0.018 0.249,0.022 0.158,0.022 0.103,-0.05 0.092,-0.063 0.084,-0.079 0.039,-0.162 0.039,-0.32 q 0,-0.147 0.037,-0.227 0.05,-0.112 0.162,-0.119 H 0.25 q 0.089,0 0.145,0.071 v 0.001 q 0.014,0.018 0.025,0.04 0.04,0.085 0.04,0.234 M 0.249,0 v 0 q 0.063,0 0.097,-0.061 0.014,-0.027 0.02,-0.064 0.011,-0.064 0.011,-0.207 0,-0.139 -0.01,-0.195 -0.018,-0.095 -0.092,-0.114 -0.013,-0.003 -0.026,-0.003 -0.07,0 -0.102,0.07 -0.011,0.024 -0.017,0.058 -0.008,0.054 -0.008,0.184 0,0.151 0.011,0.211 0.018,0.096 0.088,0.117 Q 0.235,0 0.249,0 Z"
             fill-opacity="1"
             id="path99" />
        </g>
        <g
           transform="translate(21.565821,10.328947)"
           id="g101">
          <path
             fill="#993300"
             stroke="none"
             paint-order="stroke fill markers"
             d="m 0.203,-0.001 v 0 q 0,0.097 -0.063,0.17 -0.017,0.02 -0.028,0.024 -0.01,0 -0.01,-0.011 0,-0.005 0.011,-0.016 0.06,-0.06 0.067,-0.147 0.001,-0.01 0.001,-0.02 0,-0.015 -0.002,-0.015 -0.001,0 -0.005,0.003 Q 0.16,0 0.139,0 0.102,0 0.09,-0.034 0.086,-0.043 0.086,-0.053 q 0,-0.036 0.031,-0.049 0.01,-0.004 0.022,-0.004 0.044,0 0.059,0.058 0.005,0.021 0.005,0.047 z"
             fill-opacity="1"
             id="path100" />
        </g>
        <g
           transform="translate(22.010488,10.328947)"
           id="g102">
          <path
             fill="#993300"
             stroke="none"
             paint-order="stroke fill markers"
             d="m 0.294,-0.64 v 0.561 q 0,0.03 0.012,0.038 0.017,0.01 0.081,0.01 H 0.419 V 0 Q 0.384,-0.003 0.257,-0.003 0.13,-0.003 0.095,0 v -0.031 h 0.032 q 0.077,0 0.088,-0.018 L 0.216,-0.05 Q 0.22,-0.058 0.22,-0.079 v -0.518 q -0.052,0.026 -0.131,0.026 v -0.031 q 0.12,0 0.182,-0.064 0.019,0 0.022,0.007 v 0 0.001 q 0.001,0.003 0.001,0.018 z"
             fill-opacity="1"
             id="path101" />
        </g>
        <g
           transform="translate(22.510488,10.328947)"
           id="g103">
          <path
             fill="#993300"
             stroke="none"
             paint-order="stroke fill markers"
             d="M 0.18,-0.083 V 0 H 0.097 v -0.083 z"
             fill-opacity="1"
             id="path102" />
        </g>
        <g
           transform="translate(22.788488,10.328947)"
           id="g104">
          <path
             fill="#993300"
             stroke="none"
             paint-order="stroke fill markers"
             d="m 0.449,-0.201 v 0 q 0,0.103 -0.077,0.17 Q 0.31,0.022 0.231,0.022 0.139,0.022 0.085,-0.055 0.05,-0.104 0.05,-0.161 q 0,-0.046 0.041,-0.052 0.004,-0.001 0.008,-0.001 0.037,0 0.048,0.033 0.002,0.008 0.002,0.016 0,0.032 -0.028,0.044 -0.01,0.005 -0.022,0.005 -0.011,0 -0.017,-0.002 0.018,0.063 0.077,0.094 0.033,0.018 0.07,0.018 0.067,0 0.107,-0.065 0.024,-0.042 0.024,-0.137 0,-0.084 -0.018,-0.126 -0.028,-0.064 -0.085,-0.064 -0.081,0 -0.129,0.07 -0.006,0.009 -0.013,0.009 -0.013,0 -0.014,-0.014 v -0.012 -0.296 q 0,-0.023 0.01,-0.024 0.004,0 0.012,0.003 0.063,0.028 0.133,0.028 0.072,0 0.136,-0.029 0.005,-0.003 0.008,-0.003 0.01,0 0.01,0.011 0,0.013 -0.032,0.042 -0.068,0.062 -0.161,0.062 -0.042,0 -0.085,-0.013 v 0.195 q 0.052,-0.051 0.127,-0.051 0.088,0 0.145,0.077 0.045,0.061 0.045,0.142 z"
             fill-opacity="1"
             id="path103" />
        </g>
        <g
           transform="translate(23.288488,10.328947)"
           id="g105">
          <path
             fill="#993300"
             stroke="none"
             paint-order="stroke fill markers"
             d="m 0.289,-0.25 v 0 q 0,0.169 -0.063,0.305 Q 0.174,0.166 0.094,0.233 0.073,0.25 0.067,0.25 q -0.01,0 -0.01,-0.01 0,-0.005 0.013,-0.017 0.161,-0.164 0.161,-0.473 0,-0.305 -0.15,-0.462 L 0.076,-0.717 Q 0.057,-0.735 0.057,-0.74 q 0,-0.01 0.01,-0.01 0.012,0 0.053,0.041 0.062,0.062 0.103,0.147 0.066,0.136 0.066,0.312 z"
             fill-opacity="1"
             id="path104" />
        </g>
      </g>
    </g>
  </g>
</svg>
