<?xml version="1.0" encoding="utf-8" standalone="no"?>
<!DOCTYPE svg PUBLIC "-//W3C//DTD SVG 1.1//EN"
  "http://www.w3.org/Graphics/SVG/1.1/DTD/svg11.dtd">
<svg xmlns:xlink="http://www.w3.org/1999/xlink" width="352.764063pt" height="280.2675pt" viewBox="0 0 352.764063 280.2675" xmlns="http://www.w3.org/2000/svg" version="1.1">
 <metadata>
  <rdf:RDF xmlns:dc="http://purl.org/dc/elements/1.1/" xmlns:cc="http://creativecommons.org/ns#" xmlns:rdf="http://www.w3.org/1999/02/22-rdf-syntax-ns#">
   <cc:Work>
    <dc:type rdf:resource="http://purl.org/dc/dcmitype/StillImage"/>
    <dc:date>2026-05-12T15:09:45.353014</dc:date>
    <dc:format>image/svg+xml</dc:format>
    <dc:creator>
     <cc:Agent>
      <dc:title>Matplotlib v3.10.0, https://matplotlib.org/</dc:title>
     </cc:Agent>
    </dc:creator>
   </cc:Work>
  </rdf:RDF>
 </metadata>
 <defs>
  <style type="text/css">*{stroke-linejoin: round; stroke-linecap: butt}</style>
 </defs>
 <g id="figure_1">
  <g id="patch_1">
   <path d="M 0 280.2675 
L 352.764063 280.2675 
L 352.764063 0 
L 0 0 
L 0 280.2675 
z
" style="fill: none"/>
  </g>
  <g id="axes_1">
   <g id="patch_2">
    <path d="M 47.6525 238.84 
L 337.6125 238.84 
L 337.6125 7.2 
L 47.6525 7.2 
L 47.6525 238.84 
z
" style="fill: none"/>
   </g>
   <g id="FillBetweenPolyCollection_1">
    <defs>
     <path id="m2ba926c584" d="M 52.405943 -268.612885 
L 52.405943 -45.882115 
L 53.001612 -45.882115 
L 53.597282 -45.882115 
L 54.192951 -45.882115 
L 54.788621 -45.882115 
L 55.38429 -45.882115 
L 55.97996 -45.882115 
L 56.575629 -45.882115 
L 57.171299 -45.882115 
L 57.766968 -45.882115 
L 58.362638 -45.882115 
L 58.958307 -45.882115 
L 59.553977 -45.882115 
L 60.149646 -45.882115 
L 60.745316 -45.882115 
L 61.340985 -45.882115 
L 61.936655 -45.882115 
L 62.532324 -45.882115 
L 63.127994 -45.882115 
L 63.723663 -45.882115 
L 64.319333 -45.882115 
L 64.915002 -45.882115 
L 65.510672 -45.882115 
L 66.106341 -45.882115 
L 66.702011 -45.882115 
L 67.29768 -45.882115 
L 67.89335 -45.882115 
L 68.489019 -45.882115 
L 69.084689 -45.882115 
L 69.680358 -45.882115 
L 70.276028 -45.882115 
L 70.871697 -45.882115 
L 71.467367 -45.882115 
L 72.063036 -45.882115 
L 72.658706 -45.882115 
L 73.254375 -45.882115 
L 73.850045 -45.882115 
L 74.445714 -45.882115 
L 75.041384 -45.882115 
L 75.637053 -45.882115 
L 76.232723 -45.882115 
L 76.828392 -45.882115 
L 77.424062 -45.882115 
L 78.019731 -45.882115 
L 78.615401 -45.882115 
L 79.21107 -45.882115 
L 79.80674 -45.882115 
L 80.402409 -45.882115 
L 80.998079 -45.882115 
L 81.593748 -45.882115 
L 82.189418 -45.882115 
L 82.785087 -45.882115 
L 83.380757 -45.882115 
L 83.976426 -45.882115 
L 84.572096 -45.882115 
L 85.167765 -45.882115 
L 85.763435 -45.882115 
L 86.359104 -45.882115 
L 86.954774 -45.882115 
L 87.550443 -45.882115 
L 88.146113 -45.882115 
L 88.741782 -45.882115 
L 89.337452 -45.882115 
L 89.933121 -45.882115 
L 90.528791 -45.882115 
L 91.12446 -45.882115 
L 91.72013 -45.882115 
L 92.315799 -45.882115 
L 92.911469 -45.882115 
L 93.507138 -45.882115 
L 94.102808 -45.882115 
L 94.698477 -45.882115 
L 95.294147 -45.882115 
L 95.889816 -45.882115 
L 96.485486 -45.882115 
L 97.081155 -45.882115 
L 97.676825 -45.882115 
L 98.272494 -45.882115 
L 98.868164 -45.882115 
L 99.463833 -45.882115 
L 100.059503 -45.882115 
L 100.655172 -45.882115 
L 101.250842 -45.882115 
L 101.846511 -45.882115 
L 102.442181 -45.882115 
L 103.03785 -45.882115 
L 103.63352 -45.882115 
L 104.229189 -45.882115 
L 104.824859 -45.882115 
L 105.420528 -45.882115 
L 106.016198 -45.882115 
L 106.611867 -45.882115 
L 107.207537 -45.882115 
L 107.803206 -45.882115 
L 108.398876 -45.882115 
L 108.994545 -45.882115 
L 109.590215 -45.882115 
L 110.185884 -45.882115 
L 110.781554 -45.882115 
L 111.377223 -45.882115 
L 111.972893 -45.882115 
L 112.568562 -45.882115 
L 113.164232 -45.882115 
L 113.759901 -45.882115 
L 114.355571 -45.882115 
L 114.95124 -45.882115 
L 115.54691 -45.882115 
L 116.142579 -45.882115 
L 116.738249 -45.882115 
L 117.333918 -45.882115 
L 117.929588 -45.882115 
L 118.525257 -45.882115 
L 119.120927 -45.882115 
L 119.716596 -45.882115 
L 120.312266 -45.882115 
L 120.907935 -45.882115 
L 121.503605 -45.882115 
L 122.099274 -45.882115 
L 122.694944 -45.882115 
L 123.290613 -45.882115 
L 123.886283 -45.882115 
L 124.481952 -45.882115 
L 125.077622 -45.882115 
L 125.673291 -45.882115 
L 126.268961 -45.882115 
L 126.86463 -45.882115 
L 127.4603 -45.882115 
L 128.055969 -45.882115 
L 128.651639 -45.882115 
L 129.247308 -45.882115 
L 129.842978 -45.882115 
L 130.438647 -45.882115 
L 131.034317 -45.882115 
L 131.629986 -45.882115 
L 132.225656 -45.882115 
L 132.821325 -45.882115 
L 133.416995 -45.882115 
L 134.012664 -45.882115 
L 134.608334 -45.882115 
L 135.204003 -45.882115 
L 135.799673 -45.882115 
L 136.395342 -45.882115 
L 136.991012 -45.882115 
L 137.586681 -45.882115 
L 138.182351 -45.882115 
L 138.77802 -45.882115 
L 139.37369 -45.882115 
L 139.969359 -45.882115 
L 140.565029 -45.882115 
L 141.160698 -45.882115 
L 141.756368 -45.882115 
L 142.352037 -45.882115 
L 142.947707 -45.882115 
L 143.543376 -45.882115 
L 144.139046 -45.882115 
L 144.734715 -45.882115 
L 145.330385 -45.882115 
L 145.926054 -45.882115 
L 146.521724 -45.882115 
L 147.117393 -45.882115 
L 147.713063 -45.882115 
L 148.308732 -45.882115 
L 148.904402 -45.882115 
L 149.500071 -45.882115 
L 150.095741 -45.882115 
L 150.69141 -45.882115 
L 151.28708 -45.882115 
L 151.882749 -45.882115 
L 152.478419 -45.882115 
L 153.074088 -45.882115 
L 153.669758 -45.882115 
L 154.265427 -45.882115 
L 154.861097 -45.882115 
L 155.456766 -45.882115 
L 156.052436 -45.882115 
L 156.648105 -45.882115 
L 157.243775 -45.882115 
L 157.839444 -45.882115 
L 158.435114 -45.882115 
L 159.030783 -45.882115 
L 159.626453 -45.882115 
L 160.222122 -45.882115 
L 160.817792 -45.882115 
L 161.413461 -45.882115 
L 162.009131 -45.882115 
L 162.6048 -45.882115 
L 163.20047 -45.882115 
L 163.796139 -45.882115 
L 164.391809 -45.882115 
L 164.987478 -45.882115 
L 165.583148 -45.882115 
L 166.178817 -45.882115 
L 166.774487 -45.882115 
L 167.370156 -45.882115 
L 167.965826 -45.882115 
L 168.561495 -45.882115 
L 169.157165 -45.882115 
L 169.752834 -45.882115 
L 170.348504 -45.882115 
L 170.944173 -45.882115 
L 171.539843 -45.882115 
L 172.135512 -45.882115 
L 172.731182 -45.882115 
L 173.326851 -45.882115 
L 173.922521 -45.882115 
L 174.51819 -45.882115 
L 175.11386 -45.882115 
L 175.709529 -45.882115 
L 176.305199 -45.882115 
L 176.900868 -45.882115 
L 177.496538 -45.882115 
L 178.092207 -45.882115 
L 178.687877 -45.882115 
L 179.283546 -45.882115 
L 179.879216 -45.882115 
L 180.474885 -45.882115 
L 181.070555 -45.882115 
L 181.666224 -45.882115 
L 182.261894 -45.882115 
L 182.857563 -45.882115 
L 183.453233 -45.882115 
L 184.048902 -45.882115 
L 184.644572 -45.882115 
L 185.240241 -45.882115 
L 185.835911 -45.882115 
L 186.43158 -45.882115 
L 187.02725 -45.882115 
L 187.622919 -45.882115 
L 188.218589 -45.882115 
L 188.814258 -45.882115 
L 189.409928 -45.882115 
L 190.005597 -45.882115 
L 190.601267 -45.882115 
L 191.196937 -45.882115 
L 191.792606 -45.882115 
L 192.388276 -45.882115 
L 192.983945 -45.882115 
L 193.579615 -45.882115 
L 194.175284 -45.882115 
L 194.770954 -45.882115 
L 195.366623 -45.882115 
L 195.962293 -45.882115 
L 196.557962 -45.882115 
L 197.153632 -45.882115 
L 197.749301 -45.882115 
L 198.344971 -45.882115 
L 198.94064 -45.882115 
L 199.53631 -45.882115 
L 200.131979 -45.882115 
L 200.727649 -45.882115 
L 201.323318 -45.882115 
L 201.918988 -45.882115 
L 202.514657 -45.882115 
L 203.110327 -45.882115 
L 203.705996 -45.882115 
L 204.301666 -45.882115 
L 204.897335 -45.882115 
L 205.493005 -45.882115 
L 206.088674 -45.882115 
L 206.684344 -45.882115 
L 207.280013 -45.882115 
L 207.875683 -45.882115 
L 208.471352 -45.882115 
L 209.067022 -45.882115 
L 209.662691 -45.882115 
L 210.258361 -45.882115 
L 210.85403 -45.882115 
L 211.4497 -45.882115 
L 212.045369 -45.882115 
L 212.641039 -45.882115 
L 213.236708 -45.882115 
L 213.832378 -45.882115 
L 214.428047 -45.882115 
L 215.023717 -45.882115 
L 215.619386 -45.882115 
L 216.215056 -45.882115 
L 216.810725 -45.882115 
L 217.406395 -45.882115 
L 218.002064 -45.882115 
L 218.597734 -45.882115 
L 219.193403 -45.882115 
L 219.789073 -45.882115 
L 220.384742 -45.882115 
L 220.980412 -45.882115 
L 221.576081 -45.882115 
L 222.171751 -45.882115 
L 222.76742 -45.882115 
L 223.36309 -45.882115 
L 223.958759 -45.882115 
L 224.554429 -45.882115 
L 225.150098 -45.882115 
L 225.745768 -45.882115 
L 226.341437 -45.882115 
L 226.937107 -45.882115 
L 227.532776 -45.882115 
L 228.128446 -45.882115 
L 228.724115 -45.882115 
L 229.319785 -45.882115 
L 229.915454 -45.882115 
L 230.511124 -45.882115 
L 231.106793 -45.882115 
L 231.702463 -45.882115 
L 232.298132 -45.882115 
L 232.893802 -45.882115 
L 233.489471 -45.882115 
L 234.085141 -45.882115 
L 234.68081 -45.882115 
L 235.27648 -45.882115 
L 235.872149 -45.882115 
L 236.467819 -45.882115 
L 237.063488 -45.882115 
L 237.659158 -45.882115 
L 238.254827 -45.882115 
L 238.850497 -45.882115 
L 239.446166 -45.882115 
L 240.041836 -45.882115 
L 240.637505 -45.882115 
L 241.233175 -45.882115 
L 241.828844 -45.882115 
L 242.424514 -45.882115 
L 243.020183 -45.882115 
L 243.615853 -45.882115 
L 244.211522 -45.882115 
L 244.807192 -45.882115 
L 245.402861 -45.882115 
L 245.998531 -45.882115 
L 246.5942 -45.882115 
L 247.18987 -45.882115 
L 247.785539 -45.882115 
L 248.381209 -45.882115 
L 248.976878 -45.882115 
L 249.572548 -45.882115 
L 250.168217 -45.882115 
L 250.763887 -45.882115 
L 251.359556 -45.882115 
L 251.955226 -45.882115 
L 252.550895 -45.882115 
L 253.146565 -45.882115 
L 253.742234 -45.882115 
L 254.337904 -45.882115 
L 254.933573 -45.882115 
L 255.529243 -45.882115 
L 256.124912 -45.882115 
L 256.720582 -45.882115 
L 257.316251 -45.882115 
L 257.911921 -45.882115 
L 258.50759 -45.882115 
L 259.10326 -45.882115 
L 259.698929 -45.882115 
L 260.294599 -45.882115 
L 260.890268 -45.882115 
L 261.485938 -45.882115 
L 262.081607 -45.882115 
L 262.677277 -45.882115 
L 263.272946 -45.882115 
L 263.868616 -45.882115 
L 264.464285 -45.882115 
L 265.059955 -45.882115 
L 265.655624 -45.882115 
L 266.251294 -45.882115 
L 266.846963 -45.882115 
L 267.442633 -45.882115 
L 268.038302 -45.882115 
L 268.633972 -45.882115 
L 269.229641 -45.882115 
L 269.825311 -45.882115 
L 270.42098 -45.882115 
L 271.01665 -45.882115 
L 271.612319 -45.882115 
L 272.207989 -45.882115 
L 272.803658 -45.882115 
L 273.399328 -45.882115 
L 273.994997 -45.882115 
L 274.590667 -45.882115 
L 275.186336 -45.882115 
L 275.782006 -45.882115 
L 276.377675 -45.882115 
L 276.973345 -45.882115 
L 277.569014 -45.882115 
L 278.164684 -45.882115 
L 278.760353 -45.882115 
L 279.356023 -45.882115 
L 279.951692 -45.882115 
L 280.547362 -45.882115 
L 281.143031 -45.882115 
L 281.738701 -45.882115 
L 282.33437 -45.882115 
L 282.93004 -45.882115 
L 283.525709 -45.882115 
L 284.121379 -45.882115 
L 284.717048 -45.882115 
L 285.312718 -45.882115 
L 285.908387 -45.882115 
L 286.504057 -45.882115 
L 287.099726 -45.882115 
L 287.695396 -45.882115 
L 288.291065 -45.882115 
L 288.886735 -45.882115 
L 289.482404 -45.882115 
L 290.078074 -45.882115 
L 290.078074 -45.882115 
L 290.078074 -45.882115 
L 289.482404 -45.882119 
L 288.886735 -45.882143 
L 288.291065 -45.88221 
L 287.695396 -45.88234 
L 287.099726 -45.882554 
L 286.504057 -45.882873 
L 285.908387 -45.883318 
L 285.312718 -45.883911 
L 284.717048 -45.884672 
L 284.121379 -45.885622 
L 283.525709 -45.886782 
L 282.93004 -45.888174 
L 282.33437 -45.889819 
L 281.738701 -45.891737 
L 281.143031 -45.893949 
L 280.547362 -45.896478 
L 279.951692 -45.899342 
L 279.356023 -45.902565 
L 278.760353 -45.906166 
L 278.164684 -45.910167 
L 277.569014 -45.914588 
L 276.973345 -45.919452 
L 276.377675 -45.924778 
L 275.782006 -45.930588 
L 275.186336 -45.936903 
L 274.590667 -45.943744 
L 273.994997 -45.951132 
L 273.399328 -45.959088 
L 272.803658 -45.967633 
L 272.207989 -45.976788 
L 271.612319 -45.986575 
L 271.01665 -45.997013 
L 270.42098 -46.008125 
L 269.825311 -46.019931 
L 269.229641 -46.032452 
L 268.633972 -46.04571 
L 268.038302 -46.059725 
L 267.442633 -46.074519 
L 266.846963 -46.090112 
L 266.251294 -46.106525 
L 265.655624 -46.12378 
L 265.059955 -46.141898 
L 264.464285 -46.160899 
L 263.868616 -46.180805 
L 263.272946 -46.201636 
L 262.677277 -46.223414 
L 262.081607 -46.24616 
L 261.485938 -46.269895 
L 260.890268 -46.29464 
L 260.294599 -46.320415 
L 259.698929 -46.347243 
L 259.10326 -46.375143 
L 258.50759 -46.404138 
L 257.911921 -46.434247 
L 257.316251 -46.465493 
L 256.720582 -46.497895 
L 256.124912 -46.531476 
L 255.529243 -46.566256 
L 254.933573 -46.602256 
L 254.337904 -46.639498 
L 253.742234 -46.678002 
L 253.146565 -46.717789 
L 252.550895 -46.75888 
L 251.955226 -46.801297 
L 251.359556 -46.845061 
L 250.763887 -46.890192 
L 250.168217 -46.936711 
L 249.572548 -46.98464 
L 248.976878 -47.034 
L 248.381209 -47.084811 
L 247.785539 -47.137095 
L 247.18987 -47.190872 
L 246.5942 -47.246165 
L 245.998531 -47.302993 
L 245.402861 -47.361378 
L 244.807192 -47.421341 
L 244.211522 -47.482903 
L 243.615853 -47.546085 
L 243.020183 -47.610908 
L 242.424514 -47.677392 
L 241.828844 -47.74556 
L 241.233175 -47.815432 
L 240.637505 -47.88703 
L 240.041836 -47.960373 
L 239.446166 -48.035484 
L 238.850497 -48.112383 
L 238.254827 -48.191091 
L 237.659158 -48.271629 
L 237.063488 -48.354019 
L 236.467819 -48.438281 
L 235.872149 -48.524437 
L 235.27648 -48.612507 
L 234.68081 -48.702513 
L 234.085141 -48.794476 
L 233.489471 -48.888416 
L 232.893802 -48.984354 
L 232.298132 -49.082313 
L 231.702463 -49.182312 
L 231.106793 -49.284372 
L 230.511124 -49.388516 
L 229.915454 -49.494763 
L 229.319785 -49.603136 
L 228.724115 -49.713654 
L 228.128446 -49.826339 
L 227.532776 -49.941212 
L 226.937107 -50.058295 
L 226.341437 -50.177607 
L 225.745768 -50.29917 
L 225.150098 -50.423006 
L 224.554429 -50.549135 
L 223.958759 -50.677578 
L 223.36309 -50.808356 
L 222.76742 -50.94149 
L 222.171751 -51.077002 
L 221.576081 -51.214912 
L 220.980412 -51.355242 
L 220.384742 -51.498012 
L 219.789073 -51.643244 
L 219.193403 -51.790958 
L 218.597734 -51.941176 
L 218.002064 -52.093918 
L 217.406395 -52.249206 
L 216.810725 -52.407061 
L 216.215056 -52.567503 
L 215.619386 -52.730554 
L 215.023717 -52.896235 
L 214.428047 -53.064567 
L 213.832378 -53.23557 
L 213.236708 -53.409267 
L 212.641039 -53.585677 
L 212.045369 -53.764823 
L 211.4497 -53.946725 
L 210.85403 -54.131403 
L 210.258361 -54.31888 
L 209.662691 -54.509176 
L 209.067022 -54.702312 
L 208.471352 -54.898309 
L 207.875683 -55.097189 
L 207.280013 -55.298971 
L 206.684344 -55.503679 
L 206.088674 -55.711331 
L 205.493005 -55.92195 
L 204.897335 -56.135557 
L 204.301666 -56.352171 
L 203.705996 -56.571816 
L 203.110327 -56.794511 
L 202.514657 -57.020277 
L 201.918988 -57.249137 
L 201.323318 -57.48111 
L 200.727649 -57.716217 
L 200.131979 -57.954481 
L 199.53631 -58.195921 
L 198.94064 -58.440559 
L 198.344971 -58.688416 
L 197.749301 -58.939513 
L 197.153632 -59.193871 
L 196.557962 -59.45151 
L 195.962293 -59.712453 
L 195.366623 -59.97672 
L 194.770954 -60.244332 
L 194.175284 -60.51531 
L 193.579615 -60.789676 
L 192.983945 -61.067449 
L 192.388276 -61.348652 
L 191.792606 -61.633305 
L 191.196937 -61.92143 
L 190.601267 -62.213046 
L 190.005597 -62.508177 
L 189.409928 -62.806841 
L 188.814258 -63.109061 
L 188.218589 -63.414858 
L 187.622919 -63.724252 
L 187.02725 -64.037265 
L 186.43158 -64.353918 
L 185.835911 -64.674231 
L 185.240241 -64.998226 
L 184.644572 -65.325924 
L 184.048902 -65.657345 
L 183.453233 -65.992511 
L 182.857563 -66.331444 
L 182.261894 -66.674163 
L 181.666224 -67.02069 
L 181.070555 -67.371046 
L 180.474885 -67.725252 
L 179.879216 -68.083329 
L 179.283546 -68.445298 
L 178.687877 -68.811181 
L 178.092207 -69.180997 
L 177.496538 -69.554769 
L 176.900868 -69.932517 
L 176.305199 -70.314262 
L 175.709529 -70.700026 
L 175.11386 -71.089829 
L 174.51819 -71.483693 
L 173.922521 -71.881637 
L 173.326851 -72.283685 
L 172.731182 -72.689856 
L 172.135512 -73.100171 
L 171.539843 -73.514652 
L 170.944173 -73.93332 
L 170.348504 -74.356195 
L 169.752834 -74.7833 
L 169.157165 -75.214653 
L 168.561495 -75.650278 
L 167.965826 -76.090195 
L 167.370156 -76.534424 
L 166.774487 -76.982987 
L 166.178817 -77.435906 
L 165.583148 -77.8932 
L 164.987478 -78.354891 
L 164.391809 -78.821001 
L 163.796139 -79.291549 
L 163.20047 -79.766558 
L 162.6048 -80.246047 
L 162.009131 -80.730039 
L 161.413461 -81.218555 
L 160.817792 -81.711614 
L 160.222122 -82.209239 
L 159.626453 -82.71145 
L 159.030783 -83.218269 
L 158.435114 -83.729716 
L 157.839444 -84.245812 
L 157.243775 -84.76658 
L 156.648105 -85.292038 
L 156.052436 -85.82221 
L 155.456766 -86.357114 
L 154.861097 -86.896774 
L 154.265427 -87.441209 
L 153.669758 -87.990441 
L 153.074088 -88.544491 
L 152.478419 -89.10338 
L 151.882749 -89.667129 
L 151.28708 -90.235758 
L 150.69141 -90.809289 
L 150.095741 -91.387744 
L 149.500071 -91.971142 
L 148.904402 -92.559506 
L 148.308732 -93.152855 
L 147.713063 -93.751212 
L 147.117393 -94.354597 
L 146.521724 -94.963031 
L 145.926054 -95.576536 
L 145.330385 -96.195131 
L 144.734715 -96.818839 
L 144.139046 -97.447681 
L 143.543376 -98.081676 
L 142.947707 -98.720848 
L 142.352037 -99.365215 
L 141.756368 -100.014801 
L 141.160698 -100.669624 
L 140.565029 -101.329708 
L 139.969359 -101.995072 
L 139.37369 -102.665738 
L 138.77802 -103.341726 
L 138.182351 -104.023058 
L 137.586681 -104.709755 
L 136.991012 -105.401838 
L 136.395342 -106.099328 
L 135.799673 -106.802245 
L 135.204003 -107.510612 
L 134.608334 -108.224449 
L 134.012664 -108.943776 
L 133.416995 -109.668616 
L 132.821325 -110.398988 
L 132.225656 -111.134915 
L 131.629986 -111.876417 
L 131.034317 -112.623516 
L 130.438647 -113.376231 
L 129.842978 -114.134585 
L 129.247308 -114.898598 
L 128.651639 -115.668292 
L 128.055969 -116.443686 
L 127.4603 -117.224804 
L 126.86463 -118.011665 
L 126.268961 -118.80429 
L 125.673291 -119.602701 
L 125.077622 -120.406918 
L 124.481952 -121.216964 
L 123.886283 -122.032857 
L 123.290613 -122.854621 
L 122.694944 -123.682275 
L 122.099274 -124.515841 
L 121.503605 -125.35534 
L 120.907935 -126.200793 
L 120.312266 -127.052221 
L 119.716596 -127.909644 
L 119.120927 -128.773085 
L 118.525257 -129.642564 
L 117.929588 -130.518101 
L 117.333918 -131.399719 
L 116.738249 -132.287438 
L 116.142579 -133.181279 
L 115.54691 -134.081264 
L 114.95124 -134.987412 
L 114.355571 -135.899746 
L 113.759901 -136.818286 
L 113.164232 -137.743054 
L 112.568562 -138.67407 
L 111.972893 -139.611355 
L 111.377223 -140.554931 
L 110.781554 -141.504819 
L 110.185884 -142.461039 
L 109.590215 -143.423612 
L 108.994545 -144.39256 
L 108.398876 -145.367904 
L 107.803206 -146.349665 
L 107.207537 -147.337863 
L 106.611867 -148.33252 
L 106.016198 -149.333657 
L 105.420528 -150.341295 
L 104.824859 -151.355455 
L 104.229189 -152.376158 
L 103.63352 -153.403424 
L 103.03785 -154.437276 
L 102.442181 -155.477734 
L 101.846511 -156.524819 
L 101.250842 -157.578552 
L 100.655172 -158.638954 
L 100.059503 -159.706046 
L 99.463833 -160.77985 
L 98.868164 -161.860386 
L 98.272494 -162.947675 
L 97.676825 -164.041738 
L 97.081155 -165.142597 
L 96.485486 -166.250273 
L 95.889816 -167.364786 
L 95.294147 -168.486157 
L 94.698477 -169.614408 
L 94.102808 -170.74956 
L 93.507138 -171.891633 
L 92.911469 -173.040649 
L 92.315799 -174.196629 
L 91.72013 -175.359593 
L 91.12446 -176.529563 
L 90.528791 -177.70656 
L 89.933121 -178.890605 
L 89.337452 -180.081719 
L 88.741782 -181.279923 
L 88.146113 -182.485237 
L 87.550443 -183.697684 
L 86.954774 -184.917284 
L 86.359104 -186.144058 
L 85.763435 -187.378027 
L 85.167765 -188.619212 
L 84.572096 -189.867634 
L 83.976426 -191.123315 
L 83.380757 -192.386275 
L 82.785087 -193.656535 
L 82.189418 -194.934116 
L 81.593748 -196.21904 
L 80.998079 -197.511328 
L 80.402409 -198.811 
L 79.80674 -200.118077 
L 79.21107 -201.432581 
L 78.615401 -202.754533 
L 78.019731 -204.083953 
L 77.424062 -205.420863 
L 76.828392 -206.765284 
L 76.232723 -208.117236 
L 75.637053 -209.476741 
L 75.041384 -210.84382 
L 74.445714 -212.218494 
L 73.850045 -213.600784 
L 73.254375 -214.99071 
L 72.658706 -216.388295 
L 72.063036 -217.793559 
L 71.467367 -219.206522 
L 70.871697 -220.627207 
L 70.276028 -222.055634 
L 69.680358 -223.491824 
L 69.084689 -224.935798 
L 68.489019 -226.387578 
L 67.89335 -227.847184 
L 67.29768 -229.314637 
L 66.702011 -230.789959 
L 66.106341 -232.27317 
L 65.510672 -233.764291 
L 64.915002 -235.263344 
L 64.319333 -236.770349 
L 63.723663 -238.285328 
L 63.127994 -239.808302 
L 62.532324 -241.339291 
L 61.936655 -242.878317 
L 61.340985 -244.4254 
L 60.745316 -245.980563 
L 60.149646 -247.543825 
L 59.553977 -249.115208 
L 58.958307 -250.694732 
L 58.362638 -252.28242 
L 57.766968 -253.878292 
L 57.171299 -255.482368 
L 56.575629 -257.094671 
L 55.97996 -258.71522 
L 55.38429 -260.344038 
L 54.788621 -261.981145 
L 54.192951 -263.626562 
L 53.597282 -265.28031 
L 53.001612 -266.942411 
L 52.405943 -268.612885 
z
" style="stroke: #add8e6; stroke-opacity: 0.5"/>
    </defs>
    <g clip-path="url(#p60287ce7fa)">
     <use xlink:href="#m2ba926c584" x="0" y="280.2675" style="fill: #add8e6; fill-opacity: 0.5; stroke: #add8e6; stroke-opacity: 0.5"/>
    </g>
   </g>
   <g id="matplotlib.axis_1">
    <g id="xtick_1">
     <g id="line2d_1">
      <defs>
       <path id="m887f82e575" d="M 0 0 
L 0 3.5 
" style="stroke: #000000; stroke-width: 0.8"/>
      </defs>
      <g>
       <use xlink:href="#m887f82e575" x="52.405943" y="238.84" style="stroke: #000000; stroke-width: 0.8"/>
      </g>
     </g>
     <g id="text_1">
      <!-- 0.0 -->
      <g transform="translate(44.45438 253.438437) scale(0.1 -0.1)">
       <defs>
        <path id="DejaVuSans-30" d="M 2034 4250 
Q 1547 4250 1301 3770 
Q 1056 3291 1056 2328 
Q 1056 1369 1301 889 
Q 1547 409 2034 409 
Q 2525 409 2770 889 
Q 3016 1369 3016 2328 
Q 3016 3291 2770 3770 
Q 2525 4250 2034 4250 
z
M 2034 4750 
Q 2819 4750 3233 4129 
Q 3647 3509 3647 2328 
Q 3647 1150 3233 529 
Q 2819 -91 2034 -91 
Q 1250 -91 836 529 
Q 422 1150 422 2328 
Q 422 3509 836 4129 
Q 1250 4750 2034 4750 
z
" transform="scale(0.015625)"/>
        <path id="DejaVuSans-2e" d="M 684 794 
L 1344 794 
L 1344 0 
L 684 0 
L 684 794 
z
" transform="scale(0.015625)"/>
       </defs>
       <use xlink:href="#DejaVuSans-30"/>
       <use xlink:href="#DejaVuSans-2e" transform="translate(63.623047 0)"/>
       <use xlink:href="#DejaVuSans-30" transform="translate(95.410156 0)"/>
      </g>
     </g>
    </g>
    <g id="xtick_2">
     <g id="line2d_2">
      <g>
       <use xlink:href="#m887f82e575" x="99.940369" y="238.84" style="stroke: #000000; stroke-width: 0.8"/>
      </g>
     </g>
     <g id="text_2">
      <!-- 0.2 -->
      <g transform="translate(91.988806 253.438437) scale(0.1 -0.1)">
       <defs>
        <path id="DejaVuSans-32" d="M 1228 531 
L 3431 531 
L 3431 0 
L 469 0 
L 469 531 
Q 828 903 1448 1529 
Q 2069 2156 2228 2338 
Q 2531 2678 2651 2914 
Q 2772 3150 2772 3378 
Q 2772 3750 2511 3984 
Q 2250 4219 1831 4219 
Q 1534 4219 1204 4116 
Q 875 4013 500 3803 
L 500 4441 
Q 881 4594 1212 4672 
Q 1544 4750 1819 4750 
Q 2544 4750 2975 4387 
Q 3406 4025 3406 3419 
Q 3406 3131 3298 2873 
Q 3191 2616 2906 2266 
Q 2828 2175 2409 1742 
Q 1991 1309 1228 531 
z
" transform="scale(0.015625)"/>
       </defs>
       <use xlink:href="#DejaVuSans-30"/>
       <use xlink:href="#DejaVuSans-2e" transform="translate(63.623047 0)"/>
       <use xlink:href="#DejaVuSans-32" transform="translate(95.410156 0)"/>
      </g>
     </g>
    </g>
    <g id="xtick_3">
     <g id="line2d_3">
      <g>
       <use xlink:href="#m887f82e575" x="147.474795" y="238.84" style="stroke: #000000; stroke-width: 0.8"/>
      </g>
     </g>
     <g id="text_3">
      <!-- 0.4 -->
      <g transform="translate(139.523233 253.438437) scale(0.1 -0.1)">
       <defs>
        <path id="DejaVuSans-34" d="M 2419 4116 
L 825 1625 
L 2419 1625 
L 2419 4116 
z
M 2253 4666 
L 3047 4666 
L 3047 1625 
L 3713 1625 
L 3713 1100 
L 3047 1100 
L 3047 0 
L 2419 0 
L 2419 1100 
L 313 1100 
L 313 1709 
L 2253 4666 
z
" transform="scale(0.015625)"/>
       </defs>
       <use xlink:href="#DejaVuSans-30"/>
       <use xlink:href="#DejaVuSans-2e" transform="translate(63.623047 0)"/>
       <use xlink:href="#DejaVuSans-34" transform="translate(95.410156 0)"/>
      </g>
     </g>
    </g>
    <g id="xtick_4">
     <g id="line2d_4">
      <g>
       <use xlink:href="#m887f82e575" x="195.009221" y="238.84" style="stroke: #000000; stroke-width: 0.8"/>
      </g>
     </g>
     <g id="text_4">
      <!-- 0.6 -->
      <g transform="translate(187.057659 253.438437) scale(0.1 -0.1)">
       <defs>
        <path id="DejaVuSans-36" d="M 2113 2584 
Q 1688 2584 1439 2293 
Q 1191 2003 1191 1497 
Q 1191 994 1439 701 
Q 1688 409 2113 409 
Q 2538 409 2786 701 
Q 3034 994 3034 1497 
Q 3034 2003 2786 2293 
Q 2538 2584 2113 2584 
z
M 3366 4563 
L 3366 3988 
Q 3128 4100 2886 4159 
Q 2644 4219 2406 4219 
Q 1781 4219 1451 3797 
Q 1122 3375 1075 2522 
Q 1259 2794 1537 2939 
Q 1816 3084 2150 3084 
Q 2853 3084 3261 2657 
Q 3669 2231 3669 1497 
Q 3669 778 3244 343 
Q 2819 -91 2113 -91 
Q 1303 -91 875 529 
Q 447 1150 447 2328 
Q 447 3434 972 4092 
Q 1497 4750 2381 4750 
Q 2619 4750 2861 4703 
Q 3103 4656 3366 4563 
z
" transform="scale(0.015625)"/>
       </defs>
       <use xlink:href="#DejaVuSans-30"/>
       <use xlink:href="#DejaVuSans-2e" transform="translate(63.623047 0)"/>
       <use xlink:href="#DejaVuSans-36" transform="translate(95.410156 0)"/>
      </g>
     </g>
    </g>
    <g id="xtick_5">
     <g id="line2d_5">
      <g>
       <use xlink:href="#m887f82e575" x="242.543648" y="238.84" style="stroke: #000000; stroke-width: 0.8"/>
      </g>
     </g>
     <g id="text_5">
      <!-- 0.8 -->
      <g transform="translate(234.592085 253.438437) scale(0.1 -0.1)">
       <defs>
        <path id="DejaVuSans-38" d="M 2034 2216 
Q 1584 2216 1326 1975 
Q 1069 1734 1069 1313 
Q 1069 891 1326 650 
Q 1584 409 2034 409 
Q 2484 409 2743 651 
Q 3003 894 3003 1313 
Q 3003 1734 2745 1975 
Q 2488 2216 2034 2216 
z
M 1403 2484 
Q 997 2584 770 2862 
Q 544 3141 544 3541 
Q 544 4100 942 4425 
Q 1341 4750 2034 4750 
Q 2731 4750 3128 4425 
Q 3525 4100 3525 3541 
Q 3525 3141 3298 2862 
Q 3072 2584 2669 2484 
Q 3125 2378 3379 2068 
Q 3634 1759 3634 1313 
Q 3634 634 3220 271 
Q 2806 -91 2034 -91 
Q 1263 -91 848 271 
Q 434 634 434 1313 
Q 434 1759 690 2068 
Q 947 2378 1403 2484 
z
M 1172 3481 
Q 1172 3119 1398 2916 
Q 1625 2713 2034 2713 
Q 2441 2713 2670 2916 
Q 2900 3119 2900 3481 
Q 2900 3844 2670 4047 
Q 2441 4250 2034 4250 
Q 1625 4250 1398 4047 
Q 1172 3844 1172 3481 
z
" transform="scale(0.015625)"/>
       </defs>
       <use xlink:href="#DejaVuSans-30"/>
       <use xlink:href="#DejaVuSans-2e" transform="translate(63.623047 0)"/>
       <use xlink:href="#DejaVuSans-38" transform="translate(95.410156 0)"/>
      </g>
     </g>
    </g>
    <g id="xtick_6">
     <g id="line2d_6">
      <g>
       <use xlink:href="#m887f82e575" x="290.078074" y="238.84" style="stroke: #000000; stroke-width: 0.8"/>
      </g>
     </g>
     <g id="text_6">
      <!-- 1.0 -->
      <g transform="translate(282.126511 253.438437) scale(0.1 -0.1)">
       <defs>
        <path id="DejaVuSans-31" d="M 794 531 
L 1825 531 
L 1825 4091 
L 703 3866 
L 703 4441 
L 1819 4666 
L 2450 4666 
L 2450 531 
L 3481 531 
L 3481 0 
L 794 0 
L 794 531 
z
" transform="scale(0.015625)"/>
       </defs>
       <use xlink:href="#DejaVuSans-31"/>
       <use xlink:href="#DejaVuSans-2e" transform="translate(63.623047 0)"/>
       <use xlink:href="#DejaVuSans-30" transform="translate(95.410156 0)"/>
      </g>
     </g>
    </g>
    <g id="xtick_7">
     <g id="line2d_7">
      <g>
       <use xlink:href="#m887f82e575" x="337.6125" y="238.84" style="stroke: #000000; stroke-width: 0.8"/>
      </g>
     </g>
     <g id="text_7">
      <!-- 1.2 -->
      <g transform="translate(329.660937 253.438437) scale(0.1 -0.1)">
       <use xlink:href="#DejaVuSans-31"/>
       <use xlink:href="#DejaVuSans-2e" transform="translate(63.623047 0)"/>
       <use xlink:href="#DejaVuSans-32" transform="translate(95.410156 0)"/>
      </g>
     </g>
    </g>
    <g id="text_8">
     <!-- $x$ -->
     <g transform="translate(188.4325 270.155937) scale(0.14 -0.14)">
      <defs>
       <path id="DejaVuSans-Oblique-78" d="M 3841 3500 
L 2234 1784 
L 3219 0 
L 2559 0 
L 1819 1388 
L 531 0 
L -166 0 
L 1556 1844 
L 641 3500 
L 1300 3500 
L 1972 2234 
L 3144 3500 
L 3841 3500 
z
" transform="scale(0.015625)"/>
      </defs>
      <use xlink:href="#DejaVuSans-Oblique-78" transform="translate(0 0.3125)"/>
     </g>
    </g>
   </g>
   <g id="matplotlib.axis_2">
    <g id="ytick_1">
     <g id="line2d_8">
      <defs>
       <path id="m07c1a8d65d" d="M 0 0 
L -3.5 0 
" style="stroke: #000000; stroke-width: 0.8"/>
      </defs>
      <g>
       <use xlink:href="#m07c1a8d65d" x="47.6525" y="234.385385" style="stroke: #000000; stroke-width: 0.8"/>
      </g>
     </g>
     <g id="text_9">
      <!-- 0.0 -->
      <g transform="translate(24.749375 238.184603) scale(0.1 -0.1)">
       <use xlink:href="#DejaVuSans-30"/>
       <use xlink:href="#DejaVuSans-2e" transform="translate(63.623047 0)"/>
       <use xlink:href="#DejaVuSans-30" transform="translate(95.410156 0)"/>
      </g>
     </g>
    </g>
    <g id="ytick_2">
     <g id="line2d_9">
      <g>
       <use xlink:href="#m07c1a8d65d" x="47.6525" y="189.839231" style="stroke: #000000; stroke-width: 0.8"/>
      </g>
     </g>
     <g id="text_10">
      <!-- 0.2 -->
      <g transform="translate(24.749375 193.63845) scale(0.1 -0.1)">
       <use xlink:href="#DejaVuSans-30"/>
       <use xlink:href="#DejaVuSans-2e" transform="translate(63.623047 0)"/>
       <use xlink:href="#DejaVuSans-32" transform="translate(95.410156 0)"/>
      </g>
     </g>
    </g>
    <g id="ytick_3">
     <g id="line2d_10">
      <g>
       <use xlink:href="#m07c1a8d65d" x="47.6525" y="145.293077" style="stroke: #000000; stroke-width: 0.8"/>
      </g>
     </g>
     <g id="text_11">
      <!-- 0.4 -->
      <g transform="translate(24.749375 149.092296) scale(0.1 -0.1)">
       <use xlink:href="#DejaVuSans-30"/>
       <use xlink:href="#DejaVuSans-2e" transform="translate(63.623047 0)"/>
       <use xlink:href="#DejaVuSans-34" transform="translate(95.410156 0)"/>
      </g>
     </g>
    </g>
    <g id="ytick_4">
     <g id="line2d_11">
      <g>
       <use xlink:href="#m07c1a8d65d" x="47.6525" y="100.746923" style="stroke: #000000; stroke-width: 0.8"/>
      </g>
     </g>
     <g id="text_12">
      <!-- 0.6 -->
      <g transform="translate(24.749375 104.546142) scale(0.1 -0.1)">
       <use xlink:href="#DejaVuSans-30"/>
       <use xlink:href="#DejaVuSans-2e" transform="translate(63.623047 0)"/>
       <use xlink:href="#DejaVuSans-36" transform="translate(95.410156 0)"/>
      </g>
     </g>
    </g>
    <g id="ytick_5">
     <g id="line2d_12">
      <g>
       <use xlink:href="#m07c1a8d65d" x="47.6525" y="56.200769" style="stroke: #000000; stroke-width: 0.8"/>
      </g>
     </g>
     <g id="text_13">
      <!-- 0.8 -->
      <g transform="translate(24.749375 59.999988) scale(0.1 -0.1)">
       <use xlink:href="#DejaVuSans-30"/>
       <use xlink:href="#DejaVuSans-2e" transform="translate(63.623047 0)"/>
       <use xlink:href="#DejaVuSans-38" transform="translate(95.410156 0)"/>
      </g>
     </g>
    </g>
    <g id="ytick_6">
     <g id="line2d_13">
      <g>
       <use xlink:href="#m07c1a8d65d" x="47.6525" y="11.654615" style="stroke: #000000; stroke-width: 0.8"/>
      </g>
     </g>
     <g id="text_14">
      <!-- 1.0 -->
      <g transform="translate(24.749375 15.453834) scale(0.1 -0.1)">
       <use xlink:href="#DejaVuSans-31"/>
       <use xlink:href="#DejaVuSans-2e" transform="translate(63.623047 0)"/>
       <use xlink:href="#DejaVuSans-30" transform="translate(95.410156 0)"/>
      </g>
     </g>
    </g>
    <g id="text_15">
     <!-- $y$ -->
     <g transform="translate(17.809375 127.22) rotate(-90) scale(0.14 -0.14)">
      <defs>
       <path id="DejaVuSans-Oblique-79" d="M 1588 -325 
Q 1188 -997 936 -1164 
Q 684 -1331 294 -1331 
L -159 -1331 
L -63 -850 
L 269 -850 
Q 509 -850 678 -719 
Q 847 -588 1056 -206 
L 1234 128 
L 459 3500 
L 1069 3500 
L 1650 819 
L 3256 3500 
L 3859 3500 
L 1588 -325 
z
" transform="scale(0.015625)"/>
      </defs>
      <use xlink:href="#DejaVuSans-Oblique-79" transform="translate(0 0.3125)"/>
     </g>
    </g>
   </g>
   <g id="line2d_14">
    <path d="M 52.405943 11.654615 
L 57.766968 26.389208 
L 63.127994 40.459198 
L 68.489019 53.879922 
L 73.850045 66.666716 
L 79.21107 78.834919 
L 84.572096 90.399866 
L 89.337452 100.185781 
L 94.102808 109.51794 
L 98.868164 118.407114 
L 103.63352 126.864076 
L 108.398876 134.899596 
L 113.164232 142.524446 
L 117.929588 149.749399 
L 122.694944 156.585225 
L 127.4603 163.042696 
L 132.225656 169.132585 
L 136.991012 174.865662 
L 141.756368 180.252699 
L 146.521724 185.304469 
L 151.28708 190.031742 
L 156.052436 194.44529 
L 160.817792 198.555886 
L 165.583148 202.3743 
L 170.348504 205.911305 
L 175.11386 209.177671 
L 179.879216 212.184171 
L 184.644572 214.941576 
L 189.409928 217.460659 
L 194.175284 219.75219 
L 199.53631 222.071579 
L 204.897335 224.131943 
L 210.258361 225.94862 
L 215.619386 227.536946 
L 221.576081 229.052588 
L 227.532776 230.326288 
L 233.489471 231.379084 
L 240.041836 232.307127 
L 247.18987 233.076628 
L 254.933573 233.665244 
L 263.272946 234.065864 
L 272.803658 234.299867 
L 285.908387 234.384182 
L 290.078074 234.385385 
L 290.078074 234.385385 
" clip-path="url(#p60287ce7fa)" style="fill: none; stroke: #0000ff; stroke-width: 2; stroke-linecap: square"/>
   </g>
   <g id="patch_3">
    <path d="M 47.6525 238.84 
L 47.6525 7.2 
" style="fill: none; stroke: #000000; stroke-width: 0.8; stroke-linejoin: miter; stroke-linecap: square"/>
   </g>
   <g id="patch_4">
    <path d="M 337.6125 238.84 
L 337.6125 7.2 
" style="fill: none; stroke: #000000; stroke-width: 0.8; stroke-linejoin: miter; stroke-linecap: square"/>
   </g>
   <g id="patch_5">
    <path d="M 47.6525 238.84 
L 337.6125 238.84 
" style="fill: none; stroke: #000000; stroke-width: 0.8; stroke-linejoin: miter; stroke-linecap: square"/>
   </g>
   <g id="patch_6">
    <path d="M 47.6525 7.2 
L 337.6125 7.2 
" style="fill: none; stroke: #000000; stroke-width: 0.8; stroke-linejoin: miter; stroke-linecap: square"/>
   </g>
   <g id="text_16">
    <!-- (1, 0) -->
    <g transform="translate(294.831516 223.248846) scale(0.12 -0.12)">
     <defs>
      <path id="DejaVuSans-28" d="M 1984 4856 
Q 1566 4138 1362 3434 
Q 1159 2731 1159 2009 
Q 1159 1288 1364 580 
Q 1569 -128 1984 -844 
L 1484 -844 
Q 1016 -109 783 600 
Q 550 1309 550 2009 
Q 550 2706 781 3412 
Q 1013 4119 1484 4856 
L 1984 4856 
z
" transform="scale(0.015625)"/>
      <path id="DejaVuSans-2c" d="M 750 794 
L 1409 794 
L 1409 256 
L 897 -744 
L 494 -744 
L 750 256 
L 750 794 
z
" transform="scale(0.015625)"/>
      <path id="DejaVuSans-20" transform="scale(0.015625)"/>
      <path id="DejaVuSans-29" d="M 513 4856 
L 1013 4856 
Q 1481 4119 1714 3412 
Q 1947 2706 1947 2009 
Q 1947 1309 1714 600 
Q 1481 -109 1013 -844 
L 513 -844 
Q 928 -128 1133 580 
Q 1338 1288 1338 2009 
Q 1338 2731 1133 3434 
Q 928 4138 513 4856 
z
" transform="scale(0.015625)"/>
     </defs>
     <use xlink:href="#DejaVuSans-28"/>
     <use xlink:href="#DejaVuSans-31" transform="translate(39.013672 0)"/>
     <use xlink:href="#DejaVuSans-2c" transform="translate(102.636719 0)"/>
     <use xlink:href="#DejaVuSans-20" transform="translate(134.423828 0)"/>
     <use xlink:href="#DejaVuSans-30" transform="translate(166.210938 0)"/>
     <use xlink:href="#DejaVuSans-29" transform="translate(229.833984 0)"/>
    </g>
   </g>
   <g id="text_17">
    <!-- $\Omega$ -->
    <g style="fill: #00008b" transform="translate(99.940369 189.839231) scale(0.18 -0.18)">
     <defs>
      <path id="DejaVuSans-3a9" d="M 4647 556 
L 4647 0 
L 2772 0 
L 2772 556 
Q 3325 859 3634 1378 
Q 3944 1897 3944 2528 
Q 3944 3278 3531 3731 
Q 3119 4184 2444 4184 
Q 1769 4184 1355 3729 
Q 941 3275 941 2528 
Q 941 1897 1250 1378 
Q 1563 859 2119 556 
L 2119 0 
L 244 0 
L 244 556 
L 1241 556 
Q 747 991 519 1456 
Q 294 1922 294 2497 
Q 294 3491 894 4106 
Q 1491 4722 2444 4722 
Q 3391 4722 3994 4106 
Q 4594 3494 4594 2528 
Q 4594 1922 4372 1459 
Q 4150 997 3647 556 
L 4647 556 
z
" transform="scale(0.015625)"/>
     </defs>
     <use xlink:href="#DejaVuSans-3a9" transform="translate(0 0.21875)"/>
    </g>
   </g>
   <g id="line2d_15">
    <defs>
     <path id="made67583de" d="M 0 3 
C 0.795609 3 1.55874 2.683901 2.12132 2.12132 
C 2.683901 1.55874 3 0.795609 3 0 
C 3 -0.795609 2.683901 -1.55874 2.12132 -2.12132 
C 1.55874 -2.683901 0.795609 -3 0 -3 
C -0.795609 -3 -1.55874 -2.683901 -2.12132 -2.12132 
C -2.683901 -1.55874 -3 -0.795609 -3 0 
C -3 0.795609 -2.683901 1.55874 -2.12132 2.12132 
C -1.55874 2.683901 -0.795609 3 0 3 
z
" style="stroke: #000000"/>
    </defs>
    <g clip-path="url(#p60287ce7fa)">
     <use xlink:href="#made67583de" x="290.078074" y="234.385385" style="stroke: #000000"/>
    </g>
   </g>
  </g>
 </g>
 <defs>
  <clipPath id="p60287ce7fa">
   <rect x="47.6525" y="7.2" width="289.96" height="231.64"/>
  </clipPath>
 </defs>
</svg>
