<?xml version="1.0" encoding="UTF-8" standalone="no"?>
<svg
   version="1.1"
   width="161.63057mm"
   height="108.51524mm"
   id="svg33"
   sodipodi:docname="gradiente_descendente.svg"
   inkscape:version="1.4.2 (f4327f4, 2025-05-13)"
   xmlns:inkscape="http://www.inkscape.org/namespaces/inkscape"
   xmlns:sodipodi="http://sodipodi.sourceforge.net/DTD/sodipodi-0.dtd"
   xmlns="http://www.w3.org/2000/svg"
   xmlns:svg="http://www.w3.org/2000/svg">
  <sodipodi:namedview
     id="namedview33"
     pagecolor="#ffffff"
     bordercolor="#000000"
     borderopacity="0.25"
     inkscape:showpageshadow="2"
     inkscape:pageopacity="0.0"
     inkscape:pagecheckerboard="0"
     inkscape:deskcolor="#d1d1d1"
     inkscape:zoom="0.92652124"
     inkscape:cx="294.1109"
     inkscape:cy="222.8767"
     inkscape:window-width="1920"
     inkscape:window-height="1009"
     inkscape:window-x="-8"
     inkscape:window-y="-8"
     inkscape:window-maximized="1"
     inkscape:current-layer="svg33"
     inkscape:document-units="mm" />
  <defs
     id="defs1">
    <clipPath
       id="JunxunILqTtL">
      <path
         fill="none"
         stroke="none"
         d="M 0,0 H 1397 V 871 H 0 Z"
         id="path1" />
    </clipPath>
    <clipPath
       clipPathUnits="userSpaceOnUse"
       id="clipPath33">
      <rect
         style="fill:#000000"
         id="rect34"
         width="610.88721"
         height="410.13632"
         x="404.73978"
         y="298.96777" />
    </clipPath>
  </defs>
  <g
     clip-path="url(#clipPath33)"
     id="g33"
     transform="translate(-404.73978,-298.96777)">
    <g
       id="g32">
      <rect
         fill="#ffffff"
         stroke="none"
         x="0"
         y="0"
         width="1397"
         height="871"
         fill-opacity="1"
         id="rect1" />
      <path
         fill="none"
         stroke="#0000ff"
         paint-order="fill stroke markers"
         d="M 939.4683,404.18681 C 923.79839,369.45892 818.56688,351.74407 704.42713,364.61959 590.28738,377.49511 510.4618,416.0853 526.1317,450.81319 c 15.66991,34.72789 120.90142,52.44274 235.04117,39.56722 114.13975,-12.87552 193.96533,-51.46571 178.29543,-86.1936 z"
         stroke-opacity="0.25098"
         stroke-linejoin="round"
         stroke-miterlimit="10"
         stroke-width="2"
         stroke-dasharray="2, 3"
         id="path2" />
      <path
         fill="none"
         stroke="#0000ff"
         paint-order="fill stroke markers"
         d="M 1206.7457,415.57638 C 1193.4338,349.52895 978.95625,306.25017 727.6967,318.91054 476.43715,331.5709 283.54245,395.37618 296.85434,461.42362 c 13.31188,66.04743 227.78941,109.32621 479.04896,96.66584 251.2596,-12.66036 444.1543,-76.46564 430.8424,-142.51308 z"
         stroke-opacity="0.25098"
         stroke-linejoin="round"
         stroke-miterlimit="10"
         stroke-width="2"
         stroke-dasharray="2, 3"
         id="path3" />
      <path
         fill="none"
         stroke="#0000ff"
         paint-order="fill stroke markers"
         d="M 1384.8558,385.80495 C 1354.1668,292.13211 1049.4414,239.11608 704.23264,267.39032 359.02385,295.66457 104.05518,394.52221 134.74419,488.19505 c 30.689,93.67284 335.41438,146.68887 680.62317,118.41463 345.20884,-28.27425 600.17744,-127.13189 569.48844,-220.80473 z"
         stroke-opacity="0.25098"
         stroke-linejoin="round"
         stroke-miterlimit="10"
         stroke-width="2"
         stroke-dasharray="2, 3"
         id="path4" />
      <path
         fill="none"
         stroke="#0000ff"
         paint-order="fill stroke markers"
         d="M 1438.8332,377.88721 C 1389.954,244.284 1041.3911,164.23377 660.29634,199.09 279.20154,233.94623 9.8875966,370.50959 58.766818,504.11279 107.64604,637.716 456.20886,717.76623 837.30366,682.91 1218.3985,648.05377 1487.7124,511.49041 1438.8332,377.88721 Z"
         stroke-opacity="0.25098"
         stroke-linejoin="round"
         stroke-miterlimit="10"
         stroke-width="2"
         stroke-dasharray="2, 3"
         id="path5" />
      <path
         fill="#cc0000"
         stroke="none"
         paint-order="stroke fill markers"
         d="m 578,467 -13.71118,20.59134 3.76771,1.34327 v 0 l -41.14038,115.39376 c -0.37094,1.04042 0.17179,2.18455 1.21222,2.55548 0.22197,0.0791 0.44867,0.11669 0.67158,0.11669 0.82185,0 1.59211,-0.51046 1.8839,-1.32891 l 41.14038,-115.39375 v 0 l 3.76771,1.34327 z"
         fill-opacity="1"
         id="path6" />
      <path
         fill="#6600cc"
         stroke="none"
         paint-order="stroke fill markers"
         d="m 762.8,425 c 0,3.31371 -2.68629,6 -6,6 -3.31371,0 -6,-2.68629 -6,-6 0,-3.31371 2.68629,-6 6,-6 3.31371,0 6,2.68629 6,6 z"
         fill-opacity="1"
         id="path7" />
      <path
         fill="none"
         stroke="#000000"
         paint-order="fill stroke markers"
         d="m 762.8,425 c 0,3.31371 -2.68629,6 -6,6 -3.31371,0 -6,-2.68629 -6,-6 0,-3.31371 2.68629,-6 6,-6 3.31371,0 6,2.68629 6,6 z"
         stroke-opacity="1"
         stroke-linecap="round"
         stroke-linejoin="round"
         stroke-miterlimit="10"
         id="path8" />
      <path
         fill="#000000"
         stroke="none"
         paint-order="stroke fill markers"
         d="m 534.8,605 c 0,3.31371 -2.68629,6 -6,6 -3.31371,0 -6,-2.68629 -6,-6 0,-3.31371 2.68629,-6 6,-6 3.31371,0 6,2.68629 6,6 z"
         fill-opacity="1"
         id="path9" />
      <path
         fill="none"
         stroke="#000000"
         paint-order="fill stroke markers"
         d="m 534.8,605 c 0,3.31371 -2.68629,6 -6,6 -3.31371,0 -6,-2.68629 -6,-6 0,-3.31371 2.68629,-6 6,-6 3.31371,0 6,2.68629 6,6 z"
         stroke-opacity="1"
         stroke-linecap="round"
         stroke-linejoin="round"
         stroke-miterlimit="10"
         id="path10" />
      <path
         fill="#006400"
         stroke="none"
         paint-order="stroke fill markers"
         d="m 562,528 c 0,3.31371 -2.68629,6 -6,6 -3.31371,0 -6,-2.68629 -6,-6 0,-3.31371 2.68629,-6 6,-6 3.31371,0 6,2.68629 6,6 z"
         fill-opacity="1"
         id="path11" />
      <path
         fill="none"
         stroke="#000000"
         paint-order="fill stroke markers"
         d="m 562,528 c 0,3.31371 -2.68629,6 -6,6 -3.31371,0 -6,-2.68629 -6,-6 0,-3.31371 2.68629,-6 6,-6 3.31371,0 6,2.68629 6,6 z"
         stroke-opacity="1"
         stroke-linecap="round"
         stroke-linejoin="round"
         stroke-miterlimit="10"
         id="path12" />
      <g
         transform="scale(25)"
         id="g15">
        <g
           transform="translate(29.44,16.543292)"
           id="g13">
          <path
             fill="#6600cc"
             stroke="none"
             paint-order="stroke fill markers"
             d="m 0.346,-0.246 0.168,0.199 H 0.585 V 0 Q 0.486,-0.003 0.475,-0.003 0.433,-0.003 0.355,0 v -0.047 h 0.039 l -0.11,-0.13 -0.097,0.109 q -0.007,0.008 -0.007,0.01 0,0.011 0.037,0.011 V 0 Q 0.157,-0.003 0.114,-0.003 0.074,-0.003 0.022,0 v -0.047 q 0.031,0 0.0455,-5e-4 0.0145,-5e-4 0.031,-0.005 Q 0.115,-0.057 0.123,-0.066 L 0.254,-0.213 0.098,-0.397 H 0.027 v -0.047 q 0.099,0.003 0.11,0.003 0.043,0 0.121,-0.003 v 0.047 H 0.218 L 0.316,-0.282 0.4,-0.376 0.408,-0.388 Q 0.393,-0.397 0.37,-0.397 v -0.047 q 0.084,0.003 0.103,0.003 0.039,0 0.092,-0.003 v 0.047 q -0.04,0 -0.061,0.0025 -0.021,0.0025 -0.027,0.006 -0.006,0.0035 -0.014,0.0125 z"
             id="path13" />
        </g>
        <g
           transform="matrix(0.7,0,0,0.7,30.047,16.1304)"
           id="g14">
          <path
             fill="#6600cc"
             stroke="none"
             paint-order="stroke fill markers"
             d="M 0.531,-0.286 0.369,-0.2 0.437,-0.062 q 0.014,0.027 0.02,0.045 Q 0.454,-0.003 0.44,0 0.426,-0.005 0.417,-0.014 L 0.354,-0.075 Q 0.298,-0.131 0.287,-0.14 0.286,-0.139 0.2825,-0.136 0.279,-0.133 0.2685,-0.123 0.258,-0.113 0.24,-0.096 L 0.187,-0.043 Q 0.15,-0.006 0.144,-0.003 0.143,-0.002 0.139,-0.001 0.135,0 0.134,0 0.12,-0.003 0.117,-0.017 0.125,-0.037 0.136,-0.059 L 0.205,-0.2 Q 0.165,-0.222 0.049,-0.282 0.032,-0.292 0.028,-0.2955 0.024,-0.299 0.024,-0.307 q 0,-0.008 0.0055,-0.013 0.0055,-0.005 0.0125,-0.005 0.005,0 0.015,0.002 l 0.179,0.026 0.031,-0.178 q 0.004,-0.028 0.02,-0.028 0.007,0 0.011,0.004 0.004,0.004 0.0055,0.009 0.0015,0.005 0.0035,0.016 l 0.031,0.177 q 0.003,0 0.033,-0.005 l 0.161,-0.023 q 0.007,0 0.0125,0.005 0.0055,0.005 0.0055,0.013 0,0.011 -0.019,0.021 z"
             id="path14" />
        </g>
      </g>
      <g
         transform="scale(25)"
         id="g20">
        <g
           transform="translate(22.52,21.884)"
           id="g16">
          <path
             fill="#006400"
             stroke="none"
             paint-order="stroke fill markers"
             d="m 0.346,-0.246 0.168,0.199 H 0.585 V 0 Q 0.486,-0.003 0.475,-0.003 0.433,-0.003 0.355,0 v -0.047 h 0.039 l -0.11,-0.13 -0.097,0.109 q -0.007,0.008 -0.007,0.01 0,0.011 0.037,0.011 V 0 Q 0.157,-0.003 0.114,-0.003 0.074,-0.003 0.022,0 v -0.047 q 0.031,0 0.0455,-5e-4 0.0145,-5e-4 0.031,-0.005 Q 0.115,-0.057 0.123,-0.066 L 0.254,-0.213 0.098,-0.397 H 0.027 v -0.047 q 0.099,0.003 0.11,0.003 0.043,0 0.121,-0.003 v 0.047 H 0.218 L 0.316,-0.282 0.4,-0.376 0.408,-0.388 Q 0.393,-0.397 0.37,-0.397 v -0.047 q 0.084,0.003 0.103,0.003 0.039,0 0.092,-0.003 v 0.047 q -0.04,0 -0.061,0.0025 -0.021,0.0025 -0.027,0.006 -0.006,0.0035 -0.014,0.0125 z"
             id="path15" />
        </g>
        <g
           transform="matrix(0.7,0,0,0.7,23.127,22.034)"
           id="g17">
          <path
             fill="#006400"
             stroke="none"
             paint-order="stroke fill markers"
             d="m 0.217,-0.397 v 0.276 q 0,0.087 0.058,0.087 0.024,0 0.042,-0.0225 0.018,-0.0225 0.018,-0.0695 v -0.051 h 0.047 v 0.053 q 0,0.056 -0.0325,0.093 Q 0.317,0.006 0.261,0.006 0.103,0.006 0.103,-0.123 V -0.397 H 0.021 V -0.433 Q 0.091,-0.435 0.13,-0.4945 0.169,-0.554 0.17,-0.635 h 0.047 v 0.191 h 0.146 v 0.047 z"
             id="path16" />
        </g>
        <g
           transform="matrix(0.7,0,0,0.7,23.4399,22.034)"
           id="g18">
          <path
             fill="#006400"
             stroke="none"
             paint-order="stroke fill markers"
             d="m 0.477,-0.22 v 0.31 q 0,0.042 -0.031,0.042 -0.03,0 -0.03,-0.042 V -0.22 H 0.107 q -0.043,0 -0.043,-0.03 0,-0.031 0.043,-0.031 h 0.309 v -0.31 q 0,-0.042 0.031,-0.042 0.03,0 0.03,0.042 v 0.31 h 0.309 q 0.043,0 0.043,0.031 0,0.03 -0.043,0.03 z"
             id="path17" />
        </g>
        <g
           transform="matrix(0.7,0,0,0.7,24.0657,22.034)"
           id="g19">
          <path
             fill="#006400"
             stroke="none"
             paint-order="stroke fill markers"
             d="m 0.354,-0.623 v 0.576 h 0.14 V 0 Q 0.45,-0.003 0.295,-0.003 0.14,-0.003 0.096,0 v -0.047 h 0.139 v -0.517 q -0.062,0.02 -0.13,0.02 h -0.02 v -0.047 h 0.02 q 0.124,0 0.201,-0.057 0.009,-0.007 0.022,-0.007 0.018,0 0.022,0.0065 0.004,0.0065 0.004,0.0255 z"
             id="path18" />
        </g>
      </g>
      <g
         transform="scale(25)"
         id="g23">
        <g
           transform="translate(20.08,25.244)"
           id="g21">
          <path
             fill="#000000"
             stroke="none"
             paint-order="stroke fill markers"
             d="m 0.346,-0.246 0.168,0.199 H 0.585 V 0 Q 0.486,-0.003 0.475,-0.003 0.433,-0.003 0.355,0 v -0.047 h 0.039 l -0.11,-0.13 -0.097,0.109 q -0.007,0.008 -0.007,0.01 0,0.011 0.037,0.011 V 0 Q 0.157,-0.003 0.114,-0.003 0.074,-0.003 0.022,0 v -0.047 q 0.031,0 0.0455,-5e-4 0.0145,-5e-4 0.031,-0.005 Q 0.115,-0.057 0.123,-0.066 L 0.254,-0.213 0.098,-0.397 H 0.027 v -0.047 q 0.099,0.003 0.11,0.003 0.043,0 0.121,-0.003 v 0.047 H 0.218 L 0.316,-0.282 0.4,-0.376 0.408,-0.388 Q 0.393,-0.397 0.37,-0.397 v -0.047 q 0.084,0.003 0.103,0.003 0.039,0 0.092,-0.003 v 0.047 q -0.04,0 -0.061,0.0025 -0.021,0.0025 -0.027,0.006 -0.006,0.0035 -0.014,0.0125 z"
             id="path20" />
        </g>
        <g
           transform="matrix(0.7,0,0,0.7,20.687,25.394)"
           id="g22">
          <path
             fill="#000000"
             stroke="none"
             paint-order="stroke fill markers"
             d="m 0.217,-0.397 v 0.276 q 0,0.087 0.058,0.087 0.024,0 0.042,-0.0225 0.018,-0.0225 0.018,-0.0695 v -0.051 h 0.047 v 0.053 q 0,0.056 -0.0325,0.093 Q 0.317,0.006 0.261,0.006 0.103,0.006 0.103,-0.123 V -0.397 H 0.021 V -0.433 Q 0.091,-0.435 0.13,-0.4945 0.169,-0.554 0.17,-0.635 h 0.047 v 0.191 h 0.146 v 0.047 z"
             id="path21" />
        </g>
      </g>
      <g
         transform="scale(19)"
         id="g31">
        <g
           transform="translate(30.263158,26.75)"
           id="g24">
          <path
             fill="#cc0000"
             stroke="none"
             paint-order="stroke fill markers"
             d="M 0.661,-0.23 H 0.116 q -0.032,0 -0.033,-0.02 0,-0.02 0.033,-0.02 h 0.545 q 0.032,0 0.033,0.02 0,0.02 -0.033,0.02 z"
             id="path23" />
        </g>
        <g
           transform="translate(31.041158,26.75)"
           id="g25">
          <path
             fill="#cc0000"
             stroke="none"
             paint-order="stroke fill markers"
             d="M 0.78,-0.663 0.442,0.015 Q 0.434,0.03 0.426,0.032 0.422,0.033 0.416,0.033 0.4,0.033 0.394,0.022 0.393,0.02 0.39,0.015 L 0.052,-0.663 Q 0.047,-0.672 0.047,-0.675 0.053,-0.683 0.069,-0.683 h 0.694 q 0.021,0 0.022,0.008 0,0.003 -0.005,0.012 m -0.61,0.051 0.275,0.551 H 0.446 L 0.72,-0.612 Z"
             id="path24" />
        </g>
        <g
           transform="translate(31.874158,26.75)"
           id="g26">
          <path
             fill="#cc0000"
             stroke="none"
             paint-order="stroke fill markers"
             d="m 0.367,-0.4 v 0 l -0.06,0.317 Q 0.298,-0.021 0.271,0.059 0.261,0.088 0.251,0.108 0.216,0.182 0.164,0.2 0.151,0.205 0.138,0.205 0.088,0.205 0.064,0.171 0.053,0.156 0.053,0.136 q 0,-0.04 0.034,-0.055 0.01,-0.005 0.021,-0.005 0.029,0 0.036,0.025 0.001,0.005 0.001,0.01 0,0.034 -0.03,0.048 -0.011,0.005 -0.025,0.006 0.019,0.018 0.048,0.018 0.044,0 0.069,-0.098 0.005,-0.023 0.012,-0.06 L 0.225,-0.005 0.3,-0.4 H 0.234 q -0.025,0 -0.027,-0.008 H 0.206 v -0.004 q 0,-0.017 0.017,-0.019 v 0 h 0.013 0.069 q 0.024,-0.125 0.033,-0.157 0.03,-0.1 0.106,-0.115 0.011,-0.002 0.021,-0.002 0.052,0 0.076,0.034 v 0 q 0.011,0.015 0.011,0.035 0,0.04 -0.034,0.055 -0.01,0.005 -0.021,0.005 -0.029,0 -0.036,-0.025 -0.001,-0.005 -0.001,-0.01 0,-0.031 0.028,-0.046 0.011,-0.007 0.026,-0.008 -0.019,-0.018 -0.049,-0.018 -0.031,0 -0.047,0.034 -0.007,0.014 -0.024,0.104 l -0.021,0.114 h 0.083 q 0.025,0 0.027,0.011 0,0.018 -0.016,0.02 H 0.466 0.453 Z"
             id="path25" />
        </g>
        <g
           transform="translate(32.472158,26.75)"
           id="g27">
          <path
             fill="#cc0000"
             stroke="none"
             paint-order="stroke fill markers"
             d="m 0.331,0.24 v 0 q 0,0.01 -0.01,0.01 Q 0.309,0.25 0.268,0.209 0.206,0.147 0.165,0.062 0.099,-0.074 0.099,-0.25 q 0,-0.169 0.063,-0.305 0.052,-0.111 0.132,-0.178 0.021,-0.017 0.027,-0.017 0.01,0 0.01,0.01 0,0.005 -0.013,0.017 -0.161,0.164 -0.161,0.473 0,0.308 0.157,0.468 0.017,0.017 0.017,0.022 z"
             id="path26" />
        </g>
        <g
           transform="translate(32.861158,26.75)"
           id="g28">
          <path
             fill="#cc0000"
             stroke="none"
             paint-order="stroke fill markers"
             d="m 0.346,-0.246 0.168,0.199 H 0.585 V 0 Q 0.486,-0.003 0.475,-0.003 0.433,-0.003 0.355,0 v -0.047 h 0.039 l -0.11,-0.13 -0.097,0.109 q -0.007,0.008 -0.007,0.01 0,0.011 0.037,0.011 V 0 Q 0.157,-0.003 0.114,-0.003 0.074,-0.003 0.022,0 v -0.047 q 0.031,0 0.0455,-5e-4 0.0145,-5e-4 0.031,-0.005 Q 0.115,-0.057 0.123,-0.066 L 0.254,-0.213 0.098,-0.397 H 0.027 v -0.047 q 0.099,0.003 0.11,0.003 0.043,0 0.121,-0.003 v 0.047 H 0.218 L 0.316,-0.282 0.4,-0.376 0.408,-0.388 Q 0.393,-0.397 0.37,-0.397 v -0.047 q 0.084,0.003 0.103,0.003 0.039,0 0.092,-0.003 v 0.047 q -0.04,0 -0.061,0.0025 -0.021,0.0025 -0.027,0.006 -0.006,0.0035 -0.014,0.0125 z"
             id="path27" />
        </g>
        <g
           transform="matrix(0.7,0,0,0.7,33.468158,26.9)"
           id="g29">
          <path
             fill="#cc0000"
             stroke="none"
             paint-order="stroke fill markers"
             d="m 0.217,-0.397 v 0.276 q 0,0.087 0.058,0.087 0.024,0 0.042,-0.0225 0.018,-0.0225 0.018,-0.0695 v -0.051 h 0.047 v 0.053 q 0,0.056 -0.0325,0.093 Q 0.317,0.006 0.261,0.006 0.103,0.006 0.103,-0.123 V -0.397 H 0.021 V -0.433 Q 0.091,-0.435 0.13,-0.4945 0.169,-0.554 0.17,-0.635 h 0.047 v 0.191 h 0.146 v 0.047 z"
             id="path28" />
        </g>
        <g
           transform="translate(33.781058,26.75)"
           id="g30">
          <path
             fill="#cc0000"
             stroke="none"
             paint-order="stroke fill markers"
             d="m 0.289,-0.25 v 0 q 0,0.169 -0.063,0.305 Q 0.174,0.166 0.094,0.233 0.073,0.25 0.067,0.25 q -0.01,0 -0.01,-0.01 0,-0.005 0.013,-0.017 0.161,-0.164 0.161,-0.473 0,-0.305 -0.15,-0.462 L 0.076,-0.717 Q 0.057,-0.735 0.057,-0.74 q 0,-0.01 0.01,-0.01 0.012,0 0.053,0.041 0.062,0.062 0.103,0.147 0.066,0.136 0.066,0.312 z"
             id="path29" />
        </g>
      </g>
    </g>
  </g>
</svg>
