<?xml version="1.0" encoding="UTF-8" standalone="no"?>
<svg
   version="1.1"
   width="168.48418mm"
   height="132.50281mm"
   id="svg42"
   sodipodi:docname="metodo_secante.svg"
   inkscape:version="1.4.2 (f4327f4, 2025-05-13)"
   xmlns:inkscape="http://www.inkscape.org/namespaces/inkscape"
   xmlns:sodipodi="http://sodipodi.sourceforge.net/DTD/sodipodi-0.dtd"
   xmlns="http://www.w3.org/2000/svg"
   xmlns:svg="http://www.w3.org/2000/svg">
  <sodipodi:namedview
     id="namedview42"
     pagecolor="#ffffff"
     bordercolor="#000000"
     borderopacity="0.25"
     inkscape:showpageshadow="2"
     inkscape:pageopacity="0.0"
     inkscape:pagecheckerboard="0"
     inkscape:deskcolor="#d1d1d1"
     inkscape:zoom="0.92652124"
     inkscape:cx="252.01797"
     inkscape:cy="304.90397"
     inkscape:window-width="1920"
     inkscape:window-height="1009"
     inkscape:window-x="-8"
     inkscape:window-y="-8"
     inkscape:window-maximized="1"
     inkscape:current-layer="svg42"
     inkscape:document-units="mm" />
  <defs
     id="defs1">
    <clipPath
       id="zeIvtKRRpcnE">
      <path
         fill="none"
         stroke="none"
         d="M 0,0 H 1397 V 871 H 0 Z"
         id="path1" />
    </clipPath>
    <clipPath
       clipPathUnits="userSpaceOnUse"
       id="clipPath42">
      <rect
         style="fill:#000000"
         id="rect43"
         width="636.79059"
         height="500.798"
         x="302.20569"
         y="209.38538" />
    </clipPath>
  </defs>
  <g
     clip-path="url(#clipPath42)"
     id="g42"
     transform="translate(-302.20569,-209.38538)">
    <g
       id="g41">
      <rect
         fill="#ffffff"
         stroke="none"
         x="0"
         y="0"
         width="1397"
         height="871"
         fill-opacity="1"
         id="rect1" />
      <path
         fill="none"
         stroke="#252525"
         paint-order="fill stroke markers"
         d="m 354.5,2.5 v 869"
         stroke-opacity="1"
         stroke-miterlimit="10"
         id="path2" />
      <path
         fill="none"
         stroke="#252525"
         paint-order="fill stroke markers"
         d="m 354.5,1.5 -4,4"
         stroke-opacity="1"
         stroke-miterlimit="10"
         id="path3" />
      <path
         fill="none"
         stroke="#252525"
         paint-order="fill stroke markers"
         d="m 354.5,1.5 4,4"
         stroke-opacity="1"
         stroke-miterlimit="10"
         id="path4" />
      <path
         fill="none"
         stroke="#252525"
         paint-order="fill stroke markers"
         d="m 0.5,642.5 h 1395"
         stroke-opacity="1"
         stroke-miterlimit="10"
         id="path5" />
      <path
         fill="none"
         stroke="#252525"
         paint-order="fill stroke markers"
         d="m 1396.5,642.5 -4,-4"
         stroke-opacity="1"
         stroke-miterlimit="10"
         id="path6" />
      <path
         fill="none"
         stroke="#252525"
         paint-order="fill stroke markers"
         d="m 1396.5,642.5 -4,4"
         stroke-opacity="1"
         stroke-miterlimit="10"
         id="path7" />
      <path
         fill="none"
         stroke="#003399"
         paint-order="fill stroke markers"
         d="m 215.55273,-6.3476371 2.72852,5.70757051 2.72852,5.65357999 2.72851,5.6003516 2.72852,5.547873 2.72851,5.496126 2.72852,5.445101 2.72851,5.394784 2.72852,5.34516 2.72851,5.296219 2.72852,5.247945 2.72852,5.20033 2.72851,5.153359 2.72852,5.107021 2.72851,5.061307 2.72852,5.016203 5.45703,9.899484 5.45703,9.726135 5.45703,9.557298 5.45703,9.39282 5.45703,9.23256 5.45704,9.07635 5.45703,8.92409 5.45703,8.77561 5.45703,8.63082 5.45703,8.48958 5.45703,8.35178 5.45703,8.2173 5.45703,8.08605 5.45704,7.95792 5.45703,7.83281 5.45703,7.71063 5.45703,7.59128 5.45703,7.47468 5.45703,7.36076 5.45703,7.2494 5.45703,7.14057 5.45704,7.03416 5.45703,6.93012 5.45703,6.82837 5.45703,6.72883 5.45703,6.63147 5.45703,6.5362 5.45703,6.44297 5.45703,6.35171 5.45704,6.26239 5.45703,6.17494 5.45703,6.0893 5.45703,6.00543 5.45703,5.92329 5.45703,5.84282 5.45703,5.76397 5.45704,5.68671 5.45703,5.611 5.45703,5.53679 5.45703,5.46404 5.45703,5.39271 5.45703,5.32278 5.45703,5.25419 5.45703,5.18692 5.45703,5.12093 5.45704,5.0562 5.45703,4.99269 5.45703,4.93036 5.45703,4.8692 5.45703,4.80916 5.45703,4.75023 5.45703,4.69238 5.45703,4.63557 5.45704,4.57979 5.45703,4.52502 5.45703,4.47122 5.45703,4.41837 5.45703,4.36645 5.45703,4.31545 5.45703,4.26533 5.45703,4.21609 5.45704,4.16768 5.45703,4.12011 5.45703,4.07334 5.45703,4.02738 5.45703,3.98218 5.45703,3.93774 5.45703,3.89403 5.45703,3.85106 5.45704,3.8088 5.45703,3.76721 5.45703,3.72631 5.45703,3.68608 5.45703,3.64648 5.45703,3.60753 5.45703,3.5692 5.45704,3.53147 5.45703,3.49434 5.45703,3.45779 5.45703,3.42181 5.45703,3.38639 5.45703,3.35152 5.45703,3.31718 5.45703,3.28337 5.45703,3.25007 5.45704,3.21728 5.45703,3.18498 5.45703,3.15316 5.45703,3.12182 5.45703,3.09095 5.45703,3.06052 5.45703,3.03056 5.45703,3.00101 5.45704,2.97191 5.45703,2.94323 5.45703,2.91495 5.45703,2.88709 5.45703,2.85962 5.45703,2.83255 5.45703,2.80584 5.45703,2.77953 5.45704,2.75358 5.45703,2.72799 5.45703,2.70275 5.45703,2.67787 5.45703,2.65332 5.45703,2.62912 5.45703,2.60524 5.45704,2.58169 5.45703,2.55845 5.45703,2.53552 5.45703,2.51291 5.45703,2.49059 5.45703,2.46858 5.45703,2.44684 5.45703,2.4254 5.45703,2.40424 5.45704,2.38335 5.45703,2.36274 5.45703,2.34238 5.45703,2.3223 5.45703,2.30247 5.45703,2.28289 5.45703,2.26356 5.45704,2.24448 5.45703,2.22563 5.45703,2.20702 5.45703,2.18865 5.45703,2.1705 5.45703,2.15258 5.45703,2.13488 5.45703,2.1174 5.45703,2.10012 5.45704,2.08307 5.45703,2.06621 5.45703,2.04957 5.45708,2.03311 5.457,2.01687 5.457,2.00081 5.457,1.98494 5.4571,1.96927 5.457,1.95377 5.457,1.93846 5.4571,1.92333 5.457,1.90837 5.457,1.8936 5.4571,1.87898 5.457,1.86454 5.457,1.85026 5.4571,1.83616 5.457,1.8222 5.457,1.80841 5.4571,1.79477 5.457,1.78128 5.457,1.76796 5.457,1.75477 5.4571,1.74173 5.457,1.72884 5.457,1.7161 5.4571,1.70349 5.457,1.69101 5.457,1.67868 5.4571,1.66649 5.457,1.65441 5.457,1.64248 5.4571,1.63068 5.457,1.61899 5.457,1.60744 5.4571,1.596 5.457,1.5847 5.457,1.5735 5.457,1.56243 5.4571,1.55148 5.457,1.54063 5.457,1.52991 5.4571,1.51929 5.457,1.50878 5.457,1.49839 5.4571,1.48809 5.457,1.47791 5.457,1.46783 5.4571,1.45785 5.457,1.44798 5.457,1.43819 5.4571,1.42852 5.457,1.41894 5.457,1.40946 5.457,1.40006 5.4571,1.39077 5.457,1.38157 5.457,1.37245 5.4571,1.36343 5.457,1.3545 5.457,1.34565 5.4571,1.33688 5.457,1.32822 5.457,1.31962 5.4571,1.31111 5.457,1.30269 5.457,1.29435 5.4571,1.28608 5.457,1.27789 5.457,1.26979 5.457,1.26175 5.4571,1.2538 5.457,1.24592 5.457,1.23811 5.4571,1.23038 5.457,1.22272"
         stroke-opacity="0.698039"
         stroke-linecap="round"
         stroke-linejoin="round"
         stroke-miterlimit="10"
         stroke-width="2.5"
         id="path8" />
      <text
         fill="#003399"
         stroke="none"
         font-family="geogebra-sans-serif, sans-serif"
         font-size="16px"
         font-style="normal"
         font-weight="normal"
         text-decoration="normal"
         x="221"
         y="24"
         text-anchor="start"
         dominant-baseline="alphabetic"
         fill-opacity="1"
         id="text8">f</text>
      <path
         fill="none"
         stroke="#993300"
         paint-order="fill stroke markers"
         d="M 27.545125,-5 1128.7951,876"
         stroke-opacity="0.698039"
         stroke-linecap="round"
         stroke-linejoin="round"
         stroke-miterlimit="10"
         stroke-width="1.5"
         id="path9" />
      <path
         fill="none"
         stroke="#000000"
         paint-order="fill stroke markers"
         d="m 753.512,642.3235 v -66.55"
         stroke-opacity="0.698039"
         stroke-linejoin="round"
         stroke-miterlimit="10"
         stroke-width="2"
         stroke-dasharray="2, 3"
         id="path10" />
      <path
         fill="none"
         stroke="#000000"
         paint-order="fill stroke markers"
         d="m 420.762,642.3235 v -332.75"
         stroke-opacity="0.698039"
         stroke-linejoin="round"
         stroke-miterlimit="10"
         stroke-width="2"
         stroke-dasharray="2, 3"
         id="path11" />
      <path
         fill="#993300"
         stroke="none"
         paint-order="stroke fill markers"
         d="m 424.762,309.5735 c 0,2.20914 -1.79086,4 -4,4 -2.20914,0 -4,-1.79086 -4,-4 0,-2.20914 1.79086,-4 4,-4 2.20914,0 4,1.79086 4,4 z"
         fill-opacity="1"
         id="path12" />
      <path
         fill="none"
         stroke="#000000"
         paint-order="fill stroke markers"
         d="m 424.762,309.5735 c 0,2.20914 -1.79086,4 -4,4 -2.20914,0 -4,-1.79086 -4,-4 0,-2.20914 1.79086,-4 4,-4 2.20914,0 4,1.79086 4,4 z"
         stroke-opacity="1"
         stroke-linecap="round"
         stroke-linejoin="round"
         stroke-miterlimit="10"
         id="path13" />
      <path
         fill="#993300"
         stroke="none"
         paint-order="stroke fill markers"
         d="m 757.512,575.7735 c 0,2.20914 -1.79086,4 -4,4 -2.20914,0 -4,-1.79086 -4,-4 0,-2.20914 1.79086,-4 4,-4 2.20914,0 4,1.79086 4,4 z"
         fill-opacity="1"
         id="path14" />
      <path
         fill="none"
         stroke="#000000"
         paint-order="fill stroke markers"
         d="m 757.512,575.7735 c 0,2.20914 -1.79086,4 -4,4 -2.20914,0 -4,-1.79086 -4,-4 0,-2.20914 1.79086,-4 4,-4 2.20914,0 4,1.79086 4,4 z"
         stroke-opacity="1"
         stroke-linecap="round"
         stroke-linejoin="round"
         stroke-miterlimit="10"
         id="path15" />
      <path
         fill="#006633"
         stroke="none"
         paint-order="stroke fill markers"
         d="m 841.6995,642.3235 c 0,2.76142 -2.23858,5 -5,5 -2.76142,0 -5,-2.23858 -5,-5 0,-2.76142 2.23858,-5 5,-5 2.76142,0 5,2.23858 5,5 z"
         fill-opacity="1"
         id="path16" />
      <path
         fill="none"
         stroke="#000000"
         paint-order="fill stroke markers"
         d="m 841.6995,642.3235 c 0,2.76142 -2.23858,5 -5,5 -2.76142,0 -5,-2.23858 -5,-5 0,-2.76142 2.23858,-5 5,-5 2.76142,0 5,2.23858 5,5 z"
         stroke-opacity="1"
         stroke-linecap="round"
         stroke-linejoin="round"
         stroke-miterlimit="10"
         id="path17" />
      <path
         fill="#000000"
         stroke="none"
         paint-order="stroke fill markers"
         d="m 425.762,642.3235 c 0,2.76142 -2.23858,5 -5,5 -2.76142,0 -5,-2.23858 -5,-5 0,-2.76142 2.23858,-5 5,-5 2.76142,0 5,2.23858 5,5 z"
         fill-opacity="1"
         id="path18" />
      <path
         fill="none"
         stroke="#000000"
         paint-order="fill stroke markers"
         d="m 425.762,642.3235 c 0,2.76142 -2.23858,5 -5,5 -2.76142,0 -5,-2.23858 -5,-5 0,-2.76142 2.23858,-5 5,-5 2.76142,0 5,2.23858 5,5 z"
         stroke-opacity="1"
         stroke-linecap="round"
         stroke-linejoin="round"
         stroke-miterlimit="10"
         id="path19" />
      <path
         fill="#000000"
         stroke="none"
         paint-order="stroke fill markers"
         d="m 758.512,642.3235 c 0,2.76142 -2.23858,5 -5,5 -2.76142,0 -5,-2.23858 -5,-5 0,-2.76142 2.23858,-5 5,-5 2.76142,0 5,2.23858 5,5 z"
         fill-opacity="1"
         id="path20" />
      <path
         fill="none"
         stroke="#000000"
         paint-order="fill stroke markers"
         d="m 758.512,642.3235 c 0,2.76142 -2.23858,5 -5,5 -2.76142,0 -5,-2.23858 -5,-5 0,-2.76142 2.23858,-5 5,-5 2.76142,0 5,2.23858 5,5 z"
         stroke-opacity="1"
         stroke-linecap="round"
         stroke-linejoin="round"
         stroke-miterlimit="10"
         id="path21" />
      <g
         transform="scale(25)"
         id="g26">
        <g
           transform="translate(16,26.711)"
           id="g22">
          <path
             fill="#000000"
             stroke="none"
             paint-order="stroke fill markers"
             d="M 0.334,-0.302 0.3,-0.165 q -0.017,0.068 -0.017,0.088 0,0.052 0.037,0.063 0.008,0.003 0.018,0.003 0.05,0 0.091,-0.05 0.027,-0.032 0.042,-0.081 0.003,-0.011 0.013,-0.011 0.012,0 0.012,0.01 0,0.025 -0.031,0.072 Q 0.411,0.011 0.336,0.011 0.268,0.011 0.237,-0.046 0.231,-0.055 0.228,-0.065 0.204,-0.017 0.162,0.002 0.143,0.011 0.123,0.011 q -0.06,0 -0.084,-0.035 -0.01,-0.013 -0.01,-0.031 0,-0.037 0.032,-0.052 0.011,-0.006 0.023,-0.006 0.03,0 0.036,0.025 0.001,0.005 0.001,0.01 0,0.034 -0.034,0.05 -0.006,0.003 -0.013,0.004 0.021,0.013 0.05,0.013 0.053,0 0.084,-0.071 0.006,-0.015 0.011,-0.033 0.054,-0.204 0.054,-0.238 -0.006,-0.062 -0.054,-0.067 -0.052,0 -0.095,0.053 v 0.001 q 0,0.001 -0.001,0.001 -0.015,0.02 -0.027,0.046 -0.005,0.012 -0.009,0.024 l -0.002,0.006 q -0.002,0.011 -0.013,0.011 -0.012,0 -0.012,-0.01 0,-0.025 0.032,-0.072 0.054,-0.082 0.129,-0.082 0.077,0 0.108,0.076 0.032,-0.062 0.085,-0.074 0.01,-0.002 0.02,-0.002 0.059,0 0.083,0.033 0.01,0.014 0.01,0.033 0,0.041 -0.037,0.055 -0.009,0.003 -0.017,0.003 -0.031,0 -0.037,-0.027 -0.001,-0.004 -0.001,-0.008 0,-0.03 0.029,-0.047 0.009,-0.005 0.019,-0.007 -0.021,-0.013 -0.05,-0.013 -0.068,0 -0.096,0.106 -0.002,0.006 -0.003,0.012 z"
             id="path22" />
        </g>
        <g
           transform="matrix(0.7,0,0,0.7,16.572,26.861)"
           id="g23">
          <path
             fill="#000000"
             stroke="none"
             paint-order="stroke fill markers"
             d="m 0.206,-0.4 -0.074,0.295 q -0.006,0.025 -0.006,0.048 0,0.046 0.031,0.046 0.066,0 0.116,-0.097 l 0.014,-0.031 q 0.006,-0.013 0.015,-0.014 0.012,0 0.012,0.01 0,0.013 -0.026,0.057 -0.058,0.097 -0.133,0.097 -0.058,0 -0.082,-0.048 -0.01,-0.02 -0.01,-0.044 0,-0.019 0.061,-0.259 L 0.139,-0.4 H 0.051 q -0.025,0 -0.027,-0.008 H 0.023 v -0.004 q 0,-0.017 0.016,-0.019 H 0.053 0.147 L 0.186,-0.59 q 0.009,-0.035 0.04,-0.036 0.026,0 0.029,0.027 0,0.006 -0.041,0.168 h 0.088 q 0.026,0 0.028,0.011 0,0.018 -0.016,0.02 H 0.313 0.3 Z"
             id="path23" />
        </g>
        <g
           transform="matrix(0.7,0,0,0.7,16.8247,26.861)"
           id="g24">
          <path
             fill="#000000"
             stroke="none"
             paint-order="stroke fill markers"
             d="M 0.661,-0.23 H 0.116 q -0.032,0 -0.033,-0.02 0,-0.02 0.033,-0.02 h 0.545 q 0.032,0 0.033,0.02 0,0.02 -0.033,0.02 z"
             id="path24" />
        </g>
        <g
           transform="matrix(0.7,0,0,0.7,17.3693,26.861)"
           id="g25">
          <path
             fill="#000000"
             stroke="none"
             paint-order="stroke fill markers"
             d="m 0.294,-0.64 v 0.561 q 0,0.03 0.012,0.038 0.017,0.01 0.081,0.01 H 0.419 V 0 Q 0.384,-0.003 0.257,-0.003 0.13,-0.003 0.095,0 v -0.031 h 0.032 q 0.077,0 0.088,-0.018 L 0.216,-0.05 Q 0.22,-0.058 0.22,-0.079 v -0.518 q -0.052,0.026 -0.131,0.026 v -0.031 q 0.12,0 0.182,-0.064 0.019,0 0.022,0.007 v 0 0.001 q 0.001,0.003 0.001,0.018 z"
             id="path25" />
        </g>
      </g>
      <g
         transform="scale(25)"
         id="g29">
        <g
           transform="translate(29.48,26.711)"
           id="g27">
          <path
             fill="#000000"
             stroke="none"
             paint-order="stroke fill markers"
             d="M 0.334,-0.302 0.3,-0.165 q -0.017,0.068 -0.017,0.088 0,0.052 0.037,0.063 0.008,0.003 0.018,0.003 0.05,0 0.091,-0.05 0.027,-0.032 0.042,-0.081 0.003,-0.011 0.013,-0.011 0.012,0 0.012,0.01 0,0.025 -0.031,0.072 Q 0.411,0.011 0.336,0.011 0.268,0.011 0.237,-0.046 0.231,-0.055 0.228,-0.065 0.204,-0.017 0.162,0.002 0.143,0.011 0.123,0.011 q -0.06,0 -0.084,-0.035 -0.01,-0.013 -0.01,-0.031 0,-0.037 0.032,-0.052 0.011,-0.006 0.023,-0.006 0.03,0 0.036,0.025 0.001,0.005 0.001,0.01 0,0.034 -0.034,0.05 -0.006,0.003 -0.013,0.004 0.021,0.013 0.05,0.013 0.053,0 0.084,-0.071 0.006,-0.015 0.011,-0.033 0.054,-0.204 0.054,-0.238 -0.006,-0.062 -0.054,-0.067 -0.052,0 -0.095,0.053 v 0.001 q 0,0.001 -0.001,0.001 -0.015,0.02 -0.027,0.046 -0.005,0.012 -0.009,0.024 l -0.002,0.006 q -0.002,0.011 -0.013,0.011 -0.012,0 -0.012,-0.01 0,-0.025 0.032,-0.072 0.054,-0.082 0.129,-0.082 0.077,0 0.108,0.076 0.032,-0.062 0.085,-0.074 0.01,-0.002 0.02,-0.002 0.059,0 0.083,0.033 0.01,0.014 0.01,0.033 0,0.041 -0.037,0.055 -0.009,0.003 -0.017,0.003 -0.031,0 -0.037,-0.027 -0.001,-0.004 -0.001,-0.008 0,-0.03 0.029,-0.047 0.009,-0.005 0.019,-0.007 -0.021,-0.013 -0.05,-0.013 -0.068,0 -0.096,0.106 -0.002,0.006 -0.003,0.012 z"
             id="path26" />
        </g>
        <g
           transform="matrix(0.7,0,0,0.7,30.052,26.861)"
           id="g28">
          <path
             fill="#000000"
             stroke="none"
             paint-order="stroke fill markers"
             d="m 0.206,-0.4 -0.074,0.295 q -0.006,0.025 -0.006,0.048 0,0.046 0.031,0.046 0.066,0 0.116,-0.097 l 0.014,-0.031 q 0.006,-0.013 0.015,-0.014 0.012,0 0.012,0.01 0,0.013 -0.026,0.057 -0.058,0.097 -0.133,0.097 -0.058,0 -0.082,-0.048 -0.01,-0.02 -0.01,-0.044 0,-0.019 0.061,-0.259 L 0.139,-0.4 H 0.051 q -0.025,0 -0.027,-0.008 H 0.023 v -0.004 q 0,-0.017 0.016,-0.019 H 0.053 0.147 L 0.186,-0.59 q 0.009,-0.035 0.04,-0.036 0.026,0 0.029,0.027 0,0.006 -0.041,0.168 h 0.088 q 0.026,0 0.028,0.011 0,0.018 -0.016,0.02 H 0.313 0.3 Z"
             id="path27" />
        </g>
      </g>
      <g
         transform="scale(25)"
         id="g34">
        <g
           transform="translate(32.44,26.751)"
           id="g30">
          <path
             fill="#006633"
             stroke="none"
             paint-order="stroke fill markers"
             d="M 0.334,-0.302 0.3,-0.165 q -0.017,0.068 -0.017,0.088 0,0.052 0.037,0.063 0.008,0.003 0.018,0.003 0.05,0 0.091,-0.05 0.027,-0.032 0.042,-0.081 0.003,-0.011 0.013,-0.011 0.012,0 0.012,0.01 0,0.025 -0.031,0.072 Q 0.411,0.011 0.336,0.011 0.268,0.011 0.237,-0.046 0.231,-0.055 0.228,-0.065 0.204,-0.017 0.162,0.002 0.143,0.011 0.123,0.011 q -0.06,0 -0.084,-0.035 -0.01,-0.013 -0.01,-0.031 0,-0.037 0.032,-0.052 0.011,-0.006 0.023,-0.006 0.03,0 0.036,0.025 0.001,0.005 0.001,0.01 0,0.034 -0.034,0.05 -0.006,0.003 -0.013,0.004 0.021,0.013 0.05,0.013 0.053,0 0.084,-0.071 0.006,-0.015 0.011,-0.033 0.054,-0.204 0.054,-0.238 -0.006,-0.062 -0.054,-0.067 -0.052,0 -0.095,0.053 v 0.001 q 0,0.001 -0.001,0.001 -0.015,0.02 -0.027,0.046 -0.005,0.012 -0.009,0.024 l -0.002,0.006 q -0.002,0.011 -0.013,0.011 -0.012,0 -0.012,-0.01 0,-0.025 0.032,-0.072 0.054,-0.082 0.129,-0.082 0.077,0 0.108,0.076 0.032,-0.062 0.085,-0.074 0.01,-0.002 0.02,-0.002 0.059,0 0.083,0.033 0.01,0.014 0.01,0.033 0,0.041 -0.037,0.055 -0.009,0.003 -0.017,0.003 -0.031,0 -0.037,-0.027 -0.001,-0.004 -0.001,-0.008 0,-0.03 0.029,-0.047 0.009,-0.005 0.019,-0.007 -0.021,-0.013 -0.05,-0.013 -0.068,0 -0.096,0.106 -0.002,0.006 -0.003,0.012 z"
             id="path29" />
        </g>
        <g
           transform="matrix(0.7,0,0,0.7,33.012,26.901)"
           id="g31">
          <path
             fill="#006633"
             stroke="none"
             paint-order="stroke fill markers"
             d="m 0.206,-0.4 -0.074,0.295 q -0.006,0.025 -0.006,0.048 0,0.046 0.031,0.046 0.066,0 0.116,-0.097 l 0.014,-0.031 q 0.006,-0.013 0.015,-0.014 0.012,0 0.012,0.01 0,0.013 -0.026,0.057 -0.058,0.097 -0.133,0.097 -0.058,0 -0.082,-0.048 -0.01,-0.02 -0.01,-0.044 0,-0.019 0.061,-0.259 L 0.139,-0.4 H 0.051 q -0.025,0 -0.027,-0.008 H 0.023 v -0.004 q 0,-0.017 0.016,-0.019 H 0.053 0.147 L 0.186,-0.59 q 0.009,-0.035 0.04,-0.036 0.026,0 0.029,0.027 0,0.006 -0.041,0.168 h 0.088 q 0.026,0 0.028,0.011 0,0.018 -0.016,0.02 H 0.313 0.3 Z"
             id="path30" />
        </g>
        <g
           transform="matrix(0.7,0,0,0.7,33.2647,26.901)"
           id="g32">
          <path
             fill="#006633"
             stroke="none"
             paint-order="stroke fill markers"
             d="m 0.409,-0.23 v 0.28 q 0,0.032 -0.02,0.033 -0.02,0 -0.02,-0.033 v -0.28 h -0.28 q -0.032,0 -0.033,-0.02 0,-0.02 0.033,-0.02 h 0.28 v -0.28 q 0,-0.032 0.02,-0.033 0.02,0 0.02,0.033 v 0.28 h 0.279 q 0.032,0 0.033,0.02 0,0.02 -0.033,0.02 z"
             id="path31" />
        </g>
        <g
           transform="matrix(0.7,0,0,0.7,33.8093,26.901)"
           id="g33">
          <path
             fill="#006633"
             stroke="none"
             paint-order="stroke fill markers"
             d="m 0.294,-0.64 v 0.561 q 0,0.03 0.012,0.038 0.017,0.01 0.081,0.01 H 0.419 V 0 Q 0.384,-0.003 0.257,-0.003 0.13,-0.003 0.095,0 v -0.031 h 0.032 q 0.077,0 0.088,-0.018 L 0.216,-0.05 Q 0.22,-0.058 0.22,-0.079 v -0.518 q -0.052,0.026 -0.131,0.026 v -0.031 q 0.12,0 0.182,-0.064 0.019,0 0.022,0.007 v 0 0.001 q 0.001,0.003 0.001,0.018 z"
             id="path32" />
        </g>
      </g>
      <g
         transform="scale(25)"
         id="g40">
        <g
           transform="translate(15.2,9.922092)"
           id="g35">
          <path
             fill="#003399"
             stroke="none"
             paint-order="stroke fill markers"
             d="m 0.367,-0.4 v 0 l -0.06,0.317 Q 0.298,-0.021 0.271,0.059 0.261,0.088 0.251,0.108 0.216,0.182 0.164,0.2 0.151,0.205 0.138,0.205 0.088,0.205 0.064,0.171 0.053,0.156 0.053,0.136 q 0,-0.04 0.034,-0.055 0.01,-0.005 0.021,-0.005 0.029,0 0.036,0.025 0.001,0.005 0.001,0.01 0,0.034 -0.03,0.048 -0.011,0.005 -0.025,0.006 0.019,0.018 0.048,0.018 0.044,0 0.069,-0.098 0.005,-0.023 0.012,-0.06 L 0.225,-0.005 0.3,-0.4 H 0.234 q -0.025,0 -0.027,-0.008 H 0.206 v -0.004 q 0,-0.017 0.017,-0.019 v 0 h 0.013 0.069 q 0.024,-0.125 0.033,-0.157 0.03,-0.1 0.106,-0.115 0.011,-0.002 0.021,-0.002 0.052,0 0.076,0.034 v 0 q 0.011,0.015 0.011,0.035 0,0.04 -0.034,0.055 -0.01,0.005 -0.021,0.005 -0.029,0 -0.036,-0.025 -0.001,-0.005 -0.001,-0.01 0,-0.031 0.028,-0.046 0.011,-0.007 0.026,-0.008 -0.019,-0.018 -0.049,-0.018 -0.031,0 -0.047,0.034 -0.007,0.014 -0.024,0.104 l -0.021,0.114 h 0.083 q 0.025,0 0.027,0.011 0,0.018 -0.016,0.02 H 0.466 0.453 Z"
             id="path34" />
        </g>
        <g
           transform="matrix(0.7,0,0,0.7,15.798,9.5092)"
           id="g36">
          <path
             fill="#003399"
             stroke="none"
             paint-order="stroke fill markers"
             d="m 0.255,-0.479 -0.179,0.42 q -0.006,0.014 -0.013,0.014 -0.018,0 -0.03,-0.011 -0.004,-0.003 -0.004,-0.007 0,-0.002 0.003,-0.014 l 0.121,-0.436 q 0.013,-0.041 0.044,-0.045 0.005,-0.001 0.009,-0.001 0.034,0 0.05,0.029 0.006,0.011 0.006,0.023 0,0.013 -0.007,0.028 z"
             id="path35" />
        </g>
        <g
           transform="translate(16.010425,9.922092)"
           id="g37">
          <path
             fill="#003399"
             stroke="none"
             paint-order="stroke fill markers"
             d="m 0.331,0.24 v 0 q 0,0.01 -0.01,0.01 Q 0.309,0.25 0.268,0.209 0.206,0.147 0.165,0.062 0.099,-0.074 0.099,-0.25 q 0,-0.169 0.063,-0.305 0.052,-0.111 0.132,-0.178 0.021,-0.017 0.027,-0.017 0.01,0 0.01,0.01 0,0.005 -0.013,0.017 -0.161,0.164 -0.161,0.473 0,0.308 0.157,0.468 0.017,0.017 0.017,0.022 z"
             id="path36" />
        </g>
        <g
           transform="translate(16.399425,9.922092)"
           id="g38">
          <path
             fill="#003399"
             stroke="none"
             paint-order="stroke fill markers"
             d="M 0.334,-0.302 0.3,-0.165 q -0.017,0.068 -0.017,0.088 0,0.052 0.037,0.063 0.008,0.003 0.018,0.003 0.05,0 0.091,-0.05 0.027,-0.032 0.042,-0.081 0.003,-0.011 0.013,-0.011 0.012,0 0.012,0.01 0,0.025 -0.031,0.072 Q 0.411,0.011 0.336,0.011 0.268,0.011 0.237,-0.046 0.231,-0.055 0.228,-0.065 0.204,-0.017 0.162,0.002 0.143,0.011 0.123,0.011 q -0.06,0 -0.084,-0.035 -0.01,-0.013 -0.01,-0.031 0,-0.037 0.032,-0.052 0.011,-0.006 0.023,-0.006 0.03,0 0.036,0.025 0.001,0.005 0.001,0.01 0,0.034 -0.034,0.05 -0.006,0.003 -0.013,0.004 0.021,0.013 0.05,0.013 0.053,0 0.084,-0.071 0.006,-0.015 0.011,-0.033 0.054,-0.204 0.054,-0.238 -0.006,-0.062 -0.054,-0.067 -0.052,0 -0.095,0.053 v 0.001 q 0,0.001 -0.001,0.001 -0.015,0.02 -0.027,0.046 -0.005,0.012 -0.009,0.024 l -0.002,0.006 q -0.002,0.011 -0.013,0.011 -0.012,0 -0.012,-0.01 0,-0.025 0.032,-0.072 0.054,-0.082 0.129,-0.082 0.077,0 0.108,0.076 0.032,-0.062 0.085,-0.074 0.01,-0.002 0.02,-0.002 0.059,0 0.083,0.033 0.01,0.014 0.01,0.033 0,0.041 -0.037,0.055 -0.009,0.003 -0.017,0.003 -0.031,0 -0.037,-0.027 -0.001,-0.004 -0.001,-0.008 0,-0.03 0.029,-0.047 0.009,-0.005 0.019,-0.007 -0.021,-0.013 -0.05,-0.013 -0.068,0 -0.096,0.106 -0.002,0.006 -0.003,0.012 z"
             id="path37" />
        </g>
        <g
           transform="translate(16.971425,9.922092)"
           id="g39">
          <path
             fill="#003399"
             stroke="none"
             paint-order="stroke fill markers"
             d="m 0.289,-0.25 v 0 q 0,0.169 -0.063,0.305 Q 0.174,0.166 0.094,0.233 0.073,0.25 0.067,0.25 q -0.01,0 -0.01,-0.01 0,-0.005 0.013,-0.017 0.161,-0.164 0.161,-0.473 0,-0.305 -0.15,-0.462 L 0.076,-0.717 Q 0.057,-0.735 0.057,-0.74 q 0,-0.01 0.01,-0.01 0.012,0 0.053,0.041 0.062,0.062 0.103,0.147 0.066,0.136 0.066,0.312 z"
             id="path38" />
        </g>
      </g>
    </g>
  </g>
</svg>
