<?xml version="1.0" encoding="UTF-8" standalone="no"?>
<svg
   version="1.1"
   width="220.89006mm"
   height="171.59538mm"
   id="svg95"
   sodipodi:docname="svm_holgura.svg"
   inkscape:version="1.4.2 (f4327f4, 2025-05-13)"
   xmlns:inkscape="http://www.inkscape.org/namespaces/inkscape"
   xmlns:sodipodi="http://sodipodi.sourceforge.net/DTD/sodipodi-0.dtd"
   xmlns="http://www.w3.org/2000/svg"
   xmlns:svg="http://www.w3.org/2000/svg">
  <sodipodi:namedview
     id="namedview95"
     pagecolor="#ffffff"
     bordercolor="#666666"
     borderopacity="1.0"
     inkscape:showpageshadow="2"
     inkscape:pageopacity="0.0"
     inkscape:pagecheckerboard="0"
     inkscape:deskcolor="#d1d1d1"
     inkscape:zoom="0.84804631"
     inkscape:cx="481.69539"
     inkscape:cy="340.78328"
     inkscape:window-width="1440"
     inkscape:window-height="830"
     inkscape:window-x="-6"
     inkscape:window-y="-6"
     inkscape:window-maximized="1"
     inkscape:current-layer="svg95"
     inkscape:document-units="mm" />
  <defs
     id="defs1">
    <clipPath
       id="DiJuZlEcHhMT">
      <path
         fill="none"
         stroke="none"
         d="M 0,0 H 1183 V 691 H 0 Z"
         id="path1" />
    </clipPath>
    <clipPath
       clipPathUnits="userSpaceOnUse"
       id="clipPath95">
      <rect
         id="rect96"
         width="834.86005"
         height="648.5495"
         x="109.66383"
         y="4.7167234" />
    </clipPath>
  </defs>
  <g
     clip-path="url(#DiJuZlEcHhMT)"
     id="g95"
     transform="translate(-109.66383,-4.7167234)">
    <g
       id="g94">
      <rect
         fill="#ffffff"
         stroke="none"
         x="0"
         y="0"
         width="1183"
         height="691"
         fill-opacity="1"
         id="rect1"
         clip-path="url(#clipPath95)" />
      <path
         fill="#c0c0c0"
         stroke="none"
         paint-order="stroke fill markers"
         fill-rule="evenodd"
         d="m -59.383487,453.82787 -9.401311,-73.99659 1336.613498,-142.3612 7.945,74.1517 z"
         fill-opacity="0.0980392"
         id="path2" />
      <path
         fill="none"
         stroke="#c0c0c0"
         paint-order="fill stroke markers"
         d="M -5,448.03555 1188,320.97046"
         stroke-opacity="0.501961"
         stroke-linejoin="round"
         stroke-miterlimit="10"
         stroke-width="1.5"
         stroke-dasharray="1.5, 3"
         id="path3" />
      <text
         fill="#c0c0c0"
         stroke="none"
         font-family="geogebra-sans-serif, sans-serif"
         font-size="16px"
         font-style="normal"
         font-weight="normal"
         text-decoration="normal"
         x="8"
         y="439"
         text-anchor="start"
         dominant-baseline="alphabetic"
         fill-opacity="1"
         id="text3">h</text>
      <path
         fill="none"
         stroke="#c0c0c0"
         paint-order="fill stroke markers"
         d="M -5,373.03763 1188,245.97255"
         stroke-opacity="0.501961"
         stroke-linejoin="round"
         stroke-miterlimit="10"
         stroke-width="2.5"
         stroke-dasharray="2.5, 3"
         id="path4" />
      <text
         fill="#c0c0c0"
         stroke="none"
         font-family="geogebra-sans-serif, sans-serif"
         font-size="16px"
         font-style="normal"
         font-weight="normal"
         text-decoration="normal"
         x="8"
         y="364"
         text-anchor="start"
         dominant-baseline="alphabetic"
         fill-opacity="1"
         id="text4">i</text>
      <path
         fill="none"
         stroke="#000000"
         paint-order="fill stroke markers"
         d="M 1188,413.53017 1143.4228,-5"
         stroke-opacity="0.698039"
         stroke-linecap="round"
         stroke-linejoin="round"
         stroke-miterlimit="10"
         stroke-width="2.5"
         id="path5" />
      <text
         fill="#000000"
         stroke="none"
         font-family="geogebra-sans-serif, sans-serif"
         font-size="16px"
         font-style="normal"
         font-weight="normal"
         text-decoration="normal"
         x="1128"
         y="24"
         text-anchor="start"
         dominant-baseline="alphabetic"
         fill-opacity="1"
         id="text5">j</text>
      <path
         fill="none"
         stroke="#c0c0c0"
         paint-order="fill stroke markers"
         d="M -5,410.53659 1188,283.4715"
         stroke-opacity="0.698039"
         stroke-linecap="round"
         stroke-linejoin="round"
         stroke-miterlimit="10"
         stroke-width="2.5"
         id="path6" />
      <text
         fill="#c0c0c0"
         stroke="none"
         font-family="geogebra-sans-serif, sans-serif"
         font-size="16px"
         font-style="normal"
         font-weight="normal"
         text-decoration="normal"
         x="8"
         y="401"
         text-anchor="start"
         dominant-baseline="alphabetic"
         fill-opacity="1"
         id="text6">l</text>
      <path
         fill="none"
         stroke="#00cc00"
         paint-order="fill stroke markers"
         d="m 247,407 -6.40338,-60.12059"
         stroke-opacity="0.698039"
         stroke-linecap="round"
         stroke-linejoin="round"
         stroke-miterlimit="10"
         stroke-width="3.5"
         id="path7" />
      <path
         fill="none"
         stroke="#00cc00"
         paint-order="fill stroke markers"
         d="m 460,323 4.00299,37.58361"
         stroke-opacity="0.698039"
         stroke-linecap="round"
         stroke-linejoin="round"
         stroke-miterlimit="10"
         stroke-width="3.5"
         id="path8" />
      <path
         fill="none"
         stroke="#00cc00"
         paint-order="fill stroke markers"
         d="m 717,401 -7.09426,-66.60722"
         stroke-opacity="0.698039"
         stroke-linecap="round"
         stroke-linejoin="round"
         stroke-miterlimit="10"
         stroke-width="3.5"
         id="path9" />
      <path
         fill="none"
         stroke="#00cc00"
         paint-order="fill stroke markers"
         d="M 821.059,322.55397 814,251"
         stroke-opacity="0.698039"
         stroke-linecap="round"
         stroke-linejoin="round"
         stroke-miterlimit="10"
         stroke-width="3.5"
         id="path10" />
      <path
         fill="#0033cc"
         stroke="none"
         paint-order="stroke fill markers"
         d="m 359.25684,119.24676 c 0,3.31371 -2.68629,6 -6,6 -3.31371,0 -6,-2.68629 -6,-6 0,-3.31371 2.68629,-6 6,-6 3.31371,0 6,2.68629 6,6 z"
         fill-opacity="1"
         id="path11" />
      <path
         fill="none"
         stroke="#000000"
         paint-order="fill stroke markers"
         d="m 359.25684,119.24676 c 0,3.31371 -2.68629,6 -6,6 -3.31371,0 -6,-2.68629 -6,-6 0,-3.31371 2.68629,-6 6,-6 3.31371,0 6,2.68629 6,6 z"
         stroke-opacity="1"
         stroke-linecap="round"
         stroke-linejoin="round"
         stroke-miterlimit="10"
         id="path12" />
      <path
         fill="#0033cc"
         stroke="none"
         paint-order="stroke fill markers"
         d="m 516.307,134.599 c 0,3.31371 -2.68629,6 -6,6 -3.31371,0 -6,-2.68629 -6,-6 0,-3.31371 2.68629,-6 6,-6 3.31371,0 6,2.68629 6,6 z"
         fill-opacity="1"
         id="path13" />
      <path
         fill="none"
         stroke="#000000"
         paint-order="fill stroke markers"
         d="m 516.307,134.599 c 0,3.31371 -2.68629,6 -6,6 -3.31371,0 -6,-2.68629 -6,-6 0,-3.31371 2.68629,-6 6,-6 3.31371,0 6,2.68629 6,6 z"
         stroke-opacity="1"
         stroke-linecap="round"
         stroke-linejoin="round"
         stroke-miterlimit="10"
         id="path14" />
      <path
         fill="#0033cc"
         stroke="none"
         paint-order="stroke fill markers"
         d="m 722.80445,218.2775 c 0,3.3137 -2.68629,6 -6,6 -3.31371,0 -6,-2.6863 -6,-6 0,-3.31371 2.68629,-6 6,-6 3.31371,0 6,2.68629 6,6 z"
         fill-opacity="1"
         id="path15" />
      <path
         fill="none"
         stroke="#000000"
         paint-order="fill stroke markers"
         d="m 722.80445,218.2775 c 0,3.3137 -2.68629,6 -6,6 -3.31371,0 -6,-2.6863 -6,-6 0,-3.31371 2.68629,-6 6,-6 3.31371,0 6,2.68629 6,6 z"
         stroke-opacity="1"
         stroke-linecap="round"
         stroke-linejoin="round"
         stroke-miterlimit="10"
         id="path16" />
      <path
         fill="#0033cc"
         stroke="none"
         paint-order="stroke fill markers"
         d="m 564.223,38.767 c 0,3.313708 -2.68629,6 -6,6 -3.31371,0 -6,-2.686292 -6,-6 0,-3.313708 2.68629,-6 6,-6 3.31371,0 6,2.686292 6,6 z"
         fill-opacity="1"
         id="path17" />
      <path
         fill="none"
         stroke="#000000"
         paint-order="fill stroke markers"
         d="m 564.223,38.767 c 0,3.313708 -2.68629,6 -6,6 -3.31371,0 -6,-2.686292 -6,-6 0,-3.313708 2.68629,-6 6,-6 3.31371,0 6,2.686292 6,6 z"
         stroke-opacity="1"
         stroke-linecap="round"
         stroke-linejoin="round"
         stroke-miterlimit="10"
         id="path18" />
      <path
         fill="#0033cc"
         stroke="none"
         paint-order="stroke fill markers"
         d="m 253,407 c 0,3.31371 -2.68629,6 -6,6 -3.31371,0 -6,-2.68629 -6,-6 0,-3.31371 2.68629,-6 6,-6 3.31371,0 6,2.68629 6,6 z"
         fill-opacity="1"
         id="path19" />
      <path
         fill="none"
         stroke="#000000"
         paint-order="fill stroke markers"
         d="m 253,407 c 0,3.31371 -2.68629,6 -6,6 -3.31371,0 -6,-2.68629 -6,-6 0,-3.31371 2.68629,-6 6,-6 3.31371,0 6,2.68629 6,6 z"
         stroke-opacity="1"
         stroke-linecap="round"
         stroke-linejoin="round"
         stroke-miterlimit="10"
         id="path20" />
      <path
         fill="#0033cc"
         stroke="none"
         paint-order="stroke fill markers"
         d="m 191.93512,270.1623 c 0,3.31371 -2.6863,6 -6,6 -3.31371,0 -6,-2.68629 -6,-6 0,-3.31371 2.68629,-6 6,-6 3.3137,0 6,2.68629 6,6 z"
         fill-opacity="1"
         id="path21" />
      <path
         fill="none"
         stroke="#000000"
         paint-order="fill stroke markers"
         d="m 191.93512,270.1623 c 0,3.31371 -2.6863,6 -6,6 -3.31371,0 -6,-2.68629 -6,-6 0,-3.31371 2.68629,-6 6,-6 3.3137,0 6,2.68629 6,6 z"
         stroke-opacity="1"
         stroke-linecap="round"
         stroke-linejoin="round"
         stroke-miterlimit="10"
         id="path22" />
      <path
         fill="#0033cc"
         stroke="none"
         paint-order="stroke fill markers"
         d="m 196.23722,233.89633 c 0,3.31371 -2.68629,6 -6,6 -3.31371,0 -6,-2.68629 -6,-6 0,-3.31371 2.68629,-6 6,-6 3.31371,0 6,2.68629 6,6 z"
         fill-opacity="1"
         id="path23" />
      <path
         fill="none"
         stroke="#000000"
         paint-order="fill stroke markers"
         d="m 196.23722,233.89633 c 0,3.31371 -2.68629,6 -6,6 -3.31371,0 -6,-2.68629 -6,-6 0,-3.31371 2.68629,-6 6,-6 3.31371,0 6,2.68629 6,6 z"
         stroke-opacity="1"
         stroke-linecap="round"
         stroke-linejoin="round"
         stroke-miterlimit="10"
         id="path24" />
      <path
         fill="#0033cc"
         stroke="none"
         paint-order="stroke fill markers"
         d="m 723,401 c 0,3.31371 -2.68629,6 -6,6 -3.31371,0 -6,-2.68629 -6,-6 0,-3.31371 2.68629,-6 6,-6 3.31371,0 6,2.68629 6,6 z"
         fill-opacity="1"
         id="path25" />
      <path
         fill="none"
         stroke="#000000"
         paint-order="fill stroke markers"
         d="m 723,401 c 0,3.31371 -2.68629,6 -6,6 -3.31371,0 -6,-2.68629 -6,-6 0,-3.31371 2.68629,-6 6,-6 3.31371,0 6,2.68629 6,6 z"
         stroke-opacity="1"
         stroke-linecap="round"
         stroke-linejoin="round"
         stroke-miterlimit="10"
         id="path26" />
      <path
         fill="#0033cc"
         stroke="none"
         paint-order="stroke fill markers"
         d="m 652.069,137.261 c 0,3.31371 -2.68629,6 -6,6 -3.31371,0 -6,-2.68629 -6,-6 0,-3.31371 2.68629,-6 6,-6 3.31371,0 6,2.68629 6,6 z"
         fill-opacity="1"
         id="path27" />
      <path
         fill="none"
         stroke="#000000"
         paint-order="fill stroke markers"
         d="m 652.069,137.261 c 0,3.31371 -2.68629,6 -6,6 -3.31371,0 -6,-2.68629 -6,-6 0,-3.31371 2.68629,-6 6,-6 3.31371,0 6,2.68629 6,6 z"
         stroke-opacity="1"
         stroke-linecap="round"
         stroke-linejoin="round"
         stroke-miterlimit="10"
         id="path28" />
      <path
         fill="#0033cc"
         stroke="none"
         paint-order="stroke fill markers"
         d="m 316.2567,339.46 c 0,3.31371 -2.68629,6 -6,6 -3.31371,0 -6,-2.68629 -6,-6 0,-3.31371 2.68629,-6 6,-6 3.31371,0 6,2.68629 6,6 z"
         fill-opacity="1"
         id="path29" />
      <path
         fill="none"
         stroke="#000000"
         paint-order="fill stroke markers"
         d="m 316.2567,339.46 c 0,3.31371 -2.68629,6 -6,6 -3.31371,0 -6,-2.68629 -6,-6 0,-3.31371 2.68629,-6 6,-6 3.31371,0 6,2.68629 6,6 z"
         stroke-opacity="1"
         stroke-linecap="round"
         stroke-linejoin="round"
         stroke-miterlimit="10"
         id="path30" />
      <path
         fill="#0033cc"
         stroke="none"
         paint-order="stroke fill markers"
         d="m 428.461,271.692 c 0,3.31371 -2.68629,6 -6,6 -3.31371,0 -6,-2.68629 -6,-6 0,-3.31371 2.68629,-6 6,-6 3.31371,0 6,2.68629 6,6 z"
         fill-opacity="1"
         id="path31" />
      <path
         fill="none"
         stroke="#000000"
         paint-order="fill stroke markers"
         d="m 428.461,271.692 c 0,3.31371 -2.68629,6 -6,6 -3.31371,0 -6,-2.68629 -6,-6 0,-3.31371 2.68629,-6 6,-6 3.31371,0 6,2.68629 6,6 z"
         stroke-opacity="1"
         stroke-linecap="round"
         stroke-linejoin="round"
         stroke-miterlimit="10"
         id="path32" />
      <path
         fill="#0033cc"
         stroke="none"
         paint-order="stroke fill markers"
         d="m 606.8341,258.67166 c 0,3.31371 -2.6863,6 -6,6 -3.31371,0 -6,-2.68629 -6,-6 0,-3.31371 2.68629,-6 6,-6 3.3137,0 6,2.68629 6,6 z"
         fill-opacity="1"
         id="path33" />
      <path
         fill="none"
         stroke="#000000"
         paint-order="fill stroke markers"
         d="m 606.8341,258.67166 c 0,3.31371 -2.6863,6 -6,6 -3.31371,0 -6,-2.68629 -6,-6 0,-3.31371 2.68629,-6 6,-6 3.3137,0 6,2.68629 6,6 z"
         stroke-opacity="1"
         stroke-linecap="round"
         stroke-linejoin="round"
         stroke-miterlimit="10"
         id="path34" />
      <path
         fill="#0033cc"
         stroke="none"
         paint-order="stroke fill markers"
         d="m 709.77407,93.185881 c 0,3.313708 -2.68629,6 -6,6 -3.31371,0 -6,-2.686292 -6,-6 0,-3.313709 2.68629,-6 6,-6 3.31371,0 6,2.686291 6,6 z"
         fill-opacity="1"
         id="path35" />
      <path
         fill="none"
         stroke="#000000"
         paint-order="fill stroke markers"
         d="m 709.77407,93.185881 c 0,3.313708 -2.68629,6 -6,6 -3.31371,0 -6,-2.686292 -6,-6 0,-3.313709 2.68629,-6 6,-6 3.31371,0 6,2.686291 6,6 z"
         stroke-opacity="1"
         stroke-linecap="round"
         stroke-linejoin="round"
         stroke-miterlimit="10"
         id="path36" />
      <path
         fill="#0033cc"
         stroke="none"
         paint-order="stroke fill markers"
         d="m 318.53015,212.97452 c 0,3.31371 -2.68629,6 -6,6 -3.31371,0 -6,-2.68629 -6,-6 0,-3.31371 2.68629,-6 6,-6 3.31371,0 6,2.68629 6,6 z"
         fill-opacity="1"
         id="path37" />
      <path
         fill="none"
         stroke="#000000"
         paint-order="fill stroke markers"
         d="m 318.53015,212.97452 c 0,3.31371 -2.68629,6 -6,6 -3.31371,0 -6,-2.68629 -6,-6 0,-3.31371 2.68629,-6 6,-6 3.31371,0 6,2.68629 6,6 z"
         stroke-opacity="1"
         stroke-linecap="round"
         stroke-linejoin="round"
         stroke-miterlimit="10"
         id="path38" />
      <path
         fill="#0033cc"
         stroke="none"
         paint-order="stroke fill markers"
         d="m 524.02727,270.1623 c 0,3.31371 -2.6863,6 -6,6 -3.31371,0 -6,-2.68629 -6,-6 0,-3.31371 2.68629,-6 6,-6 3.3137,0 6,2.68629 6,6 z"
         fill-opacity="1"
         id="path39" />
      <path
         fill="none"
         stroke="#000000"
         paint-order="fill stroke markers"
         d="m 524.02727,270.1623 c 0,3.31371 -2.6863,6 -6,6 -3.31371,0 -6,-2.68629 -6,-6 0,-3.31371 2.68629,-6 6,-6 3.3137,0 6,2.68629 6,6 z"
         stroke-opacity="1"
         stroke-linecap="round"
         stroke-linejoin="round"
         stroke-miterlimit="10"
         id="path40" />
      <path
         fill="#0033cc"
         stroke="none"
         paint-order="stroke fill markers"
         d="m 608.146,191.832 c 0,3.31371 -2.68629,6 -6,6 -3.31371,0 -6,-2.68629 -6,-6 0,-3.31371 2.68629,-6 6,-6 3.31371,0 6,2.68629 6,6 z"
         fill-opacity="1"
         id="path41" />
      <path
         fill="none"
         stroke="#000000"
         paint-order="fill stroke markers"
         d="m 608.146,191.832 c 0,3.31371 -2.68629,6 -6,6 -3.31371,0 -6,-2.68629 -6,-6 0,-3.31371 2.68629,-6 6,-6 3.31371,0 6,2.68629 6,6 z"
         stroke-opacity="1"
         stroke-linecap="round"
         stroke-linejoin="round"
         stroke-miterlimit="10"
         id="path42" />
      <path
         fill="#cc0000"
         stroke="none"
         paint-order="stroke fill markers"
         d="m 310.49367,474.16485 c 0,3.31371 -2.68629,6 -6,6 -3.3137,0 -6,-2.68629 -6,-6 0,-3.31371 2.6863,-6 6,-6 3.31371,0 6,2.68629 6,6 z"
         fill-opacity="1"
         id="path43" />
      <path
         fill="none"
         stroke="#000000"
         paint-order="fill stroke markers"
         d="m 310.49367,474.16485 c 0,3.31371 -2.68629,6 -6,6 -3.3137,0 -6,-2.68629 -6,-6 0,-3.31371 2.6863,-6 6,-6 3.31371,0 6,2.68629 6,6 z"
         stroke-opacity="1"
         stroke-linecap="round"
         stroke-linejoin="round"
         stroke-miterlimit="10"
         id="path44" />
      <path
         fill="#cc0000"
         stroke="none"
         paint-order="stroke fill markers"
         d="m 439.0796,451.05969 c 0,3.3137 -2.68629,6 -6,6 -3.3137,0 -6,-2.6863 -6,-6 0,-3.31371 2.6863,-6 6,-6 3.31371,0 6,2.68629 6,6 z"
         fill-opacity="1"
         id="path45" />
      <path
         fill="none"
         stroke="#000000"
         paint-order="fill stroke markers"
         d="m 439.0796,451.05969 c 0,3.3137 -2.68629,6 -6,6 -3.3137,0 -6,-2.6863 -6,-6 0,-3.31371 2.6863,-6 6,-6 3.31371,0 6,2.68629 6,6 z"
         stroke-opacity="1"
         stroke-linecap="round"
         stroke-linejoin="round"
         stroke-miterlimit="10"
         id="path46" />
      <path
         fill="#cc0000"
         stroke="none"
         paint-order="stroke fill markers"
         d="m 578.71605,441.0139 c 0,3.31371 -2.68629,6 -6,6 -3.31371,0 -6,-2.68629 -6,-6 0,-3.31371 2.68629,-6 6,-6 3.31371,0 6,2.68629 6,6 z"
         fill-opacity="1"
         id="path47" />
      <path
         fill="none"
         stroke="#000000"
         paint-order="fill stroke markers"
         d="m 578.71605,441.0139 c 0,3.31371 -2.68629,6 -6,6 -3.31371,0 -6,-2.68629 -6,-6 0,-3.31371 2.68629,-6 6,-6 3.31371,0 6,2.68629 6,6 z"
         stroke-opacity="1"
         stroke-linecap="round"
         stroke-linejoin="round"
         stroke-miterlimit="10"
         id="path48" />
      <path
         fill="#cc0000"
         stroke="none"
         paint-order="stroke fill markers"
         d="m 668.041,557.857 c 0,3.31371 -2.68629,6 -6,6 -3.31371,0 -6,-2.68629 -6,-6 0,-3.31371 2.68629,-6 6,-6 3.31371,0 6,2.68629 6,6 z"
         fill-opacity="1"
         id="path49" />
      <path
         fill="none"
         stroke="#000000"
         paint-order="fill stroke markers"
         d="m 668.041,557.857 c 0,3.31371 -2.68629,6 -6,6 -3.31371,0 -6,-2.68629 -6,-6 0,-3.31371 2.68629,-6 6,-6 3.31371,0 6,2.68629 6,6 z"
         stroke-opacity="1"
         stroke-linecap="round"
         stroke-linejoin="round"
         stroke-miterlimit="10"
         id="path50" />
      <path
         fill="#cc0000"
         stroke="none"
         paint-order="stroke fill markers"
         d="m 447.11623,541.47177 c 0,3.31371 -2.68629,6 -6,6 -3.3137,0 -6,-2.68629 -6,-6 0,-3.3137 2.6863,-6 6,-6 3.31371,0 6,2.6863 6,6 z"
         fill-opacity="1"
         id="path51" />
      <path
         fill="none"
         stroke="#000000"
         paint-order="fill stroke markers"
         d="m 447.11623,541.47177 c 0,3.31371 -2.68629,6 -6,6 -3.3137,0 -6,-2.68629 -6,-6 0,-3.3137 2.6863,-6 6,-6 3.31371,0 6,2.6863 6,6 z"
         stroke-opacity="1"
         stroke-linecap="round"
         stroke-linejoin="round"
         stroke-miterlimit="10"
         id="path52" />
      <path
         fill="#cc0000"
         stroke="none"
         paint-order="stroke fill markers"
         d="m 466,323 c 0,3.31371 -2.68629,6 -6,6 -3.31371,0 -6,-2.68629 -6,-6 0,-3.31371 2.68629,-6 6,-6 3.31371,0 6,2.68629 6,6 z"
         fill-opacity="1"
         id="path53" />
      <path
         fill="none"
         stroke="#000000"
         paint-order="fill stroke markers"
         d="m 466,323 c 0,3.31371 -2.68629,6 -6,6 -3.31371,0 -6,-2.68629 -6,-6 0,-3.31371 2.68629,-6 6,-6 3.31371,0 6,2.68629 6,6 z"
         stroke-opacity="1"
         stroke-linecap="round"
         stroke-linejoin="round"
         stroke-miterlimit="10"
         id="path54" />
      <path
         fill="#cc0000"
         stroke="none"
         paint-order="stroke fill markers"
         d="m 674.15103,424.94064 c 0,3.31371 -2.68629,6 -6,6 -3.31371,0 -6,-2.68629 -6,-6 0,-3.31371 2.68629,-6 6,-6 3.31371,0 6,2.68629 6,6 z"
         fill-opacity="1"
         id="path55" />
      <path
         fill="none"
         stroke="#000000"
         paint-order="fill stroke markers"
         d="m 674.15103,424.94064 c 0,3.31371 -2.68629,6 -6,6 -3.31371,0 -6,-2.68629 -6,-6 0,-3.31371 2.68629,-6 6,-6 3.31371,0 6,2.68629 6,6 z"
         stroke-opacity="1"
         stroke-linecap="round"
         stroke-linejoin="round"
         stroke-miterlimit="10"
         id="path56" />
      <path
         fill="#cc0000"
         stroke="none"
         paint-order="stroke fill markers"
         d="m 820,251 c 0,3.31371 -2.68629,6 -6,6 -3.31371,0 -6,-2.68629 -6,-6 0,-3.31371 2.68629,-6 6,-6 3.31371,0 6,2.68629 6,6 z"
         fill-opacity="1"
         id="path57" />
      <path
         fill="none"
         stroke="#000000"
         paint-order="fill stroke markers"
         d="m 820,251 c 0,3.31371 -2.68629,6 -6,6 -3.31371,0 -6,-2.68629 -6,-6 0,-3.31371 2.68629,-6 6,-6 3.31371,0 6,2.68629 6,6 z"
         stroke-opacity="1"
         stroke-linecap="round"
         stroke-linejoin="round"
         stroke-miterlimit="10"
         id="path58" />
      <path
         fill="#cc0000"
         stroke="none"
         paint-order="stroke fill markers"
         d="m 588.181,543.216 c 0,3.31371 -2.68629,6 -6,6 -3.31371,0 -6,-2.68629 -6,-6 0,-3.31371 2.68629,-6 6,-6 3.31371,0 6,2.68629 6,6 z"
         fill-opacity="1"
         id="path59" />
      <path
         fill="none"
         stroke="#000000"
         paint-order="fill stroke markers"
         d="m 588.181,543.216 c 0,3.31371 -2.68629,6 -6,6 -3.31371,0 -6,-2.68629 -6,-6 0,-3.31371 2.68629,-6 6,-6 3.31371,0 6,2.68629 6,6 z"
         stroke-opacity="1"
         stroke-linecap="round"
         stroke-linejoin="round"
         stroke-miterlimit="10"
         id="path60" />
      <path
         fill="#cc0000"
         stroke="none"
         paint-order="stroke fill markers"
         d="m 567.74297,387.67239 c 0,3.31371 -2.6863,6 -6,6 -3.31371,0 -6,-2.68629 -6,-6 0,-3.31371 2.68629,-6 6,-6 3.3137,0 6,2.68629 6,6 z"
         fill-opacity="1"
         id="path61" />
      <path
         fill="none"
         stroke="#000000"
         paint-order="fill stroke markers"
         d="m 567.74297,387.67239 c 0,3.31371 -2.6863,6 -6,6 -3.31371,0 -6,-2.68629 -6,-6 0,-3.31371 2.68629,-6 6,-6 3.3137,0 6,2.68629 6,6 z"
         stroke-opacity="1"
         stroke-linecap="round"
         stroke-linejoin="round"
         stroke-miterlimit="10"
         id="path62" />
      <path
         fill="#cc0000"
         stroke="none"
         paint-order="stroke fill markers"
         d="m 385.31769,579.21893 c 0,3.3137 -2.68629,6 -6,6 -3.3137,0 -6,-2.6863 -6,-6 0,-3.31371 2.6863,-6 6,-6 3.31371,0 6,2.68629 6,6 z"
         fill-opacity="1"
         id="path63" />
      <path
         fill="none"
         stroke="#000000"
         paint-order="fill stroke markers"
         d="m 385.31769,579.21893 c 0,3.3137 -2.68629,6 -6,6 -3.3137,0 -6,-2.6863 -6,-6 0,-3.31371 2.6863,-6 6,-6 3.31371,0 6,2.68629 6,6 z"
         stroke-opacity="1"
         stroke-linecap="round"
         stroke-linejoin="round"
         stroke-miterlimit="10"
         id="path64" />
      <path
         fill="#cc0000"
         stroke="none"
         paint-order="stroke fill markers"
         d="m 280.35616,549.5084 c 0,3.31371 -2.68629,6 -6,6 -3.31371,0 -6,-2.68629 -6,-6 0,-3.3137 2.68629,-6 6,-6 3.31371,0 6,2.6863 6,6 z"
         fill-opacity="1"
         id="path65" />
      <path
         fill="none"
         stroke="#000000"
         paint-order="fill stroke markers"
         d="m 280.35616,549.5084 c 0,3.31371 -2.68629,6 -6,6 -3.31371,0 -6,-2.68629 -6,-6 0,-3.3137 2.68629,-6 6,-6 3.31371,0 6,2.6863 6,6 z"
         stroke-opacity="1"
         stroke-linecap="round"
         stroke-linejoin="round"
         stroke-miterlimit="10"
         id="path66" />
      <path
         fill="#cc0000"
         stroke="none"
         paint-order="stroke fill markers"
         d="m 243.28659,553.15817 c 0,3.31371 -2.68629,6 -6,6 -3.31371,0 -6,-2.68629 -6,-6 0,-3.31371 2.68629,-6 6,-6 3.31371,0 6,2.68629 6,6 z"
         fill-opacity="1"
         id="path67" />
      <path
         fill="none"
         stroke="#000000"
         paint-order="fill stroke markers"
         d="m 243.28659,553.15817 c 0,3.31371 -2.68629,6 -6,6 -3.31371,0 -6,-2.68629 -6,-6 0,-3.31371 2.68629,-6 6,-6 3.31371,0 6,2.68629 6,6 z"
         stroke-opacity="1"
         stroke-linecap="round"
         stroke-linejoin="round"
         stroke-miterlimit="10"
         id="path68" />
      <path
         fill="#cc0000"
         stroke="none"
         paint-order="stroke fill markers"
         d="m 517.638,619.083 c 0,3.31371 -2.68629,6 -6,6 -3.31371,0 -6,-2.68629 -6,-6 0,-3.31371 2.68629,-6 6,-6 3.31371,0 6,2.68629 6,6 z"
         fill-opacity="1"
         id="path69" />
      <path
         fill="none"
         stroke="#000000"
         paint-order="fill stroke markers"
         d="m 517.638,619.083 c 0,3.31371 -2.68629,6 -6,6 -3.31371,0 -6,-2.68629 -6,-6 0,-3.31371 2.68629,-6 6,-6 3.31371,0 6,2.68629 6,6 z"
         stroke-opacity="1"
         stroke-linecap="round"
         stroke-linejoin="round"
         stroke-miterlimit="10"
         id="path70" />
      <path
         fill="#cc0000"
         stroke="none"
         paint-order="stroke fill markers"
         d="m 787.95633,364.21771 c 0,3.31371 -2.68629,6 -6,6 -3.31371,0 -6,-2.68629 -6,-6 0,-3.31371 2.68629,-6 6,-6 3.31371,0 6,2.68629 6,6 z"
         fill-opacity="1"
         id="path71" />
      <path
         fill="none"
         stroke="#000000"
         paint-order="fill stroke markers"
         d="m 787.95633,364.21771 c 0,3.31371 -2.68629,6 -6,6 -3.31371,0 -6,-2.68629 -6,-6 0,-3.31371 2.68629,-6 6,-6 3.31371,0 6,2.68629 6,6 z"
         stroke-opacity="1"
         stroke-linecap="round"
         stroke-linejoin="round"
         stroke-miterlimit="10"
         id="path72" />
      <path
         fill="#cc0000"
         stroke="none"
         paint-order="stroke fill markers"
         d="m 800.98671,512.76401 c 0,3.3137 -2.6863,6 -6,6 -3.31371,0 -6,-2.6863 -6,-6 0,-3.31371 2.68629,-6 6,-6 3.3137,0 6,2.68629 6,6 z"
         fill-opacity="1"
         id="path73" />
      <path
         fill="none"
         stroke="#000000"
         paint-order="fill stroke markers"
         d="m 800.98671,512.76401 c 0,3.3137 -2.6863,6 -6,6 -3.31371,0 -6,-2.6863 -6,-6 0,-3.31371 2.68629,-6 6,-6 3.3137,0 6,2.68629 6,6 z"
         stroke-opacity="1"
         stroke-linecap="round"
         stroke-linejoin="round"
         stroke-miterlimit="10"
         id="path74" />
      <path
         fill="#7d7dff"
         stroke="none"
         paint-order="stroke fill markers"
         d="m 1175.3538,247.85202 c 0,2.76143 -2.2386,5 -5,5 -2.7614,0 -5,-2.23857 -5,-5 0,-2.76142 2.2386,-5 5,-5 2.7614,0 5,2.23858 5,5 z"
         fill-opacity="1"
         id="path75" />
      <path
         fill="none"
         stroke="#000000"
         paint-order="fill stroke markers"
         d="m 1175.3538,247.85202 c 0,2.76143 -2.2386,5 -5,5 -2.7614,0 -5,-2.23857 -5,-5 0,-2.76142 2.2386,-5 5,-5 2.7614,0 5,2.23858 5,5 z"
         stroke-opacity="1"
         stroke-linecap="round"
         stroke-linejoin="round"
         stroke-miterlimit="10"
         id="path76" />
      <text
         fill="#7d7dff"
         stroke="none"
         font-family="geogebra-sans-serif, sans-serif"
         font-size="16px"
         font-style="normal"
         font-weight="normal"
         text-decoration="normal"
         x="1155"
         y="238"
         text-anchor="start"
         dominant-baseline="alphabetic"
         fill-opacity="1"
         id="text76">Q</text>
      <text
         fill="#7d7dff"
         stroke="none"
         font-family="geogebra-sans-serif, sans-serif"
         font-size="14px"
         font-style="normal"
         font-weight="normal"
         text-decoration="normal"
         x="1167"
         y="245"
         text-anchor="start"
         dominant-baseline="alphabetic"
         fill-opacity="1"
         id="text77">1</text>
      <path
         fill="#4d4dff"
         stroke="none"
         paint-order="stroke fill markers"
         d="m 1128.898,193.163 c 0,2.76142 -2.2386,5 -5,5 -2.7614,0 -5,-2.23858 -5,-5 0,-2.76142 2.2386,-5 5,-5 2.7614,0 5,2.23858 5,5 z"
         fill-opacity="1"
         id="path77" />
      <path
         fill="none"
         stroke="#000000"
         paint-order="fill stroke markers"
         d="m 1128.898,193.163 c 0,2.76142 -2.2386,5 -5,5 -2.7614,0 -5,-2.23858 -5,-5 0,-2.76142 2.2386,-5 5,-5 2.7614,0 5,2.23858 5,5 z"
         stroke-opacity="1"
         stroke-linecap="round"
         stroke-linejoin="round"
         stroke-miterlimit="10"
         id="path78" />
      <text
         fill="#4d4dff"
         stroke="none"
         font-family="geogebra-sans-serif, sans-serif"
         font-size="16px"
         font-style="normal"
         font-weight="normal"
         text-decoration="normal"
         x="1128"
         y="183"
         text-anchor="start"
         dominant-baseline="alphabetic"
         fill-opacity="1"
         id="text78">R</text>
      <text
         fill="#4d4dff"
         stroke="none"
         font-family="geogebra-sans-serif, sans-serif"
         font-size="14px"
         font-style="normal"
         font-weight="normal"
         text-decoration="normal"
         x="1140"
         y="190"
         text-anchor="start"
         dominant-baseline="alphabetic"
         fill-opacity="1"
         id="text79">1</text>
      <path
         fill="#6e6d73"
         stroke="none"
         paint-order="stroke fill markers"
         d="m 1182.2522,322.00869 c 0,2.20914 -1.7909,4 -4,4 -2.2092,0 -4,-1.79086 -4,-4 0,-2.20914 1.7908,-4 4,-4 2.2091,0 4,1.79086 4,4 z"
         fill-opacity="1"
         id="path79" />
      <path
         fill="none"
         stroke="#000000"
         paint-order="fill stroke markers"
         d="m 1182.2522,322.00869 c 0,2.20914 -1.7909,4 -4,4 -2.2092,0 -4,-1.79086 -4,-4 0,-2.20914 1.7908,-4 4,-4 2.2091,0 4,1.79086 4,4 z"
         stroke-opacity="1"
         stroke-linecap="round"
         stroke-linejoin="round"
         stroke-miterlimit="10"
         id="path80" />
      <text
         fill="#6e6d73"
         stroke="none"
         font-family="geogebra-sans-serif, sans-serif"
         font-size="16px"
         font-style="normal"
         font-weight="normal"
         text-decoration="normal"
         x="1157"
         y="314"
         text-anchor="start"
         dominant-baseline="alphabetic"
         fill-opacity="1"
         id="text80">T</text>
      <text
         fill="#6e6d73"
         stroke="none"
         font-family="geogebra-sans-serif, sans-serif"
         font-size="14px"
         font-style="normal"
         font-weight="normal"
         text-decoration="normal"
         x="1167"
         y="321"
         text-anchor="start"
         dominant-baseline="alphabetic"
         fill-opacity="1"
         id="text81">1</text>
      <g
         transform="scale(25)"
         id="g83">
        <g
           transform="translate(8.8,14.934)"
           id="g81">
          <path
             fill="#009900"
             stroke="none"
             paint-order="stroke fill markers"
             d="m 0.154,-0.306 v 0 l 0.013,-0.01 q -0.064,-0.037 -0.065,-0.106 0,-0.076 0.073,-0.135 0.043,-0.036 0.102,-0.052 -0.007,-0.028 -0.007,-0.039 0,-0.049 0.018,-0.049 0.012,0 0.012,0.013 l -0.005,0.036 v 0.001 q 0,0.018 0.005,0.033 0.026,-0.005 0.063,-0.005 0.074,0 0.082,0.02 v 0.001 0.001 q 0.001,0.002 0.001,0.005 0,0.031 -0.089,0.031 -0.043,0 -0.061,-0.018 -0.001,-0.002 -0.003,-0.004 -0.074,0.037 -0.102,0.117 -0.009,0.027 -0.009,0.053 0,0.048 0.03,0.078 0.037,-0.012 0.084,-0.012 0.08,0 0.082,0.027 0,0.031 -0.093,0.031 -0.051,0 -0.088,-0.013 -0.076,0.038 -0.11,0.118 -0.013,0.03 -0.013,0.052 0,0.059 0.075,0.089 l 0.06,0.024 q 0.021,0.007 0.061,0.023 0.044,0.017 0.061,0.023 0.048,0.022 0.048,0.071 0,0.049 -0.04,0.083 Q 0.32,0.197 0.297,0.202 0.286,0.205 0.275,0.205 0.221,0.205 0.179,0.173 0.166,0.163 0.166,0.157 q 0,-0.011 0.01,-0.011 0.004,0 0.011,0.005 0.044,0.032 0.088,0.032 0.032,0 0.045,-0.034 Q 0.324,0.139 0.324,0.13 0.324,0.104 0.297,0.091 0.301,0.093 0.289,0.087 L 0.168,0.04 Q 0.095,0.013 0.075,-0.003 0.066,-0.01 0.052,-0.025 0.036,-0.049 0.035,-0.05 0.023,-0.075 0.023,-0.104 q 0,-0.062 0.05,-0.127 0.032,-0.043 0.081,-0.075 m 0.162,-0.286 q 0.011,0.009 0.042,0.009 0.041,0 0.062,-0.008 -0.022,-0.006 -0.056,-0.006 -0.032,0 -0.048,0.005 m -0.078,0.273 q 0.018,0.008 0.05,0.008 0.048,0 0.064,-0.008 -0.022,-0.006 -0.057,-0.006 -0.034,0 -0.057,0.006 z"
             id="path81" />
        </g>
        <g
           transform="matrix(0.7,0,0,0.7,9.238,15.163)"
           id="g82">
          <path
             fill="#009900"
             stroke="none"
             paint-order="stroke fill markers"
             d="m 0.294,-0.64 v 0.561 q 0,0.03 0.012,0.038 0.017,0.01 0.081,0.01 H 0.419 V 0 Q 0.384,-0.003 0.257,-0.003 0.13,-0.003 0.095,0 v -0.031 h 0.032 q 0.077,0 0.088,-0.018 L 0.216,-0.05 Q 0.22,-0.058 0.22,-0.079 v -0.518 q -0.052,0.026 -0.131,0.026 v -0.031 q 0.12,0 0.182,-0.064 0.019,0 0.022,0.007 v 0 0.001 q 0.001,0.003 0.001,0.018 z"
             id="path82" />
        </g>
      </g>
      <g
         transform="scale(25)"
         id="g86">
        <g
           transform="translate(17.48,14.014)"
           id="g84">
          <path
             fill="#009900"
             stroke="none"
             paint-order="stroke fill markers"
             d="m 0.154,-0.306 v 0 l 0.013,-0.01 q -0.064,-0.037 -0.065,-0.106 0,-0.076 0.073,-0.135 0.043,-0.036 0.102,-0.052 -0.007,-0.028 -0.007,-0.039 0,-0.049 0.018,-0.049 0.012,0 0.012,0.013 l -0.005,0.036 v 0.001 q 0,0.018 0.005,0.033 0.026,-0.005 0.063,-0.005 0.074,0 0.082,0.02 v 0.001 0.001 q 0.001,0.002 0.001,0.005 0,0.031 -0.089,0.031 -0.043,0 -0.061,-0.018 -0.001,-0.002 -0.003,-0.004 -0.074,0.037 -0.102,0.117 -0.009,0.027 -0.009,0.053 0,0.048 0.03,0.078 0.037,-0.012 0.084,-0.012 0.08,0 0.082,0.027 0,0.031 -0.093,0.031 -0.051,0 -0.088,-0.013 -0.076,0.038 -0.11,0.118 -0.013,0.03 -0.013,0.052 0,0.059 0.075,0.089 l 0.06,0.024 q 0.021,0.007 0.061,0.023 0.044,0.017 0.061,0.023 0.048,0.022 0.048,0.071 0,0.049 -0.04,0.083 Q 0.32,0.197 0.297,0.202 0.286,0.205 0.275,0.205 0.221,0.205 0.179,0.173 0.166,0.163 0.166,0.157 q 0,-0.011 0.01,-0.011 0.004,0 0.011,0.005 0.044,0.032 0.088,0.032 0.032,0 0.045,-0.034 Q 0.324,0.139 0.324,0.13 0.324,0.104 0.297,0.091 0.301,0.093 0.289,0.087 L 0.168,0.04 Q 0.095,0.013 0.075,-0.003 0.066,-0.01 0.052,-0.025 0.036,-0.049 0.035,-0.05 0.023,-0.075 0.023,-0.104 q 0,-0.062 0.05,-0.127 0.032,-0.043 0.081,-0.075 m 0.162,-0.286 q 0.011,0.009 0.042,0.009 0.041,0 0.062,-0.008 -0.022,-0.006 -0.056,-0.006 -0.032,0 -0.048,0.005 m -0.078,0.273 q 0.018,0.008 0.05,0.008 0.048,0 0.064,-0.008 -0.022,-0.006 -0.057,-0.006 -0.034,0 -0.057,0.006 z"
             id="path83" />
        </g>
        <g
           transform="matrix(0.7,0,0,0.7,17.918,14.243)"
           id="g85">
          <path
             fill="#009900"
             stroke="none"
             paint-order="stroke fill markers"
             d="m 0.449,-0.201 v 0 q 0,0.103 -0.077,0.17 Q 0.31,0.022 0.231,0.022 0.139,0.022 0.085,-0.055 0.05,-0.104 0.05,-0.161 q 0,-0.046 0.041,-0.052 0.004,-0.001 0.008,-0.001 0.037,0 0.048,0.033 0.002,0.008 0.002,0.016 0,0.032 -0.028,0.044 -0.01,0.005 -0.022,0.005 -0.011,0 -0.017,-0.002 0.018,0.063 0.077,0.094 0.033,0.018 0.07,0.018 0.067,0 0.107,-0.065 0.024,-0.042 0.024,-0.137 0,-0.084 -0.018,-0.126 -0.028,-0.064 -0.085,-0.064 -0.081,0 -0.129,0.07 -0.006,0.009 -0.013,0.009 -0.013,0 -0.014,-0.014 v -0.012 -0.296 q 0,-0.023 0.01,-0.024 0.004,0 0.012,0.003 0.063,0.028 0.133,0.028 0.072,0 0.136,-0.029 0.005,-0.003 0.008,-0.003 0.01,0 0.01,0.011 0,0.013 -0.032,0.042 -0.068,0.062 -0.161,0.062 -0.042,0 -0.085,-0.013 v 0.195 q 0.052,-0.051 0.127,-0.051 0.088,0 0.145,0.077 0.045,0.061 0.045,0.142 z"
             id="path84" />
        </g>
      </g>
      <g
         transform="scale(25)"
         id="g89">
        <g
           transform="translate(28.72,14.734)"
           id="g87">
          <path
             fill="#009900"
             stroke="none"
             paint-order="stroke fill markers"
             d="m 0.154,-0.306 v 0 l 0.013,-0.01 q -0.064,-0.037 -0.065,-0.106 0,-0.076 0.073,-0.135 0.043,-0.036 0.102,-0.052 -0.007,-0.028 -0.007,-0.039 0,-0.049 0.018,-0.049 0.012,0 0.012,0.013 l -0.005,0.036 v 0.001 q 0,0.018 0.005,0.033 0.026,-0.005 0.063,-0.005 0.074,0 0.082,0.02 v 0.001 0.001 q 0.001,0.002 0.001,0.005 0,0.031 -0.089,0.031 -0.043,0 -0.061,-0.018 -0.001,-0.002 -0.003,-0.004 -0.074,0.037 -0.102,0.117 -0.009,0.027 -0.009,0.053 0,0.048 0.03,0.078 0.037,-0.012 0.084,-0.012 0.08,0 0.082,0.027 0,0.031 -0.093,0.031 -0.051,0 -0.088,-0.013 -0.076,0.038 -0.11,0.118 -0.013,0.03 -0.013,0.052 0,0.059 0.075,0.089 l 0.06,0.024 q 0.021,0.007 0.061,0.023 0.044,0.017 0.061,0.023 0.048,0.022 0.048,0.071 0,0.049 -0.04,0.083 Q 0.32,0.197 0.297,0.202 0.286,0.205 0.275,0.205 0.221,0.205 0.179,0.173 0.166,0.163 0.166,0.157 q 0,-0.011 0.01,-0.011 0.004,0 0.011,0.005 0.044,0.032 0.088,0.032 0.032,0 0.045,-0.034 Q 0.324,0.139 0.324,0.13 0.324,0.104 0.297,0.091 0.301,0.093 0.289,0.087 L 0.168,0.04 Q 0.095,0.013 0.075,-0.003 0.066,-0.01 0.052,-0.025 0.036,-0.049 0.035,-0.05 0.023,-0.075 0.023,-0.104 q 0,-0.062 0.05,-0.127 0.032,-0.043 0.081,-0.075 m 0.162,-0.286 q 0.011,0.009 0.042,0.009 0.041,0 0.062,-0.008 -0.022,-0.006 -0.056,-0.006 -0.032,0 -0.048,0.005 m -0.078,0.273 q 0.018,0.008 0.05,0.008 0.048,0 0.064,-0.008 -0.022,-0.006 -0.057,-0.006 -0.034,0 -0.057,0.006 z"
             id="path86" />
        </g>
        <g
           transform="matrix(0.7,0,0,0.7,29.158,14.963)"
           id="g88">
          <path
             fill="#009900"
             stroke="none"
             paint-order="stroke fill markers"
             d="m 0.028,-0.165 v -0.031 l 0.307,-0.469 q 0.008,-0.012 0.02,-0.012 0.014,0 0.016,0.011 v 0.015 0.455 h 0.1 v 0.031 h -0.1 v 0.087 q 0,0.031 0.012,0.038 0.014,0.009 0.064,0.009 H 0.468 V 0 Q 0.427,-0.003 0.332,-0.003 0.238,-0.003 0.197,0 v -0.031 h 0.021 q 0.062,0 0.072,-0.017 0.004,-0.007 0.004,-0.03 V -0.165 H 0.028 M 0.3,-0.196 v -0.373 l -0.244,0.373 z"
             id="path87" />
        </g>
      </g>
      <g
         transform="scale(25)"
         id="g93">
        <g
           transform="translate(32.88,11.734)"
           id="g90">
          <path
             fill="#009900"
             stroke="none"
             paint-order="stroke fill markers"
             d="m 0.154,-0.306 v 0 l 0.013,-0.01 q -0.064,-0.037 -0.065,-0.106 0,-0.076 0.073,-0.135 0.043,-0.036 0.102,-0.052 -0.007,-0.028 -0.007,-0.039 0,-0.049 0.018,-0.049 0.012,0 0.012,0.013 l -0.005,0.036 v 0.001 q 0,0.018 0.005,0.033 0.026,-0.005 0.063,-0.005 0.074,0 0.082,0.02 v 0.001 0.001 q 0.001,0.002 0.001,0.005 0,0.031 -0.089,0.031 -0.043,0 -0.061,-0.018 -0.001,-0.002 -0.003,-0.004 -0.074,0.037 -0.102,0.117 -0.009,0.027 -0.009,0.053 0,0.048 0.03,0.078 0.037,-0.012 0.084,-0.012 0.08,0 0.082,0.027 0,0.031 -0.093,0.031 -0.051,0 -0.088,-0.013 -0.076,0.038 -0.11,0.118 -0.013,0.03 -0.013,0.052 0,0.059 0.075,0.089 l 0.06,0.024 q 0.021,0.007 0.061,0.023 0.044,0.017 0.061,0.023 0.048,0.022 0.048,0.071 0,0.049 -0.04,0.083 Q 0.32,0.197 0.297,0.202 0.286,0.205 0.275,0.205 0.221,0.205 0.179,0.173 0.166,0.163 0.166,0.157 q 0,-0.011 0.01,-0.011 0.004,0 0.011,0.005 0.044,0.032 0.088,0.032 0.032,0 0.045,-0.034 Q 0.324,0.139 0.324,0.13 0.324,0.104 0.297,0.091 0.301,0.093 0.289,0.087 L 0.168,0.04 Q 0.095,0.013 0.075,-0.003 0.066,-0.01 0.052,-0.025 0.036,-0.049 0.035,-0.05 0.023,-0.075 0.023,-0.104 q 0,-0.062 0.05,-0.127 0.032,-0.043 0.081,-0.075 m 0.162,-0.286 q 0.011,0.009 0.042,0.009 0.041,0 0.062,-0.008 -0.022,-0.006 -0.056,-0.006 -0.032,0 -0.048,0.005 m -0.078,0.273 q 0.018,0.008 0.05,0.008 0.048,0 0.064,-0.008 -0.022,-0.006 -0.057,-0.006 -0.034,0 -0.057,0.006 z"
             id="path89" />
        </g>
        <g
           transform="matrix(0.7,0,0,0.7,33.318,11.963)"
           id="g91">
          <path
             fill="#009900"
             stroke="none"
             paint-order="stroke fill markers"
             d="m 0.294,-0.64 v 0.561 q 0,0.03 0.012,0.038 0.017,0.01 0.081,0.01 H 0.419 V 0 Q 0.384,-0.003 0.257,-0.003 0.13,-0.003 0.095,0 v -0.031 h 0.032 q 0.077,0 0.088,-0.018 L 0.216,-0.05 Q 0.22,-0.058 0.22,-0.079 v -0.518 q -0.052,0.026 -0.131,0.026 v -0.031 q 0.12,0 0.182,-0.064 0.019,0 0.022,0.007 v 0 0.001 q 0.001,0.003 0.001,0.018 z"
             id="path90" />
        </g>
        <g
           transform="matrix(0.7,0,0,0.7,33.668,11.963)"
           id="g92">
          <path
             fill="#009900"
             stroke="none"
             paint-order="stroke fill markers"
             d="m 0.294,-0.64 v 0.561 q 0,0.03 0.012,0.038 0.017,0.01 0.081,0.01 H 0.419 V 0 Q 0.384,-0.003 0.257,-0.003 0.13,-0.003 0.095,0 v -0.031 h 0.032 q 0.077,0 0.088,-0.018 L 0.216,-0.05 Q 0.22,-0.058 0.22,-0.079 v -0.518 q -0.052,0.026 -0.131,0.026 v -0.031 q 0.12,0 0.182,-0.064 0.019,0 0.022,0.007 v 0 0.001 q 0.001,0.003 0.001,0.018 z"
             id="path91" />
        </g>
      </g>
    </g>
  </g>
</svg>
