<?xml version="1.0" encoding="UTF-8" standalone="no"?>
<svg
   version="1.1"
   width="215.897mm"
   height="173.81812mm"
   id="svg72"
   sodipodi:docname="svm_vectores_soporte_2.svg"
   inkscape:version="1.4.2 (f4327f4, 2025-05-13)"
   xmlns:inkscape="http://www.inkscape.org/namespaces/inkscape"
   xmlns:sodipodi="http://sodipodi.sourceforge.net/DTD/sodipodi-0.dtd"
   xmlns="http://www.w3.org/2000/svg"
   xmlns:svg="http://www.w3.org/2000/svg">
  <sodipodi:namedview
     id="namedview72"
     pagecolor="#ffffff"
     bordercolor="#666666"
     borderopacity="1.0"
     inkscape:showpageshadow="2"
     inkscape:pageopacity="0.0"
     inkscape:pagecheckerboard="0"
     inkscape:deskcolor="#d1d1d1"
     showgrid="false"
     inkscape:zoom="0.81741336"
     inkscape:cx="472.83299"
     inkscape:cy="338.87384"
     inkscape:window-width="1440"
     inkscape:window-height="830"
     inkscape:window-x="-6"
     inkscape:window-y="-6"
     inkscape:window-maximized="1"
     inkscape:current-layer="svg72"
     inkscape:document-units="mm" />
  <defs
     id="defs1">
    <clipPath
       id="BtEtvvsCaLef">
      <path
         fill="none"
         stroke="none"
         d="M 0,0 H 1183 V 691 H 0 Z"
         id="path1" />
    </clipPath>
    <clipPath
       clipPathUnits="userSpaceOnUse"
       id="clipPath72">
      <rect
         id="rect73"
         width="815.98865"
         height="656.95038"
         x="118.66702"
         y="6.1168561" />
    </clipPath>
  </defs>
  <g
     clip-path="url(#BtEtvvsCaLef)"
     id="g72"
     transform="translate(-118.66702,-6.1168561)">
    <g
       id="g71">
      <rect
         fill="#ffffff"
         stroke="none"
         x="0"
         y="0"
         width="1183"
         height="691"
         fill-opacity="1"
         id="rect1"
         clip-path="url(#clipPath72)" />
      <path
         fill="#339900"
         stroke="none"
         paint-order="stroke fill markers"
         fill-rule="evenodd"
         d="M 39.810045,559.27558 14.272897,437.2271 1076.2063,158.76899 l 31.5874,120.46202 z"
         fill-opacity="0.109804"
         id="path2" />
      <path
         fill="none"
         stroke="#000000"
         paint-order="fill stroke markers"
         d="m 1154.2673,219 c 0,34.38927 -27.878,62.26728 -62.2673,62.26728 -34.3893,0 -62.2673,-27.87801 -62.2673,-62.26728 0,-34.38927 27.878,-62.26728 62.2673,-62.26728 34.3893,0 62.2673,27.87801 62.2673,62.26728 z"
         stroke-opacity="0.698039"
         stroke-linecap="round"
         stroke-linejoin="round"
         stroke-miterlimit="10"
         stroke-width="2.5"
         id="path3" />
      <text
         fill="#000000"
         stroke="none"
         font-family="geogebra-sans-serif, sans-serif"
         font-size="16px"
         font-style="normal"
         font-weight="normal"
         text-decoration="normal"
         x="1060"
         y="186"
         text-anchor="start"
         dominant-baseline="alphabetic"
         fill-opacity="1"
         id="text3">c</text>
      <path
         fill="none"
         stroke="#006400"
         paint-order="fill stroke markers"
         d="M -5,506.6532 1188,193.82707"
         stroke-opacity="0.698039"
         stroke-linecap="round"
         stroke-linejoin="round"
         stroke-miterlimit="10"
         stroke-width="2.5"
         id="path4" />
      <text
         fill="#006400"
         stroke="none"
         font-family="geogebra-sans-serif, sans-serif"
         font-size="16px"
         font-style="normal"
         font-weight="normal"
         text-decoration="normal"
         x="8"
         y="494"
         text-anchor="start"
         dominant-baseline="alphabetic"
         fill-opacity="1"
         id="text4">f</text>
      <path
         fill="none"
         stroke="#000000"
         paint-order="fill stroke markers"
         d="M 1188,585.10753 1033.2632,-5"
         stroke-opacity="0.698039"
         stroke-linecap="round"
         stroke-linejoin="round"
         stroke-miterlimit="10"
         stroke-width="2.5"
         id="path5" />
      <text
         fill="#000000"
         stroke="none"
         font-family="geogebra-sans-serif, sans-serif"
         font-size="16px"
         font-style="normal"
         font-weight="normal"
         text-decoration="normal"
         x="1021"
         y="24"
         text-anchor="start"
         dominant-baseline="alphabetic"
         fill-opacity="1"
         id="text5">g</text>
      <path
         fill="none"
         stroke="#339900"
         paint-order="fill stroke markers"
         d="M -5,571.02559 1188,258.19946"
         stroke-opacity="0.698039"
         stroke-linejoin="round"
         stroke-miterlimit="10"
         stroke-width="1.5"
         stroke-dasharray="1.5, 3"
         id="path6" />
      <text
         fill="#339900"
         stroke="none"
         font-family="geogebra-sans-serif, sans-serif"
         font-size="16px"
         font-style="normal"
         font-weight="normal"
         text-decoration="normal"
         x="8"
         y="559"
         text-anchor="start"
         dominant-baseline="alphabetic"
         fill-opacity="1"
         id="text6">h</text>
      <path
         fill="none"
         stroke="#339900"
         paint-order="fill stroke markers"
         d="M -5,442.28081 1188,129.45468"
         stroke-opacity="0.698039"
         stroke-linejoin="round"
         stroke-miterlimit="10"
         stroke-width="1.5"
         stroke-dasharray="1.5, 3"
         id="path7" />
      <text
         fill="#339900"
         stroke="none"
         font-family="geogebra-sans-serif, sans-serif"
         font-size="16px"
         font-style="normal"
         font-weight="normal"
         text-decoration="normal"
         x="8"
         y="430"
         text-anchor="start"
         dominant-baseline="alphabetic"
         fill-opacity="1"
         id="text7">i</text>
      <path
         fill="#808080"
         stroke="none"
         paint-order="stroke fill markers"
         d="m 379.0073,165.50002 -0.0146,2.99996 6.99992,0.0341 0.0146,-2.99997 z m 10.99987,0.0535 -0.0146,2.99996 6.99992,0.0341 0.0146,-2.99996 z m 10.99987,0.0535 -0.0146,2.99997 6.99992,0.0341 0.0146,-2.99996 z m 10.99987,0.0535 -0.0146,2.99996 6.99992,0.0341 0.0146,-2.99997 z m 10.99987,0.0535 -0.0146,2.99996 6.99992,0.0341 0.0146,-2.99996 z m 10.99987,0.0535 -0.0146,2.99997 6.99992,0.0341 0.0146,-2.99996 z m 10.99987,0.0535 -0.0146,2.99997 6.99992,0.0341 0.0146,-2.99997 z m 10.99987,0.0535 -0.0146,2.99996 6.99992,0.0341 0.0146,-2.99997 z m 10.99987,0.0535 -0.0146,2.99996 6.99992,0.0341 0.0146,-2.99996 z m 10.99987,0.0535 -0.0146,2.99997 6.99992,0.0341 0.0146,-2.99996 z m 10.99987,0.0535 -0.0146,2.99997 6.99992,0.0341 0.0146,-2.99997 z m 10.99987,0.0535 -0.0146,2.99996 6.99992,0.0341 0.0146,-2.99997 z m 10.99987,0.0535 -0.0146,2.99996 6.99992,0.0341 0.0146,-2.99996 z m 10.99987,0.0535 -0.0146,2.99997 6.99991,0.0341 0.0146,-2.99996 z m 10.99987,0.0535 -0.0146,2.99997 6.99991,0.0341 0.0146,-2.99997 z m 10.99987,0.0535 -0.0146,2.99996 6.99991,0.0341 0.0146,-2.99997 z m 10.99987,0.0535 -0.0146,2.99996 6.99991,0.0341 0.0146,-2.99996 z m 10.99987,0.0535 -0.0146,2.99997 6.99991,0.0341 0.0146,-2.99996 z m 10.99986,0.0535 -0.0146,2.99996 6.99991,0.0341 0.0146,-2.99997 z m 10.99987,0.0535 -0.0146,2.99996 6.99991,0.0341 0.0146,-2.99996 z m 10.99987,0.0535 -0.0146,2.99997 6.99991,0.0341 0.0146,-2.99996 z m 10.99987,0.0535 -0.0146,2.99997 6.99991,0.0341 0.0146,-2.99997 z m 10.99987,0.0535 -0.0146,2.99996 6.99991,0.0341 0.0146,-2.99997 z m 10.99987,0.0535 -0.0146,2.99996 6.99991,0.0341 0.0146,-2.99996 z m 10.99987,0.0535 -0.0146,2.99997 6.99991,0.0341 0.0146,-2.99996 z m 10.99987,0.0535 -0.0146,2.99997 6.99992,0.0341 0.0146,-2.99997 z m 10.99987,0.0535 -0.0146,2.99996 6.99992,0.0341 0.0146,-2.99997 z m 10.99987,0.0535 -0.0146,2.99996 6.99992,0.0341 0.0146,-2.99996 z m 10.99987,0.0535 -0.0146,2.99997 6.99992,0.0341 0.0146,-2.99996 z m 10.99987,0.0535 -0.0146,2.99997 6.99992,0.0341 0.0146,-2.99997 z m 10.99987,0.0535 -0.0146,2.99996 6.99992,0.0341 0.0146,-2.99997 z m 10.99987,0.0535 -0.0146,2.99996 6.99992,0.0341 0.0146,-2.99996 z m 10.99987,0.0535 -0.0146,2.99997 6.99992,0.0341 0.0146,-2.99996 z m 10.99987,0.0535 -0.0146,2.99996 6.99992,0.0341 0.0146,-2.99997 z m 10.99987,0.0535 -0.0146,2.99996 6.99992,0.0341 0.0146,-2.99996 z m 10.99987,0.0535 -0.0146,2.99997 6.99992,0.0341 0.0146,-2.99996 z m 8.01937,-2.96101 -0.0438,8.9999 L 790,169 Z"
         fill-opacity="0.698039"
         id="path8" />
      <path
         fill="#808080"
         stroke="none"
         paint-order="stroke fill markers"
         d="m 379.66121,165.6536 -1.32242,2.6928 6.28321,3.08565 1.32242,-2.6928 z m 9.87362,4.84887 -1.32242,2.69281 6.28321,3.08565 1.32242,-2.69281 z m 9.87362,4.84888 -1.32242,2.69281 6.28321,3.08565 1.32243,-2.69281 z m 9.87362,4.84888 -1.32242,2.69281 6.28322,3.08564 1.32242,-2.6928 z m 9.87362,4.84888 -1.32242,2.6928 6.28322,3.08565 1.32242,-2.6928 z m 9.87362,4.84887 -1.32242,2.69281 6.28322,3.08565 1.32242,-2.69281 z m 9.87363,4.84888 -1.32243,2.69281 6.28322,3.08565 1.32242,-2.69281 z m 9.87362,4.84888 -1.32242,2.6928 6.28321,3.08565 1.32242,-2.6928 z m 9.87362,4.84888 -1.32242,2.6928 6.28321,3.08565 1.32242,-2.6928 z m 9.87362,4.84887 -1.32242,2.69281 6.28321,3.08565 1.32242,-2.69281 z m 9.87362,4.84888 -1.32242,2.69281 6.28321,3.08565 1.32242,-2.69281 z m 9.87362,4.84888 -1.32242,2.6928 6.28321,3.08565 1.32242,-2.6928 z m 9.87362,4.84888 -1.32242,2.6928 6.28321,3.08565 1.32242,-2.6928 z m 9.87362,4.84887 -1.32242,2.69281 6.28321,3.08565 1.32242,-2.69281 z m 9.87362,4.84888 -1.32242,2.69281 6.28321,3.08565 1.32243,-2.69281 z m 9.87362,4.84888 -1.32242,2.6928 6.28321,3.08565 1.32243,-2.6928 z m 9.87362,4.84888 -1.32242,2.6928 6.28322,3.08565 1.32242,-2.69281 z m 9.87362,4.84887 -1.32242,2.69281 6.28322,3.08565 1.32242,-2.69281 z m 9.87363,4.84888 -1.32243,2.69281 6.28322,3.08565 1.32242,-2.69281 z m 9.87362,4.84888 -1.32243,2.6928 6.28322,3.08565 1.32242,-2.6928 z m 9.87362,4.84888 -1.32242,2.6928 6.28321,3.08565 1.32242,-2.69281 z m 9.87362,4.84887 -1.32242,2.69281 6.28321,3.08565 1.32242,-2.69281 z m 9.87362,4.84888 -1.32242,2.69281 6.28321,3.08564 1.32242,-2.6928 z m 9.87362,4.84888 -1.32242,2.6928 6.28321,3.08565 1.32242,-2.6928 z m 9.87362,4.84887 -1.32242,2.69281 6.28321,3.08565 1.32242,-2.69281 z m 9.87362,4.84888 -1.32242,2.69281 6.28321,3.08565 1.32242,-2.69281 z m 9.87362,4.84888 -1.32242,2.69281 6.28321,3.08564 1.32242,-2.6928 z m 9.87362,4.84888 -1.32242,2.6928 6.28321,3.08565 1.32243,-2.6928 z m 9.87362,4.84887 -1.32242,2.69281 6.28322,3.08565 1.32242,-2.69281 z m 9.87362,4.84888 -1.32242,2.69281 6.28322,3.08565 1.32242,-2.69281 z m 9.87362,4.84888 -1.32242,2.6928 6.28322,3.08565 1.32242,-2.6928 z m 9.87363,4.84888 -1.32243,2.6928 6.28322,3.08565 1.32242,-2.6928 z m 9.87362,4.84887 -1.32242,2.69281 6.28321,3.08565 1.32242,-2.69281 z m 9.87362,4.84888 -1.32242,2.69281 6.28321,3.08565 1.32242,-2.69281 z m 9.87362,4.84888 -1.32242,2.6928 6.28321,3.08565 1.32242,-2.6928 z m 9.87362,4.84888 -1.32242,2.6928 6.28321,3.08565 1.32242,-2.6928 z m 9.87362,4.84887 -1.32242,2.69281 6.28321,3.08565 1.32242,-2.69281 z m 9.87362,4.84888 -1.32242,2.69281 6.28321,3.08565 1.32242,-2.69281 z m 12.84162,2.9642 -1.32242,2.69281 -1.64558,-0.80813 -1.32242,2.6928 1.64558,0.80814 -1.32243,2.6928 L 772,360 v 0 z"
         fill-opacity="0.698039"
         id="path9" />
      <path
         fill="#808080"
         stroke="none"
         paint-order="stroke fill markers"
         d="m 379.85517,165.76765 -1.71034,2.4647 5.75095,3.99081 1.71034,-2.4647 z m 9.03721,6.27128 -1.71035,2.46469 5.75095,3.99081 1.71035,-2.46469 z m 9.03721,6.27127 -1.71035,2.4647 5.75095,3.99081 1.71035,-2.4647 z m 9.03721,6.27128 -1.71035,2.46469 5.75095,3.99081 1.71035,-2.46469 z m 9.0372,6.27127 -1.71034,2.46469 5.75095,3.99081 1.71034,-2.46469 z m 9.03721,6.27127 -1.71035,2.4647 5.75095,3.99081 1.71035,-2.46469 z m 9.03721,6.27128 -1.71035,2.46469 5.75095,3.99081 1.71035,-2.46469 z m 9.03721,6.27127 -1.71035,2.4647 5.75095,3.99081 1.71035,-2.4647 z m 9.0372,6.27128 -1.71034,2.46469 5.75095,3.99081 1.71034,-2.46469 z m 9.03721,6.27127 -1.71035,2.46469 5.75095,3.99082 1.71035,-2.4647 z m 9.03721,6.27128 -1.71035,2.46469 5.75095,3.99081 1.71035,-2.46469 z m 9.03721,6.27127 -1.71035,2.46469 5.75095,3.99081 1.71035,-2.46469 z m 9.0372,6.27127 -1.71034,2.4647 5.75095,3.99081 1.71034,-2.46469 z m 9.03721,6.27128 -1.71035,2.46469 5.75095,3.99081 1.71035,-2.46469 z m 9.03721,6.27127 -1.71035,2.4647 5.75095,3.99081 1.71035,-2.4647 z m 9.03721,6.27128 -1.71035,2.46469 5.75095,3.99081 1.71035,-2.46469 z m 9.0372,6.27127 -1.71034,2.46469 5.75095,3.99082 1.71034,-2.4647 z m 9.03721,6.27128 -1.71035,2.46469 5.75095,3.99081 1.71035,-2.46469 z m 9.03721,6.27127 -1.71035,2.46469 5.75095,3.99081 1.71035,-2.46469 z m 9.03721,6.27127 -1.71035,2.4647 5.75095,3.99081 1.71035,-2.46469 z m 9.0372,6.27128 -1.71034,2.46469 5.75095,3.99081 1.71034,-2.46469 z m 9.03721,6.27127 -1.71035,2.4647 5.75095,3.99081 1.71035,-2.4647 z m 9.03721,6.27128 -1.71035,2.46469 5.75095,3.99081 1.71035,-2.46469 z m 9.03721,6.27127 -1.71035,2.46469 5.75095,3.99082 1.71035,-2.4647 z m 9.0372,6.27128 -1.71034,2.46469 5.75095,3.99081 1.71034,-2.46469 z m 9.03721,6.27127 -1.71035,2.46469 5.75095,3.99081 1.71035,-2.46469 z m 9.03721,6.27127 -1.71035,2.4647 5.75095,3.99081 1.71035,-2.46469 z m 9.03721,6.27128 -1.71035,2.46469 5.75095,3.99081 1.71035,-2.46469 z m 9.0372,6.27127 -1.71034,2.4647 5.75095,3.99081 1.71034,-2.4647 z m 9.03721,6.27128 -1.71035,2.46469 5.75095,3.99081 1.71035,-2.46469 z m 9.03721,6.27127 -1.71035,2.46469 5.75095,3.99082 1.71035,-2.4647 z m 9.03721,6.27128 -1.71035,2.46469 5.75095,3.99081 1.71035,-2.46469 z m 9.0372,6.27127 -1.71034,2.46469 5.75095,3.99081 1.71034,-2.46469 z m 9.03721,6.27127 -1.71035,2.4647 5.75095,3.99081 1.71035,-2.46469 z m 9.03721,6.27128 -1.71035,2.46469 5.75095,3.99081 1.71035,-2.46469 z m 9.65713,3.0499 -5.13104,7.39407 L 709,396 Z"
         fill-opacity="0.698039"
         id="path10" />
      <path
         fill="#808080"
         stroke="none"
         paint-order="stroke fill markers"
         d="m 380.15633,166.04454 -2.31266,1.91092 4.45883,5.39619 2.31265,-1.91092 z m 7.00672,8.47973 -2.31265,1.91092 4.45882,5.39619 2.31266,-1.91092 z m 7.00673,8.47973 -2.31266,1.91092 4.45883,5.39619 2.31265,-1.91092 z m 7.00672,8.47973 -2.31265,1.91092 4.45882,5.39619 2.31266,-1.91092 z m 7.00673,8.47972 -2.31266,1.91093 4.45883,5.39619 2.31265,-1.91092 z m 7.00672,8.47973 -2.31265,1.91093 4.45882,5.39619 2.31265,-1.91092 z m 7.00672,8.47973 -2.31265,1.91093 4.45883,5.39619 2.31265,-1.91093 z m 7.00673,8.47973 -2.31265,1.91093 4.45882,5.39619 2.31265,-1.91093 z m 7.00672,8.47973 -2.31265,1.91093 4.45883,5.39619 2.31265,-1.91093 z m 7.00673,8.47973 -2.31265,1.91093 4.45882,5.39619 2.31265,-1.91093 z m 7.00672,8.47973 -2.31265,1.91093 4.45882,5.39619 2.31266,-1.91093 z m 7.00673,8.47973 -2.31266,1.91092 4.45883,5.3962 2.31265,-1.91093 z m 7.00672,8.47973 -2.31265,1.91092 4.45882,5.3962 2.31266,-1.91093 z m 7.00673,8.47973 -2.31266,1.91092 4.45883,5.39619 2.31265,-1.91092 z m 7.00672,8.47973 -2.31265,1.91092 4.45882,5.39619 2.31266,-1.91092 z m 7.00673,8.47973 -2.31266,1.91092 4.45883,5.39619 2.31265,-1.91092 z m 7.00672,8.47973 -2.31265,1.91092 4.45882,5.39619 2.31266,-1.91092 z m 7.00673,8.47973 -2.31266,1.91092 4.45883,5.39619 2.31265,-1.91092 z m 7.00672,8.47973 -2.31265,1.91092 4.45882,5.39619 2.31266,-1.91092 z m 7.00673,8.47972 -2.31266,1.91093 4.45883,5.39619 2.31265,-1.91092 z m 7.00672,8.47973 -2.31265,1.91093 4.45882,5.39619 2.31266,-1.91092 z m 7.00673,8.47973 -2.31266,1.91093 4.45883,5.39619 2.31265,-1.91093 z m 7.00672,8.47973 -2.31265,1.91093 4.45882,5.39619 2.31265,-1.91093 z m 7.00672,8.47973 -2.31265,1.91093 3.37978,4.0903 -2.31265,1.91093 L 555,380 l -7.99657,-16.74231 -2.31265,1.91093 z"
         fill-opacity="0.698039"
         id="path11" />
      <path
         fill="#808080"
         stroke="none"
         paint-order="stroke fill markers"
         d="m 380.32892,166.30432 -2.65784,1.39136 3.24649,6.20163 2.65785,-1.39135 z m 5.10163,9.74543 -2.65784,1.39135 3.24649,6.20164 2.65785,-1.39136 z m 5.10164,9.74543 -2.65785,1.39135 3.2465,6.20164 2.65784,-1.39136 z m 5.10163,9.74542 -2.65784,1.39136 3.24649,6.20163 2.65784,-1.39135 z m 5.10163,9.74543 -2.65784,1.39135 3.24649,6.20164 2.65785,-1.39135 z m 5.10164,9.74543 -2.65785,1.39135 3.2465,6.20164 2.65784,-1.39136 z m 5.10163,9.74542 -2.65785,1.39136 3.2465,6.20163 2.65784,-1.39135 z m 5.10163,9.74543 -2.65784,1.39135 3.24649,6.20164 2.65785,-1.39135 z m 5.10163,9.74543 -2.65784,1.39135 3.24649,6.20164 2.65785,-1.39136 z m 5.10164,9.74542 -2.65785,1.39136 3.2465,6.20163 2.65784,-1.39135 z m 5.10163,9.74543 -2.65784,1.39135 3.24649,6.20164 2.65784,-1.39135 z m 5.10163,9.74543 -2.65784,1.39135 3.24649,6.20164 2.65785,-1.39136 z m 5.10164,9.74542 -2.65785,1.39136 3.2465,6.20163 2.65784,-1.39135 z m 5.10163,9.74543 -2.65785,1.39136 3.2465,6.20163 2.65784,-1.39135 z m 5.98849,4.97104 -7.97353,4.17406 L 457,316 Z"
         fill-opacity="0.698039"
         id="path12" />
      <path
         fill="#808080"
         stroke="none"
         paint-order="stroke fill markers"
         d="m 380.47443,166.72421 -2.94886,0.55158 1.28703,6.88067 2.94886,-0.55159 z m 2.02248,10.81247 -2.94886,0.55159 1.28703,6.88066 2.94886,-0.55158 z m 2.02247,10.81247 -2.94885,0.55159 1.28703,6.88066 2.94885,-0.55158 z m 2.02248,10.81248 -2.94886,0.55158 1.28703,6.88067 2.94886,-0.55159 z m 2.02248,10.81247 -2.94886,0.55159 1.28703,6.88066 2.94886,-0.55158 z m 2.02247,10.81248 -2.94885,0.55158 1.28703,6.88067 2.94885,-0.55159 z m 2.02248,10.81247 -2.94886,0.55158 1.28704,6.88067 2.94885,-0.55159 z m 2.02248,10.81247 -2.94886,0.55159 1.28703,6.88066 2.94886,-0.55158 z m 2.02247,10.81248 -2.94885,0.55158 1.28703,6.88067 2.94886,-0.55159 z m 2.02248,10.81247 -2.94885,0.55159 1.28703,6.88066 2.94885,-0.55158 z m 2.02248,10.81247 -2.94886,0.55159 1.28703,6.88066 2.94886,-0.55158 z m 2.02248,10.81248 -2.94886,0.55158 1.28703,6.88067 2.94886,-0.55159 z m 2.02247,10.81247 -2.94885,0.55159 1.28703,6.88066 2.94885,-0.55158 z m 2.02248,10.81248 -2.94886,0.55158 1.28703,6.88066 2.94886,-0.55158 z m 2.02248,10.81247 -2.94886,0.55158 1.28703,6.88067 2.94886,-0.55159 z m 2.02247,10.81247 -2.94885,0.55159 1.28703,6.88066 2.94886,-0.55158 z m 2.02248,10.81248 -2.94885,0.55158 1.28703,6.88067 2.94885,-0.55159 z m 2.02248,10.81247 -2.94886,0.55158 1.28703,6.88067 2.94886,-0.55159 z m 2.02248,10.81247 -2.94886,0.55159 1.28703,6.88066 2.94886,-0.55158 z m 2.02247,10.81248 -2.94885,0.55158 1.28703,6.88067 2.94885,-0.55159 z m 2.02248,10.81247 -2.94886,0.55159 1.28703,6.88066 2.94886,-0.55158 z m 2.02248,10.81247 -2.94886,0.55159 1.28703,6.88066 2.94886,-0.55158 z m 2.02247,10.81248 -2.94885,0.55158 1.28703,6.88067 2.94885,-0.55159 z m 2.02248,10.81247 -2.94886,0.55159 1.28704,6.88066 2.94885,-0.55158 z m 2.02248,10.81248 -2.94886,0.55158 0.15104,0.80749 2.94886,-0.55158 z m 3.0999,0.2559 -8.84657,1.65476 L 431,445 Z"
         fill-opacity="0.698039"
         id="path13" />
      <path
         fill="#808080"
         stroke="none"
         paint-order="stroke fill markers"
         d="m 377.5425,166.64547 -1.65446,6.80168 2.915,0.70905 1.65446,-6.80167 z m -2.59987,10.68835 -1.65446,6.80167 2.915,0.70905 1.65446,-6.80167 z m -2.59987,10.68834 -1.65446,6.80167 2.91501,0.70906 1.65446,-6.80168 z m -2.59986,10.68834 -1.65446,6.80168 2.915,0.70905 1.65446,-6.80167 z m -2.59987,10.68835 -1.65446,6.80167 2.915,0.70906 1.65446,-6.80168 z m -2.59987,10.68834 -1.65446,6.80167 2.915,0.70906 1.65446,-6.80167 z m -2.59987,10.68834 -1.65446,6.80168 2.91501,0.70905 1.65446,-6.80167 z m -2.59986,10.68835 -1.65446,6.80167 2.915,0.70906 1.65446,-6.80168 z m -2.59987,10.68834 -1.65446,6.80167 2.915,0.70906 1.65446,-6.80167 z m -2.59987,10.68835 -1.65446,6.80167 2.915,0.70905 1.65447,-6.80167 z m -2.59987,10.68834 -1.65446,6.80167 2.91501,0.70906 1.65446,-6.80168 z m -2.59986,10.68834 -1.65446,6.80168 2.915,0.70905 1.65446,-6.80167 z m -2.59987,10.68835 -1.65446,6.80167 2.915,0.70905 1.65446,-6.80167 z m -2.59987,10.68834 -1.65446,6.80167 2.915,0.70906 1.65447,-6.80168 z m -2.59986,10.68834 -1.65447,6.80168 2.91501,0.70905 1.65446,-6.80167 z m -2.59987,10.68835 -1.65446,6.80167 2.915,0.70906 1.65446,-6.80168 z m -2.59987,10.68834 -1.65446,6.80167 2.915,0.70906 1.65446,-6.80167 z m -2.59987,10.68834 -1.65446,6.80168 2.91501,0.70905 1.65446,-6.80167 z m -2.59986,10.68835 -1.65447,6.80167 2.91501,0.70906 1.65446,-6.80168 z m -2.59987,10.68834 -1.65446,6.80167 2.915,0.70906 1.65446,-6.80167 z m -2.59987,10.68835 -1.65446,6.80167 2.915,0.70905 1.65446,-6.80167 z m -2.59987,10.68834 -1.65446,6.80167 2.91501,0.70906 1.65446,-6.80168 z m -2.59986,10.68834 -1.65446,6.80168 2.915,0.70905 1.65446,-6.80167 z m -2.59987,10.68835 -1.65446,6.80167 2.915,0.70905 1.65446,-6.80167 z m -2.59987,10.68834 -1.65446,6.80167 2.915,0.70906 1.65446,-6.80168 z m -2.59987,10.68834 -1.65446,6.80168 2.91501,0.70905 1.65446,-6.80167 z M 306.88182,444.4464 307,463 l 8.62683,-16.42643 -2.915,-0.70906 v 0 l 0.14912,-0.61305 -2.915,-0.70905 -0.14912,0.61305 v 0 z"
         fill-opacity="0.698039"
         id="path14" />
      <path
         fill="#808080"
         stroke="none"
         paint-order="stroke fill markers"
         d="m 377.69309,166.2638 -3.43562,6.09889 2.61381,1.47241 3.43563,-6.0989 z m -5.39883,9.58397 -3.43562,6.0989 2.61381,1.4724 3.43562,-6.09889 z m -5.39883,9.58398 -3.43562,6.09889 2.61381,1.47241 3.43562,-6.09889 z m -5.39884,9.58397 -3.43562,6.0989 2.61381,1.47241 3.43562,-6.0989 z m -5.39883,9.58398 -3.43562,6.09889 2.61381,1.47241 3.43562,-6.09889 z m -5.39883,9.58398 -3.43563,6.09889 2.61382,1.47241 3.43562,-6.0989 z m -5.39884,9.58397 -3.43562,6.0989 2.61381,1.4724 3.43562,-6.09889 z m -5.39883,9.58398 -3.43562,6.09889 2.61381,1.47241 3.43562,-6.09889 z m -5.39883,9.58397 -3.43563,6.0989 2.61382,1.47241 3.43562,-6.0989 z m -5.39884,9.58398 -3.43562,6.09889 2.61381,1.47241 3.43562,-6.09889 z m -5.39883,9.58398 -3.43562,6.09889 2.61381,1.47241 3.43562,-6.0989 z m -5.39884,9.58397 -3.43562,6.09889 2.61381,1.47241 3.43563,-6.09889 z m -5.39883,9.58398 -3.43562,6.09889 2.61381,1.47241 3.43562,-6.09889 z m -5.39883,9.58397 -3.43562,6.0989 2.61381,1.47241 3.43562,-6.0989 z m -5.39884,9.58398 -3.43562,6.09889 2.61381,1.47241 3.43563,-6.09889 z m -5.39883,9.58398 -3.43562,6.09889 2.61381,1.47241 3.43562,-6.0989 z m -5.39883,9.58397 -3.43563,6.09889 2.61382,1.47241 3.43562,-6.09889 z m -5.39884,9.58398 -3.43562,6.09889 2.61381,1.47241 3.43562,-6.09889 z m -5.39883,9.58397 -3.43562,6.0989 2.61381,1.47241 3.43562,-6.0989 z m -5.39883,9.58398 -3.43563,6.09889 2.61382,1.47241 3.43562,-6.09889 z m -5.39884,9.58397 -3.43562,6.0989 2.61381,1.47241 3.43562,-6.0989 z m -5.39883,9.58398 -3.43562,6.09889 2.61381,1.47241 3.43562,-6.09889 z m -5.39884,9.58398 -1.3912,2.46966 v 0 L 254.91374,378.10852 250,396 v 0 l 12.75517,-13.47426 -2.61381,-1.47241 v 0 l 1.39121,-2.46965 z"
         fill-opacity="0.698039"
         id="path15" />
      <path
         fill="none"
         stroke="#0033cc"
         paint-order="fill stroke markers"
         d="m 357.25684,119.24676 c 0,2.20914 -1.79086,4 -4,4 -2.20914,0 -4,-1.79086 -4,-4 0,-2.20914 1.79086,-4 4,-4 2.20914,0 4,1.79086 4,4 z"
         stroke-opacity="1"
         stroke-linecap="square"
         stroke-miterlimit="10"
         stroke-width="2"
         id="path16" />
      <path
         fill="none"
         stroke="#0033cc"
         paint-order="fill stroke markers"
         d="m 514.307,134.599 c 0,2.20914 -1.79086,4 -4,4 -2.20914,0 -4,-1.79086 -4,-4 0,-2.20914 1.79086,-4 4,-4 2.20914,0 4,1.79086 4,4 z"
         stroke-opacity="1"
         stroke-linecap="square"
         stroke-miterlimit="10"
         stroke-width="2"
         id="path17" />
      <path
         fill="none"
         stroke="#0033cc"
         paint-order="fill stroke markers"
         d="m 720.80445,218.2775 c 0,2.20913 -1.79086,4 -4,4 -2.20914,0 -4,-1.79087 -4,-4 0,-2.20914 1.79086,-4 4,-4 2.20914,0 4,1.79086 4,4 z"
         stroke-opacity="1"
         stroke-linecap="square"
         stroke-miterlimit="10"
         stroke-width="2"
         id="path18" />
      <path
         fill="none"
         stroke="#0033cc"
         paint-order="fill stroke markers"
         d="m 562.223,38.767 c 0,2.209139 -1.79086,4 -4,4 -2.20914,0 -4,-1.790861 -4,-4 0,-2.209139 1.79086,-4 4,-4 2.20914,0 4,1.790861 4,4 z"
         stroke-opacity="1"
         stroke-linecap="square"
         stroke-miterlimit="10"
         stroke-width="2"
         id="path19" />
      <path
         fill="#0033cc"
         stroke="none"
         paint-order="stroke fill markers"
         d="m 253,407 c 0,3.31371 -2.68629,6 -6,6 -3.31371,0 -6,-2.68629 -6,-6 0,-3.31371 2.68629,-6 6,-6 3.31371,0 6,2.68629 6,6 z"
         fill-opacity="1"
         id="path20" />
      <path
         fill="none"
         stroke="#000000"
         paint-order="fill stroke markers"
         d="m 253,407 c 0,3.31371 -2.68629,6 -6,6 -3.31371,0 -6,-2.68629 -6,-6 0,-3.31371 2.68629,-6 6,-6 3.31371,0 6,2.68629 6,6 z"
         stroke-opacity="1"
         stroke-linecap="round"
         stroke-linejoin="round"
         stroke-miterlimit="10"
         id="path21" />
      <path
         fill="none"
         stroke="#0033cc"
         paint-order="fill stroke markers"
         d="m 189.93512,270.1623 c 0,2.20914 -1.79087,4 -4,4 -2.20914,0 -4,-1.79086 -4,-4 0,-2.20914 1.79086,-4 4,-4 2.20913,0 4,1.79086 4,4 z"
         stroke-opacity="1"
         stroke-linecap="square"
         stroke-miterlimit="10"
         stroke-width="2"
         id="path22" />
      <path
         fill="none"
         stroke="#0033cc"
         paint-order="fill stroke markers"
         d="m 194.23722,233.89633 c 0,2.20914 -1.79086,4 -4,4 -2.20914,0 -4,-1.79086 -4,-4 0,-2.20914 1.79086,-4 4,-4 2.20914,0 4,1.79086 4,4 z"
         stroke-opacity="1"
         stroke-linecap="square"
         stroke-miterlimit="10"
         stroke-width="2"
         id="path23" />
      <path
         fill="#0033cc"
         stroke="none"
         paint-order="stroke fill markers"
         d="m 723,401 c 0,3.31371 -2.68629,6 -6,6 -3.31371,0 -6,-2.68629 -6,-6 0,-3.31371 2.68629,-6 6,-6 3.31371,0 6,2.68629 6,6 z"
         fill-opacity="1"
         id="path24" />
      <path
         fill="none"
         stroke="#000000"
         paint-order="fill stroke markers"
         d="m 723,401 c 0,3.31371 -2.68629,6 -6,6 -3.31371,0 -6,-2.68629 -6,-6 0,-3.31371 2.68629,-6 6,-6 3.31371,0 6,2.68629 6,6 z"
         stroke-opacity="1"
         stroke-linecap="round"
         stroke-linejoin="round"
         stroke-miterlimit="10"
         id="path25" />
      <path
         fill="none"
         stroke="#0033cc"
         paint-order="fill stroke markers"
         d="m 650.069,137.261 c 0,2.20914 -1.79086,4 -4,4 -2.20914,0 -4,-1.79086 -4,-4 0,-2.20914 1.79086,-4 4,-4 2.20914,0 4,1.79086 4,4 z"
         stroke-opacity="1"
         stroke-linecap="square"
         stroke-miterlimit="10"
         stroke-width="2"
         id="path26" />
      <path
         fill="none"
         stroke="#0033cc"
         paint-order="fill stroke markers"
         d="m 314.2567,339.46 c 0,2.20914 -1.79086,4 -4,4 -2.20914,0 -4,-1.79086 -4,-4 0,-2.20914 1.79086,-4 4,-4 2.20914,0 4,1.79086 4,4 z"
         stroke-opacity="1"
         stroke-linecap="square"
         stroke-miterlimit="10"
         stroke-width="2"
         id="path27" />
      <path
         fill="none"
         stroke="#0033cc"
         paint-order="fill stroke markers"
         d="m 426.461,271.692 c 0,2.20914 -1.79086,4 -4,4 -2.20914,0 -4,-1.79086 -4,-4 0,-2.20914 1.79086,-4 4,-4 2.20914,0 4,1.79086 4,4 z"
         stroke-opacity="1"
         stroke-linecap="square"
         stroke-miterlimit="10"
         stroke-width="2"
         id="path28" />
      <path
         fill="none"
         stroke="#0033cc"
         paint-order="fill stroke markers"
         d="m 604.8341,258.67166 c 0,2.20914 -1.79087,4 -4,4 -2.20914,0 -4,-1.79086 -4,-4 0,-2.20914 1.79086,-4 4,-4 2.20913,0 4,1.79086 4,4 z"
         stroke-opacity="1"
         stroke-linecap="square"
         stroke-miterlimit="10"
         stroke-width="2"
         id="path29" />
      <path
         fill="none"
         stroke="#0033cc"
         paint-order="fill stroke markers"
         d="m 707.77407,93.185881 c 0,2.209139 -1.79086,4 -4,4 -2.20914,0 -4,-1.790861 -4,-4 0,-2.209139 1.79086,-4 4,-4 2.20914,0 4,1.790861 4,4 z"
         stroke-opacity="1"
         stroke-linecap="square"
         stroke-miterlimit="10"
         stroke-width="2"
         id="path30" />
      <path
         fill="none"
         stroke="#0033cc"
         paint-order="fill stroke markers"
         d="m 316.53015,212.97452 c 0,2.20914 -1.79086,4 -4,4 -2.20914,0 -4,-1.79086 -4,-4 0,-2.20914 1.79086,-4 4,-4 2.20914,0 4,1.79086 4,4 z"
         stroke-opacity="1"
         stroke-linecap="square"
         stroke-miterlimit="10"
         stroke-width="2"
         id="path31" />
      <path
         fill="none"
         stroke="#0033cc"
         paint-order="fill stroke markers"
         d="m 522.02727,270.1623 c 0,2.20914 -1.79086,4 -4,4 -2.20914,0 -4,-1.79086 -4,-4 0,-2.20914 1.79086,-4 4,-4 2.20914,0 4,1.79086 4,4 z"
         stroke-opacity="1"
         stroke-linecap="square"
         stroke-miterlimit="10"
         stroke-width="2"
         id="path32" />
      <path
         fill="none"
         stroke="#0033cc"
         paint-order="fill stroke markers"
         d="m 606.146,191.832 c 0,2.20914 -1.79086,4 -4,4 -2.20914,0 -4,-1.79086 -4,-4 0,-2.20914 1.79086,-4 4,-4 2.20914,0 4,1.79086 4,4 z"
         stroke-opacity="1"
         stroke-linecap="square"
         stroke-miterlimit="10"
         stroke-width="2"
         id="path33" />
      <path
         fill="#cc0000"
         stroke="none"
         paint-order="stroke fill markers"
         d="m 310.49367,474.16485 c 0,3.31371 -2.68629,6 -6,6 -3.3137,0 -6,-2.68629 -6,-6 0,-3.31371 2.6863,-6 6,-6 3.31371,0 6,2.68629 6,6 z"
         fill-opacity="1"
         id="path34" />
      <path
         fill="none"
         stroke="#000000"
         paint-order="fill stroke markers"
         d="m 310.49367,474.16485 c 0,3.31371 -2.68629,6 -6,6 -3.3137,0 -6,-2.68629 -6,-6 0,-3.31371 2.6863,-6 6,-6 3.31371,0 6,2.68629 6,6 z"
         stroke-opacity="1"
         stroke-linecap="round"
         stroke-linejoin="round"
         stroke-miterlimit="10"
         id="path35" />
      <path
         fill="#cc0000"
         stroke="none"
         paint-order="stroke fill markers"
         d="m 439.0796,451.05969 c 0,3.3137 -2.68629,6 -6,6 -3.3137,0 -6,-2.6863 -6,-6 0,-3.31371 2.6863,-6 6,-6 3.31371,0 6,2.68629 6,6 z"
         fill-opacity="1"
         id="path36" />
      <path
         fill="none"
         stroke="#000000"
         paint-order="fill stroke markers"
         d="m 439.0796,451.05969 c 0,3.3137 -2.68629,6 -6,6 -3.3137,0 -6,-2.6863 -6,-6 0,-3.31371 2.6863,-6 6,-6 3.31371,0 6,2.68629 6,6 z"
         stroke-opacity="1"
         stroke-linecap="round"
         stroke-linejoin="round"
         stroke-miterlimit="10"
         id="path37" />
      <path
         fill="none"
         stroke="#cc0000"
         paint-order="fill stroke markers"
         d="m 576.71605,441.0139 c 0,2.20914 -1.79086,4 -4,4 -2.20914,0 -4,-1.79086 -4,-4 0,-2.20914 1.79086,-4 4,-4 2.20914,0 4,1.79086 4,4 z"
         stroke-opacity="1"
         stroke-linecap="square"
         stroke-miterlimit="10"
         stroke-width="2"
         id="path38" />
      <path
         fill="none"
         stroke="#cc0000"
         paint-order="fill stroke markers"
         d="m 666.041,557.857 c 0,2.20914 -1.79086,4 -4,4 -2.20914,0 -4,-1.79086 -4,-4 0,-2.20914 1.79086,-4 4,-4 2.20914,0 4,1.79086 4,4 z"
         stroke-opacity="1"
         stroke-linecap="square"
         stroke-miterlimit="10"
         stroke-width="2"
         id="path39" />
      <path
         fill="none"
         stroke="#cc0000"
         paint-order="fill stroke markers"
         d="m 445.11623,541.47177 c 0,2.20914 -1.79086,4 -4,4 -2.20914,0 -4,-1.79086 -4,-4 0,-2.20913 1.79086,-4 4,-4 2.20914,0 4,1.79087 4,4 z"
         stroke-opacity="1"
         stroke-linecap="square"
         stroke-miterlimit="10"
         stroke-width="2"
         id="path40" />
      <path
         fill="#cc0000"
         stroke="none"
         paint-order="stroke fill markers"
         d="m 466,323 c 0,3.31371 -2.68629,6 -6,6 -3.31371,0 -6,-2.68629 -6,-6 0,-3.31371 2.68629,-6 6,-6 3.31371,0 6,2.68629 6,6 z"
         fill-opacity="1"
         id="path41" />
      <path
         fill="none"
         stroke="#000000"
         paint-order="fill stroke markers"
         d="m 466,323 c 0,3.31371 -2.68629,6 -6,6 -3.31371,0 -6,-2.68629 -6,-6 0,-3.31371 2.68629,-6 6,-6 3.31371,0 6,2.68629 6,6 z"
         stroke-opacity="1"
         stroke-linecap="round"
         stroke-linejoin="round"
         stroke-miterlimit="10"
         id="path42" />
      <path
         fill="none"
         stroke="#cc0000"
         paint-order="fill stroke markers"
         d="m 672.15103,424.94064 c 0,2.20914 -1.79086,4 -4,4 -2.20914,0 -4,-1.79086 -4,-4 0,-2.20914 1.79086,-4 4,-4 2.20914,0 4,1.79086 4,4 z"
         stroke-opacity="1"
         stroke-linecap="square"
         stroke-miterlimit="10"
         stroke-width="2"
         id="path43" />
      <path
         fill="#cc0000"
         stroke="none"
         paint-order="stroke fill markers"
         d="m 804,169 c 0,3.31371 -2.68629,6 -6,6 -3.31371,0 -6,-2.68629 -6,-6 0,-3.31371 2.68629,-6 6,-6 3.31371,0 6,2.68629 6,6 z"
         fill-opacity="1"
         id="path44" />
      <path
         fill="none"
         stroke="#000000"
         paint-order="fill stroke markers"
         d="m 804,169 c 0,3.31371 -2.68629,6 -6,6 -3.31371,0 -6,-2.68629 -6,-6 0,-3.31371 2.68629,-6 6,-6 3.31371,0 6,2.68629 6,6 z"
         stroke-opacity="1"
         stroke-linecap="round"
         stroke-linejoin="round"
         stroke-miterlimit="10"
         id="path45" />
      <path
         fill="none"
         stroke="#cc0000"
         paint-order="fill stroke markers"
         d="m 586.181,543.216 c 0,2.20914 -1.79086,4 -4,4 -2.20914,0 -4,-1.79086 -4,-4 0,-2.20914 1.79086,-4 4,-4 2.20914,0 4,1.79086 4,4 z"
         stroke-opacity="1"
         stroke-linecap="square"
         stroke-miterlimit="10"
         stroke-width="2"
         id="path46" />
      <path
         fill="#cc0000"
         stroke="none"
         paint-order="stroke fill markers"
         d="m 567.74297,387.67239 c 0,3.31371 -2.6863,6 -6,6 -3.31371,0 -6,-2.68629 -6,-6 0,-3.31371 2.68629,-6 6,-6 3.3137,0 6,2.68629 6,6 z"
         fill-opacity="1"
         id="path47" />
      <path
         fill="none"
         stroke="#000000"
         paint-order="fill stroke markers"
         d="m 567.74297,387.67239 c 0,3.31371 -2.6863,6 -6,6 -3.31371,0 -6,-2.68629 -6,-6 0,-3.31371 2.68629,-6 6,-6 3.3137,0 6,2.68629 6,6 z"
         stroke-opacity="1"
         stroke-linecap="round"
         stroke-linejoin="round"
         stroke-miterlimit="10"
         id="path48" />
      <path
         fill="none"
         stroke="#cc0000"
         paint-order="fill stroke markers"
         d="m 383.31769,579.21893 c 0,2.20914 -1.79086,4 -4,4 -2.20913,0 -4,-1.79086 -4,-4 0,-2.20914 1.79087,-4 4,-4 2.20914,0 4,1.79086 4,4 z"
         stroke-opacity="1"
         stroke-linecap="square"
         stroke-miterlimit="10"
         stroke-width="2"
         id="path49" />
      <path
         fill="none"
         stroke="#cc0000"
         paint-order="fill stroke markers"
         d="m 278.35616,549.5084 c 0,2.20914 -1.79086,4 -4,4 -2.20914,0 -4,-1.79086 -4,-4 0,-2.20913 1.79086,-4 4,-4 2.20914,0 4,1.79087 4,4 z"
         stroke-opacity="1"
         stroke-linecap="square"
         stroke-miterlimit="10"
         stroke-width="2"
         id="path50" />
      <path
         fill="none"
         stroke="#cc0000"
         paint-order="fill stroke markers"
         d="m 241.28659,553.15817 c 0,2.20914 -1.79086,4 -4,4 -2.20914,0 -4,-1.79086 -4,-4 0,-2.20914 1.79086,-4 4,-4 2.20914,0 4,1.79086 4,4 z"
         stroke-opacity="1"
         stroke-linecap="square"
         stroke-miterlimit="10"
         stroke-width="2"
         id="path51" />
      <path
         fill="none"
         stroke="#cc0000"
         paint-order="fill stroke markers"
         d="m 515.638,619.083 c 0,2.20914 -1.79086,4 -4,4 -2.20914,0 -4,-1.79086 -4,-4 0,-2.20914 1.79086,-4 4,-4 2.20914,0 4,1.79086 4,4 z"
         stroke-opacity="1"
         stroke-linecap="square"
         stroke-miterlimit="10"
         stroke-width="2"
         id="path52" />
      <path
         fill="#cc0000"
         stroke="none"
         paint-order="stroke fill markers"
         d="m 787.95633,364.21771 c 0,3.31371 -2.68629,6 -6,6 -3.31371,0 -6,-2.68629 -6,-6 0,-3.31371 2.68629,-6 6,-6 3.31371,0 6,2.68629 6,6 z"
         fill-opacity="1"
         id="path53" />
      <path
         fill="none"
         stroke="#000000"
         paint-order="fill stroke markers"
         d="m 787.95633,364.21771 c 0,3.31371 -2.68629,6 -6,6 -3.31371,0 -6,-2.68629 -6,-6 0,-3.31371 2.68629,-6 6,-6 3.31371,0 6,2.68629 6,6 z"
         stroke-opacity="1"
         stroke-linecap="round"
         stroke-linejoin="round"
         stroke-miterlimit="10"
         id="path54" />
      <path
         fill="none"
         stroke="#cc0000"
         paint-order="fill stroke markers"
         d="m 798.98671,512.76401 c 0,2.20913 -1.79086,4 -4,4 -2.20914,0 -4,-1.79087 -4,-4 0,-2.20914 1.79086,-4 4,-4 2.20914,0 4,1.79086 4,4 z"
         stroke-opacity="1"
         stroke-linecap="square"
         stroke-miterlimit="10"
         stroke-width="2"
         id="path55" />
      <path
         fill="#4d4dff"
         stroke="none"
         paint-order="stroke fill markers"
         d="m 1128.898,193.163 c 0,2.76142 -2.2386,5 -5,5 -2.7614,0 -5,-2.23858 -5,-5 0,-2.76142 2.2386,-5 5,-5 2.7614,0 5,2.23858 5,5 z"
         fill-opacity="1"
         id="path56" />
      <path
         fill="none"
         stroke="#000000"
         paint-order="fill stroke markers"
         d="m 1128.898,193.163 c 0,2.76142 -2.2386,5 -5,5 -2.7614,0 -5,-2.23858 -5,-5 0,-2.76142 2.2386,-5 5,-5 2.7614,0 5,2.23858 5,5 z"
         stroke-opacity="1"
         stroke-linecap="round"
         stroke-linejoin="round"
         stroke-miterlimit="10"
         id="path57" />
      <text
         fill="#4d4dff"
         stroke="none"
         font-family="geogebra-sans-serif, sans-serif"
         font-size="16px"
         font-style="normal"
         font-weight="normal"
         text-decoration="normal"
         x="1128"
         y="183"
         text-anchor="start"
         dominant-baseline="alphabetic"
         fill-opacity="1"
         id="text57">R</text>
      <text
         fill="#4d4dff"
         stroke="none"
         font-family="geogebra-sans-serif, sans-serif"
         font-size="14px"
         font-style="normal"
         font-weight="normal"
         text-decoration="normal"
         x="1140"
         y="190"
         text-anchor="start"
         dominant-baseline="alphabetic"
         fill-opacity="1"
         id="text58">1</text>
      <path
         fill="#4d4dff"
         stroke="none"
         paint-order="stroke fill markers"
         d="m 33,498 c 0,2.76142 -2.238576,5 -5,5 -2.761424,0 -5,-2.23858 -5,-5 0,-2.76142 2.238576,-5 5,-5 2.761424,0 5,2.23858 5,5 z"
         fill-opacity="1"
         id="path58" />
      <path
         fill="none"
         stroke="#000000"
         paint-order="fill stroke markers"
         d="m 33,498 c 0,2.76142 -2.238576,5 -5,5 -2.761424,0 -5,-2.23858 -5,-5 0,-2.76142 2.238576,-5 5,-5 2.761424,0 5,2.23858 5,5 z"
         stroke-opacity="1"
         stroke-linecap="round"
         stroke-linejoin="round"
         stroke-miterlimit="10"
         id="path59" />
      <text
         fill="#4d4dff"
         stroke="none"
         font-family="geogebra-sans-serif, sans-serif"
         font-size="16px"
         font-style="normal"
         font-weight="normal"
         text-decoration="normal"
         x="32"
         y="488"
         text-anchor="start"
         dominant-baseline="alphabetic"
         fill-opacity="1"
         id="text59">I</text>
      <text
         fill="#4d4dff"
         stroke="none"
         font-family="geogebra-sans-serif, sans-serif"
         font-size="14px"
         font-style="normal"
         font-weight="normal"
         text-decoration="normal"
         x="36"
         y="495"
         text-anchor="start"
         dominant-baseline="alphabetic"
         fill-opacity="1"
         id="text60">1</text>
      <path
         fill="#4d4dff"
         stroke="none"
         paint-order="stroke fill markers"
         d="m 1097,219 c 0,2.76142 -2.2386,5 -5,5 -2.7614,0 -5,-2.23858 -5,-5 0,-2.76142 2.2386,-5 5,-5 2.7614,0 5,2.23858 5,5 z"
         fill-opacity="1"
         id="path60" />
      <path
         fill="none"
         stroke="#000000"
         paint-order="fill stroke markers"
         d="m 1097,219 c 0,2.76142 -2.2386,5 -5,5 -2.7614,0 -5,-2.23858 -5,-5 0,-2.76142 2.2386,-5 5,-5 2.7614,0 5,2.23858 5,5 z"
         stroke-opacity="1"
         stroke-linecap="round"
         stroke-linejoin="round"
         stroke-miterlimit="10"
         id="path61" />
      <text
         fill="#4d4dff"
         stroke="none"
         font-family="geogebra-sans-serif, sans-serif"
         font-size="16px"
         font-style="normal"
         font-weight="normal"
         text-decoration="normal"
         x="1096"
         y="209"
         text-anchor="start"
         dominant-baseline="alphabetic"
         fill-opacity="1"
         id="text61">J</text>
      <text
         fill="#4d4dff"
         stroke="none"
         font-family="geogebra-sans-serif, sans-serif"
         font-size="14px"
         font-style="normal"
         font-weight="normal"
         text-decoration="normal"
         x="1104"
         y="216"
         text-anchor="start"
         dominant-baseline="alphabetic"
         fill-opacity="1"
         id="text62">1</text>
      <path
         fill="#6e6d73"
         stroke="none"
         paint-order="stroke fill markers"
         d="m 1080.2063,158.76899 c 0,2.20914 -1.7908,4 -4,4 -2.2091,0 -4,-1.79086 -4,-4 0,-2.20914 1.7909,-4 4,-4 2.2092,0 4,1.79086 4,4 z"
         fill-opacity="1"
         id="path62" />
      <path
         fill="none"
         stroke="#000000"
         paint-order="fill stroke markers"
         d="m 1080.2063,158.76899 c 0,2.20914 -1.7908,4 -4,4 -2.2091,0 -4,-1.79086 -4,-4 0,-2.20914 1.7909,-4 4,-4 2.2092,0 4,1.79086 4,4 z"
         stroke-opacity="1"
         stroke-linecap="round"
         stroke-linejoin="round"
         stroke-miterlimit="10"
         id="path63" />
      <text
         fill="#6e6d73"
         stroke="none"
         font-family="geogebra-sans-serif, sans-serif"
         font-size="16px"
         font-style="normal"
         font-weight="normal"
         text-decoration="normal"
         x="1080"
         y="151"
         text-anchor="start"
         dominant-baseline="alphabetic"
         fill-opacity="1"
         id="text63">K</text>
      <text
         fill="#6e6d73"
         stroke="none"
         font-family="geogebra-sans-serif, sans-serif"
         font-size="14px"
         font-style="normal"
         font-weight="normal"
         text-decoration="normal"
         x="1091"
         y="158"
         text-anchor="start"
         dominant-baseline="alphabetic"
         fill-opacity="1"
         id="text64">1</text>
      <path
         fill="#6e6d73"
         stroke="none"
         paint-order="stroke fill markers"
         d="m 1111.7937,279.23101 c 0,2.20914 -1.7909,4 -4,4 -2.2092,0 -4,-1.79086 -4,-4 0,-2.20914 1.7908,-4 4,-4 2.2091,0 4,1.79086 4,4 z"
         fill-opacity="1"
         id="path64" />
      <path
         fill="none"
         stroke="#000000"
         paint-order="fill stroke markers"
         d="m 1111.7937,279.23101 c 0,2.20914 -1.7909,4 -4,4 -2.2092,0 -4,-1.79086 -4,-4 0,-2.20914 1.7908,-4 4,-4 2.2091,0 4,1.79086 4,4 z"
         stroke-opacity="1"
         stroke-linecap="round"
         stroke-linejoin="round"
         stroke-miterlimit="10"
         id="path65" />
      <text
         fill="#6e6d73"
         stroke="none"
         font-family="geogebra-sans-serif, sans-serif"
         font-size="16px"
         font-style="normal"
         font-weight="normal"
         text-decoration="normal"
         x="1112"
         y="271"
         text-anchor="start"
         dominant-baseline="alphabetic"
         fill-opacity="1"
         id="text65">L</text>
      <text
         fill="#6e6d73"
         stroke="none"
         font-family="geogebra-sans-serif, sans-serif"
         font-size="14px"
         font-style="normal"
         font-weight="normal"
         text-decoration="normal"
         x="1121"
         y="278"
         text-anchor="start"
         dominant-baseline="alphabetic"
         fill-opacity="1"
         id="text66">1</text>
      <path
         fill="#7d7dff"
         stroke="none"
         paint-order="stroke fill markers"
         d="m 44.810045,559.27558 c 0,2.76143 -2.238576,5 -5,5 -2.761424,0 -5,-2.23857 -5,-5 0,-2.76142 2.238576,-5 5,-5 2.761424,0 5,2.23858 5,5 z"
         fill-opacity="1"
         id="path66" />
      <path
         fill="none"
         stroke="#000000"
         paint-order="fill stroke markers"
         d="m 44.810045,559.27558 c 0,2.76143 -2.238576,5 -5,5 -2.761424,0 -5,-2.23857 -5,-5 0,-2.76142 2.238576,-5 5,-5 2.761424,0 5,2.23858 5,5 z"
         stroke-opacity="1"
         stroke-linecap="round"
         stroke-linejoin="round"
         stroke-miterlimit="10"
         id="path67" />
      <text
         fill="#7d7dff"
         stroke="none"
         font-family="geogebra-sans-serif, sans-serif"
         font-size="16px"
         font-style="normal"
         font-weight="normal"
         text-decoration="normal"
         x="44"
         y="549"
         text-anchor="start"
         dominant-baseline="alphabetic"
         fill-opacity="1"
         id="text67">M</text>
      <text
         fill="#7d7dff"
         stroke="none"
         font-family="geogebra-sans-serif, sans-serif"
         font-size="14px"
         font-style="normal"
         font-weight="normal"
         text-decoration="normal"
         x="57"
         y="556"
         text-anchor="start"
         dominant-baseline="alphabetic"
         fill-opacity="1"
         id="text68">1</text>
      <path
         fill="#7d7dff"
         stroke="none"
         paint-order="stroke fill markers"
         d="m 19.272897,437.2271 c 0,2.76143 -2.238577,5 -5,5 -2.761424,0 -5.0000003,-2.23857 -5.0000003,-5 0,-2.76142 2.2385763,-5 5.0000003,-5 2.761423,0 5,2.23858 5,5 z"
         fill-opacity="1"
         id="path68" />
      <path
         fill="none"
         stroke="#000000"
         paint-order="fill stroke markers"
         d="m 19.272897,437.2271 c 0,2.76143 -2.238577,5 -5,5 -2.761424,0 -5.0000003,-2.23857 -5.0000003,-5 0,-2.76142 2.2385763,-5 5.0000003,-5 2.761423,0 5,2.23858 5,5 z"
         stroke-opacity="1"
         stroke-linecap="round"
         stroke-linejoin="round"
         stroke-miterlimit="10"
         id="path69" />
      <text
         fill="#7d7dff"
         stroke="none"
         font-family="geogebra-sans-serif, sans-serif"
         font-size="16px"
         font-style="normal"
         font-weight="normal"
         text-decoration="normal"
         x="18"
         y="427"
         text-anchor="start"
         dominant-baseline="alphabetic"
         fill-opacity="1"
         id="text69">N</text>
      <text
         fill="#7d7dff"
         stroke="none"
         font-family="geogebra-sans-serif, sans-serif"
         font-size="14px"
         font-style="normal"
         font-weight="normal"
         text-decoration="normal"
         x="30"
         y="434"
         text-anchor="start"
         dominant-baseline="alphabetic"
         fill-opacity="1"
         id="text70">1</text>
      <path
         fill="#f0f0f0"
         stroke="none"
         paint-order="stroke fill markers"
         d="m 291,125 h 185 v 39 H 291 Z"
         fill-opacity="1"
         id="path70" />
      <text
         fill="#000000"
         stroke="none"
         font-family="geogebra-sans-serif, sans-serif"
         font-size="22px"
         font-style="normal"
         font-weight="bold"
         text-decoration="normal"
         x="294"
         y="150"
         text-anchor="start"
         dominant-baseline="alphabetic"
         fill-opacity="1"
         id="text71">Vectores soporte</text>
    </g>
  </g>
</svg>
