<?xml version="1.0" encoding="UTF-8" standalone="no"?>
<svg
   version="1.1"
   width="132.11069mm"
   height="108.96309mm"
   id="svg86"
   sodipodi:docname="angulo_entre_gradiente_xy.svg"
   inkscape:version="1.4.3 (0d15f75, 2025-12-25)"
   inkscape:export-filename="angulo_entre_gradiente_xy.pdf"
   inkscape:export-xdpi="96"
   inkscape:export-ydpi="96"
   xmlns:inkscape="http://www.inkscape.org/namespaces/inkscape"
   xmlns:sodipodi="http://sodipodi.sourceforge.net/DTD/sodipodi-0.dtd"
   xmlns="http://www.w3.org/2000/svg"
   xmlns:svg="http://www.w3.org/2000/svg">
  <sodipodi:namedview
     id="namedview86"
     pagecolor="#ffffff"
     bordercolor="#000000"
     borderopacity="0.25"
     inkscape:showpageshadow="2"
     inkscape:pageopacity="0.0"
     inkscape:pagecheckerboard="0"
     inkscape:deskcolor="#d1d1d1"
     inkscape:zoom="0.93728223"
     inkscape:cx="207.51487"
     inkscape:cy="314.20632"
     inkscape:window-width="1920"
     inkscape:window-height="1009"
     inkscape:window-x="-8"
     inkscape:window-y="-8"
     inkscape:window-maximized="1"
     inkscape:current-layer="svg86"
     inkscape:document-units="mm" />
  <defs
     id="defs1">
    <clipPath
       id="pKJwmBUBRWNc">
      <path
         fill="none"
         stroke="none"
         d="M 0,0 H 1524 V 861 H 0 Z"
         id="path1" />
    </clipPath>
    <clipPath
       clipPathUnits="userSpaceOnUse"
       id="clipPath86">
      <rect
         style="fill:#000000"
         id="rect87"
         width="499.31598"
         height="411.82901"
         x="554.79553"
         y="116.29368" />
    </clipPath>
  </defs>
  <g
     clip-path="url(#pKJwmBUBRWNc)"
     id="g86"
     transform="translate(-554.79553,-116.29368)">
    <g
       id="g85">
      <rect
         fill="#ffffff"
         stroke="none"
         x="0"
         y="0"
         width="1524"
         height="861"
         fill-opacity="1"
         id="rect1"
         clip-path="url(#clipPath86)" />
      <path
         fill="none"
         stroke="#252525"
         paint-order="fill stroke markers"
         d="m 473.5,2.5 v 859"
         stroke-opacity="1"
         stroke-miterlimit="10"
         id="path2" />
      <path
         fill="none"
         stroke="#252525"
         paint-order="fill stroke markers"
         d="m 473.5,1.5 -4,4"
         stroke-opacity="1"
         stroke-miterlimit="10"
         id="path3" />
      <path
         fill="none"
         stroke="#252525"
         paint-order="fill stroke markers"
         d="m 473.5,1.5 4,4"
         stroke-opacity="1"
         stroke-miterlimit="10"
         id="path4" />
      <path
         fill="none"
         stroke="#252525"
         paint-order="fill stroke markers"
         d="m 0.5,591.5 h 1522"
         stroke-opacity="1"
         stroke-miterlimit="10"
         id="path5" />
      <path
         fill="none"
         stroke="#252525"
         paint-order="fill stroke markers"
         d="m 1523.5,591.5 -4,-4"
         stroke-opacity="1"
         stroke-miterlimit="10"
         id="path6" />
      <path
         fill="none"
         stroke="#252525"
         paint-order="fill stroke markers"
         d="m 1523.5,591.5 -4,4"
         stroke-opacity="1"
         stroke-miterlimit="10"
         id="path7" />
      <text
         fill="#252525"
         stroke="none"
         font-family="geogebra-sans-serif, sans-serif"
         font-size="12px"
         font-style="normal"
         font-weight="normal"
         text-decoration="normal"
         x="52"
         y="607"
         text-anchor="start"
         dominant-baseline="alphabetic"
         fill-opacity="1"
         id="text7">–7</text>
      <path
         fill="none"
         stroke="#252525"
         paint-order="fill stroke markers"
         d="m 57.5,591.5 v 3"
         stroke-opacity="1"
         stroke-miterlimit="10"
         id="path8" />
      <text
         fill="#252525"
         stroke="none"
         font-family="geogebra-sans-serif, sans-serif"
         font-size="12px"
         font-style="normal"
         font-weight="normal"
         text-decoration="normal"
         x="111"
         y="607"
         text-anchor="start"
         dominant-baseline="alphabetic"
         fill-opacity="1"
         id="text8">–6</text>
      <path
         fill="none"
         stroke="#252525"
         paint-order="fill stroke markers"
         d="m 116.5,591.5 v 3"
         stroke-opacity="1"
         stroke-miterlimit="10"
         id="path9" />
      <text
         fill="#252525"
         stroke="none"
         font-family="geogebra-sans-serif, sans-serif"
         font-size="12px"
         font-style="normal"
         font-weight="normal"
         text-decoration="normal"
         x="171"
         y="607"
         text-anchor="start"
         dominant-baseline="alphabetic"
         fill-opacity="1"
         id="text9">–5</text>
      <path
         fill="none"
         stroke="#252525"
         paint-order="fill stroke markers"
         d="m 176.5,591.5 v 3"
         stroke-opacity="1"
         stroke-miterlimit="10"
         id="path10" />
      <text
         fill="#252525"
         stroke="none"
         font-family="geogebra-sans-serif, sans-serif"
         font-size="12px"
         font-style="normal"
         font-weight="normal"
         text-decoration="normal"
         x="230"
         y="607"
         text-anchor="start"
         dominant-baseline="alphabetic"
         fill-opacity="1"
         id="text10">–4</text>
      <path
         fill="none"
         stroke="#252525"
         paint-order="fill stroke markers"
         d="m 235.5,591.5 v 3"
         stroke-opacity="1"
         stroke-miterlimit="10"
         id="path11" />
      <text
         fill="#252525"
         stroke="none"
         font-family="geogebra-sans-serif, sans-serif"
         font-size="12px"
         font-style="normal"
         font-weight="normal"
         text-decoration="normal"
         x="290"
         y="607"
         text-anchor="start"
         dominant-baseline="alphabetic"
         fill-opacity="1"
         id="text11">–3</text>
      <path
         fill="none"
         stroke="#252525"
         paint-order="fill stroke markers"
         d="m 295.5,591.5 v 3"
         stroke-opacity="1"
         stroke-miterlimit="10"
         id="path12" />
      <text
         fill="#252525"
         stroke="none"
         font-family="geogebra-sans-serif, sans-serif"
         font-size="12px"
         font-style="normal"
         font-weight="normal"
         text-decoration="normal"
         x="349"
         y="607"
         text-anchor="start"
         dominant-baseline="alphabetic"
         fill-opacity="1"
         id="text12">–2</text>
      <path
         fill="none"
         stroke="#252525"
         paint-order="fill stroke markers"
         d="m 354.5,591.5 v 3"
         stroke-opacity="1"
         stroke-miterlimit="10"
         id="path13" />
      <text
         fill="#252525"
         stroke="none"
         font-family="geogebra-sans-serif, sans-serif"
         font-size="12px"
         font-style="normal"
         font-weight="normal"
         text-decoration="normal"
         x="409"
         y="607"
         text-anchor="start"
         dominant-baseline="alphabetic"
         fill-opacity="1"
         id="text13">–1</text>
      <path
         fill="none"
         stroke="#252525"
         paint-order="fill stroke markers"
         d="m 414.5,591.5 v 3"
         stroke-opacity="1"
         stroke-miterlimit="10"
         id="path14" />
      <path
         fill="none"
         stroke="#252525"
         paint-order="fill stroke markers"
         d="m 473.5,591.5 v 3"
         stroke-opacity="1"
         stroke-miterlimit="10"
         id="path15" />
      <text
         fill="#252525"
         stroke="none"
         font-family="geogebra-sans-serif, sans-serif"
         font-size="12px"
         font-style="normal"
         font-weight="normal"
         text-decoration="normal"
         x="531"
         y="607"
         text-anchor="start"
         dominant-baseline="alphabetic"
         fill-opacity="1"
         id="text15">1</text>
      <path
         fill="none"
         stroke="#252525"
         paint-order="fill stroke markers"
         d="m 533.5,591.5 v 3"
         stroke-opacity="1"
         stroke-miterlimit="10"
         id="path16" />
      <text
         fill="#252525"
         stroke="none"
         font-family="geogebra-sans-serif, sans-serif"
         font-size="12px"
         font-style="normal"
         font-weight="normal"
         text-decoration="normal"
         x="590"
         y="607"
         text-anchor="start"
         dominant-baseline="alphabetic"
         fill-opacity="1"
         id="text16">2</text>
      <path
         fill="none"
         stroke="#252525"
         paint-order="fill stroke markers"
         d="m 592.5,591.5 v 3"
         stroke-opacity="1"
         stroke-miterlimit="10"
         id="path17" />
      <text
         fill="#252525"
         stroke="none"
         font-family="geogebra-sans-serif, sans-serif"
         font-size="12px"
         font-style="normal"
         font-weight="normal"
         text-decoration="normal"
         x="649"
         y="607"
         text-anchor="start"
         dominant-baseline="alphabetic"
         fill-opacity="1"
         id="text17">3</text>
      <path
         fill="none"
         stroke="#252525"
         paint-order="fill stroke markers"
         d="m 651.5,591.5 v 3"
         stroke-opacity="1"
         stroke-miterlimit="10"
         id="path18" />
      <text
         fill="#252525"
         stroke="none"
         font-family="geogebra-sans-serif, sans-serif"
         font-size="12px"
         font-style="normal"
         font-weight="normal"
         text-decoration="normal"
         x="709"
         y="607"
         text-anchor="start"
         dominant-baseline="alphabetic"
         fill-opacity="1"
         id="text18">4</text>
      <path
         fill="none"
         stroke="#252525"
         paint-order="fill stroke markers"
         d="m 711.5,591.5 v 3"
         stroke-opacity="1"
         stroke-miterlimit="10"
         id="path19" />
      <text
         fill="#252525"
         stroke="none"
         font-family="geogebra-sans-serif, sans-serif"
         font-size="12px"
         font-style="normal"
         font-weight="normal"
         text-decoration="normal"
         x="768"
         y="607"
         text-anchor="start"
         dominant-baseline="alphabetic"
         fill-opacity="1"
         id="text19">5</text>
      <path
         fill="none"
         stroke="#252525"
         paint-order="fill stroke markers"
         d="m 770.5,591.5 v 3"
         stroke-opacity="1"
         stroke-miterlimit="10"
         id="path20" />
      <text
         fill="#252525"
         stroke="none"
         font-family="geogebra-sans-serif, sans-serif"
         font-size="12px"
         font-style="normal"
         font-weight="normal"
         text-decoration="normal"
         x="828"
         y="607"
         text-anchor="start"
         dominant-baseline="alphabetic"
         fill-opacity="1"
         id="text20">6</text>
      <path
         fill="none"
         stroke="#252525"
         paint-order="fill stroke markers"
         d="m 830.5,591.5 v 3"
         stroke-opacity="1"
         stroke-miterlimit="10"
         id="path21" />
      <text
         fill="#252525"
         stroke="none"
         font-family="geogebra-sans-serif, sans-serif"
         font-size="12px"
         font-style="normal"
         font-weight="normal"
         text-decoration="normal"
         x="887"
         y="607"
         text-anchor="start"
         dominant-baseline="alphabetic"
         fill-opacity="1"
         id="text21">7</text>
      <path
         fill="none"
         stroke="#252525"
         paint-order="fill stroke markers"
         d="m 889.5,591.5 v 3"
         stroke-opacity="1"
         stroke-miterlimit="10"
         id="path22" />
      <text
         fill="#252525"
         stroke="none"
         font-family="geogebra-sans-serif, sans-serif"
         font-size="12px"
         font-style="normal"
         font-weight="normal"
         text-decoration="normal"
         x="947"
         y="607"
         text-anchor="start"
         dominant-baseline="alphabetic"
         fill-opacity="1"
         id="text22">8</text>
      <path
         fill="none"
         stroke="#252525"
         paint-order="fill stroke markers"
         d="m 949.5,591.5 v 3"
         stroke-opacity="1"
         stroke-miterlimit="10"
         id="path23" />
      <text
         fill="#252525"
         stroke="none"
         font-family="geogebra-sans-serif, sans-serif"
         font-size="12px"
         font-style="normal"
         font-weight="normal"
         text-decoration="normal"
         x="1006"
         y="607"
         text-anchor="start"
         dominant-baseline="alphabetic"
         fill-opacity="1"
         id="text23">9</text>
      <path
         fill="none"
         stroke="#252525"
         paint-order="fill stroke markers"
         d="m 1008.5,591.5 v 3"
         stroke-opacity="1"
         stroke-miterlimit="10"
         id="path24" />
      <text
         fill="#252525"
         stroke="none"
         font-family="geogebra-sans-serif, sans-serif"
         font-size="12px"
         font-style="normal"
         font-weight="normal"
         text-decoration="normal"
         x="1063"
         y="607"
         text-anchor="start"
         dominant-baseline="alphabetic"
         fill-opacity="1"
         id="text24">10</text>
      <path
         fill="none"
         stroke="#252525"
         paint-order="fill stroke markers"
         d="m 1068.5,591.5 v 3"
         stroke-opacity="1"
         stroke-miterlimit="10"
         id="path25" />
      <text
         fill="#252525"
         stroke="none"
         font-family="geogebra-sans-serif, sans-serif"
         font-size="12px"
         font-style="normal"
         font-weight="normal"
         text-decoration="normal"
         x="1122"
         y="607"
         text-anchor="start"
         dominant-baseline="alphabetic"
         fill-opacity="1"
         id="text25">11</text>
      <path
         fill="none"
         stroke="#252525"
         paint-order="fill stroke markers"
         d="m 1127.5,591.5 v 3"
         stroke-opacity="1"
         stroke-miterlimit="10"
         id="path26" />
      <text
         fill="#252525"
         stroke="none"
         font-family="geogebra-sans-serif, sans-serif"
         font-size="12px"
         font-style="normal"
         font-weight="normal"
         text-decoration="normal"
         x="1182"
         y="607"
         text-anchor="start"
         dominant-baseline="alphabetic"
         fill-opacity="1"
         id="text26">12</text>
      <path
         fill="none"
         stroke="#252525"
         paint-order="fill stroke markers"
         d="m 1187.5,591.5 v 3"
         stroke-opacity="1"
         stroke-miterlimit="10"
         id="path27" />
      <text
         fill="#252525"
         stroke="none"
         font-family="geogebra-sans-serif, sans-serif"
         font-size="12px"
         font-style="normal"
         font-weight="normal"
         text-decoration="normal"
         x="1241"
         y="607"
         text-anchor="start"
         dominant-baseline="alphabetic"
         fill-opacity="1"
         id="text27">13</text>
      <path
         fill="none"
         stroke="#252525"
         paint-order="fill stroke markers"
         d="m 1246.5,591.5 v 3"
         stroke-opacity="1"
         stroke-miterlimit="10"
         id="path28" />
      <text
         fill="#252525"
         stroke="none"
         font-family="geogebra-sans-serif, sans-serif"
         font-size="12px"
         font-style="normal"
         font-weight="normal"
         text-decoration="normal"
         x="1301"
         y="607"
         text-anchor="start"
         dominant-baseline="alphabetic"
         fill-opacity="1"
         id="text28">14</text>
      <path
         fill="none"
         stroke="#252525"
         paint-order="fill stroke markers"
         d="m 1306.5,591.5 v 3"
         stroke-opacity="1"
         stroke-miterlimit="10"
         id="path29" />
      <text
         fill="#252525"
         stroke="none"
         font-family="geogebra-sans-serif, sans-serif"
         font-size="12px"
         font-style="normal"
         font-weight="normal"
         text-decoration="normal"
         x="1360"
         y="607"
         text-anchor="start"
         dominant-baseline="alphabetic"
         fill-opacity="1"
         id="text29">15</text>
      <path
         fill="none"
         stroke="#252525"
         paint-order="fill stroke markers"
         d="m 1365.5,591.5 v 3"
         stroke-opacity="1"
         stroke-miterlimit="10"
         id="path30" />
      <text
         fill="#252525"
         stroke="none"
         font-family="geogebra-sans-serif, sans-serif"
         font-size="12px"
         font-style="normal"
         font-weight="normal"
         text-decoration="normal"
         x="1419"
         y="607"
         text-anchor="start"
         dominant-baseline="alphabetic"
         fill-opacity="1"
         id="text30">16</text>
      <path
         fill="none"
         stroke="#252525"
         paint-order="fill stroke markers"
         d="m 1424.5,591.5 v 3"
         stroke-opacity="1"
         stroke-miterlimit="10"
         id="path31" />
      <text
         fill="#252525"
         stroke="none"
         font-family="geogebra-sans-serif, sans-serif"
         font-size="12px"
         font-style="normal"
         font-weight="normal"
         text-decoration="normal"
         x="1479"
         y="607"
         text-anchor="start"
         dominant-baseline="alphabetic"
         fill-opacity="1"
         id="text31">17</text>
      <path
         fill="none"
         stroke="#252525"
         paint-order="fill stroke markers"
         d="m 1484.5,591.5 v 3"
         stroke-opacity="1"
         stroke-miterlimit="10"
         id="path32" />
      <path
         fill="none"
         stroke="#252525"
         paint-order="fill stroke markers"
         d="m 470.5,829.5 h 3"
         stroke-opacity="1"
         stroke-miterlimit="10"
         id="path33" />
      <path
         fill="none"
         stroke="#252525"
         paint-order="fill stroke markers"
         d="m 470.5,769.5 h 3"
         stroke-opacity="1"
         stroke-miterlimit="10"
         id="path34" />
      <path
         fill="none"
         stroke="#252525"
         paint-order="fill stroke markers"
         d="m 470.5,710.5 h 3"
         stroke-opacity="1"
         stroke-miterlimit="10"
         id="path35" />
      <path
         fill="none"
         stroke="#252525"
         paint-order="fill stroke markers"
         d="m 470.5,650.5 h 3"
         stroke-opacity="1"
         stroke-miterlimit="10"
         id="path36" />
      <path
         fill="none"
         stroke="#252525"
         paint-order="fill stroke markers"
         d="m 470.5,532.5 h 3"
         stroke-opacity="1"
         stroke-miterlimit="10"
         id="path37" />
      <path
         fill="none"
         stroke="#252525"
         paint-order="fill stroke markers"
         d="m 470.5,472.5 h 3"
         stroke-opacity="1"
         stroke-miterlimit="10"
         id="path38" />
      <path
         fill="none"
         stroke="#252525"
         paint-order="fill stroke markers"
         d="m 470.5,413.5 h 3"
         stroke-opacity="1"
         stroke-miterlimit="10"
         id="path39" />
      <path
         fill="none"
         stroke="#252525"
         paint-order="fill stroke markers"
         d="m 470.5,353.5 h 3"
         stroke-opacity="1"
         stroke-miterlimit="10"
         id="path40" />
      <path
         fill="none"
         stroke="#252525"
         paint-order="fill stroke markers"
         d="m 470.5,294.5 h 3"
         stroke-opacity="1"
         stroke-miterlimit="10"
         id="path41" />
      <path
         fill="none"
         stroke="#252525"
         paint-order="fill stroke markers"
         d="m 470.5,234.5 h 3"
         stroke-opacity="1"
         stroke-miterlimit="10"
         id="path42" />
      <path
         fill="none"
         stroke="#252525"
         paint-order="fill stroke markers"
         d="m 470.5,175.5 h 3"
         stroke-opacity="1"
         stroke-miterlimit="10"
         id="path43" />
      <path
         fill="none"
         stroke="#252525"
         paint-order="fill stroke markers"
         d="m 470.5,115.5 h 3"
         stroke-opacity="1"
         stroke-miterlimit="10"
         id="path44" />
      <path
         fill="none"
         stroke="#252525"
         paint-order="fill stroke markers"
         d="m 470.5,56.5 h 3"
         stroke-opacity="1"
         stroke-miterlimit="10"
         id="path45" />
      <text
         fill="#252525"
         stroke="none"
         font-family="geogebra-sans-serif, sans-serif"
         font-size="12px"
         font-style="normal"
         font-weight="normal"
         text-decoration="normal"
         x="453"
         y="834"
         text-anchor="start"
         dominant-baseline="alphabetic"
         fill-opacity="1"
         id="text45">–4</text>
      <text
         fill="#252525"
         stroke="none"
         font-family="geogebra-sans-serif, sans-serif"
         font-size="12px"
         font-style="normal"
         font-weight="normal"
         text-decoration="normal"
         x="453"
         y="774"
         text-anchor="start"
         dominant-baseline="alphabetic"
         fill-opacity="1"
         id="text46">–3</text>
      <text
         fill="#252525"
         stroke="none"
         font-family="geogebra-sans-serif, sans-serif"
         font-size="12px"
         font-style="normal"
         font-weight="normal"
         text-decoration="normal"
         x="453"
         y="715"
         text-anchor="start"
         dominant-baseline="alphabetic"
         fill-opacity="1"
         id="text47">–2</text>
      <text
         fill="#252525"
         stroke="none"
         font-family="geogebra-sans-serif, sans-serif"
         font-size="12px"
         font-style="normal"
         font-weight="normal"
         text-decoration="normal"
         x="453"
         y="655"
         text-anchor="start"
         dominant-baseline="alphabetic"
         fill-opacity="1"
         id="text48">–1</text>
      <text
         fill="#252525"
         stroke="none"
         font-family="geogebra-sans-serif, sans-serif"
         font-size="12px"
         font-style="normal"
         font-weight="normal"
         text-decoration="normal"
         x="459"
         y="537"
         text-anchor="start"
         dominant-baseline="alphabetic"
         fill-opacity="1"
         id="text49">1</text>
      <text
         fill="#252525"
         stroke="none"
         font-family="geogebra-sans-serif, sans-serif"
         font-size="12px"
         font-style="normal"
         font-weight="normal"
         text-decoration="normal"
         x="459"
         y="477"
         text-anchor="start"
         dominant-baseline="alphabetic"
         fill-opacity="1"
         id="text50">2</text>
      <text
         fill="#252525"
         stroke="none"
         font-family="geogebra-sans-serif, sans-serif"
         font-size="12px"
         font-style="normal"
         font-weight="normal"
         text-decoration="normal"
         x="459"
         y="418"
         text-anchor="start"
         dominant-baseline="alphabetic"
         fill-opacity="1"
         id="text51">3</text>
      <text
         fill="#252525"
         stroke="none"
         font-family="geogebra-sans-serif, sans-serif"
         font-size="12px"
         font-style="normal"
         font-weight="normal"
         text-decoration="normal"
         x="459"
         y="358"
         text-anchor="start"
         dominant-baseline="alphabetic"
         fill-opacity="1"
         id="text52">4</text>
      <text
         fill="#252525"
         stroke="none"
         font-family="geogebra-sans-serif, sans-serif"
         font-size="12px"
         font-style="normal"
         font-weight="normal"
         text-decoration="normal"
         x="459"
         y="299"
         text-anchor="start"
         dominant-baseline="alphabetic"
         fill-opacity="1"
         id="text53">5</text>
      <text
         fill="#252525"
         stroke="none"
         font-family="geogebra-sans-serif, sans-serif"
         font-size="12px"
         font-style="normal"
         font-weight="normal"
         text-decoration="normal"
         x="459"
         y="239"
         text-anchor="start"
         dominant-baseline="alphabetic"
         fill-opacity="1"
         id="text54">6</text>
      <text
         fill="#252525"
         stroke="none"
         font-family="geogebra-sans-serif, sans-serif"
         font-size="12px"
         font-style="normal"
         font-weight="normal"
         text-decoration="normal"
         x="459"
         y="180"
         text-anchor="start"
         dominant-baseline="alphabetic"
         fill-opacity="1"
         id="text55">7</text>
      <text
         fill="#252525"
         stroke="none"
         font-family="geogebra-sans-serif, sans-serif"
         font-size="12px"
         font-style="normal"
         font-weight="normal"
         text-decoration="normal"
         x="459"
         y="120"
         text-anchor="start"
         dominant-baseline="alphabetic"
         fill-opacity="1"
         id="text56">8</text>
      <text
         fill="#252525"
         stroke="none"
         font-family="geogebra-sans-serif, sans-serif"
         font-size="12px"
         font-style="normal"
         font-weight="normal"
         text-decoration="normal"
         x="459"
         y="61"
         text-anchor="start"
         dominant-baseline="alphabetic"
         fill-opacity="1"
         id="text57">9</text>
      <text
         fill="#252525"
         stroke="none"
         font-family="geogebra-sans-serif, sans-serif"
         font-size="12px"
         font-style="normal"
         font-weight="normal"
         text-decoration="normal"
         x="459"
         y="607"
         text-anchor="start"
         dominant-baseline="alphabetic"
         fill-opacity="1"
         id="text58">0</text>
      <path
         fill="#808080"
         stroke="none"
         paint-order="stroke fill markers"
         d="m 637.52595,472.54397 c 0,-13.67027 -6.21403,-26.59935 -16.88872,-35.1391 l -28.11128,35.1391 z"
         fill-opacity="0.168627"
         id="path58" />
      <path
         fill="none"
         stroke="#808080"
         paint-order="fill stroke markers"
         d="m 637.52595,472.54397 c 0,-13.67027 -6.21403,-26.59935 -16.88872,-35.1391 l -28.11128,35.1391 z"
         stroke-opacity="0.698039"
         stroke-linecap="round"
         stroke-linejoin="round"
         stroke-miterlimit="10"
         stroke-width="2.5"
         id="path59" />
      <path
         fill="#000000"
         stroke="none"
         paint-order="stroke fill markers"
         d="m 991.75693,468.29397 v 3 H 592.52595 c -0.69035,0 -1.25,0.55964 -1.25,1.25 0,0.69036 0.55965,1.25 1.25,1.25 h 399.23098 v 3 l 16.99997,-4.25 z"
         fill-opacity="0.698039"
         id="path60" />
      <path
         fill="#006633"
         stroke="none"
         paint-order="stroke fill markers"
         d="m 830.37222,175.23613 -15.57833,11.86921 2.34261,1.87408 -225.97707,282.47133 c -0.60376,0.75471 -0.4814,1.85597 0.27331,2.45974 0.32267,0.25814 0.70869,0.38355 1.0921,0.38355 0.51335,0 1.02201,-0.22482 1.36763,-0.65685 l 225.97707,-282.47133 2.3426,1.87408 z"
         fill-opacity="0.698039"
         id="path61" />
      <path
         fill="#4d4dff"
         stroke="none"
         paint-order="stroke fill markers"
         d="m 597.52595,472.54397 c 0,2.76142 -2.23857,5 -5,5 -2.76142,0 -5,-2.23858 -5,-5 0,-2.76142 2.23858,-5 5,-5 2.76143,0 5,2.23858 5,5 z"
         fill-opacity="1"
         id="path62" />
      <path
         fill="none"
         stroke="#000000"
         paint-order="fill stroke markers"
         d="m 597.52595,472.54397 c 0,2.76142 -2.23857,5 -5,5 -2.76142,0 -5,-2.23858 -5,-5 0,-2.76142 2.23858,-5 5,-5 2.76143,0 5,2.23858 5,5 z"
         stroke-opacity="1"
         stroke-linecap="round"
         stroke-linejoin="round"
         stroke-miterlimit="10"
         id="path63" />
      <path
         fill="#606060"
         stroke="none"
         paint-order="stroke fill markers"
         d="m 1013.7569,472.54397 c 0,2.76142 -2.2385,5 -5,5 -2.7614,0 -5,-2.23858 -5,-5 0,-2.76142 2.2386,-5 5,-5 2.7615,0 5,2.23858 5,5 z"
         fill-opacity="1"
         id="path64" />
      <path
         fill="none"
         stroke="#000000"
         paint-order="fill stroke markers"
         d="m 1013.7569,472.54397 c 0,2.76142 -2.2385,5 -5,5 -2.7614,0 -5,-2.23858 -5,-5 0,-2.76142 2.2386,-5 5,-5 2.7615,0 5,2.23858 5,5 z"
         stroke-opacity="1"
         stroke-linecap="round"
         stroke-linejoin="round"
         stroke-miterlimit="10"
         id="path65" />
      <g
         transform="scale(25)"
         id="g70">
        <g
           transform="translate(31.16,19.978392)"
           id="g66">
          <path
             fill="#000000"
             stroke="none"
             paint-order="stroke fill markers"
             d="M 0.506,-0.376 0.291,0.081 Q 0.268,0.13 0.225,0.165 0.182,0.2 0.129,0.2 0.084,0.2 0.053,0.173 0.022,0.146 0.022,0.108 0.022,0.08 0.039,0.065 0.056,0.05 0.079,0.05 q 0.025,0 0.0415,0.016 0.0165,0.016 0.0165,0.041 0,0.039 -0.032,0.053 0.011,0.004 0.024,0.004 0.025,0 0.0455,-0.0105 Q 0.195,0.143 0.2105,0.1225 0.226,0.102 0.2345,0.0875 0.243,0.073 0.254,0.048 L 0.277,0 0.09,-0.397 H 0.026 v -0.047 q 0.01,0 0.054,0.0015 0.044,0.0015 0.06,0.0015 0.074,0 0.124,-0.003 v 0.047 H 0.21 l 0.127,0.27 0.115,-0.246 q 0.005,-0.005 0.005,-0.012 0,-0.012 -0.047,-0.012 v -0.047 q 0.063,0.003 0.091,0.003 0.043,0 0.079,-0.003 v 0.047 q -0.031,0 -0.0465,0.0025 Q 0.518,-0.392 0.514,-0.3885 0.51,-0.385 0.506,-0.376 Z"
             fill-opacity="1"
             id="path66" />
        </g>
        <g
           transform="translate(32.005222,19.978392)"
           id="g67">
          <path
             fill="#000000"
             stroke="none"
             paint-order="stroke fill markers"
             d="M 0.661,-0.23 H 0.116 q -0.032,0 -0.033,-0.02 0,-0.02 0.033,-0.02 h 0.545 q 0.032,0 0.033,0.02 0,0.02 -0.033,0.02 z"
             fill-opacity="1"
             id="path67" />
        </g>
        <g
           transform="translate(33.005444,19.978392)"
           id="g68">
          <path
             fill="#000000"
             stroke="none"
             paint-order="stroke fill markers"
             d="m 0.346,-0.246 0.168,0.199 H 0.585 V 0 Q 0.486,-0.003 0.475,-0.003 0.433,-0.003 0.355,0 v -0.047 h 0.039 l -0.11,-0.13 -0.097,0.109 q -0.007,0.008 -0.007,0.01 0,0.011 0.037,0.011 V 0 Q 0.157,-0.003 0.114,-0.003 0.074,-0.003 0.022,0 v -0.047 q 0.031,0 0.0455,-5e-4 0.0145,-5e-4 0.031,-0.005 Q 0.115,-0.057 0.123,-0.066 L 0.254,-0.213 0.098,-0.397 H 0.027 v -0.047 q 0.099,0.003 0.11,0.003 0.043,0 0.121,-0.003 v 0.047 H 0.218 L 0.316,-0.282 0.4,-0.376 0.408,-0.388 Q 0.393,-0.397 0.37,-0.397 v -0.047 q 0.084,0.003 0.103,0.003 0.039,0 0.092,-0.003 v 0.047 q -0.04,0 -0.061,0.0025 -0.021,0.0025 -0.027,0.006 -0.006,0.0035 -0.014,0.0125 z"
             fill-opacity="1"
             id="path68" />
        </g>
        <g
           transform="matrix(0.7,0,0,0.7,33.612444,19.5655)"
           id="g69">
          <path
             fill="#000000"
             stroke="none"
             paint-order="stroke fill markers"
             d="m 0.239,-0.157 v 0 l -0.119,0.13 q -0.01,0.011 -0.015,0.011 -0.011,0 -0.011,-0.011 0,-0.002 0.007,-0.016 L 0.194,-0.209 0.02,-0.289 q -0.015,-0.007 -0.016,-0.015 0,-0.01 0.011,-0.01 0.005,0 0.015,0.002 l 0.185,0.037 0.022,-0.188 q 0.003,-0.021 0.013,-0.022 0.008,0 0.01,0.01 l 0.001,0.001 q 0,0.003 0.001,0.011 l 0.023,0.188 q 0.195,-0.039 0.2,-0.039 0.011,0 0.011,0.01 0,0.008 -0.015,0.015 l -0.174,0.08 0.039,0.072 q 0.06,0.106 0.06,0.11 0,0.011 -0.011,0.011 -0.004,0 -0.008,-0.005 -0.03,-0.03 -0.088,-0.094 L 0.252,-0.165 Q 0.251,-0.166 0.25,-0.166 q -0.005,0 -0.011,0.009 z"
             fill-opacity="1"
             id="path69" />
        </g>
      </g>
      <g
         transform="scale(25)"
         id="g77">
        <g
           transform="translate(31.36,6.43)"
           id="g71">
          <path
             fill="#006633"
             stroke="none"
             paint-order="stroke fill markers"
             d="M 0.78,-0.663 0.442,0.015 Q 0.434,0.03 0.426,0.032 0.422,0.033 0.416,0.033 0.4,0.033 0.394,0.022 0.393,0.02 0.39,0.015 L 0.052,-0.663 Q 0.047,-0.672 0.047,-0.675 0.053,-0.683 0.069,-0.683 h 0.694 q 0.021,0 0.022,0.008 0,0.003 -0.005,0.012 m -0.61,0.051 0.275,0.551 H 0.446 L 0.72,-0.612 Z"
             fill-opacity="1"
             id="path70" />
        </g>
        <g
           transform="translate(32.193,6.43)"
           id="g72">
          <path
             fill="#006633"
             stroke="none"
             paint-order="stroke fill markers"
             d="m 0.367,-0.4 v 0 l -0.06,0.317 Q 0.298,-0.021 0.271,0.059 0.261,0.088 0.251,0.108 0.216,0.182 0.164,0.2 0.151,0.205 0.138,0.205 0.088,0.205 0.064,0.171 0.053,0.156 0.053,0.136 q 0,-0.04 0.034,-0.055 0.01,-0.005 0.021,-0.005 0.029,0 0.036,0.025 0.001,0.005 0.001,0.01 0,0.034 -0.03,0.048 -0.011,0.005 -0.025,0.006 0.019,0.018 0.048,0.018 0.044,0 0.069,-0.098 0.005,-0.023 0.012,-0.06 L 0.225,-0.005 0.3,-0.4 H 0.234 q -0.025,0 -0.027,-0.008 H 0.206 v -0.004 q 0,-0.017 0.017,-0.019 v 0 h 0.013 0.069 q 0.024,-0.125 0.033,-0.157 0.03,-0.1 0.106,-0.115 0.011,-0.002 0.021,-0.002 0.052,0 0.076,0.034 v 0 q 0.011,0.015 0.011,0.035 0,0.04 -0.034,0.055 -0.01,0.005 -0.021,0.005 -0.029,0 -0.036,-0.025 -0.001,-0.005 -0.001,-0.01 0,-0.031 0.028,-0.046 0.011,-0.007 0.026,-0.008 -0.019,-0.018 -0.049,-0.018 -0.031,0 -0.047,0.034 -0.007,0.014 -0.024,0.104 l -0.021,0.114 h 0.083 q 0.025,0 0.027,0.011 0,0.018 -0.016,0.02 H 0.466 0.453 Z"
             fill-opacity="1"
             id="path71" />
        </g>
        <g
           transform="translate(32.791,6.43)"
           id="g73">
          <path
             fill="#006633"
             stroke="none"
             paint-order="stroke fill markers"
             d="m 0.331,0.24 v 0 q 0,0.01 -0.01,0.01 Q 0.309,0.25 0.268,0.209 0.206,0.147 0.165,0.062 0.099,-0.074 0.099,-0.25 q 0,-0.169 0.063,-0.305 0.052,-0.111 0.132,-0.178 0.021,-0.017 0.027,-0.017 0.01,0 0.01,0.01 0,0.005 -0.013,0.017 -0.161,0.164 -0.161,0.473 0,0.308 0.157,0.468 0.017,0.017 0.017,0.022 z"
             fill-opacity="1"
             id="path72" />
        </g>
        <g
           transform="translate(33.18,6.43)"
           id="g74">
          <path
             fill="#006633"
             stroke="none"
             paint-order="stroke fill markers"
             d="m 0.346,-0.246 0.168,0.199 H 0.585 V 0 Q 0.486,-0.003 0.475,-0.003 0.433,-0.003 0.355,0 v -0.047 h 0.039 l -0.11,-0.13 -0.097,0.109 q -0.007,0.008 -0.007,0.01 0,0.011 0.037,0.011 V 0 Q 0.157,-0.003 0.114,-0.003 0.074,-0.003 0.022,0 v -0.047 q 0.031,0 0.0455,-5e-4 0.0145,-5e-4 0.031,-0.005 Q 0.115,-0.057 0.123,-0.066 L 0.254,-0.213 0.098,-0.397 H 0.027 v -0.047 q 0.099,0.003 0.11,0.003 0.043,0 0.121,-0.003 v 0.047 H 0.218 L 0.316,-0.282 0.4,-0.376 0.408,-0.388 Q 0.393,-0.397 0.37,-0.397 v -0.047 q 0.084,0.003 0.103,0.003 0.039,0 0.092,-0.003 v 0.047 q -0.04,0 -0.061,0.0025 -0.021,0.0025 -0.027,0.006 -0.006,0.0035 -0.014,0.0125 z"
             fill-opacity="1"
             id="path73" />
        </g>
        <g
           transform="matrix(0.7,0,0,0.7,33.787,6.017108)"
           id="g75">
          <path
             fill="#006633"
             stroke="none"
             paint-order="stroke fill markers"
             d="m 0.239,-0.157 v 0 l -0.119,0.13 q -0.01,0.011 -0.015,0.011 -0.011,0 -0.011,-0.011 0,-0.002 0.007,-0.016 L 0.194,-0.209 0.02,-0.289 q -0.015,-0.007 -0.016,-0.015 0,-0.01 0.011,-0.01 0.005,0 0.015,0.002 l 0.185,0.037 0.022,-0.188 q 0.003,-0.021 0.013,-0.022 0.008,0 0.01,0.01 l 0.001,0.001 q 0,0.003 0.001,0.011 l 0.023,0.188 q 0.195,-0.039 0.2,-0.039 0.011,0 0.011,0.01 0,0.008 -0.015,0.015 l -0.174,0.08 0.039,0.072 q 0.06,0.106 0.06,0.11 0,0.011 -0.011,0.011 -0.004,0 -0.008,-0.005 -0.03,-0.03 -0.088,-0.094 L 0.252,-0.165 Q 0.251,-0.166 0.25,-0.166 q -0.005,0 -0.011,0.009 z"
             fill-opacity="1"
             id="path74" />
        </g>
        <g
           transform="translate(34.156925,6.43)"
           id="g76">
          <path
             fill="#006633"
             stroke="none"
             paint-order="stroke fill markers"
             d="m 0.289,-0.25 v 0 q 0,0.169 -0.063,0.305 Q 0.174,0.166 0.094,0.233 0.073,0.25 0.067,0.25 q -0.01,0 -0.01,-0.01 0,-0.005 0.013,-0.017 0.161,-0.164 0.161,-0.473 0,-0.305 -0.15,-0.462 L 0.076,-0.717 Q 0.057,-0.735 0.057,-0.74 q 0,-0.01 0.01,-0.01 0.012,0 0.053,0.041 0.062,0.062 0.103,0.147 0.066,0.136 0.066,0.312 z"
             fill-opacity="1"
             id="path75" />
        </g>
      </g>
      <g
         transform="scale(25)"
         id="g80">
        <g
           transform="translate(23.12,19.858392)"
           id="g78">
          <path
             fill="#0000ff"
             stroke="none"
             paint-order="stroke fill markers"
             d="m 0.346,-0.246 0.168,0.199 H 0.585 V 0 Q 0.486,-0.003 0.475,-0.003 0.433,-0.003 0.355,0 v -0.047 h 0.039 l -0.11,-0.13 -0.097,0.109 q -0.007,0.008 -0.007,0.01 0,0.011 0.037,0.011 V 0 Q 0.157,-0.003 0.114,-0.003 0.074,-0.003 0.022,0 v -0.047 q 0.031,0 0.0455,-5e-4 0.0145,-5e-4 0.031,-0.005 Q 0.115,-0.057 0.123,-0.066 L 0.254,-0.213 0.098,-0.397 H 0.027 v -0.047 q 0.099,0.003 0.11,0.003 0.043,0 0.121,-0.003 v 0.047 H 0.218 L 0.316,-0.282 0.4,-0.376 0.408,-0.388 Q 0.393,-0.397 0.37,-0.397 v -0.047 q 0.084,0.003 0.103,0.003 0.039,0 0.092,-0.003 v 0.047 q -0.04,0 -0.061,0.0025 -0.021,0.0025 -0.027,0.006 -0.006,0.0035 -0.014,0.0125 z"
             fill-opacity="1"
             id="path77" />
        </g>
        <g
           transform="matrix(0.7,0,0,0.7,23.727,19.4455)"
           id="g79">
          <path
             fill="#0000ff"
             stroke="none"
             paint-order="stroke fill markers"
             d="m 0.239,-0.157 v 0 l -0.119,0.13 q -0.01,0.011 -0.015,0.011 -0.011,0 -0.011,-0.011 0,-0.002 0.007,-0.016 L 0.194,-0.209 0.02,-0.289 q -0.015,-0.007 -0.016,-0.015 0,-0.01 0.011,-0.01 0.005,0 0.015,0.002 l 0.185,0.037 0.022,-0.188 q 0.003,-0.021 0.013,-0.022 0.008,0 0.01,0.01 l 0.001,0.001 q 0,0.003 0.001,0.011 l 0.023,0.188 q 0.195,-0.039 0.2,-0.039 0.011,0 0.011,0.01 0,0.008 -0.015,0.015 l -0.174,0.08 0.039,0.072 q 0.06,0.106 0.06,0.11 0,0.011 -0.011,0.011 -0.004,0 -0.008,-0.005 -0.03,-0.03 -0.088,-0.094 L 0.252,-0.165 Q 0.251,-0.166 0.25,-0.166 q -0.005,0 -0.011,0.009 z"
             fill-opacity="1"
             id="path78" />
        </g>
      </g>
      <g
         transform="scale(25)"
         id="g82">
        <g
           transform="translate(39.92,19.844)"
           id="g81">
          <path
             fill="#606060"
             stroke="none"
             paint-order="stroke fill markers"
             d="M 0.506,-0.376 0.291,0.081 Q 0.268,0.13 0.225,0.165 0.182,0.2 0.129,0.2 0.084,0.2 0.053,0.173 0.022,0.146 0.022,0.108 0.022,0.08 0.039,0.065 0.056,0.05 0.079,0.05 q 0.025,0 0.0415,0.016 0.0165,0.016 0.0165,0.041 0,0.039 -0.032,0.053 0.011,0.004 0.024,0.004 0.025,0 0.0455,-0.0105 Q 0.195,0.143 0.2105,0.1225 0.226,0.102 0.2345,0.0875 0.243,0.073 0.254,0.048 L 0.277,0 0.09,-0.397 H 0.026 v -0.047 q 0.01,0 0.054,0.0015 0.044,0.0015 0.06,0.0015 0.074,0 0.124,-0.003 v 0.047 H 0.21 l 0.127,0.27 0.115,-0.246 q 0.005,-0.005 0.005,-0.012 0,-0.012 -0.047,-0.012 v -0.047 q 0.063,0.003 0.091,0.003 0.043,0 0.079,-0.003 v 0.047 q -0.031,0 -0.0465,0.0025 Q 0.518,-0.392 0.514,-0.3885 0.51,-0.385 0.506,-0.376 Z"
             fill-opacity="1"
             id="path80" />
        </g>
      </g>
      <g
         transform="scale(19)"
         id="g84">
        <g
           transform="translate(32.315789,24.325737)"
           id="g83">
          <path
             fill="#000000"
             stroke="none"
             paint-order="stroke fill markers"
             d="m 0.477,-0.236 v 0 0.062 q 0.065,-0.081 0.098,-0.198 0.01,-0.02 0.015,-0.021 0.012,0 0.012,0.01 0,0.017 -0.023,0.076 -0.034,0.086 -0.092,0.159 -0.01,0.02 -0.01,0.035 0,0.102 0.031,0.102 0.031,0 0.05,-0.035 0.003,-0.006 0.006,-0.014 0.004,-0.01 0.013,-0.01 0.012,0 0.012,0.01 0,0.019 -0.025,0.045 -0.026,0.026 -0.059,0.026 -0.063,0 -0.087,-0.069 -0.002,-0.007 -0.004,-0.015 -0.105,0.084 -0.211,0.084 -0.094,0 -0.138,-0.075 -0.024,-0.041 -0.024,-0.094 0,-0.102 0.078,-0.189 0.077,-0.086 0.174,-0.094 0.009,-0.001 0.017,-0.001 0.084,0 0.13,0.066 0,0.001 0.001,0.001 0.036,0.053 0.036,0.139 M 0.41,-0.099 v 0 q -0.002,-0.017 -0.002,-0.112 0,-0.123 -0.027,-0.168 -0.012,-0.02 -0.029,-0.03 L 0.351,-0.41 v 0 H 0.35 q -0.018,-0.01 -0.041,-0.01 -0.071,0 -0.128,0.08 L 0.173,-0.328 Q 0.137,-0.27 0.12,-0.166 0.115,-0.138 0.115,-0.12 q 0,0.084 0.059,0.104 0.014,0.005 0.031,0.005 0.104,0 0.205,-0.088 z"
             fill-opacity="1"
             id="path82" />
        </g>
      </g>
    </g>
  </g>
</svg>
