<?xml version="1.0" encoding="UTF-8" standalone="no"?>
<svg
   version="1.1"
   width="166.5498mm"
   height="126.46493mm"
   id="svg94"
   sodipodi:docname="condicion_optimalidad_gradiente_vs_cono_normal.svg"
   inkscape:version="1.4.3 (0d15f75, 2025-12-25)"
   xmlns:inkscape="http://www.inkscape.org/namespaces/inkscape"
   xmlns:sodipodi="http://sodipodi.sourceforge.net/DTD/sodipodi-0.dtd"
   xmlns="http://www.w3.org/2000/svg"
   xmlns:svg="http://www.w3.org/2000/svg">
  <sodipodi:namedview
     id="namedview94"
     pagecolor="#ffffff"
     bordercolor="#000000"
     borderopacity="0.25"
     inkscape:showpageshadow="2"
     inkscape:pageopacity="0.0"
     inkscape:pagecheckerboard="0"
     inkscape:deskcolor="#d1d1d1"
     inkscape:zoom="0.93728223"
     inkscape:cx="493.44796"
     inkscape:cy="226.71933"
     inkscape:window-width="1920"
     inkscape:window-height="1009"
     inkscape:window-x="-8"
     inkscape:window-y="-8"
     inkscape:window-maximized="1"
     inkscape:current-layer="svg94"
     inkscape:document-units="mm" />
  <defs
     id="defs1">
    <clipPath
       id="JlgECGKBwJJt">
      <path
         fill="none"
         stroke="none"
         d="M 0,0 H 1525 V 861 H 0 Z"
         id="path1" />
    </clipPath>
    <clipPath
       clipPathUnits="userSpaceOnUse"
       id="clipPath94">
      <rect
         style="fill:#000000"
         id="rect95"
         width="629.47955"
         height="477.97769"
         x="268.86246"
         y="203.78067" />
    </clipPath>
  </defs>
  <g
     clip-path="url(#JlgECGKBwJJt)"
     id="g94"
     transform="translate(-268.86246,-203.78067)">
    <g
       id="g93">
      <rect
         fill="#ffffff"
         stroke="none"
         x="0"
         y="0"
         width="1525"
         height="861"
         fill-opacity="1"
         id="rect1"
         clip-path="url(#clipPath94)" />
      <path
         fill="#202020"
         stroke="none"
         paint-order="stroke fill markers"
         fill-rule="evenodd"
         d="m 716.87575,355.02978 -179.13281,80.89677 16.53713,201.4058 250.14797,-45.32883 23.50384,-218.24991 z"
         fill-opacity="0.109804"
         id="path2" />
      <path
         fill="#993300"
         stroke="none"
         paint-order="stroke fill markers"
         fill-rule="evenodd"
         d="M 168.8452,466.21619 537.74294,435.92655 403.27151,138.1613 Z"
         fill-opacity="0.0980392"
         id="path3" />
      <path
         fill="#993300"
         stroke="none"
         paint-order="stroke fill markers"
         fill-rule="evenodd"
         d="M 604.21025,105.55024 716.87575,355.02978 761.44079,90.702359 Z"
         fill-opacity="0.0980392"
         id="path4" />
      <path
         fill="none"
         stroke="#000000"
         paint-order="fill stroke markers"
         d="m 537.74294,435.92655 -17.61838,1.44662 1.44662,17.61838 17.61838,-1.44662 -1.44662,-17.61838"
         stroke-opacity="1"
         stroke-linejoin="round"
         stroke-miterlimit="10"
         stroke-width="1.5"
         stroke-dasharray="1.5, 3"
         id="path5" />
      <path
         fill="none"
         stroke="#000000"
         paint-order="fill stroke markers"
         d="m 537.74294,435.92655 16.11097,-7.27575 -7.27575,-16.11098 -16.11097,7.27575 7.27575,16.11098"
         stroke-opacity="1"
         stroke-linejoin="round"
         stroke-miterlimit="10"
         stroke-width="1.5"
         stroke-dasharray="1.5, 3"
         id="path6" />
      <path
         fill="none"
         stroke="#000000"
         paint-order="fill stroke markers"
         d="m 716.87575,355.02978 17.43166,2.93894 2.93894,-17.43165 -17.43166,-2.93894 -2.93894,17.43165"
         stroke-opacity="0.501961"
         stroke-linejoin="round"
         stroke-miterlimit="10"
         stroke-width="1.5"
         stroke-dasharray="1.5, 3"
         id="path7" />
      <path
         fill="none"
         stroke="#000000"
         paint-order="fill stroke markers"
         d="M 716.87575,355.02978 709.6,338.91881 l -16.11097,7.27575 7.27575,16.11097 16.11097,-7.27575"
         stroke-opacity="0.501961"
         stroke-linejoin="round"
         stroke-miterlimit="10"
         stroke-width="1.5"
         stroke-dasharray="1.5, 3"
         id="path8" />
      <path
         fill="none"
         stroke="#202020"
         paint-order="fill stroke markers"
         d="M 716.87575,355.02978 537.74294,435.92655"
         stroke-opacity="0.698039"
         stroke-linecap="round"
         stroke-linejoin="round"
         stroke-miterlimit="10"
         stroke-width="2.5"
         id="path9" />
      <path
         fill="none"
         stroke="#202020"
         paint-order="fill stroke markers"
         d="m 537.74294,435.92655 16.53713,201.4058"
         stroke-opacity="0.698039"
         stroke-linecap="round"
         stroke-linejoin="round"
         stroke-miterlimit="10"
         stroke-width="2.5"
         id="path10" />
      <path
         fill="none"
         stroke="#993300"
         paint-order="fill stroke markers"
         d="M 545.88584,539.11989 0,588.29879"
         stroke-opacity="0.301961"
         stroke-linecap="round"
         stroke-linejoin="round"
         stroke-miterlimit="10"
         stroke-width="3.5"
         id="path11" />
      <path
         fill="none"
         stroke="#000000"
         paint-order="fill stroke markers"
         d="m 716.87575,355.02978 111.05613,18.72383"
         stroke-opacity="0.698039"
         stroke-linecap="round"
         stroke-linejoin="round"
         stroke-miterlimit="10"
         stroke-width="2.5"
         id="path12" />
      <path
         fill="#006633"
         stroke="none"
         paint-order="stroke fill markers"
         d="m 545.88787,537.36978 c -0.0526,0 -0.10565,0.002 -0.15905,0.007 l -74.25256,6.68942 v 0 l -0.26918,-2.9879 -18.49716,6.43565 19.34956,3.02603 v 0 l -0.26918,-2.9879 v 0 l 74.25257,-6.68942 c 0.9626,-0.0867 1.67264,-0.93736 1.58591,-1.89996 -0.0819,-0.90921 -0.84534,-1.59309 -1.74091,-1.59309 z"
         fill-opacity="0.698039"
         id="path13" />
      <path
         fill="#006633"
         stroke="none"
         paint-order="stroke fill markers"
         d="m 448.76413,370.45158 12.48808,15.08675 1.77804,-2.41631 v 0 l 73.6755,54.21404 c 0.31231,0.22982 0.67565,0.3406 1.03579,0.3406 0.53751,0 1.06791,-0.24678 1.41092,-0.71292 0.57282,-0.77846 0.40612,-1.87388 -0.37233,-2.44671 l -73.67549,-54.21404 1.77804,-2.41631 z"
         fill-opacity="0.698039"
         id="path14" />
      <path
         fill="#ff7f00"
         stroke="none"
         paint-order="stroke fill markers"
         d="m 777,312 -18.21518,7.19511 1.74597,2.43959 -44.67352,31.97199 c -0.78595,0.56249 -0.96711,1.65562 -0.40461,2.44158 0.34166,0.47739 0.8791,0.73165 1.42457,0.73165 0.35255,0 0.70845,-0.10621 1.017,-0.32704 l 44.67352,-31.97199 v 0 l 1.74597,2.43959 z"
         fill-opacity="0.698039"
         id="path15" />
      <path
         fill="#4d4dff"
         stroke="none"
         paint-order="stroke fill markers"
         d="m 550.88584,539.11989 c 0,2.76142 -2.23857,5 -5,5 -2.76142,0 -5,-2.23858 -5,-5 0,-2.76142 2.23858,-5 5,-5 2.76143,0 5,2.23858 5,5 z"
         fill-opacity="1"
         id="path16" />
      <path
         fill="none"
         stroke="#000000"
         paint-order="fill stroke markers"
         d="m 550.88584,539.11989 c 0,2.76142 -2.23857,5 -5,5 -2.76142,0 -5,-2.23858 -5,-5 0,-2.76142 2.23858,-5 5,-5 2.76143,0 5,2.23858 5,5 z"
         stroke-opacity="1"
         stroke-linecap="round"
         stroke-linejoin="round"
         stroke-miterlimit="10"
         id="path17" />
      <path
         fill="#4d4dff"
         stroke="none"
         paint-order="stroke fill markers"
         d="m 700.30309,492.11222 c 0,2.76142 -2.23858,5 -5,5 -2.76142,0 -5,-2.23858 -5,-5 0,-2.76143 2.23858,-5 5,-5 2.76142,0 5,2.23857 5,5 z"
         fill-opacity="1"
         id="path18" />
      <path
         fill="none"
         stroke="#000000"
         paint-order="fill stroke markers"
         d="m 700.30309,492.11222 c 0,2.76142 -2.23858,5 -5,5 -2.76142,0 -5,-2.23858 -5,-5 0,-2.76143 2.23858,-5 5,-5 2.76142,0 5,2.23857 5,5 z"
         stroke-opacity="1"
         stroke-linecap="round"
         stroke-linejoin="round"
         stroke-miterlimit="10"
         id="path19" />
      <path
         fill="#cc0000"
         stroke="none"
         paint-order="stroke fill markers"
         d="m 721.87575,355.02978 c 0,2.76143 -2.23858,5 -5,5 -2.76142,0 -5,-2.23857 -5,-5 0,-2.76142 2.23858,-5 5,-5 2.76142,0 5,2.23858 5,5 z"
         fill-opacity="1"
         id="path20" />
      <path
         fill="none"
         stroke="#000000"
         paint-order="fill stroke markers"
         d="m 721.87575,355.02978 c 0,2.76143 -2.23858,5 -5,5 -2.76142,0 -5,-2.23857 -5,-5 0,-2.76142 2.23858,-5 5,-5 2.76142,0 5,2.23858 5,5 z"
         stroke-opacity="1"
         stroke-linecap="round"
         stroke-linejoin="round"
         stroke-miterlimit="10"
         id="path21" />
      <path
         fill="#4d4dff"
         stroke="none"
         paint-order="stroke fill markers"
         d="m 543.58236,435.92655 c 0,2.76142 -2.23857,5 -5,5 -2.76142,0 -5,-2.23858 -5,-5 0,-2.76143 2.23858,-5 5,-5 2.76143,0 5,2.23857 5,5 z"
         fill-opacity="1"
         id="path22" />
      <path
         fill="none"
         stroke="#000000"
         paint-order="fill stroke markers"
         d="m 543.58236,435.92655 c 0,2.76142 -2.23857,5 -5,5 -2.76142,0 -5,-2.23858 -5,-5 0,-2.76143 2.23858,-5 5,-5 2.76143,0 5,2.23857 5,5 z"
         stroke-opacity="1"
         stroke-linecap="round"
         stroke-linejoin="round"
         stroke-miterlimit="10"
         id="path23" />
      <path
         fill="#4d4dff"
         stroke="none"
         paint-order="stroke fill markers"
         d="m 542.74294,435.92655 c 0,2.76142 -2.23858,5 -5,5 -2.76142,0 -5,-2.23858 -5,-5 0,-2.76143 2.23858,-5 5,-5 2.76142,0 5,2.23857 5,5 z"
         fill-opacity="1"
         id="path24" />
      <path
         fill="none"
         stroke="#000000"
         paint-order="fill stroke markers"
         d="m 542.74294,435.92655 c 0,2.76142 -2.23858,5 -5,5 -2.76142,0 -5,-2.23858 -5,-5 0,-2.76143 2.23858,-5 5,-5 2.76142,0 5,2.23857 5,5 z"
         stroke-opacity="1"
         stroke-linecap="round"
         stroke-linejoin="round"
         stroke-miterlimit="10"
         id="path25" />
      <path
         fill="#7d7dff"
         stroke="none"
         paint-order="stroke fill markers"
         d="m 173.8452,466.21619 c 0,2.76143 -2.23857,5 -5,5 -2.76142,0 -5,-2.23857 -5,-5 0,-2.76142 2.23858,-5 5,-5 2.76143,0 5,2.23858 5,5 z"
         fill-opacity="1"
         id="path26" />
      <path
         fill="none"
         stroke="#000000"
         paint-order="fill stroke markers"
         d="m 173.8452,466.21619 c 0,2.76143 -2.23857,5 -5,5 -2.76142,0 -5,-2.23857 -5,-5 0,-2.76142 2.23858,-5 5,-5 2.76143,0 5,2.23858 5,5 z"
         stroke-opacity="1"
         stroke-linecap="round"
         stroke-linejoin="round"
         stroke-miterlimit="10"
         id="path27" />
      <text
         fill="#7d7dff"
         stroke="none"
         font-family="geogebra-sans-serif, sans-serif"
         font-size="16px"
         font-style="normal"
         font-weight="normal"
         text-decoration="normal"
         x="173"
         y="456"
         text-anchor="start"
         dominant-baseline="alphabetic"
         fill-opacity="1"
         id="text27">F</text>
      <path
         fill="#7d7dff"
         stroke="none"
         paint-order="stroke fill markers"
         d="m 408.27151,138.1613 c 0,2.76143 -2.23857,5 -5,5 -2.76142,0 -5,-2.23857 -5,-5 0,-2.76142 2.23858,-5 5,-5 2.76143,0 5,2.23858 5,5 z"
         fill-opacity="1"
         id="path28" />
      <path
         fill="none"
         stroke="#000000"
         paint-order="fill stroke markers"
         d="m 408.27151,138.1613 c 0,2.76143 -2.23857,5 -5,5 -2.76142,0 -5,-2.23857 -5,-5 0,-2.76142 2.23858,-5 5,-5 2.76143,0 5,2.23858 5,5 z"
         stroke-opacity="1"
         stroke-linecap="round"
         stroke-linejoin="round"
         stroke-miterlimit="10"
         id="path29" />
      <text
         fill="#7d7dff"
         stroke="none"
         font-family="geogebra-sans-serif, sans-serif"
         font-size="16px"
         font-style="normal"
         font-weight="normal"
         text-decoration="normal"
         x="407"
         y="128"
         text-anchor="start"
         dominant-baseline="alphabetic"
         fill-opacity="1"
         id="text29">H</text>
      <path
         fill="#7d7dff"
         stroke="none"
         paint-order="stroke fill markers"
         d="m 766.44079,90.702359 c 0,2.761424 -2.23857,5 -5,5 -2.76142,0 -5,-2.238576 -5,-5 0,-2.761424 2.23858,-5 5,-5 2.76143,0 5,2.238576 5,5 z"
         fill-opacity="1"
         id="path30" />
      <path
         fill="none"
         stroke="#000000"
         paint-order="fill stroke markers"
         d="m 766.44079,90.702359 c 0,2.761424 -2.23857,5 -5,5 -2.76142,0 -5,-2.238576 -5,-5 0,-2.761424 2.23858,-5 5,-5 2.76143,0 5,2.238576 5,5 z"
         stroke-opacity="1"
         stroke-linecap="round"
         stroke-linejoin="round"
         stroke-miterlimit="10"
         id="path31" />
      <text
         fill="#7d7dff"
         stroke="none"
         font-family="geogebra-sans-serif, sans-serif"
         font-size="16px"
         font-style="normal"
         font-weight="normal"
         text-decoration="normal"
         x="765"
         y="81"
         text-anchor="start"
         dominant-baseline="alphabetic"
         fill-opacity="1"
         id="text31">N</text>
      <path
         fill="#7d7dff"
         stroke="none"
         paint-order="stroke fill markers"
         d="m 609.21025,105.55024 c 0,2.76143 -2.23858,5 -5,5 -2.76142,0 -5,-2.23857 -5,-5 0,-2.76142 2.23858,-5 5,-5 2.76142,0 5,2.23858 5,5 z"
         fill-opacity="1"
         id="path32" />
      <path
         fill="none"
         stroke="#000000"
         paint-order="fill stroke markers"
         d="m 609.21025,105.55024 c 0,2.76143 -2.23858,5 -5,5 -2.76142,0 -5,-2.23857 -5,-5 0,-2.76142 2.23858,-5 5,-5 2.76142,0 5,2.23858 5,5 z"
         stroke-opacity="1"
         stroke-linecap="round"
         stroke-linejoin="round"
         stroke-miterlimit="10"
         id="path33" />
      <text
         fill="#7d7dff"
         stroke="none"
         font-family="geogebra-sans-serif, sans-serif"
         font-size="16px"
         font-style="normal"
         font-weight="normal"
         text-decoration="normal"
         x="608"
         y="96"
         text-anchor="start"
         dominant-baseline="alphabetic"
         fill-opacity="1"
         id="text33">K</text>
      <g
         transform="scale(25)"
         id="g36">
        <g
           transform="translate(22.08,22.244)"
           id="g34">
          <path
             fill="#0000ff"
             stroke="none"
             paint-order="stroke fill markers"
             d="m 0.346,-0.246 0.168,0.199 H 0.585 V 0 Q 0.486,-0.003 0.475,-0.003 0.433,-0.003 0.355,0 v -0.047 h 0.039 l -0.11,-0.13 -0.097,0.109 q -0.007,0.008 -0.007,0.01 0,0.011 0.037,0.011 V 0 Q 0.157,-0.003 0.114,-0.003 0.074,-0.003 0.022,0 v -0.047 q 0.031,0 0.0455,-5e-4 0.0145,-5e-4 0.031,-0.005 Q 0.115,-0.057 0.123,-0.066 L 0.254,-0.213 0.098,-0.397 H 0.027 v -0.047 q 0.099,0.003 0.11,0.003 0.043,0 0.121,-0.003 v 0.047 H 0.218 L 0.316,-0.282 0.4,-0.376 0.408,-0.388 Q 0.393,-0.397 0.37,-0.397 v -0.047 q 0.084,0.003 0.103,0.003 0.039,0 0.092,-0.003 v 0.047 q -0.04,0 -0.061,0.0025 -0.021,0.0025 -0.027,0.006 -0.006,0.0035 -0.014,0.0125 z"
             fill-opacity="1"
             id="path34" />
        </g>
        <g
           transform="matrix(0.7,0,0,0.7,22.687,22.394)"
           id="g35">
          <path
             fill="#0000ff"
             stroke="none"
             paint-order="stroke fill markers"
             d="m 0.294,-0.64 v 0.561 q 0,0.03 0.012,0.038 0.017,0.01 0.081,0.01 H 0.419 V 0 Q 0.384,-0.003 0.257,-0.003 0.13,-0.003 0.095,0 v -0.031 h 0.032 q 0.077,0 0.088,-0.018 L 0.216,-0.05 Q 0.22,-0.058 0.22,-0.079 v -0.518 q -0.052,0.026 -0.131,0.026 v -0.031 q 0.12,0 0.182,-0.064 0.019,0 0.022,0.007 v 0 0.001 q 0.001,0.003 0.001,0.018 z"
             fill-opacity="1"
             id="path35" />
        </g>
      </g>
      <g
         transform="scale(25)"
         id="g39">
        <g
           transform="translate(21.8,18.004)"
           id="g37">
          <path
             fill="#0000ff"
             stroke="none"
             paint-order="stroke fill markers"
             d="m 0.346,-0.246 0.168,0.199 H 0.585 V 0 Q 0.486,-0.003 0.475,-0.003 0.433,-0.003 0.355,0 v -0.047 h 0.039 l -0.11,-0.13 -0.097,0.109 q -0.007,0.008 -0.007,0.01 0,0.011 0.037,0.011 V 0 Q 0.157,-0.003 0.114,-0.003 0.074,-0.003 0.022,0 v -0.047 q 0.031,0 0.0455,-5e-4 0.0145,-5e-4 0.031,-0.005 Q 0.115,-0.057 0.123,-0.066 L 0.254,-0.213 0.098,-0.397 H 0.027 v -0.047 q 0.099,0.003 0.11,0.003 0.043,0 0.121,-0.003 v 0.047 H 0.218 L 0.316,-0.282 0.4,-0.376 0.408,-0.388 Q 0.393,-0.397 0.37,-0.397 v -0.047 q 0.084,0.003 0.103,0.003 0.039,0 0.092,-0.003 v 0.047 q -0.04,0 -0.061,0.0025 -0.021,0.0025 -0.027,0.006 -0.006,0.0035 -0.014,0.0125 z"
             fill-opacity="1"
             id="path36" />
        </g>
        <g
           transform="matrix(0.7,0,0,0.7,22.407,18.154)"
           id="g38">
          <path
             fill="#0000ff"
             stroke="none"
             paint-order="stroke fill markers"
             d="m 0.449,-0.174 v 0 L 0.421,0 H 0.05 q 0,-0.025 0.006,-0.032 l 0.005,-0.005 0.192,-0.214 q 0.105,-0.118 0.105,-0.221 0,-0.089 -0.054,-0.135 L 0.303,-0.608 H 0.302 Q 0.27,-0.635 0.224,-0.635 q -0.072,0 -0.115,0.062 -0.012,0.018 -0.02,0.04 0.003,-0.001 0.013,-0.001 0.04,0 0.051,0.036 v 0.001 q 0.002,0.007 0.002,0.015 0,0.04 -0.038,0.051 -0.008,0.002 -0.014,0.002 -0.037,0 -0.049,-0.031 -0.004,-0.011 -0.004,-0.025 0,-0.077 0.059,-0.132 0.053,-0.049 0.128,-0.049 0.11,0 0.171,0.074 0.035,0.043 0.04,0.102 0.001,0.009 0.001,0.018 0,0.073 -0.055,0.139 -0.029,0.034 -0.09,0.09 l -0.061,0.054 -0.01,0.009 -0.106,0.103 h 0.18 q 0.088,0 0.095,-0.008 0.01,-0.014 0.022,-0.089 z"
             fill-opacity="1"
             id="path37" />
        </g>
      </g>
      <g
         transform="scale(25)"
         id="g47">
        <g
           transform="translate(16.84,23.11)"
           id="g40">
          <path
             fill="#006633"
             stroke="none"
             paint-order="stroke fill markers"
             d="M 0.661,-0.23 H 0.116 q -0.032,0 -0.033,-0.02 0,-0.02 0.033,-0.02 h 0.545 q 0.032,0 0.033,0.02 0,0.02 -0.033,0.02 z"
             fill-opacity="1"
             id="path39" />
        </g>
        <g
           transform="translate(17.618,23.11)"
           id="g41">
          <path
             fill="#006633"
             stroke="none"
             paint-order="stroke fill markers"
             d="M 0.78,-0.663 0.442,0.015 Q 0.434,0.03 0.426,0.032 0.422,0.033 0.416,0.033 0.4,0.033 0.394,0.022 0.393,0.02 0.39,0.015 L 0.052,-0.663 Q 0.047,-0.672 0.047,-0.675 0.053,-0.683 0.069,-0.683 h 0.694 q 0.021,0 0.022,0.008 0,0.003 -0.005,0.012 m -0.61,0.051 0.275,0.551 H 0.446 L 0.72,-0.612 Z"
             fill-opacity="1"
             id="path40" />
        </g>
        <g
           transform="translate(18.451,23.11)"
           id="g42">
          <path
             fill="#006633"
             stroke="none"
             paint-order="stroke fill markers"
             d="m 0.367,-0.4 v 0 l -0.06,0.317 Q 0.298,-0.021 0.271,0.059 0.261,0.088 0.251,0.108 0.216,0.182 0.164,0.2 0.151,0.205 0.138,0.205 0.088,0.205 0.064,0.171 0.053,0.156 0.053,0.136 q 0,-0.04 0.034,-0.055 0.01,-0.005 0.021,-0.005 0.029,0 0.036,0.025 0.001,0.005 0.001,0.01 0,0.034 -0.03,0.048 -0.011,0.005 -0.025,0.006 0.019,0.018 0.048,0.018 0.044,0 0.069,-0.098 0.005,-0.023 0.012,-0.06 L 0.225,-0.005 0.3,-0.4 H 0.234 q -0.025,0 -0.027,-0.008 H 0.206 v -0.004 q 0,-0.017 0.017,-0.019 v 0 h 0.013 0.069 q 0.024,-0.125 0.033,-0.157 0.03,-0.1 0.106,-0.115 0.011,-0.002 0.021,-0.002 0.052,0 0.076,0.034 v 0 q 0.011,0.015 0.011,0.035 0,0.04 -0.034,0.055 -0.01,0.005 -0.021,0.005 -0.029,0 -0.036,-0.025 -0.001,-0.005 -0.001,-0.01 0,-0.031 0.028,-0.046 0.011,-0.007 0.026,-0.008 -0.019,-0.018 -0.049,-0.018 -0.031,0 -0.047,0.034 -0.007,0.014 -0.024,0.104 l -0.021,0.114 h 0.083 q 0.025,0 0.027,0.011 0,0.018 -0.016,0.02 H 0.466 0.453 Z"
             fill-opacity="1"
             id="path41" />
        </g>
        <g
           transform="translate(19.049,23.11)"
           id="g43">
          <path
             fill="#006633"
             stroke="none"
             paint-order="stroke fill markers"
             d="m 0.331,0.24 v 0 q 0,0.01 -0.01,0.01 Q 0.309,0.25 0.268,0.209 0.206,0.147 0.165,0.062 0.099,-0.074 0.099,-0.25 q 0,-0.169 0.063,-0.305 0.052,-0.111 0.132,-0.178 0.021,-0.017 0.027,-0.017 0.01,0 0.01,0.01 0,0.005 -0.013,0.017 -0.161,0.164 -0.161,0.473 0,0.308 0.157,0.468 0.017,0.017 0.017,0.022 z"
             fill-opacity="1"
             id="path42" />
        </g>
        <g
           transform="translate(19.438,23.11)"
           id="g44">
          <path
             fill="#006633"
             stroke="none"
             paint-order="stroke fill markers"
             d="m 0.346,-0.246 0.168,0.199 H 0.585 V 0 Q 0.486,-0.003 0.475,-0.003 0.433,-0.003 0.355,0 v -0.047 h 0.039 l -0.11,-0.13 -0.097,0.109 q -0.007,0.008 -0.007,0.01 0,0.011 0.037,0.011 V 0 Q 0.157,-0.003 0.114,-0.003 0.074,-0.003 0.022,0 v -0.047 q 0.031,0 0.0455,-5e-4 0.0145,-5e-4 0.031,-0.005 Q 0.115,-0.057 0.123,-0.066 L 0.254,-0.213 0.098,-0.397 H 0.027 v -0.047 q 0.099,0.003 0.11,0.003 0.043,0 0.121,-0.003 v 0.047 H 0.218 L 0.316,-0.282 0.4,-0.376 0.408,-0.388 Q 0.393,-0.397 0.37,-0.397 v -0.047 q 0.084,0.003 0.103,0.003 0.039,0 0.092,-0.003 v 0.047 q -0.04,0 -0.061,0.0025 -0.021,0.0025 -0.027,0.006 -0.006,0.0035 -0.014,0.0125 z"
             fill-opacity="1"
             id="path43" />
        </g>
        <g
           transform="matrix(0.7,0,0,0.7,20.045,23.26)"
           id="g45">
          <path
             fill="#006633"
             stroke="none"
             paint-order="stroke fill markers"
             d="m 0.294,-0.64 v 0.561 q 0,0.03 0.012,0.038 0.017,0.01 0.081,0.01 H 0.419 V 0 Q 0.384,-0.003 0.257,-0.003 0.13,-0.003 0.095,0 v -0.031 h 0.032 q 0.077,0 0.088,-0.018 L 0.216,-0.05 Q 0.22,-0.058 0.22,-0.079 v -0.518 q -0.052,0.026 -0.131,0.026 v -0.031 q 0.12,0 0.182,-0.064 0.019,0 0.022,0.007 v 0 0.001 q 0.001,0.003 0.001,0.018 z"
             fill-opacity="1"
             id="path44" />
        </g>
        <g
           transform="translate(20.395,23.11)"
           id="g46">
          <path
             fill="#006633"
             stroke="none"
             paint-order="stroke fill markers"
             d="m 0.289,-0.25 v 0 q 0,0.169 -0.063,0.305 Q 0.174,0.166 0.094,0.233 0.073,0.25 0.067,0.25 q -0.01,0 -0.01,-0.01 0,-0.005 0.013,-0.017 0.161,-0.164 0.161,-0.473 0,-0.305 -0.15,-0.462 L 0.076,-0.717 Q 0.057,-0.735 0.057,-0.74 q 0,-0.01 0.01,-0.01 0.012,0 0.053,0.041 0.062,0.062 0.103,0.147 0.066,0.136 0.066,0.312 z"
             fill-opacity="1"
             id="path45" />
        </g>
      </g>
      <g
         transform="scale(25)"
         id="g55">
        <g
           transform="translate(15.84,14.67)"
           id="g48">
          <path
             fill="#006633"
             stroke="none"
             paint-order="stroke fill markers"
             d="M 0.661,-0.23 H 0.116 q -0.032,0 -0.033,-0.02 0,-0.02 0.033,-0.02 h 0.545 q 0.032,0 0.033,0.02 0,0.02 -0.033,0.02 z"
             fill-opacity="1"
             id="path47" />
        </g>
        <g
           transform="translate(16.618,14.67)"
           id="g49">
          <path
             fill="#006633"
             stroke="none"
             paint-order="stroke fill markers"
             d="M 0.78,-0.663 0.442,0.015 Q 0.434,0.03 0.426,0.032 0.422,0.033 0.416,0.033 0.4,0.033 0.394,0.022 0.393,0.02 0.39,0.015 L 0.052,-0.663 Q 0.047,-0.672 0.047,-0.675 0.053,-0.683 0.069,-0.683 h 0.694 q 0.021,0 0.022,0.008 0,0.003 -0.005,0.012 m -0.61,0.051 0.275,0.551 H 0.446 L 0.72,-0.612 Z"
             fill-opacity="1"
             id="path48" />
        </g>
        <g
           transform="translate(17.451,14.67)"
           id="g50">
          <path
             fill="#006633"
             stroke="none"
             paint-order="stroke fill markers"
             d="m 0.367,-0.4 v 0 l -0.06,0.317 Q 0.298,-0.021 0.271,0.059 0.261,0.088 0.251,0.108 0.216,0.182 0.164,0.2 0.151,0.205 0.138,0.205 0.088,0.205 0.064,0.171 0.053,0.156 0.053,0.136 q 0,-0.04 0.034,-0.055 0.01,-0.005 0.021,-0.005 0.029,0 0.036,0.025 0.001,0.005 0.001,0.01 0,0.034 -0.03,0.048 -0.011,0.005 -0.025,0.006 0.019,0.018 0.048,0.018 0.044,0 0.069,-0.098 0.005,-0.023 0.012,-0.06 L 0.225,-0.005 0.3,-0.4 H 0.234 q -0.025,0 -0.027,-0.008 H 0.206 v -0.004 q 0,-0.017 0.017,-0.019 v 0 h 0.013 0.069 q 0.024,-0.125 0.033,-0.157 0.03,-0.1 0.106,-0.115 0.011,-0.002 0.021,-0.002 0.052,0 0.076,0.034 v 0 q 0.011,0.015 0.011,0.035 0,0.04 -0.034,0.055 -0.01,0.005 -0.021,0.005 -0.029,0 -0.036,-0.025 -0.001,-0.005 -0.001,-0.01 0,-0.031 0.028,-0.046 0.011,-0.007 0.026,-0.008 -0.019,-0.018 -0.049,-0.018 -0.031,0 -0.047,0.034 -0.007,0.014 -0.024,0.104 l -0.021,0.114 h 0.083 q 0.025,0 0.027,0.011 0,0.018 -0.016,0.02 H 0.466 0.453 Z"
             fill-opacity="1"
             id="path49" />
        </g>
        <g
           transform="translate(18.049,14.67)"
           id="g51">
          <path
             fill="#006633"
             stroke="none"
             paint-order="stroke fill markers"
             d="m 0.331,0.24 v 0 q 0,0.01 -0.01,0.01 Q 0.309,0.25 0.268,0.209 0.206,0.147 0.165,0.062 0.099,-0.074 0.099,-0.25 q 0,-0.169 0.063,-0.305 0.052,-0.111 0.132,-0.178 0.021,-0.017 0.027,-0.017 0.01,0 0.01,0.01 0,0.005 -0.013,0.017 -0.161,0.164 -0.161,0.473 0,0.308 0.157,0.468 0.017,0.017 0.017,0.022 z"
             fill-opacity="1"
             id="path50" />
        </g>
        <g
           transform="translate(18.438,14.67)"
           id="g52">
          <path
             fill="#006633"
             stroke="none"
             paint-order="stroke fill markers"
             d="m 0.346,-0.246 0.168,0.199 H 0.585 V 0 Q 0.486,-0.003 0.475,-0.003 0.433,-0.003 0.355,0 v -0.047 h 0.039 l -0.11,-0.13 -0.097,0.109 q -0.007,0.008 -0.007,0.01 0,0.011 0.037,0.011 V 0 Q 0.157,-0.003 0.114,-0.003 0.074,-0.003 0.022,0 v -0.047 q 0.031,0 0.0455,-5e-4 0.0145,-5e-4 0.031,-0.005 Q 0.115,-0.057 0.123,-0.066 L 0.254,-0.213 0.098,-0.397 H 0.027 v -0.047 q 0.099,0.003 0.11,0.003 0.043,0 0.121,-0.003 v 0.047 H 0.218 L 0.316,-0.282 0.4,-0.376 0.408,-0.388 Q 0.393,-0.397 0.37,-0.397 v -0.047 q 0.084,0.003 0.103,0.003 0.039,0 0.092,-0.003 v 0.047 q -0.04,0 -0.061,0.0025 -0.021,0.0025 -0.027,0.006 -0.006,0.0035 -0.014,0.0125 z"
             fill-opacity="1"
             id="path51" />
        </g>
        <g
           transform="matrix(0.7,0,0,0.7,19.045,14.82)"
           id="g53">
          <path
             fill="#006633"
             stroke="none"
             paint-order="stroke fill markers"
             d="m 0.449,-0.174 v 0 L 0.421,0 H 0.05 q 0,-0.025 0.006,-0.032 l 0.005,-0.005 0.192,-0.214 q 0.105,-0.118 0.105,-0.221 0,-0.089 -0.054,-0.135 L 0.303,-0.608 H 0.302 Q 0.27,-0.635 0.224,-0.635 q -0.072,0 -0.115,0.062 -0.012,0.018 -0.02,0.04 0.003,-0.001 0.013,-0.001 0.04,0 0.051,0.036 v 0.001 q 0.002,0.007 0.002,0.015 0,0.04 -0.038,0.051 -0.008,0.002 -0.014,0.002 -0.037,0 -0.049,-0.031 -0.004,-0.011 -0.004,-0.025 0,-0.077 0.059,-0.132 0.053,-0.049 0.128,-0.049 0.11,0 0.171,0.074 0.035,0.043 0.04,0.102 0.001,0.009 0.001,0.018 0,0.073 -0.055,0.139 -0.029,0.034 -0.09,0.09 l -0.061,0.054 -0.01,0.009 -0.106,0.103 h 0.18 q 0.088,0 0.095,-0.008 0.01,-0.014 0.022,-0.089 z"
             fill-opacity="1"
             id="path52" />
        </g>
        <g
           transform="translate(19.395,14.67)"
           id="g54">
          <path
             fill="#006633"
             stroke="none"
             paint-order="stroke fill markers"
             d="m 0.289,-0.25 v 0 q 0,0.169 -0.063,0.305 Q 0.174,0.166 0.094,0.233 0.073,0.25 0.067,0.25 q -0.01,0 -0.01,-0.01 0,-0.005 0.013,-0.017 0.161,-0.164 0.161,-0.473 0,-0.305 -0.15,-0.462 L 0.076,-0.717 Q 0.057,-0.735 0.057,-0.74 q 0,-0.01 0.01,-0.01 0.012,0 0.053,0.041 0.062,0.062 0.103,0.147 0.066,0.136 0.066,0.312 z"
             fill-opacity="1"
             id="path53" />
        </g>
      </g>
      <g
         transform="scale(19)"
         id="g62">
        <g
           transform="translate(20.684211,13.592105)"
           id="g56">
          <path
             fill="#993300"
             stroke="none"
             paint-order="stroke fill markers"
             d="m 0.756,-0.578 -0.14,0.557 q -0.005,0.019 -0.01,0.02 L 0.605,0 H 0.6 Q 0.59,0 0.584,-0.012 0.583,-0.015 0.581,-0.019 L 0.332,-0.608 0.323,-0.626 0.191,-0.098 q -0.004,0.015 -0.004,0.023 0,0.034 0.043,0.042 0.01,0.002 0.023,0.002 0.02,0 0.02,0.011 Q 0.273,0 0.255,0 l -0.1,-0.003 H 0.152 L 0.053,0 H 0.052 q -0.013,0 -0.013,-0.011 0,-0.02 0.017,-0.02 0.079,-0.003 0.1,-0.05 0.004,-0.01 0.008,-0.025 l 0.134,-0.537 q 0,-0.009 -0.068,-0.009 -0.026,0 -0.028,-0.011 0,-0.018 0.015,-0.02 h 0.014 0.134 q 0.021,0 0.026,0.007 0.002,0.003 0.006,0.012 l 0.221,0.522 0.112,-0.445 q 0.003,-0.009 0.003,-0.021 0,-0.043 -0.068,-0.044 -0.018,0 -0.018,-0.011 0,-0.02 0.018,-0.02 l 0.101,0.003 h 0.001 l 0.1,-0.003 h 0.001 q 0.013,0 0.013,0.011 0,0.02 -0.017,0.02 -0.078,0.003 -0.1,0.049 v 0 q -0.004,0.01 -0.008,0.025 z"
             fill-opacity="1"
             id="path55" />
        </g>
        <g
           transform="matrix(0.7,0,0,0.7,21.487211,13.742105)"
           id="g57">
          <path
             fill="#993300"
             stroke="none"
             paint-order="stroke fill markers"
             d="m 0.677,-0.162 v 0 L 0.644,0 H 0.485 Q 0.463,0 0.46,-0.007 0.459,-0.011 0.459,-0.021 q 0,-0.069 0.047,-0.201 0.049,-0.138 0.055,-0.203 0.001,-0.015 0.001,-0.03 0,-0.132 -0.092,-0.194 -0.05,-0.034 -0.11,-0.034 -0.085,0 -0.144,0.063 v 0.001 q -0.057,0.062 -0.057,0.164 0,0.077 0.049,0.212 0.054,0.15 0.054,0.222 0,0.017 -0.007,0.02 v 0 H 0.254 Q 0.25,0 0.237,0 H 0.077 L 0.044,-0.162 h 0.025 q 0.01,0.052 0.018,0.074 0.005,0.015 0.018,0.019 0.013,0.004 0.048,0.004 h 0.08 Q 0.22,-0.12 0.159,-0.212 L 0.153,-0.222 Q 0.15,-0.226 0.144,-0.235 0.072,-0.343 0.06,-0.412 0.056,-0.433 0.056,-0.454 q 0,-0.104 0.089,-0.177 0.088,-0.074 0.216,-0.074 0.135,0 0.225,0.082 0.079,0.071 0.079,0.169 0,0.081 -0.07,0.192 v 0 L 0.594,-0.261 0.593,-0.26 0.577,-0.235 q -0.068,0.1 -0.084,0.152 -0.003,0.009 -0.005,0.018 h 0.08 q 0.055,0 0.063,-0.015 l 0.003,-0.009 q 0.008,-0.022 0.018,-0.073 z"
             fill-opacity="1"
             id="path56" />
        </g>
        <g
           transform="translate(21.992611,13.592105)"
           id="g58">
          <path
             fill="#993300"
             stroke="none"
             paint-order="stroke fill markers"
             d="m 0.331,0.24 v 0 q 0,0.01 -0.01,0.01 Q 0.309,0.25 0.268,0.209 0.206,0.147 0.165,0.062 0.099,-0.074 0.099,-0.25 q 0,-0.169 0.063,-0.305 0.052,-0.111 0.132,-0.178 0.021,-0.017 0.027,-0.017 0.01,0 0.01,0.01 0,0.005 -0.013,0.017 -0.161,0.164 -0.161,0.473 0,0.308 0.157,0.468 0.017,0.017 0.017,0.022 z"
             fill-opacity="1"
             id="path57" />
        </g>
        <g
           transform="translate(22.381611,13.592105)"
           id="g59">
          <path
             fill="#993300"
             stroke="none"
             paint-order="stroke fill markers"
             d="m 0.346,-0.246 0.168,0.199 H 0.585 V 0 Q 0.486,-0.003 0.475,-0.003 0.433,-0.003 0.355,0 v -0.047 h 0.039 l -0.11,-0.13 -0.097,0.109 q -0.007,0.008 -0.007,0.01 0,0.011 0.037,0.011 V 0 Q 0.157,-0.003 0.114,-0.003 0.074,-0.003 0.022,0 v -0.047 q 0.031,0 0.0455,-5e-4 0.0145,-5e-4 0.031,-0.005 Q 0.115,-0.057 0.123,-0.066 L 0.254,-0.213 0.098,-0.397 H 0.027 v -0.047 q 0.099,0.003 0.11,0.003 0.043,0 0.121,-0.003 v 0.047 H 0.218 L 0.316,-0.282 0.4,-0.376 0.408,-0.388 Q 0.393,-0.397 0.37,-0.397 v -0.047 q 0.084,0.003 0.103,0.003 0.039,0 0.092,-0.003 v 0.047 q -0.04,0 -0.061,0.0025 -0.021,0.0025 -0.027,0.006 -0.006,0.0035 -0.014,0.0125 z"
             fill-opacity="1"
             id="path58" />
        </g>
        <g
           transform="matrix(0.7,0,0,0.7,22.988611,13.742105)"
           id="g60">
          <path
             fill="#993300"
             stroke="none"
             paint-order="stroke fill markers"
             d="m 0.449,-0.174 v 0 L 0.421,0 H 0.05 q 0,-0.025 0.006,-0.032 l 0.005,-0.005 0.192,-0.214 q 0.105,-0.118 0.105,-0.221 0,-0.089 -0.054,-0.135 L 0.303,-0.608 H 0.302 Q 0.27,-0.635 0.224,-0.635 q -0.072,0 -0.115,0.062 -0.012,0.018 -0.02,0.04 0.003,-0.001 0.013,-0.001 0.04,0 0.051,0.036 v 0.001 q 0.002,0.007 0.002,0.015 0,0.04 -0.038,0.051 -0.008,0.002 -0.014,0.002 -0.037,0 -0.049,-0.031 -0.004,-0.011 -0.004,-0.025 0,-0.077 0.059,-0.132 0.053,-0.049 0.128,-0.049 0.11,0 0.171,0.074 0.035,0.043 0.04,0.102 0.001,0.009 0.001,0.018 0,0.073 -0.055,0.139 -0.029,0.034 -0.09,0.09 l -0.061,0.054 -0.01,0.009 -0.106,0.103 h 0.18 q 0.088,0 0.095,-0.008 0.01,-0.014 0.022,-0.089 z"
             fill-opacity="1"
             id="path59" />
        </g>
        <g
           transform="translate(23.338611,13.592105)"
           id="g61">
          <path
             fill="#993300"
             stroke="none"
             paint-order="stroke fill markers"
             d="m 0.289,-0.25 v 0 q 0,0.169 -0.063,0.305 Q 0.174,0.166 0.094,0.233 0.073,0.25 0.067,0.25 q -0.01,0 -0.01,-0.01 0,-0.005 0.013,-0.017 0.161,-0.164 0.161,-0.473 0,-0.305 -0.15,-0.462 L 0.076,-0.717 Q 0.057,-0.735 0.057,-0.74 q 0,-0.01 0.01,-0.01 0.012,0 0.053,0.041 0.062,0.062 0.103,0.147 0.066,0.136 0.066,0.312 z"
             fill-opacity="1"
             id="path60" />
        </g>
      </g>
      <g
         transform="scale(25)"
         id="g65">
        <g
           transform="translate(27.48,20.964)"
           id="g63">
          <path
             fill="#0000ff"
             stroke="none"
             paint-order="stroke fill markers"
             d="m 0.346,-0.246 0.168,0.199 H 0.585 V 0 Q 0.486,-0.003 0.475,-0.003 0.433,-0.003 0.355,0 v -0.047 h 0.039 l -0.11,-0.13 -0.097,0.109 q -0.007,0.008 -0.007,0.01 0,0.011 0.037,0.011 V 0 Q 0.157,-0.003 0.114,-0.003 0.074,-0.003 0.022,0 v -0.047 q 0.031,0 0.0455,-5e-4 0.0145,-5e-4 0.031,-0.005 Q 0.115,-0.057 0.123,-0.066 L 0.254,-0.213 0.098,-0.397 H 0.027 v -0.047 q 0.099,0.003 0.11,0.003 0.043,0 0.121,-0.003 v 0.047 H 0.218 L 0.316,-0.282 0.4,-0.376 0.408,-0.388 Q 0.393,-0.397 0.37,-0.397 v -0.047 q 0.084,0.003 0.103,0.003 0.039,0 0.092,-0.003 v 0.047 q -0.04,0 -0.061,0.0025 -0.021,0.0025 -0.027,0.006 -0.006,0.0035 -0.014,0.0125 z"
             fill-opacity="1"
             id="path62" />
        </g>
        <g
           transform="matrix(0.7,0,0,0.7,28.087,21.114)"
           id="g64">
          <path
             fill="#0000ff"
             stroke="none"
             paint-order="stroke fill markers"
             d="m 0.29,-0.352 v 0 q 0.1,0.02 0.144,0.098 0.023,0.039 0.023,0.083 0,0.085 -0.07,0.143 -0.061,0.05 -0.143,0.05 -0.099,0 -0.159,-0.059 -0.043,-0.042 -0.043,-0.098 0,-0.047 0.042,-0.056 0.007,-0.002 0.014,-0.002 0.038,0 0.051,0.032 0.004,0.013 0.005,0.024 0,0.04 -0.036,0.052 -0.014,0.005 -0.03,0.003 0.037,0.062 0.128,0.074 0.013,0.002 0.025,0.002 0.064,0 0.094,-0.063 0.019,-0.04 0.019,-0.102 0,-0.133 -0.08,-0.16 Q 0.256,-0.337 0.235,-0.337 H 0.191 q -0.022,0 -0.024,-0.011 0,-0.01 0.015,-0.012 0.015,0 0.039,-0.003 0.051,-0.002 0.08,-0.039 v -0.001 l 0.001,-0.001 0.001,-0.001 h 0.001 l 0.006,-0.01 q 0.028,-0.047 0.028,-0.114 0,-0.093 -0.072,-0.109 -0.012,-0.003 -0.024,-0.003 -0.07,0 -0.114,0.04 -0.011,0.01 -0.019,0.022 0.062,0 0.062,0.05 0,0.036 -0.031,0.048 -0.009,0.003 -0.02,0.003 -0.039,0 -0.049,-0.035 v 0 -0.001 Q 0.069,-0.522 0.069,-0.53 q 0,-0.067 0.066,-0.107 0.048,-0.029 0.111,-0.029 0.091,0 0.147,0.054 l 0.002,0.002 q 0.035,0.036 0.035,0.082 0,0.083 -0.071,0.139 -0.031,0.024 -0.069,0.037 z"
             fill-opacity="1"
             id="path63" />
        </g>
      </g>
      <g
         transform="scale(35)"
         id="g67">
        <g
           transform="translate(22.028571,11.740143)"
           id="g66">
          <path
             fill="#000000"
             stroke="none"
             paint-order="stroke fill markers"
             d="m 0.677,-0.162 v 0 L 0.644,0 H 0.485 Q 0.463,0 0.46,-0.007 0.459,-0.011 0.459,-0.021 q 0,-0.069 0.047,-0.201 0.049,-0.138 0.055,-0.203 0.001,-0.015 0.001,-0.03 0,-0.132 -0.092,-0.194 -0.05,-0.034 -0.11,-0.034 -0.085,0 -0.144,0.063 v 0.001 q -0.057,0.062 -0.057,0.164 0,0.077 0.049,0.212 0.054,0.15 0.054,0.222 0,0.017 -0.007,0.02 v 0 H 0.254 Q 0.25,0 0.237,0 H 0.077 L 0.044,-0.162 h 0.025 q 0.01,0.052 0.018,0.074 0.005,0.015 0.018,0.019 0.013,0.004 0.048,0.004 h 0.08 Q 0.22,-0.12 0.159,-0.212 L 0.153,-0.222 Q 0.15,-0.226 0.144,-0.235 0.072,-0.343 0.06,-0.412 0.056,-0.433 0.056,-0.454 q 0,-0.104 0.089,-0.177 0.088,-0.074 0.216,-0.074 0.135,0 0.225,0.082 0.079,0.071 0.079,0.169 0,0.081 -0.07,0.192 v 0 L 0.594,-0.261 0.593,-0.26 0.577,-0.235 q -0.068,0.1 -0.084,0.152 -0.003,0.009 -0.005,0.018 h 0.08 q 0.055,0 0.063,-0.015 l 0.003,-0.009 q 0.008,-0.022 0.018,-0.073 z"
             fill-opacity="1"
             id="path65" />
        </g>
      </g>
      <g
         transform="scale(19)"
         id="g74">
        <g
           transform="translate(18.578947,28.802632)"
           id="g68">
          <path
             fill="#993300"
             stroke="none"
             paint-order="stroke fill markers"
             d="m 0.756,-0.578 -0.14,0.557 q -0.005,0.019 -0.01,0.02 L 0.605,0 H 0.6 Q 0.59,0 0.584,-0.012 0.583,-0.015 0.581,-0.019 L 0.332,-0.608 0.323,-0.626 0.191,-0.098 q -0.004,0.015 -0.004,0.023 0,0.034 0.043,0.042 0.01,0.002 0.023,0.002 0.02,0 0.02,0.011 Q 0.273,0 0.255,0 l -0.1,-0.003 H 0.152 L 0.053,0 H 0.052 q -0.013,0 -0.013,-0.011 0,-0.02 0.017,-0.02 0.079,-0.003 0.1,-0.05 0.004,-0.01 0.008,-0.025 l 0.134,-0.537 q 0,-0.009 -0.068,-0.009 -0.026,0 -0.028,-0.011 0,-0.018 0.015,-0.02 h 0.014 0.134 q 0.021,0 0.026,0.007 0.002,0.003 0.006,0.012 l 0.221,0.522 0.112,-0.445 q 0.003,-0.009 0.003,-0.021 0,-0.043 -0.068,-0.044 -0.018,0 -0.018,-0.011 0,-0.02 0.018,-0.02 l 0.101,0.003 h 0.001 l 0.1,-0.003 h 0.001 q 0.013,0 0.013,0.011 0,0.02 -0.017,0.02 -0.078,0.003 -0.1,0.049 v 0 q -0.004,0.01 -0.008,0.025 z"
             fill-opacity="1"
             id="path67" />
        </g>
        <g
           transform="matrix(0.7,0,0,0.7,19.381947,28.952632)"
           id="g69">
          <path
             fill="#993300"
             stroke="none"
             paint-order="stroke fill markers"
             d="m 0.677,-0.162 v 0 L 0.644,0 H 0.485 Q 0.463,0 0.46,-0.007 0.459,-0.011 0.459,-0.021 q 0,-0.069 0.047,-0.201 0.049,-0.138 0.055,-0.203 0.001,-0.015 0.001,-0.03 0,-0.132 -0.092,-0.194 -0.05,-0.034 -0.11,-0.034 -0.085,0 -0.144,0.063 v 0.001 q -0.057,0.062 -0.057,0.164 0,0.077 0.049,0.212 0.054,0.15 0.054,0.222 0,0.017 -0.007,0.02 v 0 H 0.254 Q 0.25,0 0.237,0 H 0.077 L 0.044,-0.162 h 0.025 q 0.01,0.052 0.018,0.074 0.005,0.015 0.018,0.019 0.013,0.004 0.048,0.004 h 0.08 Q 0.22,-0.12 0.159,-0.212 L 0.153,-0.222 Q 0.15,-0.226 0.144,-0.235 0.072,-0.343 0.06,-0.412 0.056,-0.433 0.056,-0.454 q 0,-0.104 0.089,-0.177 0.088,-0.074 0.216,-0.074 0.135,0 0.225,0.082 0.079,0.071 0.079,0.169 0,0.081 -0.07,0.192 v 0 L 0.594,-0.261 0.593,-0.26 0.577,-0.235 q -0.068,0.1 -0.084,0.152 -0.003,0.009 -0.005,0.018 h 0.08 q 0.055,0 0.063,-0.015 l 0.003,-0.009 q 0.008,-0.022 0.018,-0.073 z"
             fill-opacity="1"
             id="path68" />
        </g>
        <g
           transform="translate(19.887347,28.802632)"
           id="g70">
          <path
             fill="#993300"
             stroke="none"
             paint-order="stroke fill markers"
             d="m 0.331,0.24 v 0 q 0,0.01 -0.01,0.01 Q 0.309,0.25 0.268,0.209 0.206,0.147 0.165,0.062 0.099,-0.074 0.099,-0.25 q 0,-0.169 0.063,-0.305 0.052,-0.111 0.132,-0.178 0.021,-0.017 0.027,-0.017 0.01,0 0.01,0.01 0,0.005 -0.013,0.017 -0.161,0.164 -0.161,0.473 0,0.308 0.157,0.468 0.017,0.017 0.017,0.022 z"
             fill-opacity="1"
             id="path69" />
        </g>
        <g
           transform="translate(20.276347,28.802632)"
           id="g71">
          <path
             fill="#993300"
             stroke="none"
             paint-order="stroke fill markers"
             d="m 0.346,-0.246 0.168,0.199 H 0.585 V 0 Q 0.486,-0.003 0.475,-0.003 0.433,-0.003 0.355,0 v -0.047 h 0.039 l -0.11,-0.13 -0.097,0.109 q -0.007,0.008 -0.007,0.01 0,0.011 0.037,0.011 V 0 Q 0.157,-0.003 0.114,-0.003 0.074,-0.003 0.022,0 v -0.047 q 0.031,0 0.0455,-5e-4 0.0145,-5e-4 0.031,-0.005 Q 0.115,-0.057 0.123,-0.066 L 0.254,-0.213 0.098,-0.397 H 0.027 v -0.047 q 0.099,0.003 0.11,0.003 0.043,0 0.121,-0.003 v 0.047 H 0.218 L 0.316,-0.282 0.4,-0.376 0.408,-0.388 Q 0.393,-0.397 0.37,-0.397 v -0.047 q 0.084,0.003 0.103,0.003 0.039,0 0.092,-0.003 v 0.047 q -0.04,0 -0.061,0.0025 -0.021,0.0025 -0.027,0.006 -0.006,0.0035 -0.014,0.0125 z"
             fill-opacity="1"
             id="path70" />
        </g>
        <g
           transform="matrix(0.7,0,0,0.7,20.883347,28.952632)"
           id="g72">
          <path
             fill="#993300"
             stroke="none"
             paint-order="stroke fill markers"
             d="m 0.294,-0.64 v 0.561 q 0,0.03 0.012,0.038 0.017,0.01 0.081,0.01 H 0.419 V 0 Q 0.384,-0.003 0.257,-0.003 0.13,-0.003 0.095,0 v -0.031 h 0.032 q 0.077,0 0.088,-0.018 L 0.216,-0.05 Q 0.22,-0.058 0.22,-0.079 v -0.518 q -0.052,0.026 -0.131,0.026 v -0.031 q 0.12,0 0.182,-0.064 0.019,0 0.022,0.007 v 0 0.001 q 0.001,0.003 0.001,0.018 z"
             fill-opacity="1"
             id="path71" />
        </g>
        <g
           transform="translate(21.233347,28.802632)"
           id="g73">
          <path
             fill="#993300"
             stroke="none"
             paint-order="stroke fill markers"
             d="m 0.289,-0.25 v 0 q 0,0.169 -0.063,0.305 Q 0.174,0.166 0.094,0.233 0.073,0.25 0.067,0.25 q -0.01,0 -0.01,-0.01 0,-0.005 0.013,-0.017 0.161,-0.164 0.161,-0.473 0,-0.305 -0.15,-0.462 L 0.076,-0.717 Q 0.057,-0.735 0.057,-0.74 q 0,-0.01 0.01,-0.01 0.012,0 0.053,0.041 0.062,0.062 0.103,0.147 0.066,0.136 0.066,0.312 z"
             fill-opacity="1"
             id="path72" />
        </g>
      </g>
      <g
         transform="scale(25)"
         id="g77">
        <g
           transform="translate(28.36,15.124)"
           id="g75">
          <path
             fill="#cc0000"
             stroke="none"
             paint-order="stroke fill markers"
             d="m 0.346,-0.246 0.168,0.199 H 0.585 V 0 Q 0.486,-0.003 0.475,-0.003 0.433,-0.003 0.355,0 v -0.047 h 0.039 l -0.11,-0.13 -0.097,0.109 q -0.007,0.008 -0.007,0.01 0,0.011 0.037,0.011 V 0 Q 0.157,-0.003 0.114,-0.003 0.074,-0.003 0.022,0 v -0.047 q 0.031,0 0.0455,-5e-4 0.0145,-5e-4 0.031,-0.005 Q 0.115,-0.057 0.123,-0.066 L 0.254,-0.213 0.098,-0.397 H 0.027 v -0.047 q 0.099,0.003 0.11,0.003 0.043,0 0.121,-0.003 v 0.047 H 0.218 L 0.316,-0.282 0.4,-0.376 0.408,-0.388 Q 0.393,-0.397 0.37,-0.397 v -0.047 q 0.084,0.003 0.103,0.003 0.039,0 0.092,-0.003 v 0.047 q -0.04,0 -0.061,0.0025 -0.021,0.0025 -0.027,0.006 -0.006,0.0035 -0.014,0.0125 z"
             fill-opacity="1"
             id="path74" />
        </g>
        <g
           transform="matrix(0.7,0,0,0.7,28.967,15.274)"
           id="g76">
          <path
             fill="#cc0000"
             stroke="none"
             paint-order="stroke fill markers"
             d="m 0.028,-0.165 v -0.031 l 0.307,-0.469 q 0.008,-0.012 0.02,-0.012 0.014,0 0.016,0.011 v 0.015 0.455 h 0.1 v 0.031 h -0.1 v 0.087 q 0,0.031 0.012,0.038 0.014,0.009 0.064,0.009 H 0.468 V 0 Q 0.427,-0.003 0.332,-0.003 0.238,-0.003 0.197,0 v -0.031 h 0.021 q 0.062,0 0.072,-0.017 0.004,-0.007 0.004,-0.03 V -0.165 H 0.028 M 0.3,-0.196 v -0.373 l -0.244,0.373 z"
             fill-opacity="1"
             id="path75" />
        </g>
      </g>
      <g
         transform="scale(25)"
         id="g85">
        <g
           transform="translate(29.56,12.39)"
           id="g78">
          <path
             fill="#ff6600"
             stroke="none"
             paint-order="stroke fill markers"
             d="M 0.661,-0.23 H 0.116 q -0.032,0 -0.033,-0.02 0,-0.02 0.033,-0.02 h 0.545 q 0.032,0 0.033,0.02 0,0.02 -0.033,0.02 z"
             fill-opacity="1"
             id="path77" />
        </g>
        <g
           transform="translate(30.338,12.39)"
           id="g79">
          <path
             fill="#ff6600"
             stroke="none"
             paint-order="stroke fill markers"
             d="M 0.78,-0.663 0.442,0.015 Q 0.434,0.03 0.426,0.032 0.422,0.033 0.416,0.033 0.4,0.033 0.394,0.022 0.393,0.02 0.39,0.015 L 0.052,-0.663 Q 0.047,-0.672 0.047,-0.675 0.053,-0.683 0.069,-0.683 h 0.694 q 0.021,0 0.022,0.008 0,0.003 -0.005,0.012 m -0.61,0.051 0.275,0.551 H 0.446 L 0.72,-0.612 Z"
             fill-opacity="1"
             id="path78" />
        </g>
        <g
           transform="translate(31.171,12.39)"
           id="g80">
          <path
             fill="#ff6600"
             stroke="none"
             paint-order="stroke fill markers"
             d="m 0.367,-0.4 v 0 l -0.06,0.317 Q 0.298,-0.021 0.271,0.059 0.261,0.088 0.251,0.108 0.216,0.182 0.164,0.2 0.151,0.205 0.138,0.205 0.088,0.205 0.064,0.171 0.053,0.156 0.053,0.136 q 0,-0.04 0.034,-0.055 0.01,-0.005 0.021,-0.005 0.029,0 0.036,0.025 0.001,0.005 0.001,0.01 0,0.034 -0.03,0.048 -0.011,0.005 -0.025,0.006 0.019,0.018 0.048,0.018 0.044,0 0.069,-0.098 0.005,-0.023 0.012,-0.06 L 0.225,-0.005 0.3,-0.4 H 0.234 q -0.025,0 -0.027,-0.008 H 0.206 v -0.004 q 0,-0.017 0.017,-0.019 v 0 h 0.013 0.069 q 0.024,-0.125 0.033,-0.157 0.03,-0.1 0.106,-0.115 0.011,-0.002 0.021,-0.002 0.052,0 0.076,0.034 v 0 q 0.011,0.015 0.011,0.035 0,0.04 -0.034,0.055 -0.01,0.005 -0.021,0.005 -0.029,0 -0.036,-0.025 -0.001,-0.005 -0.001,-0.01 0,-0.031 0.028,-0.046 0.011,-0.007 0.026,-0.008 -0.019,-0.018 -0.049,-0.018 -0.031,0 -0.047,0.034 -0.007,0.014 -0.024,0.104 l -0.021,0.114 h 0.083 q 0.025,0 0.027,0.011 0,0.018 -0.016,0.02 H 0.466 0.453 Z"
             fill-opacity="1"
             id="path79" />
        </g>
        <g
           transform="translate(31.769,12.39)"
           id="g81">
          <path
             fill="#ff6600"
             stroke="none"
             paint-order="stroke fill markers"
             d="m 0.331,0.24 v 0 q 0,0.01 -0.01,0.01 Q 0.309,0.25 0.268,0.209 0.206,0.147 0.165,0.062 0.099,-0.074 0.099,-0.25 q 0,-0.169 0.063,-0.305 0.052,-0.111 0.132,-0.178 0.021,-0.017 0.027,-0.017 0.01,0 0.01,0.01 0,0.005 -0.013,0.017 -0.161,0.164 -0.161,0.473 0,0.308 0.157,0.468 0.017,0.017 0.017,0.022 z"
             fill-opacity="1"
             id="path80" />
        </g>
        <g
           transform="translate(32.158,12.39)"
           id="g82">
          <path
             fill="#ff6600"
             stroke="none"
             paint-order="stroke fill markers"
             d="m 0.346,-0.246 0.168,0.199 H 0.585 V 0 Q 0.486,-0.003 0.475,-0.003 0.433,-0.003 0.355,0 v -0.047 h 0.039 l -0.11,-0.13 -0.097,0.109 q -0.007,0.008 -0.007,0.01 0,0.011 0.037,0.011 V 0 Q 0.157,-0.003 0.114,-0.003 0.074,-0.003 0.022,0 v -0.047 q 0.031,0 0.0455,-5e-4 0.0145,-5e-4 0.031,-0.005 Q 0.115,-0.057 0.123,-0.066 L 0.254,-0.213 0.098,-0.397 H 0.027 v -0.047 q 0.099,0.003 0.11,0.003 0.043,0 0.121,-0.003 v 0.047 H 0.218 L 0.316,-0.282 0.4,-0.376 0.408,-0.388 Q 0.393,-0.397 0.37,-0.397 v -0.047 q 0.084,0.003 0.103,0.003 0.039,0 0.092,-0.003 v 0.047 q -0.04,0 -0.061,0.0025 -0.021,0.0025 -0.027,0.006 -0.006,0.0035 -0.014,0.0125 z"
             fill-opacity="1"
             id="path81" />
        </g>
        <g
           transform="matrix(0.7,0,0,0.7,32.765,12.54)"
           id="g83">
          <path
             fill="#ff6600"
             stroke="none"
             paint-order="stroke fill markers"
             d="m 0.028,-0.165 v -0.031 l 0.307,-0.469 q 0.008,-0.012 0.02,-0.012 0.014,0 0.016,0.011 v 0.015 0.455 h 0.1 v 0.031 h -0.1 v 0.087 q 0,0.031 0.012,0.038 0.014,0.009 0.064,0.009 H 0.468 V 0 Q 0.427,-0.003 0.332,-0.003 0.238,-0.003 0.197,0 v -0.031 h 0.021 q 0.062,0 0.072,-0.017 0.004,-0.007 0.004,-0.03 V -0.165 H 0.028 M 0.3,-0.196 v -0.373 l -0.244,0.373 z"
             fill-opacity="1"
             id="path82" />
        </g>
        <g
           transform="translate(33.115,12.39)"
           id="g84">
          <path
             fill="#ff6600"
             stroke="none"
             paint-order="stroke fill markers"
             d="m 0.289,-0.25 v 0 q 0,0.169 -0.063,0.305 Q 0.174,0.166 0.094,0.233 0.073,0.25 0.067,0.25 q -0.01,0 -0.01,-0.01 0,-0.005 0.013,-0.017 0.161,-0.164 0.161,-0.473 0,-0.305 -0.15,-0.462 L 0.076,-0.717 Q 0.057,-0.735 0.057,-0.74 q 0,-0.01 0.01,-0.01 0.012,0 0.053,0.041 0.062,0.062 0.103,0.147 0.066,0.136 0.066,0.312 z"
             fill-opacity="1"
             id="path83" />
        </g>
      </g>
      <g
         transform="scale(19)"
         id="g92">
        <g
           transform="translate(35.526316,13.328947)"
           id="g86">
          <path
             fill="#993300"
             stroke="none"
             paint-order="stroke fill markers"
             d="m 0.756,-0.578 -0.14,0.557 q -0.005,0.019 -0.01,0.02 L 0.605,0 H 0.6 Q 0.59,0 0.584,-0.012 0.583,-0.015 0.581,-0.019 L 0.332,-0.608 0.323,-0.626 0.191,-0.098 q -0.004,0.015 -0.004,0.023 0,0.034 0.043,0.042 0.01,0.002 0.023,0.002 0.02,0 0.02,0.011 Q 0.273,0 0.255,0 l -0.1,-0.003 H 0.152 L 0.053,0 H 0.052 q -0.013,0 -0.013,-0.011 0,-0.02 0.017,-0.02 0.079,-0.003 0.1,-0.05 0.004,-0.01 0.008,-0.025 l 0.134,-0.537 q 0,-0.009 -0.068,-0.009 -0.026,0 -0.028,-0.011 0,-0.018 0.015,-0.02 h 0.014 0.134 q 0.021,0 0.026,0.007 0.002,0.003 0.006,0.012 l 0.221,0.522 0.112,-0.445 q 0.003,-0.009 0.003,-0.021 0,-0.043 -0.068,-0.044 -0.018,0 -0.018,-0.011 0,-0.02 0.018,-0.02 l 0.101,0.003 h 0.001 l 0.1,-0.003 h 0.001 q 0.013,0 0.013,0.011 0,0.02 -0.017,0.02 -0.078,0.003 -0.1,0.049 v 0 q -0.004,0.01 -0.008,0.025 z"
             fill-opacity="1"
             id="path85" />
        </g>
        <g
           transform="matrix(0.7,0,0,0.7,36.329316,13.478947)"
           id="g87">
          <path
             fill="#993300"
             stroke="none"
             paint-order="stroke fill markers"
             d="m 0.677,-0.162 v 0 L 0.644,0 H 0.485 Q 0.463,0 0.46,-0.007 0.459,-0.011 0.459,-0.021 q 0,-0.069 0.047,-0.201 0.049,-0.138 0.055,-0.203 0.001,-0.015 0.001,-0.03 0,-0.132 -0.092,-0.194 -0.05,-0.034 -0.11,-0.034 -0.085,0 -0.144,0.063 v 0.001 q -0.057,0.062 -0.057,0.164 0,0.077 0.049,0.212 0.054,0.15 0.054,0.222 0,0.017 -0.007,0.02 v 0 H 0.254 Q 0.25,0 0.237,0 H 0.077 L 0.044,-0.162 h 0.025 q 0.01,0.052 0.018,0.074 0.005,0.015 0.018,0.019 0.013,0.004 0.048,0.004 h 0.08 Q 0.22,-0.12 0.159,-0.212 L 0.153,-0.222 Q 0.15,-0.226 0.144,-0.235 0.072,-0.343 0.06,-0.412 0.056,-0.433 0.056,-0.454 q 0,-0.104 0.089,-0.177 0.088,-0.074 0.216,-0.074 0.135,0 0.225,0.082 0.079,0.071 0.079,0.169 0,0.081 -0.07,0.192 v 0 L 0.594,-0.261 0.593,-0.26 0.577,-0.235 q -0.068,0.1 -0.084,0.152 -0.003,0.009 -0.005,0.018 h 0.08 q 0.055,0 0.063,-0.015 l 0.003,-0.009 q 0.008,-0.022 0.018,-0.073 z"
             fill-opacity="1"
             id="path86" />
        </g>
        <g
           transform="translate(36.834716,13.328947)"
           id="g88">
          <path
             fill="#993300"
             stroke="none"
             paint-order="stroke fill markers"
             d="m 0.331,0.24 v 0 q 0,0.01 -0.01,0.01 Q 0.309,0.25 0.268,0.209 0.206,0.147 0.165,0.062 0.099,-0.074 0.099,-0.25 q 0,-0.169 0.063,-0.305 0.052,-0.111 0.132,-0.178 0.021,-0.017 0.027,-0.017 0.01,0 0.01,0.01 0,0.005 -0.013,0.017 -0.161,0.164 -0.161,0.473 0,0.308 0.157,0.468 0.017,0.017 0.017,0.022 z"
             fill-opacity="1"
             id="path87" />
        </g>
        <g
           transform="translate(37.223716,13.328947)"
           id="g89">
          <path
             fill="#993300"
             stroke="none"
             paint-order="stroke fill markers"
             d="m 0.346,-0.246 0.168,0.199 H 0.585 V 0 Q 0.486,-0.003 0.475,-0.003 0.433,-0.003 0.355,0 v -0.047 h 0.039 l -0.11,-0.13 -0.097,0.109 q -0.007,0.008 -0.007,0.01 0,0.011 0.037,0.011 V 0 Q 0.157,-0.003 0.114,-0.003 0.074,-0.003 0.022,0 v -0.047 q 0.031,0 0.0455,-5e-4 0.0145,-5e-4 0.031,-0.005 Q 0.115,-0.057 0.123,-0.066 L 0.254,-0.213 0.098,-0.397 H 0.027 v -0.047 q 0.099,0.003 0.11,0.003 0.043,0 0.121,-0.003 v 0.047 H 0.218 L 0.316,-0.282 0.4,-0.376 0.408,-0.388 Q 0.393,-0.397 0.37,-0.397 v -0.047 q 0.084,0.003 0.103,0.003 0.039,0 0.092,-0.003 v 0.047 q -0.04,0 -0.061,0.0025 -0.021,0.0025 -0.027,0.006 -0.006,0.0035 -0.014,0.0125 z"
             fill-opacity="1"
             id="path88" />
        </g>
        <g
           transform="matrix(0.7,0,0,0.7,37.830716,13.478947)"
           id="g90">
          <path
             fill="#993300"
             stroke="none"
             paint-order="stroke fill markers"
             d="m 0.028,-0.165 v -0.031 l 0.307,-0.469 q 0.008,-0.012 0.02,-0.012 0.014,0 0.016,0.011 v 0.015 0.455 h 0.1 v 0.031 h -0.1 v 0.087 q 0,0.031 0.012,0.038 0.014,0.009 0.064,0.009 H 0.468 V 0 Q 0.427,-0.003 0.332,-0.003 0.238,-0.003 0.197,0 v -0.031 h 0.021 q 0.062,0 0.072,-0.017 0.004,-0.007 0.004,-0.03 V -0.165 H 0.028 M 0.3,-0.196 v -0.373 l -0.244,0.373 z"
             fill-opacity="1"
             id="path89" />
        </g>
        <g
           transform="translate(38.180716,13.328947)"
           id="g91">
          <path
             fill="#993300"
             stroke="none"
             paint-order="stroke fill markers"
             d="m 0.289,-0.25 v 0 q 0,0.169 -0.063,0.305 Q 0.174,0.166 0.094,0.233 0.073,0.25 0.067,0.25 q -0.01,0 -0.01,-0.01 0,-0.005 0.013,-0.017 0.161,-0.164 0.161,-0.473 0,-0.305 -0.15,-0.462 L 0.076,-0.717 Q 0.057,-0.735 0.057,-0.74 q 0,-0.01 0.01,-0.01 0.012,0 0.053,0.041 0.062,0.062 0.103,0.147 0.066,0.136 0.066,0.312 z"
             fill-opacity="1"
             id="path90" />
        </g>
      </g>
    </g>
  </g>
</svg>
