<?xml version="1.0" encoding="UTF-8" standalone="no"?>
<!-- Created with Inkscape (http://www.inkscape.org/) -->

<svg
   version="1.1"
   id="svg1"
   width="204.74667"
   height="203.94667"
   viewBox="0 0 204.74667 203.94667"
   sodipodi:docname="ej_cono_normal_hiperplano.svg"
   inkscape:version="1.4.4 (dcaf3e7, 2026-05-05)"
   xmlns:inkscape="http://www.inkscape.org/namespaces/inkscape"
   xmlns:sodipodi="http://sodipodi.sourceforge.net/DTD/sodipodi-0.dtd"
   xmlns="http://www.w3.org/2000/svg"
   xmlns:svg="http://www.w3.org/2000/svg">
  <defs
     id="defs1">
    <clipPath
       clipPathUnits="userSpaceOnUse"
       id="clipPath14">
      <path
         d="M -117.92155,128.125 H 76.344069 V -33.266801 H -117.92155 Z"
         id="path14" />
    </clipPath>
    <clipPath
       clipPathUnits="userSpaceOnUse"
       id="clipPath17">
      <path
         d="M -96.022542,53.824999 H 98.243072 V -107.56681 H -96.022542 Z"
         id="path17" />
    </clipPath>
  </defs>
  <sodipodi:namedview
     id="namedview1"
     pagecolor="#ffffff"
     bordercolor="#000000"
     borderopacity="0.25"
     inkscape:showpageshadow="2"
     inkscape:pageopacity="0.0"
     inkscape:pagecheckerboard="0"
     inkscape:deskcolor="#d1d1d1"
     inkscape:zoom="3.9569168"
     inkscape:cx="102.47878"
     inkscape:cy="101.97334"
     inkscape:window-width="1920"
     inkscape:window-height="1009"
     inkscape:window-x="1912"
     inkscape:window-y="-8"
     inkscape:window-maximized="1"
     inkscape:current-layer="g1">
    <inkscape:page
       x="0"
       y="0"
       inkscape:label="1"
       id="page1"
       width="204.74667"
       height="203.94667"
       margin="0"
       bleed="0" />
  </sodipodi:namedview>
  <g
     id="g1"
     inkscape:groupmode="layer"
     inkscape:label="1">
    <path
       id="path1"
       d="M 0,142.40453 142.40453,0"
       style="fill:none;stroke:#266bbd;stroke-width:1.19553;stroke-linecap:butt;stroke-linejoin:miter;stroke-miterlimit:10;stroke-dasharray:none;stroke-opacity:1"
       transform="matrix(1.3333333,0,0,-1.3333333,7.44,197.30533)" />
    <path
       id="path2"
       d="M 11.27238,1.77875 140.62526,131.13162"
       style="fill:none;stroke:#f68512;stroke-width:0.74721;stroke-linecap:butt;stroke-linejoin:miter;stroke-miterlimit:10;stroke-dasharray:none;stroke-opacity:1"
       transform="matrix(1.3333333,0,0,-1.3333333,7.44,197.30533)" />
    <path
       id="path3"
       d="M 2.51553,0 -1.50932,2.01244 0,0 -1.50932,-2.01244"
       style="fill:#f68512;fill-opacity:1;fill-rule:nonzero;stroke:none"
       transform="matrix(-0.9428,0.9428,0.9428,0.9428,22.46984,194.93367)" />
    <path
       id="path4"
       d="M 2.51553,0 -1.50932,2.01244 0,0 -1.50932,-2.01244"
       style="fill:#f68512;fill-opacity:1;fill-rule:nonzero;stroke:none"
       transform="matrix(0.9428,-0.9428,-0.9428,-0.9428,194.94035,22.463173)" />
    <path
       id="path5"
       d="m 75.94908,66.45544 21.6911,21.69111"
       style="fill:none;stroke:#b5251c;stroke-width:0.99628;stroke-linecap:butt;stroke-linejoin:miter;stroke-miterlimit:10;stroke-dasharray:none;stroke-opacity:1"
       transform="matrix(1.3333333,0,0,-1.3333333,7.44,197.30533)" />
    <path
       id="path6"
       d="M 2.8892,0 -1.73352,2.31136 0,0 -1.73352,-2.31136"
       style="fill:#b5251c;fill-opacity:1;fill-rule:nonzero;stroke:none"
       transform="matrix(0.9428,-0.9428,-0.9428,-0.9428,137.62691,79.7766)" />
    <path
       id="path7"
       d="M 9.4931406,-2.2385859 H 9.1767344 c -0.070312,0.375 -0.140625,0.75 -0.2578125,1.0429687 -0.070312,0.23437501 -0.1054688,0.35156251 -0.9375,0.35156251 H 6.8447031 c 0.1757813,-0.80859371 0.5859375,-1.50000001 1.171875,-2.37890621 0.6796875,-1.0546875 1.3359375,-2.0976563 1.3359375,-3.2929688 0,-1.9804687 -1.8984375,-3.5859373 -4.2890625,-3.5859373 -2.4140625,0 -4.28906247,1.6289061 -4.28906247,3.5859373 0,1.1835938 0.64453127,2.2148438 1.32421877,3.2578125 0.5976562,0.9375 1.03125,1.6054688 1.1835937,2.41406251 h -1.125 c -0.8320312,0 -0.8789062,-0.1171875 -0.9492187,-0.32812501 -0.1171875,-0.3046875 -0.1875,-0.7265625 -0.25781252,-1.0664062 H 0.63376563 L 1.0907969,-3.046875e-4 h 2.2265625 c 0.3164062,0 0.3398437,0 0.3398437,-0.2578125025 0,-1.01953121 -0.4570312,-2.26171871 -0.75,-3.00000001 -0.4101562,-1.1367187 -0.796875,-2.1796875 -0.796875,-3.2695312 0,-2.203125 1.5351563,-3.28125 2.953125,-3.28125 1.4179688,0 2.953125,1.078125 2.953125,3.28125 0,1.0898437 -0.3984375,2.1679687 -0.796875,3.2226562 -0.2460937,0.6914063 -0.75,2.015625 -0.75,3.03515626 0,0.2695312525 0.046875,0.2695312525 0.3632813,0.2695312525 h 2.203125 z m 0,0"
       style="fill:#266bbd;fill-opacity:1;fill-rule:nonzero;stroke:none"
       aria-label="Ω"
       transform="matrix(1.3333333,0,0,1.3333333,13.334667,44.184)" />
    <g
       id="g7"
       aria-label="N&#10;Ω&#10;(x&#10;0&#10;)"
       transform="matrix(1.3333333,0,0,1.3333333,130.09467,26.472)"
       clip-path="url(#clipPath14)">
      <path
         id="path8"
         d="m 10.6165,-8.2846641 c 0.152344,-0.6210937 0.386719,-1.0546875 1.476562,-1.0898437 0.04687,0 0.210938,-0.023437 0.210938,-0.2695313 0,-0.1523437 -0.128906,-0.1523437 -0.1875,-0.1523437 -0.28125,0 -1.019531,0.023437 -1.300781,0.023437 h -0.691407 c -0.1992183,0 -0.4570308,-0.023437 -0.6562495,-0.023437 -0.09375,0 -0.2578125,0 -0.2578125,0.2695312 0,0.1523438 0.1171875,0.1523438 0.2109375,0.1523438 0.8671875,0.023437 0.9257815,0.3515625 0.9257815,0.609375 0,0.1289062 -0.02344,0.1757812 -0.05859,0.375 l -1.6289063,6.46875 -3.0703125,-7.6289063 c -0.09375,-0.234375 -0.1054687,-0.2460937 -0.421875,-0.2460937 H 3.4094687 c -0.28125,0 -0.4101562,0 -0.4101562,0.2695312 0,0.1523438 0.09375,0.1523438 0.375,0.1523438 0.070312,0 0.9140625,0 0.9140625,0.1289062 0,0.023437 -0.023437,0.140625 -0.046875,0.1757813 l -1.8984375,7.6054687 c -0.1757813,0.70312504 -0.5273438,1.00781254 -1.46484375,1.05468754 -0.0703125,0 -0.22265625,0.0117188 -0.22265625,0.26953125 0,0.1406249975 0.15234375,0.1406249975 0.1875,0.1406249975 0.2929687,0 1.0195312,-0.0234374975 1.3125,-0.0234374975 H 2.83525 c 0.1992187,0 0.4453125,0.0234374975 0.6445312,0.0234374975 0.1054688,0 0.2578125,0 0.2578125,-0.2695312475 0,-0.12890625 -0.140625,-0.140625 -0.1992187,-0.140625 -0.46875,-0.0234375 -0.9257813,-0.10546875 -0.9257813,-0.62109374 0,-0.1171875 0.023437,-0.2460938 0.058594,-0.3632813 l 1.9335937,-7.6757812 c 0.082031,0.1523437 0.082031,0.1757812 0.140625,0.3046875 l 3.4101563,8.50781249 c 0.082031,0.17578125 0.1054687,0.2578124975 0.234375,0.2578124975 0.140625,0 0.1640625,-0.0468749975 0.2109375,-0.2812499975 z m 0,0"
         style="fill:#f68512;fill-opacity:1;fill-rule:nonzero;stroke:none" />
      <path
         id="path9"
         d="M 17.987594,0.53369531 H 17.7415 c -0.04687,0.2578125 -0.08203,0.49218749 -0.175781,0.72656249 -0.04687,0.1640625 -0.08203,0.2460938 -0.65625,0.2460938 H 16.112594 C 16.2415,0.94385156 16.546187,0.46338281 16.9915,-0.19286719 c 0.46875,-0.703125 0.878906,-1.39453121 0.878906,-2.17968751 0,-1.3828125 -1.335937,-2.4960937 -3.023437,-2.4960937 -1.710938,0 -3.035157,1.1367187 -3.035157,2.4960937 0,0.7851563 0.398438,1.47656251 0.867188,2.17968751 0.445312,0.65625 0.761719,1.13671875 0.890625,1.69921879 H 12.77275 c -0.574219,0 -0.609375,-0.082031 -0.65625,-0.234375 C 12.03447,1.0493203 11.987594,0.79150781 11.940719,0.53369531 h -0.257813 l 0.328125,1.61718749 h 1.59375 c 0.222656,0 0.257813,0 0.257813,-0.2109375 0,-0.6914062 -0.316407,-1.57031249 -0.539063,-2.21484374 -0.210937,-0.57421875 -0.492187,-1.35937496 -0.492187,-2.10937496 0,-1.59375 1.101562,-2.2734375 2.003906,-2.2734375 0.960937,0 2.015625,0.7265625 2.015625,2.2734375 0,0.75 -0.269531,1.51171871 -0.5625,2.32031246 -0.152344,0.421875 -0.46875,1.31250004 -0.46875,2.00390624 0,0.2109375 0.03516,0.2109375 0.257812,0.2109375 h 1.582032 z m 0,0"
         style="fill:#f68512;fill-opacity:1;fill-rule:nonzero;stroke:none" />
      <path
         id="path10"
         d="m 23.606734,3.4809609 c 0,-0.035156 0,-0.070312 -0.246093,-0.3046875 -1.429688,-1.453125 -2.238282,-3.82031246 -2.238282,-6.75 0,-2.7773437 0.679688,-5.1796875 2.34375,-6.8671874 0.140625,-0.128906 0.140625,-0.164063 0.140625,-0.199219 0,-0.09375 -0.07031,-0.117187 -0.128906,-0.117187 -0.1875,0 -1.359375,1.0312497 -2.0625,2.4374997 -0.738281,1.453125 -1.066406,2.9882812 -1.066406,4.7460937 0,1.2773438 0.199219,2.98828129 0.949219,4.52343754 0.84375,1.72265626 2.015625,2.64843746 2.179687,2.64843746 0.05859,0 0.128906,-0.023437 0.128906,-0.1171875 z m 0,0"
         style="fill:#f68512;fill-opacity:1;fill-rule:nonzero;stroke:none" />
      <path
         id="path11"
         d="m 29.231734,-3.5385703 1.664063,-1.9101563 c 0.164062,-0.1875 0.292969,-0.3046875 1.488281,-0.3046875 v -0.609375 c -0.808594,0.023437 -0.832031,0.023437 -1.324219,0.023437 -0.421875,0 -1.03125,0 -1.429687,-0.023437 v 0.609375 c 0.269531,0 0.5625,0.070312 0.5625,0.1757813 0,0.023437 -0.07031,0.1289062 -0.09375,0.1523437 l -1.253906,1.40625 -1.417969,-1.734375 h 0.609375 v -0.609375 c -0.328125,0.023437 -1.3125,0.023437 -1.699219,0.023437 -0.421875,0 -1.207031,0 -1.605469,-0.023437 v 0.609375 h 1.019532 l 2.238281,2.7304688 -1.863281,2.10937499 c -0.175782,0.19921875 -0.269532,0.29296875 -1.464844,0.29296875 V 4.921875e-4 C 25.516891,-0.02294531 25.552047,-0.02294531 25.997359,-0.02294531 c 0.410157,0 1.019532,0 1.417969,0.0234374975 V -0.62060156 c -0.269531,0 -0.574219,-0.0703125 -0.574219,-0.1640625 0,-0.0234375 0,-0.0351563 0.105469,-0.15234375 l 1.429688,-1.61718749 1.59375,1.93359374 H 29.372359 V 4.921875e-4 C 29.712203,-0.02294531 30.673141,-0.02294531 31.071578,-0.02294531 c 0.433594,0 1.195313,0 1.59375,0.0234374975 V -0.62060156 h -1.007812 z m 0,0"
         style="fill:#f68512;fill-opacity:1;fill-rule:nonzero;stroke:none" />
      <path
         id="path12"
         d="m 37.505172,-1.0366172 c 0,-0.796875 -0.04687,-1.59375 -0.398438,-2.3320312 -0.457031,-0.9609375 -1.277343,-1.1132813 -1.6875,-1.1132813 -0.597656,0 -1.335937,0.2578125 -1.734375,1.1835938 -0.328125,0.6914062 -0.375,1.4648437 -0.375,2.2617187 0,0.75000001 0.04687,1.64062501 0.445313,2.4023438 0.433594,0.8085937 1.160156,1.0078125 1.652344,1.0078125 0.539062,0 1.289062,-0.2109375 1.734375,-1.1601563 0.316406,-0.69140624 0.363281,-1.46484374 0.363281,-2.25 z m -2.097656,3.1875 c -0.386719,0 -0.984375,-0.2460937 -1.160157,-1.20703124 -0.105468,-0.59765625 -0.105468,-1.51171875 -0.105468,-2.09765626 0,-0.6445312 0,-1.3007812 0.08203,-1.8398437 0.1875,-1.1835938 0.925781,-1.265625 1.183594,-1.265625 0.328125,0 0.984375,0.1757812 1.171875,1.1601562 0.09375,0.5625 0.09375,1.3125 0.09375,1.9453125 0,0.75000001 0,1.41796876 -0.105469,2.06250001 C 36.415328,1.8461953 35.852828,2.1508828 35.407516,2.1508828 Z m 0,0"
         style="fill:#f68512;fill-opacity:1;fill-rule:nonzero;stroke:none" />
      <path
         id="path13"
         d="m 42.444625,-3.5737266 c 0,-1.0898437 -0.140625,-2.8710937 -0.949219,-4.5351562 -0.84375,-1.7109375 -2.015625,-2.6484372 -2.179687,-2.6484372 -0.05859,0 -0.128907,0.02344 -0.128907,0.117187 0,0.03516 0,0.07031 0.246094,0.316406 1.441406,1.4414067 2.238281,3.8085942 2.238281,6.7382817 0,2.77734374 -0.667968,5.1796875 -2.332031,6.8671875 -0.152344,0.1289062 -0.152344,0.1640625 -0.152344,0.1992187 0,0.09375 0.07031,0.1171875 0.128907,0.1171875 0.1875,0 1.371093,-1.03125 2.074218,-2.4375 0.726563,-1.46484371 1.054688,-3.0117187 1.054688,-4.734375 z m 0,0"
         style="fill:#f68512;fill-opacity:1;fill-rule:nonzero;stroke:none" />
    </g>
    <g
       id="g14"
       aria-label="x&#10;0"
       transform="matrix(1.3333333,0,0,1.3333333,100.896,125.53867)"
       clip-path="url(#clipPath17)">
      <path
         id="path15"
         d="m 4.0301484,-2.9528281 1.3828125,-1.59375 c 0.1289063,-0.1523438 0.234375,-0.2460938 1.2304688,-0.2460938 v -0.515625 c -0.6679688,0.023437 -0.6914063,0.023437 -1.1015625,0.023437 -0.3398438,0 -0.8554688,0 -1.1953125,-0.023437 v 0.515625 c 0.234375,0 0.4804687,0.058594 0.4804687,0.140625 0,0.023437 -0.058594,0.1054688 -0.082031,0.1289063 l -1.0429688,1.171875 -1.1835937,-1.4414063 h 0.5039062 v -0.515625 c -0.2695312,0.023437 -1.0898437,0.023437 -1.40625,0.023437 -0.3632812,0 -1.00781246,0 -1.34765621,-0.023437 v 0.515625 H 1.1238984 l 1.8632813,2.2734375 -1.5585938,1.75781253 c -0.140625,0.1640625 -0.2226562,0.24609375 -1.21874996,0.24609375 V 2.96875e-4 c 0.7265625,-0.023437495 0.75,-0.023437495 1.11328126,-0.023437495 0.3515625,0 0.8554687,0 1.1835937,0.023437495 V -0.51532812 c -0.2226562,0 -0.4804687,-0.0585938 -0.4804687,-0.140625 0,-0.0117188 0,-0.0234375 0.09375,-0.1171875 L 3.3153047,-2.1325156 4.6395234,-0.51532812 H 4.1356172 V 2.96875e-4 c 0.28125,-0.023437495 1.0898437,-0.023437495 1.4179687,-0.023437495 0.3632813,0 0.9960938,0 1.3359375,0.023437495 V -0.51532812 h -0.84375 z m 0,0"
         style="fill:#000000;fill-opacity:1;fill-rule:nonzero;stroke:none" />
      <path
         id="path16"
         d="m 10.999875,-0.74970312 c 0,-0.85546878 -0.09375,-1.37109378 -0.351562,-1.87499998 -0.351563,-0.703125 -0.9960942,-0.8789063 -1.4414067,-0.8789063 -0.9960938,0 -1.3710938,0.75 -1.4765625,0.9726563 -0.2929688,0.5742187 -0.3046875,1.3710937 -0.3046875,1.78124998 0,0.52734375 0.023437,1.3359375 0.4101562,1.96875002 0.3632813,0.5859375 0.9492188,0.7382812 1.3710938,0.7382812 0.3867187,0 1.0664067,-0.1171875 1.4648437,-0.9023437 0.292969,-0.57421877 0.328125,-1.28906252 0.328125,-1.80468752 z M 9.2069063,1.7346719 c -0.2695313,0 -0.8203125,-0.1289063 -0.984375,-0.96093752 -0.09375,-0.45703125 -0.09375,-1.20703125 -0.09375,-1.6171875 0,-0.55078128 0,-1.11328128 0.09375,-1.54687498 0.1640625,-0.8085938 0.7851562,-0.890625 0.984375,-0.890625 0.2695312,0 0.8203127,0.1289062 0.9843747,0.8554687 0.09375,0.4453125 0.09375,1.0429688 0.09375,1.58203128 0,0.46875 0,1.18359375 -0.09375,1.62890625 C 10.027219,1.6292031 9.4764375,1.7346719 9.2069063,1.7346719 Z m 0,0"
         style="fill:#000000;fill-opacity:1;fill-rule:nonzero;stroke:none" />
    </g>
    <path
       id="path18"
       d="m 5.4962266,-3.5731953 c 0,-1.1015625 -0.8671875,-1.8398438 -2.5546875,-1.8398438 -0.6679688,0 -2.08593754,0.058594 -2.08593754,1.0664063 0,0.5039062 0.38671874,0.7148437 0.71484374,0.7148437 0.3515625,0 0.703125,-0.2578125 0.703125,-0.703125 0,-0.234375 -0.082031,-0.4453125 -0.2929687,-0.5742187 0.3984375,-0.1054688 0.6796875,-0.1054688 0.9140625,-0.1054688 0.8085937,0 1.3007812,0.4453125 1.3007812,1.4296875 v 0.4804688 c -1.8867187,0 -3.78515624,0.5273437 -3.78515624,1.8515625 0,1.08984374 1.38281254,1.32421874 2.20312504,1.32421874 0.9257812,0 1.5117187,-0.50390625 1.7460937,-1.03125 0,0.4453125 0,0.9609375 1.2070313,0.9609375 h 0.609375 c 0.2578125,0 0.3515625,0 0.3515625,-0.2578125 0,-0.2578125 -0.1054688,-0.2578125 -0.28125,-0.2578125 -0.75,-0.0117188 -0.75,-0.19921875 -0.75,-0.48046875 z m -1.3007813,1.9101562 c 0,1.12500004 -1.0078125,1.33593754 -1.3828125,1.33593754 -0.5859375,0 -1.078125,-0.38671875 -1.078125,-0.93750004 0,-1.0898437 1.2890625,-1.4648437 2.4609375,-1.5234375 z m 0,0"
       style="fill:#b5251c;fill-opacity:1;fill-rule:nonzero;stroke:none"
       aria-label="a"
       transform="matrix(1.3333333,0,0,1.3333333,138.71467,88.830667)" />
    <path
       id="path19"
       d="m 77.4435,66.45544 c 0,0.82535 -0.66907,1.49442 -1.49442,1.49442 -0.82535,0 -1.49441,-0.66907 -1.49441,-1.49442 0,-0.82534 0.66906,-1.49441 1.49441,-1.49441 0.82535,0 1.49442,0.66907 1.49442,1.49441 z"
       style="fill:#000000;fill-opacity:1;fill-rule:nonzero;stroke:#000000;stroke-width:0.3985;stroke-linecap:butt;stroke-linejoin:miter;stroke-miterlimit:10;stroke-dasharray:none;stroke-opacity:1"
       transform="matrix(1.3333333,0,0,-1.3333333,7.44,197.30533)" />
  </g>
</svg>
