<?xml version="1.0" encoding="UTF-8" standalone="no"?>
<!-- Created with Inkscape (http://www.inkscape.org/) -->

<svg
   version="1.1"
   id="svg1"
   width="652.17334"
   height="306.69333"
   viewBox="0 0 652.17334 306.69333"
   sodipodi:docname="envolvente_convexa_conica.svg"
   inkscape:version="1.4.2 (f4327f4, 2025-05-13)"
   xmlns:inkscape="http://www.inkscape.org/namespaces/inkscape"
   xmlns:sodipodi="http://sodipodi.sourceforge.net/DTD/sodipodi-0.dtd"
   xmlns="http://www.w3.org/2000/svg"
   xmlns:svg="http://www.w3.org/2000/svg">
  <defs
     id="defs1" />
  <sodipodi:namedview
     id="namedview1"
     pagecolor="#ffffff"
     bordercolor="#666666"
     borderopacity="1.0"
     inkscape:showpageshadow="2"
     inkscape:pageopacity="0.0"
     inkscape:pagecheckerboard="0"
     inkscape:deskcolor="#d1d1d1"
     showgrid="false"
     inkscape:zoom="1.3171345"
     inkscape:cx="326.08667"
     inkscape:cy="153.36323"
     inkscape:window-width="1440"
     inkscape:window-height="830"
     inkscape:window-x="-6"
     inkscape:window-y="-6"
     inkscape:window-maximized="1"
     inkscape:current-layer="g1">
    <inkscape:page
       x="0"
       y="0"
       inkscape:label="1"
       id="page1"
       width="652.17334"
       height="306.69333"
       margin="0"
       bleed="0" />
  </sodipodi:namedview>
  <g
     id="g1"
     inkscape:groupmode="layer"
     inkscape:label="1">
    <path
       id="path1"
       d="m -88.442,23.81113 c 0,0 47.62283,44.22104 47.62283,44.22104 0,0 88.44145,-6.80314 88.44145,-6.80314 0,0 27.21299,-51.02412 27.21299,-51.02412 0,0 -23.81116,-51.02408 -23.81116,-51.02408 0,0 -119.05628,6.80309 -119.05628,6.80309 0,0 -20.40983,57.82721 -20.40983,57.82721 z"
       style="fill:#dae0f4;fill-opacity:1;fill-rule:nonzero;stroke:#a0b4e2;stroke-width:1.99255;stroke-linecap:butt;stroke-linejoin:miter;stroke-miterlimit:10;stroke-dasharray:none;stroke-opacity:1"
       transform="matrix(1.3333333,0,0,-1.3333333,128.548,143.72933)" />
    <path
       id="path2"
       d="m -65.04335,-34.01608 c 0,1.65069 -1.33812,2.98881 -2.98882,2.98881 -1.65068,0 -2.98881,-1.33812 -2.98881,-2.98881 0,-1.65068 1.33813,-2.98882 2.98881,-2.98882 1.6507,0 2.98882,1.33814 2.98882,2.98882 z"
       style="fill:#000000;fill-opacity:1;fill-rule:nonzero;stroke:none"
       transform="matrix(1.3333333,0,0,-1.3333333,128.548,143.72933)" />
    <path
       id="path3"
       d="m -85.45319,23.81113 c 0,1.65069 -1.33811,2.98881 -2.98881,2.98881 -1.6507,0 -2.98882,-1.33812 -2.98882,-2.98881 0,-1.6507 1.33812,-2.98882 2.98882,-2.98882 1.6507,0 2.98881,1.33812 2.98881,2.98882 z"
       style="fill:#000000;fill-opacity:1;fill-rule:nonzero;stroke:none"
       transform="matrix(1.3333333,0,0,-1.3333333,128.548,143.72933)" />
    <path
       id="path4"
       d="m -37.83035,68.03217 c 0,1.65068 -1.33814,2.98881 -2.98882,2.98881 -1.65069,0 -2.98881,-1.33813 -2.98881,-2.98881 0,-1.6507 1.33812,-2.98882 2.98881,-2.98882 1.65068,0 2.98882,1.33812 2.98882,2.98882 z"
       style="fill:#000000;fill-opacity:1;fill-rule:nonzero;stroke:none"
       transform="matrix(1.3333333,0,0,-1.3333333,128.548,143.72933)" />
    <path
       id="path5"
       d="m 50.6111,61.22903 c 0,1.6507 -1.33812,2.98882 -2.98882,2.98882 -1.65068,0 -2.98881,-1.33812 -2.98881,-2.98882 0,-1.65069 1.33813,-2.98881 2.98881,-2.98881 1.6507,0 2.98882,1.33812 2.98882,2.98881 z"
       style="fill:#000000;fill-opacity:1;fill-rule:nonzero;stroke:none"
       transform="matrix(1.3333333,0,0,-1.3333333,128.548,143.72933)" />
    <path
       id="path6"
       d="m 77.82408,10.20491 c 0,1.65069 -1.33812,2.98882 -2.98881,2.98882 -1.65068,0 -2.98882,-1.33813 -2.98882,-2.98882 0,-1.6507 1.33814,-2.98881 2.98882,-2.98881 1.65069,0 2.98881,1.33811 2.98881,2.98881 z"
       style="fill:#000000;fill-opacity:1;fill-rule:nonzero;stroke:none"
       transform="matrix(1.3333333,0,0,-1.3333333,128.548,143.72933)" />
    <path
       id="path7"
       d="m 54.01292,-40.81917 c 0,1.65068 -1.33812,2.98882 -2.98881,2.98882 -1.6507,0 -2.98881,-1.33814 -2.98881,-2.98882 0,-1.65069 1.33811,-2.98881 2.98881,-2.98881 1.65069,0 2.98881,1.33812 2.98881,2.98881 z"
       style="fill:#000000;fill-opacity:1;fill-rule:nonzero;stroke:none"
       transform="matrix(1.3333333,0,0,-1.3333333,128.548,143.72933)" />
    <path
       id="path8"
       d="m -27.62543,13.6062 c 0,1.6507 -1.33812,2.98882 -2.98881,2.98882 -1.65068,0 -2.98882,-1.33812 -2.98882,-2.98882 0,-1.6507 1.33814,-2.98881 2.98882,-2.98881 1.65069,0 2.98881,1.33811 2.98881,2.98881 z"
       style="fill:#000000;fill-opacity:1;fill-rule:nonzero;stroke:none"
       transform="matrix(1.3333333,0,0,-1.3333333,128.548,143.72933)" />
    <path
       id="path9"
       d="m 6.39061,30.61424 c 0,1.65068 -1.33812,2.98882 -2.98881,2.98882 -1.65069,0 -2.98882,-1.33814 -2.98882,-2.98882 0,-1.65069 1.33813,-2.98881 2.98882,-2.98881 1.65069,0 2.98881,1.33812 2.98881,2.98881 z"
       style="fill:#000000;fill-opacity:1;fill-rule:nonzero;stroke:none"
       transform="matrix(1.3333333,0,0,-1.3333333,128.548,143.72933)" />
    <path
       id="path10"
       d="m 33.60306,6.80309 c 0,1.65069 -1.33814,2.98881 -2.98882,2.98881 -1.65069,0 -2.98881,-1.33812 -2.98881,-2.98881 0,-1.65069 1.33812,-2.98882 2.98881,-2.98882 1.65068,0 2.98882,1.33813 2.98882,2.98882 z"
       style="fill:#000000;fill-opacity:1;fill-rule:nonzero;stroke:none"
       transform="matrix(1.3333333,0,0,-1.3333333,128.548,143.72933)" />
    <path
       id="path11"
       d="m -10.61739,-13.6062 c 0,1.6507 -1.33811,2.98881 -2.98881,2.98881 -1.6507,0 -2.98882,-1.33811 -2.98882,-2.98881 0,-1.6507 1.33812,-2.98882 2.98882,-2.98882 1.6507,0 2.98881,1.33812 2.98881,2.98882 z"
       style="fill:#000000;fill-opacity:1;fill-rule:nonzero;stroke:none"
       transform="matrix(1.3333333,0,0,-1.3333333,128.548,143.72933)" />
    <path
       id="path12"
       d="m 30.20177,-20.40984 c 0,1.6507 -1.33814,2.98882 -2.98882,2.98882 -1.65069,0 -2.98881,-1.33812 -2.98881,-2.98882 0,-1.65069 1.33812,-2.98881 2.98881,-2.98881 1.65068,0 2.98882,1.33812 2.98882,2.98881 z"
       style="fill:#000000;fill-opacity:1;fill-rule:nonzero;stroke:none"
       transform="matrix(1.3333333,0,0,-1.3333333,128.548,143.72933)" />
    <path
       id="path13"
       d="M 9.1514219,-3.6682812 H 8.8350156 C 8.4951719,-1.43 8.1436094,-0.41046875 5.7178281,-0.41046875 H 3.7725156 c -0.6328125,0 -0.65625,-0.10546875 -0.65625,-0.57421875 v -3.8789062 h 1.3007813 c 1.3710937,0 1.5351562,0.4453125 1.5351562,1.6757812 H 6.2686094 V -6.96125 H 5.9522031 c 0,1.2421875 -0.1640625,1.6875 -1.5351562,1.6875 H 3.1162656 v -3.5039062 c 0,-0.46875 0.023437,-0.5742188 0.65625,-0.5742188 h 1.9101563 c 2.109375,0 2.5546875,0.7148438 2.765625,2.7773438 h 0.3164062 l -0.375,-3.1992188 H 0.58501563 v 0.421875 h 0.29296875 c 1.03125002,0 1.06640622,0.140625 1.06640622,0.6679688 v 7.59375 c 0,0.5273437 -0.035156,0.67968745 -1.06640622,0.67968745 H 0.58501563 V -3.125e-4 H 8.5772031 Z m 7.8808591,3.6679687 v -0.41015625 c -0.714843,0 -1.078125,0 -1.089843,-0.43359375 v -2.6367187 c 0,-1.3359375 0,-1.7460938 -0.328125,-2.203125 -0.421875,-0.5507813 -1.089844,-0.6445313 -1.582032,-0.6445313 -1.394531,0 -1.933593,1.1953125 -2.050781,1.4765625 h -0.01172 v -1.4765625 l -1.95703,0.1640625 v 0.4101563 c 0.972656,0 1.089844,0.1054687 1.089844,0.8085937 v 3.8789063 c 0,0.65624995 -0.152344,0.65624995 -1.089844,0.65624995 V -3.125e-4 c 0.375,-0.0234375 1.148438,-0.0234375 1.546875,-0.0234375 0.421875,0 1.195313,0 1.570313,0.0234375 v -0.41015625 c -0.925782,0 -1.089844,0 -1.089844,-0.65624995 V -3.726875 c 0,-1.5117187 0.984375,-2.3085937 1.875,-2.3085937 0.890625,0 1.089844,0.7265625 1.089844,1.6054687 v 3.3632813 c 0,0.65624995 -0.152344,0.65624995 -1.089844,0.65624995 V -3.125e-4 c 0.375,-0.0234375 1.148437,-0.0234375 1.546875,-0.0234375 0.421875,0 1.195312,0 1.570312,0.0234375 z m 7.086914,-5.765625 v -0.421875 c -0.421875,0.035156 -0.621093,0.035156 -1.066406,0.035156 l -1.171875,-0.035156 v 0.421875 c 0.597656,0.023437 0.667969,0.4570313 0.667969,0.6210938 0,0.1289062 -0.02344,0.1992187 -0.09375,0.3632812 l -1.464844,3.703125 -1.605469,-4.0429687 c -0.07031,-0.1992188 -0.09375,-0.1992188 -0.09375,-0.2695313 0,-0.375 0.550782,-0.375 0.808594,-0.375 v -0.421875 c -0.363281,0.035156 -1.101562,0.035156 -1.488281,0.035156 l -1.382813,-0.035156 v 0.421875 c 0.808594,0 0.949219,0.058594 1.125,0.5039063 l 2.050782,5.13281245 C 20.474664,0.07 20.498102,0.1403125 20.673883,0.1403125 c 0.09375,0 0.1875,-0.0234375 0.28125,-0.26953125 l 1.863281,-4.68749995 c 0.128906,-0.3164063 0.375,-0.9375 1.300781,-0.9492188 z m 6.46875,2.6953125 c 0,-1.8515625 -1.40625,-3.328125 -3.070312,-3.328125 -1.722656,0 -3.082031,1.5234375 -3.082031,3.328125 0,1.8398438 1.429687,3.2109375 3.070312,3.2109375 1.6875,0 3.082031,-1.40625 3.082031,-3.2109375 z m -1.089843,-0.1289062 c 0,0.5039062 0,1.3945312 -0.375,2.0625 -0.398438,0.6914062 -1.066407,0.96093745 -1.605469,0.96093745 -0.527344,0 -1.171875,-0.22265625 -1.59375,-0.92578125 -0.386719,-0.6445312 -0.398438,-1.5 -0.398438,-2.0976562 0,-0.5390625 0,-1.4179688 0.445313,-2.0625 0.398437,-0.6210938 1.03125,-0.84375 1.535156,-0.84375 0.550781,0 1.160156,0.2578125 1.546875,0.8085937 0.445313,0.6679688 0.445313,1.5703125 0.445313,2.0976563 z m 5.094726,3.1992187 v -0.41015625 c -0.925781,0 -1.089844,0 -1.089844,-0.65624995 v -8.8828125 l -2.003906,0.1523437 v 0.421875 c 0.984375,0 1.089844,0.09375 1.089844,0.796875 v 7.5117188 c 0,0.65624995 -0.152344,0.65624995 -1.089844,0.65624995 V -3.125e-4 C 31.909234,-0.02375 32.612359,-0.02375 33.034234,-0.02375 c 0.433594,0 1.148438,0 1.558594,0.0234375 z m 7.488281,-5.765625 v -0.421875 c -0.421875,0.035156 -0.621093,0.035156 -1.066406,0.035156 l -1.171875,-0.035156 v 0.421875 c 0.597656,0.023437 0.667969,0.4570313 0.667969,0.6210938 0,0.1289062 -0.02344,0.1992187 -0.09375,0.3632812 l -1.464844,3.703125 -1.605469,-4.0429687 c -0.07031,-0.1992188 -0.09375,-0.1992188 -0.09375,-0.2695313 0,-0.375 0.550782,-0.375 0.808594,-0.375 v -0.421875 c -0.363281,0.035156 -1.101562,0.035156 -1.488281,0.035156 l -1.382813,-0.035156 v 0.421875 c 0.808594,0 0.949219,0.058594 1.125,0.5039063 l 2.050782,5.13281245 C 38.436578,0.07 38.460016,0.1403125 38.635797,0.1403125 c 0.09375,0 0.1875,-0.0234375 0.28125,-0.26953125 l 1.863281,-4.68749995 c 0.128906,-0.3164063 0.375,-0.9375 1.300781,-0.9492188 z m 5.71875,4.0546875 c 0,-0.082031 -0.07031,-0.140625 -0.152343,-0.140625 -0.117188,0 -0.152344,0.070312 -0.175782,0.140625 -0.375,1.20703125 -1.335937,1.53515625 -1.933593,1.53515625 -0.609375,0 -2.050782,-0.3984375 -2.050782,-2.88281245 v -0.2695313 h 3.972657 c 0.316406,0 0.339843,0 0.339843,-0.2695312 0,-1.453125 -0.773437,-2.8007813 -2.507812,-2.8007813 -1.640625,0 -2.894531,1.4765625 -2.894531,3.2578125 0,1.8984375 1.464843,3.28125 3.046875,3.28125 1.710937,0 2.355468,-1.546875 2.355468,-1.8515625 z m -0.890625,-1.8867187 h -3.410156 c 0.117188,-2.25 1.371094,-2.5078125 1.78125,-2.5078125 1.535156,0 1.617188,2.015625 1.628906,2.5078125 z m 8.771485,3.5976562 v -0.41015625 c -0.714844,0 -1.078125,0 -1.089844,-0.43359375 v -2.6367187 c 0,-1.3359375 0,-1.7460938 -0.328125,-2.203125 -0.421875,-0.5507813 -1.089844,-0.6445313 -1.582031,-0.6445313 -1.394531,0 -1.933594,1.1953125 -2.050781,1.4765625 h -0.01172 v -1.4765625 l -1.957031,0.1640625 v 0.4101563 c 0.972656,0 1.089843,0.1054687 1.089843,0.8085937 v 3.8789063 c 0,0.65624995 -0.152343,0.65624995 -1.089843,0.65624995 V -3.125e-4 c 0.375,-0.0234375 1.148437,-0.0234375 1.546875,-0.0234375 0.421875,0 1.195312,0 1.570312,0.0234375 v -0.41015625 c -0.925781,0 -1.089844,0 -1.089844,-0.65624995 V -3.726875 c 0,-1.5117187 0.984375,-2.3085937 1.875,-2.3085937 0.890625,0 1.089844,0.7265625 1.089844,1.6054687 v 3.3632813 c 0,0.65624995 -0.152344,0.65624995 -1.089844,0.65624995 V -3.125e-4 c 0.375,-0.0234375 1.148438,-0.0234375 1.546875,-0.0234375 0.421875,0 1.195313,0 1.570314,0.0234375 z m 4.614258,-1.78125 V -2.601875 H 59.97857 V -1.805 c 0,1.03125 -0.410156,1.62890625 -0.972656,1.62890625 -0.972656,0 -0.972656,-1.33593745 -0.972656,-1.57031245 v -4.0195313 h 2.015625 v -0.421875 h -2.015625 v -2.6367187 h -0.316406 c -0.02344,1.3476562 -0.539063,2.7304687 -1.839844,2.765625 v 0.2929687 h 1.21875 v 3.984375 c 0,1.59375 1.066406,1.921875 1.828125,1.921875 0.902344,0 1.371094,-0.890625 1.371094,-1.921875 z m 6.626953,0.070312 c 0,-0.082031 -0.07031,-0.140625 -0.152344,-0.140625 -0.117188,0 -0.152344,0.070312 -0.175781,0.140625 -0.375,1.20703125 -1.335938,1.53515625 -1.933594,1.53515625 -0.609375,0 -2.050781,-0.3984375 -2.050781,-2.88281245 V -3.328438 h 3.972656 c 0.316406,0 0.339844,0 0.339844,-0.2695312 0,-1.453125 -0.773438,-2.8007813 -2.507813,-2.8007813 -1.640625,0 -2.894531,1.4765625 -2.894531,3.2578125 0,1.8984375 1.464844,3.28125 3.046875,3.28125 1.710937,0 2.355469,-1.546875 2.355469,-1.8515625 z m -0.890625,-1.8867187 h -3.410157 c 0.117188,-2.25 1.371094,-2.5078125 1.78125,-2.5078125 1.535157,0 1.617188,2.015625 1.628907,2.5078125 z M 77.814508,-1.71125 c 0,-0.1289062 -0.105469,-0.1289062 -0.140625,-0.1289062 -0.128906,0 -0.152344,0.046875 -0.1875,0.2226562 -0.316406,1.01953125 -1.089844,1.44140625 -1.863281,1.44140625 -0.878907,0 -2.039063,-0.76171875 -2.039063,-2.94140625 0,-2.3789062 1.21875,-2.9648437 1.933594,-2.9648437 0.550781,0 1.335937,0.2109375 1.664062,0.7734375 -0.175781,0 -0.703125,0 -0.703125,0.5859375 0,0.3515625 0.246094,0.5859375 0.585938,0.5859375 0.328125,0 0.609375,-0.1992188 0.609375,-0.609375 0,-0.9609375 -1.007813,-1.6523438 -2.167969,-1.6523438 -1.675781,0 -3.011719,1.4882813 -3.011719,3.3046875 0,1.828125 1.371094,3.234375 3,3.234375 1.886719,0 2.320313,-1.7226562 2.320313,-1.8515625 z m 7.016601,-1.359375 c 0,-1.8515625 -1.40625,-3.328125 -3.070312,-3.328125 -1.722656,0 -3.082031,1.5234375 -3.082031,3.328125 0,1.8398438 1.429687,3.2109375 3.070312,3.2109375 1.6875,0 3.082031,-1.40625 3.082031,-3.2109375 z m -1.089843,-0.1289062 c 0,0.5039062 0,1.3945312 -0.375,2.0625 -0.398438,0.6914062 -1.066407,0.96093745 -1.605469,0.96093745 -0.527344,0 -1.171875,-0.22265625 -1.59375,-0.92578125 -0.386719,-0.6445312 -0.398438,-1.5 -0.398438,-2.0976562 0,-0.5390625 0,-1.4179688 0.445313,-2.0625 0.398437,-0.6210938 1.03125,-0.84375 1.535156,-0.84375 0.550781,0 1.160156,0.2578125 1.546875,0.8085937 0.445313,0.6679688 0.445313,1.5703125 0.445313,2.0976563 z m 9.008789,3.1992187 v -0.41015625 c -0.714844,0 -1.078125,0 -1.089844,-0.43359375 v -2.6367187 c 0,-1.3359375 0,-1.7460938 -0.328125,-2.203125 -0.421875,-0.5507813 -1.089844,-0.6445313 -1.582031,-0.6445313 -1.394532,0 -1.933594,1.1953125 -2.050782,1.4765625 h -0.01172 v -1.4765625 l -1.957032,0.1640625 v 0.4101563 c 0.972657,0 1.089844,0.1054687 1.089844,0.8085937 v 3.8789063 c 0,0.65624995 -0.152344,0.65624995 -1.089844,0.65624995 V -3.125e-4 c 0.375,-0.0234375 1.148438,-0.0234375 1.546875,-0.0234375 0.421875,0 1.195313,0 1.570313,0.0234375 v -0.41015625 c -0.925781,0 -1.089844,0 -1.089844,-0.65624995 V -3.726875 c 0,-1.5117187 0.984375,-2.3085937 1.875,-2.3085937 0.890625,0 1.089844,0.7265625 1.089844,1.6054687 v 3.3632813 c 0,0.65624995 -0.152344,0.65624995 -1.089844,0.65624995 V -3.125e-4 c 0.375,-0.0234375 1.148438,-0.0234375 1.546875,-0.0234375 0.421875,0 1.195313,0 1.570313,0.0234375 z m 7.104492,-5.765625 v -0.421875 c -0.421875,0.035156 -0.621094,0.035156 -1.066406,0.035156 l -1.171875,-0.035156 v 0.421875 c 0.597656,0.023437 0.667968,0.4570313 0.667968,0.6210938 0,0.1289062 -0.02344,0.1992187 -0.09375,0.3632812 l -1.464843,3.703125 -1.605469,-4.0429687 c -0.07031,-0.1992188 -0.09375,-0.1992188 -0.09375,-0.2695313 0,-0.375 0.550781,-0.375 0.808594,-0.375 v -0.421875 c -0.363282,0.035156 -1.101563,0.035156 -1.488282,0.035156 l -1.382812,-0.035156 v 0.421875 c 0.808594,0 0.949219,0.058594 1.125,0.5039063 l 2.050781,5.13281245 C 96.210016,0.07 96.233453,0.1403125 96.409234,0.1403125 c 0.09375,0 0.1875,-0.0234375 0.28125,-0.26953125 l 1.863282,-4.68749995 c 0.128906,-0.3164063 0.375,-0.9375 1.300781,-0.9492188 z m 5.715823,4.0546875 c 0,-0.082031 -0.0703,-0.140625 -0.15235,-0.140625 -0.11718,0 -0.15234,0.070312 -0.17578,0.140625 -0.375,1.20703125 -1.33594,1.53515625 -1.93359,1.53515625 -0.60938,0 -2.05078,-0.3984375 -2.05078,-2.88281245 v -0.2695313 h 3.97265 c 0.31641,0 0.33985,0 0.33985,-0.2695312 0,-1.453125 -0.77344,-2.8007813 -2.50782,-2.8007813 -1.64062,0 -2.89453,1.4765625 -2.89453,3.2578125 0,1.8984375 1.46485,3.28125 3.04688,3.28125 1.71094,0 2.35547,-1.546875 2.35547,-1.8515625 z m -0.89063,-1.8867187 h -3.41015 c 0.11718,-2.25 1.37109,-2.5078125 1.78125,-2.5078125 1.53515,0 1.61718,2.015625 1.6289,2.5078125 z m 8.54883,3.5976562 v -0.41015625 c -0.76172,0 -1.01953,-0.0351563 -1.35937,-0.4921875 l -1.875,-2.48437495 c 0.41015,-0.5390625 1.01953,-1.3125 1.28906,-1.6171875 0.58594,-0.65625 1.26562,-0.7617188 1.72265,-0.7617188 v -0.421875 c -0.62109,0.035156 -0.64453,0.035156 -1.20703,0.035156 l -1.28906,-0.035156 v 0.421875 c 0.1875,0.023437 0.41016,0.1171875 0.41016,0.4453125 0,0.2460938 -0.12891,0.3984375 -0.21094,0.515625 l -0.91406,1.1601563 -1.125,-1.4765625 c -0.0469,-0.058594 -0.12891,-0.1875 -0.12891,-0.28125 0,-0.09375 0.0703,-0.3515625 0.50391,-0.3632813 v -0.421875 c -0.36328,0.035156 -1.08985,0.035156 -1.47657,0.035156 l -1.38281,-0.035156 v 0.421875 c 0.73828,0 1.00781,0.023437 1.3125,0.4101563 l 1.67578,2.203125 c 0.0234,0.023437 0.082,0.1171875 0.082,0.1523437 0,0.046875 -1.11328,1.453125 -1.2539,1.640625 -0.63281,0.7734375 -1.26563,0.92578125 -1.88672,0.94921875 V -3.125e-4 C 106.66607,-0.02375 106.68951,-0.02375 107.3106,-0.02375 l 1.28906,0.0234375 v -0.41015625 c -0.33984,-0.046875 -0.39843,-0.26953125 -0.39843,-0.46875 0,-0.22265625 0.0937,-0.33984375 0.24609,-0.52734375 l 1.03125,-1.3359375 1.17188,1.5351563 c 0.24609,0.3164062 0.24609,0.35156245 0.24609,0.4335937 0,0.1171875 -0.11719,0.33984375 -0.50391,0.36328125 V -3.125e-4 c 0.375,-0.0234375 1.07813,-0.0234375 1.47657,-0.0234375 z m 6.96094,-1.2773437 v -0.796875 h -0.31641 v 0.796875 c 0,0.82031245 -0.33984,0.93749995 -0.53906,0.93749995 -0.55078,0 -0.55078,-0.76171875 -0.55078,-0.98437495 v -2.5078125 c 0,-0.7734375 0,-1.3476563 -0.63281,-1.9101563 -0.49219,-0.4570312 -1.14844,-0.65625 -1.76954,-0.65625 -1.18359,0 -2.08593,0.7734375 -2.08593,1.7109375 0,0.4101563 0.26953,0.609375 0.60937,0.609375 0.33985,0 0.58594,-0.234375 0.58594,-0.5859375 0,-0.5859375 -0.51563,-0.5859375 -0.73828,-0.5859375 0.32812,-0.5976562 1.01953,-0.8554687 1.59375,-0.8554687 0.65625,0 1.51172,0.5390625 1.51172,1.828125 v 0.5742187 c -2.88282,0.046875 -3.97266,1.2539063 -3.97266,2.3554688 0,1.1367187 1.3125,1.4882812 2.19141,1.4882812 0.94922,0 1.59375,-0.57421875 1.86328,-1.2539062 0.0586,0.6679687 0.5039,1.1835937 1.11328,1.1835937 0.30469,0 1.13672,-0.19921875 1.13672,-1.3476562 z m -2.33203,-0.75 c 0,1.40624995 -1.05469,1.8867187 -1.66407,1.8867187 -0.70312,0 -1.28906,-0.515625 -1.28906,-1.2070312 0,-1.8984375 2.4375,-2.0625 2.95313,-2.0976563 z m 0,0"
       style="fill:#000000;fill-opacity:1;fill-rule:nonzero;stroke:none"
       aria-label="Envolventeconvexa"
       transform="matrix(1.3333333,0,0,1.3333333,48.274667,295.40667)" />
    <path
       id="path14"
       d="m 204.09662,-34.01608 c 0,0 -34.01608,10.20495 -34.01608,10.20495 0,0 0,125.85938 0,125.85938 0,0 150.64219,0 150.64219,0 0,0 26.24134,-91.84334 26.24134,-91.84334 0,0 27.21296,-95.2451 27.21296,-95.2451 0,0 -170.08041,51.02411 -170.08041,51.02411 z"
       style="fill:#feead2;fill-opacity:1;fill-rule:nonzero;stroke:none"
       transform="matrix(1.3333333,0,0,-1.3333333,128.548,143.72933)" />
    <path
       id="path15"
       d="M 374.19669,-85.05656 171.15582,-24.14417"
       style="fill:none;stroke:#fbc98e;stroke-width:1.49442;stroke-linecap:butt;stroke-linejoin:miter;stroke-miterlimit:10;stroke-dasharray:none;stroke-opacity:1"
       transform="matrix(1.3333333,0,0,-1.3333333,128.548,143.72933)" />
    <path
       id="path16"
       d="M -2.18182,2.9091 C -2,1.81818 0,0.18181 0.54544,0 0,-0.18181 -2,-1.81818 -2.18182,-2.9091"
       style="fill:none;stroke:#fbc98e;stroke-width:1.19553;stroke-linecap:round;stroke-linejoin:round;stroke-miterlimit:10;stroke-dasharray:none;stroke-opacity:1"
       transform="matrix(-1.27704,-0.38312,-0.38312,1.27704,356.75576,175.92157)" />
    <path
       id="path17"
       d="M 374.19669,-85.05656 321.04613,100.9687"
       style="fill:none;stroke:#fbc98e;stroke-width:1.49442;stroke-linecap:butt;stroke-linejoin:miter;stroke-miterlimit:10;stroke-dasharray:none;stroke-opacity:1"
       transform="matrix(1.3333333,0,0,-1.3333333,128.548,143.72933)" />
    <path
       id="path18"
       d="M -2.18182,2.9091 C -2,1.81818 0,0.18181 0.54544,0 0,-0.18181 -2,-1.81818 -2.18182,-2.9091"
       style="fill:none;stroke:#fbc98e;stroke-width:1.19553;stroke-linecap:round;stroke-linejoin:round;stroke-miterlimit:10;stroke-dasharray:none;stroke-opacity:1"
       transform="matrix(-0.36626667,-1.2819867,-1.2819867,0.36626667,556.60951,9.1044)" />
    <path
       id="path19"
       d="m 207.08543,-34.01608 c 0,1.65069 -1.33812,2.98881 -2.98881,2.98881 -1.6507,0 -2.98882,-1.33812 -2.98882,-2.98881 0,-1.65068 1.33812,-2.98882 2.98882,-2.98882 1.65069,0 2.98881,1.33814 2.98881,2.98882 z"
       style="fill:#000000;fill-opacity:1;fill-rule:nonzero;stroke:none"
       transform="matrix(1.3333333,0,0,-1.3333333,128.548,143.72933)" />
    <path
       id="path20"
       d="m 186.67558,23.81113 c 0,1.65069 -1.33812,2.98881 -2.98881,2.98881 -1.65068,0 -2.98882,-1.33812 -2.98882,-2.98881 0,-1.6507 1.33814,-2.98882 2.98882,-2.98882 1.65069,0 2.98881,1.33812 2.98881,2.98882 z"
       style="fill:#000000;fill-opacity:1;fill-rule:nonzero;stroke:none"
       transform="matrix(1.3333333,0,0,-1.3333333,128.548,143.72933)" />
    <path
       id="path21"
       d="m 234.29842,68.03217 c 0,1.65068 -1.33812,2.98881 -2.98882,2.98881 -1.6507,0 -2.98881,-1.33813 -2.98881,-2.98881 0,-1.6507 1.33811,-2.98882 2.98881,-2.98882 1.6507,0 2.98882,1.33812 2.98882,2.98882 z"
       style="fill:#000000;fill-opacity:1;fill-rule:nonzero;stroke:none"
       transform="matrix(1.3333333,0,0,-1.3333333,128.548,143.72933)" />
    <path
       id="path22"
       d="m 322.7399,61.22903 c 0,1.6507 -1.33814,2.98882 -2.98882,2.98882 -1.65069,0 -2.98881,-1.33812 -2.98881,-2.98882 0,-1.65069 1.33812,-2.98881 2.98881,-2.98881 1.65068,0 2.98882,1.33812 2.98882,2.98881 z"
       style="fill:#000000;fill-opacity:1;fill-rule:nonzero;stroke:none"
       transform="matrix(1.3333333,0,0,-1.3333333,128.548,143.72933)" />
    <path
       id="path23"
       d="m 349.95288,10.20491 c 0,1.65069 -1.33812,2.98882 -2.98881,2.98882 -1.6507,0 -2.98882,-1.33813 -2.98882,-2.98882 0,-1.6507 1.33812,-2.98881 2.98882,-2.98881 1.65069,0 2.98881,1.33811 2.98881,2.98881 z"
       style="fill:#000000;fill-opacity:1;fill-rule:nonzero;stroke:none"
       transform="matrix(1.3333333,0,0,-1.3333333,128.548,143.72933)" />
    <path
       id="path24"
       d="m 326.14172,-40.81917 c 0,1.65068 -1.33813,2.98882 -2.98881,2.98882 -1.6507,0 -2.98881,-1.33814 -2.98881,-2.98882 0,-1.65069 1.33811,-2.98881 2.98881,-2.98881 1.65068,0 2.98881,1.33812 2.98881,2.98881 z"
       style="fill:#000000;fill-opacity:1;fill-rule:nonzero;stroke:none"
       transform="matrix(1.3333333,0,0,-1.3333333,128.548,143.72933)" />
    <path
       id="path25"
       d="m 244.50336,13.6062 c 0,1.6507 -1.33814,2.98882 -2.98882,2.98882 -1.65069,0 -2.98881,-1.33812 -2.98881,-2.98882 0,-1.6507 1.33812,-2.98881 2.98881,-2.98881 1.65068,0 2.98882,1.33811 2.98882,2.98881 z"
       style="fill:#000000;fill-opacity:1;fill-rule:nonzero;stroke:none"
       transform="matrix(1.3333333,0,0,-1.3333333,128.548,143.72933)" />
    <path
       id="path26"
       d="m 278.51941,30.61424 c 0,1.65068 -1.33812,2.98882 -2.98881,2.98882 -1.6507,0 -2.98882,-1.33814 -2.98882,-2.98882 0,-1.65069 1.33812,-2.98881 2.98882,-2.98881 1.65069,0 2.98881,1.33812 2.98881,2.98881 z"
       style="fill:#000000;fill-opacity:1;fill-rule:nonzero;stroke:none"
       transform="matrix(1.3333333,0,0,-1.3333333,128.548,143.72933)" />
    <path
       id="path27"
       d="m 305.73184,6.80309 c 0,1.65069 -1.33812,2.98881 -2.98881,2.98881 -1.6507,0 -2.98882,-1.33812 -2.98882,-2.98881 0,-1.65069 1.33812,-2.98882 2.98882,-2.98882 1.65069,0 2.98881,1.33813 2.98881,2.98882 z"
       style="fill:#000000;fill-opacity:1;fill-rule:nonzero;stroke:none"
       transform="matrix(1.3333333,0,0,-1.3333333,128.548,143.72933)" />
    <path
       id="path28"
       d="m 261.51138,-13.6062 c 0,1.6507 -1.33812,2.98881 -2.98881,2.98881 -1.65068,0 -2.98882,-1.33811 -2.98882,-2.98881 0,-1.6507 1.33814,-2.98882 2.98882,-2.98882 1.65069,0 2.98881,1.33812 2.98881,2.98882 z"
       style="fill:#000000;fill-opacity:1;fill-rule:nonzero;stroke:none"
       transform="matrix(1.3333333,0,0,-1.3333333,128.548,143.72933)" />
    <path
       id="path29"
       d="m 302.33055,-20.40984 c 0,1.6507 -1.33812,2.98882 -2.98881,2.98882 -1.6507,0 -2.98882,-1.33812 -2.98882,-2.98882 0,-1.65069 1.33812,-2.98881 2.98882,-2.98881 1.65069,0 2.98881,1.33812 2.98881,2.98881 z"
       style="fill:#000000;fill-opacity:1;fill-rule:nonzero;stroke:none"
       transform="matrix(1.3333333,0,0,-1.3333333,128.548,143.72933)" />
    <path
       id="path30"
       d="m 377.76363,-85.04019 c 0,1.98083 -1.60576,3.58658 -3.5866,3.58658 -1.98083,0 -3.58658,-1.60575 -3.58658,-3.58658 0,-1.98084 1.60575,-3.5866 3.58658,-3.5866 1.98084,0 3.5866,1.60576 3.5866,3.5866 z"
       style="fill:#606060;fill-opacity:1;fill-rule:nonzero;stroke:none"
       transform="matrix(1.3333333,0,0,-1.3333333,128.548,143.72933)" />
    <path
       id="path31"
       d="m 6.1761797,-3.8090703 c 0,-1.1484375 0,-4.03125 -2.8125,-4.03125 -2.83593751,0 -2.83593751,2.8710937 -2.83593751,4.03125 0,1.1484375 0,3.94921874 2.82421871,3.94921874 2.8125,0 2.8242188,-2.76562504 2.8242188,-3.94921874 z m -2.8125,3.56249999 c -0.3867188,0 -0.6679688,-0.1640625 -0.9140625,-0.41015625 -0.2929688,-0.3046875 -0.4921875,-0.49218754 -0.4921875,-3.30468754 0,-0.8320312 0,-1.59375 0.09375,-2.2148437 0.1757812,-1.1835938 1.03125,-1.265625 1.3007812,-1.265625 0.375,0 1.1132813,0.1757812 1.2890625,1.1835937 0.1054688,0.609375 0.1054688,1.5703125 0.1054688,2.296875 0,2.8242188 -0.1757813,2.98828129 -0.5390625,3.35156254 -0.234375,0.234375 -0.5625,0.36328125 -0.84375,0.36328125 z m 0,0"
       style="fill:#000000;fill-opacity:1;fill-rule:nonzero;stroke:none"
       aria-label="0"
       transform="matrix(1.3333333,0,0,1.3333333,632.144,272.08267)" />
    <path
       id="path32"
       d="M 9.1533828,-3.6687734 H 8.8369766 C 8.4971328,-1.4304922 8.1455703,-0.41096094 5.7197891,-0.41096094 H 3.7744766 c -0.6328125,0 -0.65625,-0.10546875 -0.65625,-0.57421875 V -4.8640859 h 1.3007812 c 1.3710938,0 1.5351563,0.4453125 1.5351563,1.6757812 H 6.2705703 V -6.9617422 H 5.9541641 c 0,1.2421875 -0.1640625,1.6875 -1.5351563,1.6875 H 3.1182266 v -3.5039062 c 0,-0.46875 0.023437,-0.5742188 0.65625,-0.5742188 h 1.9101562 c 2.109375,0 2.5546875,0.7148438 2.765625,2.7773438 h 0.3164063 l -0.375,-3.1992188 H 0.58697656 v 0.421875 h 0.29296875 c 1.03124999,0 1.06640629,0.140625 1.06640629,0.6679688 v 7.59375 c 0,0.52734371 -0.035156,0.67968746 -1.06640629,0.67968746 H 0.58697656 V -8.046875e-4 H 8.5791641 Z M 17.031313,-8.046875e-4 V -0.41096094 c -0.714844,0 -1.078125,0 -1.089844,-0.43359375 V -3.4812734 c 0,-1.3359375 0,-1.7460938 -0.328125,-2.203125 -0.421875,-0.5507813 -1.089844,-0.6445313 -1.582031,-0.6445313 -1.394532,0 -1.933594,1.1953125 -2.050782,1.4765625 h -0.01172 v -1.4765625 l -1.957032,0.1640625 v 0.4101563 c 0.972657,0 1.089844,0.1054687 1.089844,0.8085937 v 3.8789063 c 0,0.65624996 -0.152344,0.65624996 -1.089844,0.65624996 v 0.4101562525 c 0.375,-0.0234375025 1.148438,-0.0234375025 1.546875,-0.0234375025 0.421875,0 1.195313,0 1.570313,0.0234375025 V -0.41096094 c -0.925781,0 -1.089844,0 -1.089844,-0.65624996 v -2.6601563 c 0,-1.5117187 0.984375,-2.3085937 1.875,-2.3085937 0.890625,0 1.089844,0.7265625 1.089844,1.6054687 v 3.3632813 c 0,0.65624996 -0.152344,0.65624996 -1.089844,0.65624996 V -8.046875e-4 C 14.289125,-0.02424219 15.062563,-0.02424219 15.461,-0.02424219 c 0.421875,0 1.195313,0 1.570313,0.0234375025 z M 24.121156,-5.7664297 v -0.421875 c -0.421875,0.035156 -0.621093,0.035156 -1.066406,0.035156 l -1.171875,-0.035156 v 0.421875 c 0.597656,0.023437 0.667969,0.4570313 0.667969,0.6210938 0,0.1289062 -0.02344,0.1992187 -0.09375,0.3632812 l -1.464844,3.703125 -1.605469,-4.0429687 c -0.07031,-0.1992188 -0.09375,-0.1992188 -0.09375,-0.2695313 0,-0.375 0.550782,-0.375 0.808594,-0.375 v -0.421875 c -0.363281,0.035156 -1.101562,0.035156 -1.488281,0.035156 l -1.382813,-0.035156 v 0.421875 c 0.808594,0 0.949219,0.058594 1.125,0.5039063 l 2.050782,5.13281246 c 0.07031,0.19921875 0.09375,0.26953125 0.269531,0.26953125 0.09375,0 0.1875,-0.0234375 0.28125,-0.26953125 l 1.863281,-4.68749996 c 0.128906,-0.3164063 0.375,-0.9375 1.300781,-0.9492188 z m 6.465821,2.6953125 c 0,-1.8515625 -1.40625,-3.328125 -3.070313,-3.328125 -1.722656,0 -3.082031,1.5234375 -3.082031,3.328125 0,1.8398438 1.429687,3.21093751 3.070312,3.21093751 1.6875,0 3.082032,-1.40625001 3.082032,-3.21093751 z m -1.089844,-0.1289062 c 0,0.5039062 0,1.3945312 -0.375,2.0625 -0.398438,0.69140621 -1.066406,0.96093746 -1.605469,0.96093746 -0.527344,0 -1.171875,-0.22265625 -1.59375,-0.92578126 -0.386719,-0.6445312 -0.398437,-1.5 -0.398437,-2.0976562 0,-0.5390625 0,-1.4179688 0.445312,-2.0625 0.398438,-0.6210938 1.03125,-0.84375 1.535156,-0.84375 0.550782,0 1.160157,0.2578125 1.546875,0.8085937 0.445313,0.6679688 0.445313,1.5703125 0.445313,2.0976563 z m 5.097656,3.1992187125 V -0.41096094 c -0.925781,0 -1.089844,0 -1.089844,-0.65624996 v -8.8828125 l -2.003906,0.1523437 v 0.421875 c 0.984375,0 1.089844,0.09375 1.089844,0.796875 v 7.5117188 c 0,0.65624996 -0.152344,0.65624996 -1.089844,0.65624996 V -8.046875e-4 C 31.911195,-0.02424219 32.61432,-0.02424219 33.036195,-0.02424219 c 0.433594,0 1.148438,0 1.558594,0.0234375025 z M 42.080141,-5.7664297 v -0.421875 c -0.421875,0.035156 -0.621094,0.035156 -1.066407,0.035156 l -1.171875,-0.035156 v 0.421875 c 0.597657,0.023437 0.667969,0.4570313 0.667969,0.6210938 0,0.1289062 -0.02344,0.1992187 -0.09375,0.3632812 l -1.464844,3.703125 -1.605468,-4.0429687 c -0.07031,-0.1992188 -0.09375,-0.1992188 -0.09375,-0.2695313 0,-0.375 0.550781,-0.375 0.808593,-0.375 v -0.421875 c -0.363281,0.035156 -1.101562,0.035156 -1.488281,0.035156 l -1.382812,-0.035156 v 0.421875 c 0.808593,0 0.949218,0.058594 1.125,0.5039063 l 2.050781,5.13281246 c 0.07031,0.19921875 0.09375,0.26953125 0.269531,0.26953125 0.09375,0 0.1875,-0.0234375 0.28125,-0.26953125 l 1.863281,-4.68749996 c 0.128907,-0.3164063 0.375,-0.9375 1.300782,-0.9492188 z m 5.71875,4.0546875 c 0,-0.082031 -0.07031,-0.140625 -0.152344,-0.140625 -0.117188,0 -0.152344,0.070312 -0.175781,0.140625 -0.375,1.20703126 -1.335938,1.53515626 -1.933594,1.53515626 -0.609375,0 -2.050781,-0.3984375 -2.050781,-2.88281246 v -0.2695313 h 3.972656 c 0.316406,0 0.339844,0 0.339844,-0.2695312 0,-1.453125 -0.773438,-2.8007813 -2.507813,-2.8007813 -1.640625,0 -2.894531,1.4765625 -2.894531,3.2578125 0,1.8984375 1.464844,3.28125001 3.046875,3.28125001 1.710937,0 2.355469,-1.54687501 2.355469,-1.85156251 z m -0.890625,-1.8867187 h -3.410157 c 0.117188,-2.25 1.371094,-2.5078125 1.78125,-2.5078125 1.535157,0 1.617188,2.015625 1.628907,2.5078125 z M 55.67975,-8.046875e-4 V -0.41096094 c -0.714844,0 -1.078125,0 -1.089844,-0.43359375 V -3.4812734 c 0,-1.3359375 0,-1.7460938 -0.328125,-2.203125 -0.421875,-0.5507813 -1.089843,-0.6445313 -1.582031,-0.6445313 -1.394531,0 -1.933594,1.1953125 -2.050781,1.4765625 h -0.01172 v -1.4765625 l -1.957031,0.1640625 v 0.4101563 c 0.972656,0 1.089844,0.1054687 1.089844,0.8085937 v 3.8789063 c 0,0.65624996 -0.152344,0.65624996 -1.089844,0.65624996 v 0.4101562525 c 0.375,-0.0234375025 1.148437,-0.0234375025 1.546875,-0.0234375025 0.421875,0 1.195312,0 1.570312,0.0234375025 V -0.41096094 c -0.925781,0 -1.089843,0 -1.089843,-0.65624996 v -2.6601563 c 0,-1.5117187 0.984375,-2.3085937 1.875,-2.3085937 0.890625,0 1.089843,0.7265625 1.089843,1.6054687 v 3.3632813 c 0,0.65624996 -0.152343,0.65624996 -1.089843,0.65624996 V -8.046875e-4 C 52.937563,-0.02424219 53.711,-0.02424219 54.109438,-0.02424219 c 0.421875,0 1.195312,0 1.570312,0.0234375025 z M 60.296938,-1.7820547 v -0.8203125 h -0.316407 v 0.796875 c 0,1.03125001 -0.410156,1.62890626 -0.972656,1.62890626 -0.972656,0 -0.972656,-1.33593746 -0.972656,-1.57031246 v -4.0195313 h 2.015625 v -0.421875 h -2.015625 v -2.6367187 h -0.316406 c -0.02344,1.3476562 -0.539063,2.7304687 -1.839844,2.765625 v 0.2929687 h 1.21875 v 3.984375 c 0,1.59375001 1.066406,1.92187501 1.828125,1.92187501 0.902344,0 1.371094,-0.890625 1.371094,-1.92187501 z m 6.624023,0.070312 c 0,-0.082031 -0.07031,-0.140625 -0.152344,-0.140625 -0.117187,0 -0.152344,0.070312 -0.175781,0.140625 -0.375,1.20703126 -1.335938,1.53515626 -1.933594,1.53515626 -0.609375,0 -2.050781,-0.3984375 -2.050781,-2.88281246 v -0.2695313 h 3.972656 c 0.316406,0 0.339844,0 0.339844,-0.2695312 0,-1.453125 -0.773438,-2.8007813 -2.507813,-2.8007813 -1.640625,0 -2.894531,1.4765625 -2.894531,3.2578125 0,1.8984375 1.464844,3.28125001 3.046875,3.28125001 1.710938,0 2.355469,-1.54687501 2.355469,-1.85156251 z M 66.030336,-3.5984609 H 62.62018 c 0.117187,-2.25 1.371093,-2.5078125 1.78125,-2.5078125 1.535156,0 1.617187,2.015625 1.628906,2.5078125 z m 11.783203,1.8867187 c 0,-0.1289062 -0.105469,-0.1289062 -0.140625,-0.1289062 -0.128906,0 -0.152344,0.046875 -0.1875,0.2226562 -0.316406,1.01953126 -1.089844,1.44140626 -1.863281,1.44140626 -0.878906,0 -2.039063,-0.76171875 -2.039063,-2.94140626 0,-2.3789062 1.21875,-2.9648437 1.933594,-2.9648437 0.550781,0 1.335938,0.2109375 1.664063,0.7734375 -0.175782,0 -0.703125,0 -0.703125,0.5859375 0,0.3515625 0.246093,0.5859375 0.585937,0.5859375 0.328125,0 0.609375,-0.1992188 0.609375,-0.609375 0,-0.9609375 -1.007812,-1.6523438 -2.167969,-1.6523438 -1.675781,0 -3.011718,1.4882813 -3.011718,3.3046875 0,1.828125 1.371093,3.23437501 3,3.23437501 1.886718,0 2.320312,-1.72265621 2.320312,-1.85156251 z m 7.016602,-1.359375 c 0,-1.8515625 -1.40625,-3.328125 -3.070313,-3.328125 -1.722656,0 -3.082031,1.5234375 -3.082031,3.328125 0,1.8398438 1.429687,3.21093751 3.070312,3.21093751 1.6875,0 3.082032,-1.40625001 3.082032,-3.21093751 z m -1.089844,-0.1289062 c 0,0.5039062 0,1.3945312 -0.375,2.0625 -0.398438,0.69140621 -1.066406,0.96093746 -1.605469,0.96093746 -0.527344,0 -1.171875,-0.22265625 -1.59375,-0.92578126 -0.386719,-0.6445312 -0.398437,-1.5 -0.398437,-2.0976562 0,-0.5390625 0,-1.4179688 0.445312,-2.0625 0.398438,-0.6210938 1.03125,-0.84375 1.535156,-0.84375 0.550782,0 1.160157,0.2578125 1.546875,0.8085937 0.445313,0.6679688 0.445313,1.5703125 0.445313,2.0976563 z m -0.257813,-6.328125 c 0,-0.2578125 -0.246093,-0.46875 -0.492187,-0.46875 -0.199219,0 -0.28125,0.09375 -0.398438,0.2578125 l -1.710937,2.1796875 c 0.07031,0.082031 0.140625,0.1523437 0.234375,0.234375 l 2.132812,-1.78125 c 0.234375,-0.1875 0.234375,-0.3515625 0.234375,-0.421875 z m 9.266602,9.5273437125 V -0.41096094 c -0.714844,0 -1.078125,0 -1.089844,-0.43359375 V -3.4812734 c 0,-1.3359375 0,-1.7460938 -0.328125,-2.203125 -0.421875,-0.5507813 -1.089844,-0.6445313 -1.582031,-0.6445313 -1.394531,0 -1.933594,1.1953125 -2.050781,1.4765625 h -0.01172 v -1.4765625 l -1.957031,0.1640625 v 0.4101563 c 0.972656,0 1.089843,0.1054687 1.089843,0.8085937 v 3.8789063 c 0,0.65624996 -0.152343,0.65624996 -1.089843,0.65624996 v 0.4101562525 c 0.375,-0.0234375025 1.148437,-0.0234375025 1.546875,-0.0234375025 0.421875,0 1.195312,0 1.570312,0.0234375025 V -0.41096094 c -0.925781,0 -1.089844,0 -1.089844,-0.65624996 v -2.6601563 c 0,-1.5117187 0.984375,-2.3085937 1.875,-2.3085937 0.890625,0 1.089844,0.7265625 1.089844,1.6054687 v 3.3632813 c 0,0.65624996 -0.152344,0.65624996 -1.089844,0.65624996 v 0.4101562525 c 0.375,-0.0234375025 1.148438,-0.0234375025 1.546875,-0.0234375025 0.421875,0 1.195313,0 1.570314,0.0234375025 z m 3.785156,0 V -0.41096094 c -0.9375,0 -0.984375,-0.0820313 -0.984375,-0.63281246 v -5.2851563 l -1.957031,0.1640625 v 0.4101563 c 0.914062,0 1.042969,0.09375 1.042969,0.7851562 v 3.9023438 c 0,0.65624996 -0.152344,0.65624996 -1.089844,0.65624996 V -8.046875e-4 C 93.956117,-0.02424219 94.635805,-0.02424219 95.05768,-0.02424219 c 0.152343,0 0.984375,0 1.476562,0.0234375025 z M 95.725648,-8.6609609 c 0,-0.4335938 -0.339843,-0.703125 -0.679687,-0.703125 -0.410156,0 -0.703125,0.3164062 -0.703125,0.703125 0,0.375 0.316406,0.6796875 0.679687,0.6796875 0.433594,0 0.703125,-0.3398438 0.703125,-0.6796875 z m 7.078122,6.9492187 c 0,-0.1289062 -0.10547,-0.1289062 -0.14062,-0.1289062 -0.12891,0 -0.15235,0.046875 -0.1875,0.2226562 -0.31641,1.01953126 -1.08985,1.44140626 -1.86328,1.44140626 -0.878909,0 -2.039065,-0.76171875 -2.039065,-2.94140626 0,-2.3789062 1.21875,-2.9648437 1.933595,-2.9648437 0.55078,0 1.33594,0.2109375 1.66406,0.7734375 -0.17578,0 -0.70312,0 -0.70312,0.5859375 0,0.3515625 0.24609,0.5859375 0.58593,0.5859375 0.32813,0 0.60938,-0.1992188 0.60938,-0.609375 0,-0.9609375 -1.00781,-1.6523438 -2.16797,-1.6523438 -1.675782,0 -3.011719,1.4882813 -3.011719,3.3046875 0,1.828125 1.371094,3.23437501 2.999999,3.23437501 1.88672,0 2.32031,-1.72265621 2.32031,-1.85156251 z m 7.21289,0.4335938 v -0.796875 h -0.3164 v 0.796875 c 0,0.82031246 -0.33985,0.93749996 -0.53906,0.93749996 -0.55079,0 -0.55079,-0.76171876 -0.55079,-0.98437496 v -2.5078125 c 0,-0.7734375 0,-1.3476563 -0.63281,-1.9101563 -0.49219,-0.4570312 -1.14844,-0.65625 -1.76953,-0.65625 -1.18359,0 -2.08594,0.7734375 -2.08594,1.7109375 0,0.4101563 0.26953,0.609375 0.60938,0.609375 0.33984,0 0.58594,-0.234375 0.58594,-0.5859375 0,-0.5859375 -0.51563,-0.5859375 -0.73829,-0.5859375 0.32813,-0.5976562 1.01954,-0.8554687 1.59375,-0.8554687 0.65625,0 1.51172,0.5390625 1.51172,1.828125 v 0.5742187 c -2.88281,0.046875 -3.97265,1.2539063 -3.97265,2.3554688 0,1.13671871 1.3125,1.48828121 2.1914,1.48828121 0.94922,0 1.59375,-0.57421875 1.86328,-1.25390621 0.0586,0.66796871 0.50391,1.18359371 1.11329,1.18359371 0.30468,0 1.13671,-0.19921875 1.13671,-1.34765621 z m -2.33203,-0.75 c 0,1.40624996 -1.05468,1.88671871 -1.66406,1.88671871 -0.70312,0 -1.28906,-0.515625 -1.28906,-1.20703121 0,-1.8984375 2.4375,-2.0625 2.95312,-2.0976563 z m 0,0"
       style="fill:#000000;fill-opacity:1;fill-rule:nonzero;stroke:none"
       aria-label="Envolventecónica"
       transform="matrix(1.3333333,0,0,1.3333333,417.88533,295.43467)" />
  </g>
</svg>
