<?xml version="1.0" encoding="UTF-8" standalone="no"?>
<svg
   version="1.1"
   width="165.57927mm"
   height="135.69423mm"
   id="svg32"
   sodipodi:docname="metodo_newton.svg"
   inkscape:version="1.4.2 (f4327f4, 2025-05-13)"
   xmlns:inkscape="http://www.inkscape.org/namespaces/inkscape"
   xmlns:sodipodi="http://sodipodi.sourceforge.net/DTD/sodipodi-0.dtd"
   xmlns="http://www.w3.org/2000/svg"
   xmlns:svg="http://www.w3.org/2000/svg">
  <sodipodi:namedview
     id="namedview32"
     pagecolor="#ffffff"
     bordercolor="#000000"
     borderopacity="0.25"
     inkscape:showpageshadow="2"
     inkscape:pageopacity="0.0"
     inkscape:pagecheckerboard="0"
     inkscape:deskcolor="#d1d1d1"
     inkscape:zoom="0.65514945"
     inkscape:cx="306.03704"
     inkscape:cy="167.13744"
     inkscape:window-width="1920"
     inkscape:window-height="1009"
     inkscape:window-x="-8"
     inkscape:window-y="-8"
     inkscape:window-maximized="1"
     inkscape:current-layer="svg32"
     inkscape:document-units="mm" />
  <defs
     id="defs1">
    <clipPath
       id="QcFBaQRNkTJT">
      <path
         fill="none"
         stroke="none"
         d="M 0,0 H 1400 V 871 H 0 Z"
         id="path1" />
    </clipPath>
    <clipPath
       clipPathUnits="userSpaceOnUse"
       id="clipPath32">
      <rect
         style="fill:#000000"
         id="rect33"
         width="731.13086"
         height="598.33673"
         x="328.1694"
         y="203.00711" />
    </clipPath>
    <clipPath
       clipPathUnits="userSpaceOnUse"
       id="clipPath34">
      <rect
         style="fill:#000000"
         id="rect35"
         width="625.8114"
         height="512.86011"
         x="366.32864"
         y="233.5345" />
    </clipPath>
  </defs>
  <g
     clip-path="url(#clipPath34)"
     id="g32"
     transform="translate(-366.32864,-233.5345)">
    <g
       id="g31">
      <rect
         fill="#ffffff"
         stroke="none"
         x="0"
         y="0"
         width="1400"
         height="871"
         fill-opacity="1"
         id="rect1" />
      <path
         fill="none"
         stroke="#252525"
         paint-order="fill stroke markers"
         d="m 412.5,2.5 v 869"
         stroke-opacity="1"
         stroke-miterlimit="10"
         id="path2" />
      <path
         fill="none"
         stroke="#252525"
         paint-order="fill stroke markers"
         d="m 412.5,1.5 -4,4"
         stroke-opacity="1"
         stroke-miterlimit="10"
         id="path3" />
      <path
         fill="none"
         stroke="#252525"
         paint-order="fill stroke markers"
         d="m 412.5,1.5 4,4"
         stroke-opacity="1"
         stroke-miterlimit="10"
         id="path4" />
      <path
         fill="none"
         stroke="#252525"
         paint-order="fill stroke markers"
         d="m 0.5,687.5 h 1398"
         stroke-opacity="1"
         stroke-miterlimit="10"
         id="path5" />
      <path
         fill="none"
         stroke="#252525"
         paint-order="fill stroke markers"
         d="m 1399.5,687.5 -4,-4"
         stroke-opacity="1"
         stroke-miterlimit="10"
         id="path6" />
      <path
         fill="none"
         stroke="#252525"
         paint-order="fill stroke markers"
         d="m 1399.5,687.5 -4,4"
         stroke-opacity="1"
         stroke-miterlimit="10"
         id="path7" />
      <path
         fill="none"
         stroke="#003399"
         paint-order="fill stroke markers"
         d="m 251.5625,-9.4167879 2.73437,6.1855975 2.73438,6.124637 2.73437,6.0645732 2.73438,6.0053882 2.73437,5.947067 2.73438,5.889589 2.73437,5.832942 2.73438,5.777107 2.73437,5.722071 2.73438,5.667818 2.73437,5.614331 2.73438,5.5616 2.73437,5.509607 2.73438,5.458339 2.73437,5.407786 2.73438,5.357929 2.73437,5.30876 2.73438,5.260264 2.73437,5.212431 2.73438,5.165241 2.73437,5.1187 2.73438,5.07278 2.73437,5.02747 2.73438,4.98278 5.46875,9.8338 5.46875,9.66199 5.46875,9.49464 5.46875,9.33159 5.46875,9.17272 5.46875,9.01786 5.46875,8.8669 5.46875,8.71969 5.46875,8.57612 5.46875,8.43606 5.46875,8.29942 5.46875,8.16605 5.46875,8.03589 5.46875,7.90881 5.46875,7.78472 5.46875,7.66352 5.46875,7.54514 5.46875,7.42948 5.46875,7.31646 5.46875,7.20599 5.46875,7.09801 5.46875,6.99245 5.46875,6.8892 5.46875,6.78825 5.46875,6.68948 5.46875,6.59287 5.46875,6.49832 5.46875,6.4058 5.46875,6.31523 5.46875,6.22659 5.46875,6.13978 5.46875,6.05478 5.46875,5.97154 5.46875,5.89 5.46875,5.81012 5.46875,5.73185 5.46875,5.65515 5.46875,5.57999 5.46875,5.50631 5.46875,5.43408 5.46875,5.36326 5.46875,5.29382 5.46875,5.22572 5.46875,5.15893 5.46875,5.0934 5.46875,5.02912 5.46875,4.96605 5.46875,4.90415 5.46875,4.8434 5.46875,4.78379 5.46875,4.72526 5.46875,4.66779 5.46875,4.61138 5.46875,4.55597 5.46875,4.50157 5.46875,4.44812 5.46875,4.39563 5.46875,4.34406 5.46875,4.29338 5.46875,4.24361 5.46875,4.19467 5.46875,4.14659 5.46875,4.09933 5.46875,4.05286 5.46875,4.0072 5.46875,3.96228 5.46875,3.91814 5.46875,3.87471 5.46875,3.832 5.46875,3.79001 5.46875,3.74868 5.46875,3.70805 5.46875,3.66806 5.46875,3.62872 5.46875,3.59 5.46875,3.55191 5.46875,3.51442 5.46875,3.47751 5.46875,3.44119 5.46875,3.40543 5.46875,3.37022 5.46875,3.33557 5.46875,3.30143 5.46875,3.26783 5.46875,3.23473 5.46875,3.20214 5.46875,3.17002 5.46875,3.13841 5.46875,3.10724 5.46875,3.07655 5.46875,3.04632 5.46875,3.01651 5.46875,2.98715 5.46875,2.95822 5.46875,2.9297 5.46875,2.90159 5.46875,2.87389 5.46875,2.84658 5.46875,2.81965 5.46875,2.79312 5.46875,2.76695 5.46875,2.74114 5.46875,2.7157 5.46875,2.69061 5.46875,2.66586 5.46875,2.64146 5.46875,2.61739 5.46875,2.59364 5.46875,2.57022 5.46875,2.54712 5.46875,2.52432 5.46875,2.50183 5.46875,2.47963 5.46875,2.45774 5.46875,2.43613 5.46875,2.4148 5.46875,2.39375 5.46875,2.37299 5.46875,2.35248 5.46875,2.33224 5.46875,2.31226 5.46875,2.29253 5.46875,2.27307 5.46875,2.25384 5.4687,2.23486 5.4688,2.21611 5.4687,2.19761 5.4688,2.17932 5.4687,2.16128 5.4688,2.14345 5.4688,2.12584 5.4687,2.10846 5.4688,2.09127 5.4687,2.0743 5.4688,2.05754 5.4687,2.04097 5.4688,2.02462 5.4687,2.00845 5.4688,1.99247 5.4687,1.97669 5.4688,1.96109 5.4687,1.94568 5.4688,1.93045 5.4687,1.91539 5.4687,1.90051 5.4688,1.88581 5.4688,1.87128 5.4687,1.8569 5.4688,1.8427 5.4687,1.82866 5.4688,1.81478 5.4687,1.80105 5.4688,1.78749 5.4687,1.77406 5.4688,1.76081 5.4687,1.74768 5.4688,1.73472 5.4687,1.72188 5.4687,1.70921 5.4688,1.69665 5.4688,1.68425 5.4687,1.67197 5.4688,1.65984 5.4687,1.64782 5.4688,1.63595 5.4687,1.62421 5.4688,1.61257 5.4687,1.60108 5.4688,1.5897 5.4687,1.57845 5.4688,1.56731 5.4687,1.55628 5.4688,1.54539 5.4687,1.5346 5.4688,1.52392 5.4687,1.51335 5.4688,1.5029 5.4687,1.49255 5.4688,1.48231 5.4687,1.47217 5.4688,1.46214 5.4687,1.45221 5.4688,1.44238 5.4687,1.43265 5.4688,1.42302 5.4687,1.41348 5.4688,1.40404 5.4687,1.39469 5.4688,1.38545 5.4687,1.37628 5.4688,1.36721 5.4687,1.35823 5.4688,1.34934 5.4687,1.34053 5.4688,1.33181 5.4687,1.32318 5.4688,1.31463 5.4687,1.30615"
         stroke-opacity="0.698039"
         stroke-linecap="round"
         stroke-linejoin="round"
         stroke-miterlimit="10"
         stroke-width="2.5"
         id="path8" />
      <text
         fill="#003399"
         stroke="none"
         font-family="geogebra-sans-serif, sans-serif"
         font-size="16px"
         font-style="normal"
         font-weight="normal"
         text-decoration="normal"
         x="257"
         y="24"
         text-anchor="start"
         dominant-baseline="alphabetic"
         fill-opacity="1"
         id="text8">f</text>
      <path
         fill="none"
         stroke="#993300"
         paint-order="fill stroke markers"
         d="M 918.73501,876 175.35848,-5"
         stroke-opacity="0.698039"
         stroke-linecap="round"
         stroke-linejoin="round"
         stroke-miterlimit="10"
         stroke-width="1.5"
         id="path9" />
      <path
         fill="none"
         stroke="#000000"
         paint-order="fill stroke markers"
         d="m 478.762,687.3235 v -332.75"
         stroke-opacity="0.698039"
         stroke-linejoin="round"
         stroke-miterlimit="10"
         stroke-width="2"
         stroke-dasharray="2, 3"
         id="path10" />
      <path
         fill="#993300"
         stroke="none"
         paint-order="stroke fill markers"
         d="m 482.762,354.5735 c 0,2.20914 -1.79086,4 -4,4 -2.20914,0 -4,-1.79086 -4,-4 0,-2.20914 1.79086,-4 4,-4 2.20914,0 4,1.79086 4,4 z"
         fill-opacity="1"
         id="path11" />
      <path
         fill="none"
         stroke="#000000"
         paint-order="fill stroke markers"
         d="m 482.762,354.5735 c 0,2.20914 -1.79086,4 -4,4 -2.20914,0 -4,-1.79086 -4,-4 0,-2.20914 1.79086,-4 4,-4 2.20914,0 4,1.79086 4,4 z"
         stroke-opacity="1"
         stroke-linecap="round"
         stroke-linejoin="round"
         stroke-miterlimit="10"
         id="path12" />
      <path
         fill="#006633"
         stroke="none"
         paint-order="stroke fill markers"
         d="m 764.53219,687.3235 c 0,2.76142 -2.23858,5 -5,5 -2.76142,0 -5,-2.23858 -5,-5 0,-2.76142 2.23858,-5 5,-5 2.76142,0 5,2.23858 5,5 z"
         fill-opacity="1"
         id="path13" />
      <path
         fill="none"
         stroke="#000000"
         paint-order="fill stroke markers"
         d="m 764.53219,687.3235 c 0,2.76142 -2.23858,5 -5,5 -2.76142,0 -5,-2.23858 -5,-5 0,-2.76142 2.23858,-5 5,-5 2.76142,0 5,2.23858 5,5 z"
         stroke-opacity="1"
         stroke-linecap="round"
         stroke-linejoin="round"
         stroke-miterlimit="10"
         id="path14" />
      <path
         fill="#000000"
         stroke="none"
         paint-order="stroke fill markers"
         d="m 483.762,687.3235 c 0,2.76142 -2.23858,5 -5,5 -2.76142,0 -5,-2.23858 -5,-5 0,-2.76142 2.23858,-5 5,-5 2.76142,0 5,2.23858 5,5 z"
         fill-opacity="1"
         id="path15" />
      <path
         fill="none"
         stroke="#000000"
         paint-order="fill stroke markers"
         d="m 483.762,687.3235 c 0,2.76142 -2.23858,5 -5,5 -2.76142,0 -5,-2.23858 -5,-5 0,-2.76142 2.23858,-5 5,-5 2.76142,0 5,2.23858 5,5 z"
         stroke-opacity="1"
         stroke-linecap="round"
         stroke-linejoin="round"
         stroke-miterlimit="10"
         id="path16" />
      <g
         transform="scale(25)"
         id="g19">
        <g
           transform="translate(18.84,28.471)"
           id="g17">
          <path
             fill="#000000"
             stroke="none"
             paint-order="stroke fill markers"
             d="M 0.334,-0.302 0.3,-0.165 q -0.017,0.068 -0.017,0.088 0,0.052 0.037,0.063 0.008,0.003 0.018,0.003 0.05,0 0.091,-0.05 0.027,-0.032 0.042,-0.081 0.003,-0.011 0.013,-0.011 0.012,0 0.012,0.01 0,0.025 -0.031,0.072 Q 0.411,0.011 0.336,0.011 0.268,0.011 0.237,-0.046 0.231,-0.055 0.228,-0.065 0.204,-0.017 0.162,0.002 0.143,0.011 0.123,0.011 q -0.06,0 -0.084,-0.035 -0.01,-0.013 -0.01,-0.031 0,-0.037 0.032,-0.052 0.011,-0.006 0.023,-0.006 0.03,0 0.036,0.025 0.001,0.005 0.001,0.01 0,0.034 -0.034,0.05 -0.006,0.003 -0.013,0.004 0.021,0.013 0.05,0.013 0.053,0 0.084,-0.071 0.006,-0.015 0.011,-0.033 0.054,-0.204 0.054,-0.238 -0.006,-0.062 -0.054,-0.067 -0.052,0 -0.095,0.053 v 0.001 q 0,0.001 -0.001,0.001 -0.015,0.02 -0.027,0.046 -0.005,0.012 -0.009,0.024 l -0.002,0.006 q -0.002,0.011 -0.013,0.011 -0.012,0 -0.012,-0.01 0,-0.025 0.032,-0.072 0.054,-0.082 0.129,-0.082 0.077,0 0.108,0.076 0.032,-0.062 0.085,-0.074 0.01,-0.002 0.02,-0.002 0.059,0 0.083,0.033 0.01,0.014 0.01,0.033 0,0.041 -0.037,0.055 -0.009,0.003 -0.017,0.003 -0.031,0 -0.037,-0.027 -0.001,-0.004 -0.001,-0.008 0,-0.03 0.029,-0.047 0.009,-0.005 0.019,-0.007 -0.021,-0.013 -0.05,-0.013 -0.068,0 -0.096,0.106 -0.002,0.006 -0.003,0.012 z"
             id="path17" />
        </g>
        <g
           transform="matrix(0.7,0,0,0.7,19.412,28.621)"
           id="g18">
          <path
             fill="#000000"
             stroke="none"
             paint-order="stroke fill markers"
             d="m 0.206,-0.4 -0.074,0.295 q -0.006,0.025 -0.006,0.048 0,0.046 0.031,0.046 0.066,0 0.116,-0.097 l 0.014,-0.031 q 0.006,-0.013 0.015,-0.014 0.012,0 0.012,0.01 0,0.013 -0.026,0.057 -0.058,0.097 -0.133,0.097 -0.058,0 -0.082,-0.048 -0.01,-0.02 -0.01,-0.044 0,-0.019 0.061,-0.259 L 0.139,-0.4 H 0.051 q -0.025,0 -0.027,-0.008 H 0.023 v -0.004 q 0,-0.017 0.016,-0.019 H 0.053 0.147 L 0.186,-0.59 q 0.009,-0.035 0.04,-0.036 0.026,0 0.029,0.027 0,0.006 -0.041,0.168 h 0.088 q 0.026,0 0.028,0.011 0,0.018 -0.016,0.02 H 0.313 0.3 Z"
             id="path18" />
        </g>
      </g>
      <g
         transform="scale(25)"
         id="g24">
        <g
           transform="translate(29.8,28.511)"
           id="g20">
          <path
             fill="#006633"
             stroke="none"
             paint-order="stroke fill markers"
             d="M 0.334,-0.302 0.3,-0.165 q -0.017,0.068 -0.017,0.088 0,0.052 0.037,0.063 0.008,0.003 0.018,0.003 0.05,0 0.091,-0.05 0.027,-0.032 0.042,-0.081 0.003,-0.011 0.013,-0.011 0.012,0 0.012,0.01 0,0.025 -0.031,0.072 Q 0.411,0.011 0.336,0.011 0.268,0.011 0.237,-0.046 0.231,-0.055 0.228,-0.065 0.204,-0.017 0.162,0.002 0.143,0.011 0.123,0.011 q -0.06,0 -0.084,-0.035 -0.01,-0.013 -0.01,-0.031 0,-0.037 0.032,-0.052 0.011,-0.006 0.023,-0.006 0.03,0 0.036,0.025 0.001,0.005 0.001,0.01 0,0.034 -0.034,0.05 -0.006,0.003 -0.013,0.004 0.021,0.013 0.05,0.013 0.053,0 0.084,-0.071 0.006,-0.015 0.011,-0.033 0.054,-0.204 0.054,-0.238 -0.006,-0.062 -0.054,-0.067 -0.052,0 -0.095,0.053 v 0.001 q 0,0.001 -0.001,0.001 -0.015,0.02 -0.027,0.046 -0.005,0.012 -0.009,0.024 l -0.002,0.006 q -0.002,0.011 -0.013,0.011 -0.012,0 -0.012,-0.01 0,-0.025 0.032,-0.072 0.054,-0.082 0.129,-0.082 0.077,0 0.108,0.076 0.032,-0.062 0.085,-0.074 0.01,-0.002 0.02,-0.002 0.059,0 0.083,0.033 0.01,0.014 0.01,0.033 0,0.041 -0.037,0.055 -0.009,0.003 -0.017,0.003 -0.031,0 -0.037,-0.027 -0.001,-0.004 -0.001,-0.008 0,-0.03 0.029,-0.047 0.009,-0.005 0.019,-0.007 -0.021,-0.013 -0.05,-0.013 -0.068,0 -0.096,0.106 -0.002,0.006 -0.003,0.012 z"
             id="path19" />
        </g>
        <g
           transform="matrix(0.7,0,0,0.7,30.372,28.661)"
           id="g21">
          <path
             fill="#006633"
             stroke="none"
             paint-order="stroke fill markers"
             d="m 0.206,-0.4 -0.074,0.295 q -0.006,0.025 -0.006,0.048 0,0.046 0.031,0.046 0.066,0 0.116,-0.097 l 0.014,-0.031 q 0.006,-0.013 0.015,-0.014 0.012,0 0.012,0.01 0,0.013 -0.026,0.057 -0.058,0.097 -0.133,0.097 -0.058,0 -0.082,-0.048 -0.01,-0.02 -0.01,-0.044 0,-0.019 0.061,-0.259 L 0.139,-0.4 H 0.051 q -0.025,0 -0.027,-0.008 H 0.023 v -0.004 q 0,-0.017 0.016,-0.019 H 0.053 0.147 L 0.186,-0.59 q 0.009,-0.035 0.04,-0.036 0.026,0 0.029,0.027 0,0.006 -0.041,0.168 h 0.088 q 0.026,0 0.028,0.011 0,0.018 -0.016,0.02 H 0.313 0.3 Z"
             id="path20" />
        </g>
        <g
           transform="matrix(0.7,0,0,0.7,30.6247,28.661)"
           id="g22">
          <path
             fill="#006633"
             stroke="none"
             paint-order="stroke fill markers"
             d="m 0.409,-0.23 v 0.28 q 0,0.032 -0.02,0.033 -0.02,0 -0.02,-0.033 v -0.28 h -0.28 q -0.032,0 -0.033,-0.02 0,-0.02 0.033,-0.02 h 0.28 v -0.28 q 0,-0.032 0.02,-0.033 0.02,0 0.02,0.033 v 0.28 h 0.279 q 0.032,0 0.033,0.02 0,0.02 -0.033,0.02 z"
             id="path21" />
        </g>
        <g
           transform="matrix(0.7,0,0,0.7,31.1693,28.661)"
           id="g23">
          <path
             fill="#006633"
             stroke="none"
             paint-order="stroke fill markers"
             d="m 0.294,-0.64 v 0.561 q 0,0.03 0.012,0.038 0.017,0.01 0.081,0.01 H 0.419 V 0 Q 0.384,-0.003 0.257,-0.003 0.13,-0.003 0.095,0 v -0.031 h 0.032 q 0.077,0 0.088,-0.018 L 0.216,-0.05 Q 0.22,-0.058 0.22,-0.079 v -0.518 q -0.052,0.026 -0.131,0.026 v -0.031 q 0.12,0 0.182,-0.064 0.019,0 0.022,0.007 v 0 0.001 q 0.001,0.003 0.001,0.018 z"
             id="path22" />
        </g>
      </g>
      <g
         transform="scale(25)"
         id="g30">
        <g
           transform="translate(17.52,11.722092)"
           id="g25">
          <path
             fill="#003399"
             stroke="none"
             paint-order="stroke fill markers"
             d="m 0.367,-0.4 v 0 l -0.06,0.317 Q 0.298,-0.021 0.271,0.059 0.261,0.088 0.251,0.108 0.216,0.182 0.164,0.2 0.151,0.205 0.138,0.205 0.088,0.205 0.064,0.171 0.053,0.156 0.053,0.136 q 0,-0.04 0.034,-0.055 0.01,-0.005 0.021,-0.005 0.029,0 0.036,0.025 0.001,0.005 0.001,0.01 0,0.034 -0.03,0.048 -0.011,0.005 -0.025,0.006 0.019,0.018 0.048,0.018 0.044,0 0.069,-0.098 0.005,-0.023 0.012,-0.06 L 0.225,-0.005 0.3,-0.4 H 0.234 q -0.025,0 -0.027,-0.008 H 0.206 v -0.004 q 0,-0.017 0.017,-0.019 v 0 h 0.013 0.069 q 0.024,-0.125 0.033,-0.157 0.03,-0.1 0.106,-0.115 0.011,-0.002 0.021,-0.002 0.052,0 0.076,0.034 v 0 q 0.011,0.015 0.011,0.035 0,0.04 -0.034,0.055 -0.01,0.005 -0.021,0.005 -0.029,0 -0.036,-0.025 -0.001,-0.005 -0.001,-0.01 0,-0.031 0.028,-0.046 0.011,-0.007 0.026,-0.008 -0.019,-0.018 -0.049,-0.018 -0.031,0 -0.047,0.034 -0.007,0.014 -0.024,0.104 l -0.021,0.114 h 0.083 q 0.025,0 0.027,0.011 0,0.018 -0.016,0.02 H 0.466 0.453 Z"
             id="path24" />
        </g>
        <g
           transform="matrix(0.7,0,0,0.7,18.118,11.3092)"
           id="g26">
          <path
             fill="#003399"
             stroke="none"
             paint-order="stroke fill markers"
             d="m 0.255,-0.479 -0.179,0.42 q -0.006,0.014 -0.013,0.014 -0.018,0 -0.03,-0.011 -0.004,-0.003 -0.004,-0.007 0,-0.002 0.003,-0.014 l 0.121,-0.436 q 0.013,-0.041 0.044,-0.045 0.005,-0.001 0.009,-0.001 0.034,0 0.05,0.029 0.006,0.011 0.006,0.023 0,0.013 -0.007,0.028 z"
             id="path25" />
        </g>
        <g
           transform="translate(18.330425,11.722092)"
           id="g27">
          <path
             fill="#003399"
             stroke="none"
             paint-order="stroke fill markers"
             d="m 0.331,0.24 v 0 q 0,0.01 -0.01,0.01 Q 0.309,0.25 0.268,0.209 0.206,0.147 0.165,0.062 0.099,-0.074 0.099,-0.25 q 0,-0.169 0.063,-0.305 0.052,-0.111 0.132,-0.178 0.021,-0.017 0.027,-0.017 0.01,0 0.01,0.01 0,0.005 -0.013,0.017 -0.161,0.164 -0.161,0.473 0,0.308 0.157,0.468 0.017,0.017 0.017,0.022 z"
             id="path26" />
        </g>
        <g
           transform="translate(18.719425,11.722092)"
           id="g28">
          <path
             fill="#003399"
             stroke="none"
             paint-order="stroke fill markers"
             d="M 0.334,-0.302 0.3,-0.165 q -0.017,0.068 -0.017,0.088 0,0.052 0.037,0.063 0.008,0.003 0.018,0.003 0.05,0 0.091,-0.05 0.027,-0.032 0.042,-0.081 0.003,-0.011 0.013,-0.011 0.012,0 0.012,0.01 0,0.025 -0.031,0.072 Q 0.411,0.011 0.336,0.011 0.268,0.011 0.237,-0.046 0.231,-0.055 0.228,-0.065 0.204,-0.017 0.162,0.002 0.143,0.011 0.123,0.011 q -0.06,0 -0.084,-0.035 -0.01,-0.013 -0.01,-0.031 0,-0.037 0.032,-0.052 0.011,-0.006 0.023,-0.006 0.03,0 0.036,0.025 0.001,0.005 0.001,0.01 0,0.034 -0.034,0.05 -0.006,0.003 -0.013,0.004 0.021,0.013 0.05,0.013 0.053,0 0.084,-0.071 0.006,-0.015 0.011,-0.033 0.054,-0.204 0.054,-0.238 -0.006,-0.062 -0.054,-0.067 -0.052,0 -0.095,0.053 v 0.001 q 0,0.001 -0.001,0.001 -0.015,0.02 -0.027,0.046 -0.005,0.012 -0.009,0.024 l -0.002,0.006 q -0.002,0.011 -0.013,0.011 -0.012,0 -0.012,-0.01 0,-0.025 0.032,-0.072 0.054,-0.082 0.129,-0.082 0.077,0 0.108,0.076 0.032,-0.062 0.085,-0.074 0.01,-0.002 0.02,-0.002 0.059,0 0.083,0.033 0.01,0.014 0.01,0.033 0,0.041 -0.037,0.055 -0.009,0.003 -0.017,0.003 -0.031,0 -0.037,-0.027 -0.001,-0.004 -0.001,-0.008 0,-0.03 0.029,-0.047 0.009,-0.005 0.019,-0.007 -0.021,-0.013 -0.05,-0.013 -0.068,0 -0.096,0.106 -0.002,0.006 -0.003,0.012 z"
             id="path27" />
        </g>
        <g
           transform="translate(19.291425,11.722092)"
           id="g29">
          <path
             fill="#003399"
             stroke="none"
             paint-order="stroke fill markers"
             d="m 0.289,-0.25 v 0 q 0,0.169 -0.063,0.305 Q 0.174,0.166 0.094,0.233 0.073,0.25 0.067,0.25 q -0.01,0 -0.01,-0.01 0,-0.005 0.013,-0.017 0.161,-0.164 0.161,-0.473 0,-0.305 -0.15,-0.462 L 0.076,-0.717 Q 0.057,-0.735 0.057,-0.74 q 0,-0.01 0.01,-0.01 0.012,0 0.053,0.041 0.062,0.062 0.103,0.147 0.066,0.136 0.066,0.312 z"
             id="path28" />
        </g>
      </g>
    </g>
  </g>
</svg>
